<svg width="31" height="35" viewBox="0 0 31 35" fill="none" xmlns="http://www.w3.org/2000/svg">
<path d="M11.4737 7.24702C11.4737 9.49195 11.4737 11.7434 11.4863 13.9884C11.4863 15.9257 10.8773 17.8106 9.13277 18.8055C7.0964 19.9574 4.20361 19.6629 1.93252 19.4207C1.8437 19.4207 1.76758 19.4011 1.68511 19.3945C1.76123 17.7779 1.72951 16.1417 1.65339 14.5316C1.55823 12.3456 2.83968 9.74066 5.11712 9.37414C7.58488 8.9749 9.73544 8.70001 10.9027 7.29284C10.9408 7.25357 10.9788 7.20775 11.0106 7.16194C11.1818 6.91977 11.3658 6.6907 11.5498 6.45508C11.4927 6.71033 11.4737 6.97868 11.4737 7.24048V7.24702Z" fill="#8807F7"/>
<path d="M4.01025 34.0611C5.7104 34.1723 7.42324 34.1462 9.12339 34.1789C11.109 34.2116 13.1454 34.4669 15.0612 34.1069C17.8144 33.5898 20.9102 31.7376 21.9316 28.9953C22.8768 26.4558 22.4328 23.4255 20.8024 21.2918C20.6882 21.1478 20.5677 21.0038 20.4345 20.8599C18.7851 19.0011 16.2285 18.0259 13.7925 18.3597C10.7664 18.772 8.10203 21.2264 7.31539 24.2698C6.82692 26.1678 7.25195 28.1837 6.96648 30.1145C6.73176 31.7114 5.4059 33.3477 4.00391 34.0611H4.01025Z" fill="#8807F7"/>
<path d="M21.0157 0C20.8635 0.477784 21.0474 0.994837 21.2441 1.45299C23.7689 7.25839 30.5315 11.1854 30.2968 18.1623C30.1889 21.317 28.6664 25.0215 26.1098 26.8933C25.9258 27.0308 25.7546 27.1486 25.5389 27.214C25.0504 26.2716 24.9996 24.8971 24.5873 23.863C24.0671 22.5606 23.382 21.2843 22.424 20.2764C21.5042 19.3142 20.356 18.7579 19.4361 17.8154C17.5076 15.8258 16.2896 13.1031 16.131 10.2887C15.9026 6.28318 17.8438 2.30383 21.0221 0.01309L21.0157 0Z" fill="#8807F7"/>
<path d="M3.45731 14.0053C3.45731 14.0053 3.36849 12.2578 5.10671 12.3429C5.10671 12.3429 5.74109 14.254 3.45731 14.0053Z" fill="white" stroke="#8807F7" stroke-width="0.266739" stroke-miterlimit="10"/>
<path d="M2.8801 28.8237C4.47074 28.8237 5.76021 27.4934 5.76021 25.8523C5.76021 24.2112 4.47074 22.8809 2.8801 22.8809C1.28947 22.8809 0 24.2112 0 25.8523C0 27.4934 1.28947 28.8237 2.8801 28.8237Z" fill="#8807F7"/>
</svg>
