<svg width="96" height="20" viewBox="0 0 96 20" fill="none" xmlns="http://www.w3.org/2000/svg">
<path d="M1.09734 2.872C1.81734 3.288 1.91334 4.296 1.91334 5.048V12.824C1.91334 13.56 1.80134 14.6 1.09734 15H9.48134L9.75334 11.24C9.03334 13.176 7.73734 14.616 5.52934 14.616H4.24934V5.048C4.24934 4.296 4.34534 3.288 5.06534 2.872H1.09734ZM13.5801 7.144C11.4041 7.24 10.1241 9.16 10.1241 11.208C10.1241 13.416 11.7241 15.16 13.9641 15.16C15.5481 15.16 16.4441 14.472 17.1801 13.144L17.0521 13.048C16.7161 13.384 15.7241 13.496 15.2761 13.496C13.7561 13.496 12.8761 12.488 12.5561 11.08L16.5561 10.904C16.9881 10.888 17.1321 10.728 17.1321 10.296C17.1321 8.872 16.3001 7.704 14.9241 7.304C14.5241 6.984 14.3801 6.568 14.3801 6.072C14.3801 4.68 15.9321 3.736 17.1801 3.736C18.2041 3.736 19.6281 4.136 19.6281 5.4C19.6281 6.648 18.2521 7.304 17.1801 7.416V7.656H17.9641V13C17.9641 14.168 18.4921 15.16 19.7721 15.16C20.6521 15.16 21.5481 14.728 22.1881 14.136V13.976C21.9321 14.12 21.6281 14.184 21.3401 14.184C20.7961 14.184 20.3001 13.944 20.3001 13.32V7.656H21.9641V7.272H20.3001V6.536C20.3001 4.232 19.6121 3.4 17.1801 3.4C15.4201 3.4 13.3721 4.216 13.3721 6.264C13.3721 6.568 13.4521 6.872 13.5801 7.144ZM12.4761 10.68C12.4441 10.44 12.4281 10.216 12.4281 9.976C12.4281 9.32 12.6681 7.528 13.5961 7.528C14.4121 7.528 15.0041 8.472 15.0041 9.224C15.0041 10.6 13.4521 10.552 12.4761 10.68ZM23.6857 2.744C23.0457 2.744 22.5017 3.272 22.5017 3.912C22.5017 4.52 22.9657 5.016 23.5577 5.08C23.5897 5.144 23.5897 5.208 23.5897 5.272C23.5897 5.656 23.2377 6.184 22.9337 6.392H23.0937C23.9897 6.024 24.8537 4.904 24.8537 3.912C24.8537 3.272 24.3257 2.744 23.6857 2.744ZM28.2578 15.16C29.6498 15.16 31.7938 14.664 31.7938 12.904C31.7938 10.264 27.3938 10.328 27.3938 8.712C27.3938 8.008 27.9218 7.528 28.6258 7.528C29.2178 7.528 29.8098 7.912 29.8098 8.552C29.8098 8.888 29.6018 9.144 29.2498 9.144C29.4418 9.768 29.9058 10.216 30.5778 10.216C31.2338 10.216 31.6338 9.8 31.6338 9.144C31.6338 7.672 29.8898 7.144 28.6898 7.144C27.3458 7.144 25.5058 7.816 25.5058 9.416C25.5058 12.12 29.6978 11.992 29.6978 13.64C29.6978 14.44 28.9458 14.776 28.2578 14.776C27.6818 14.776 27.0098 14.44 27.0098 13.784C27.0098 13.4 27.2818 13.112 27.6658 13.112C27.5378 12.472 27.0578 11.816 26.3378 11.816C25.5858 11.816 25.1858 12.408 25.1858 13.112C25.1858 14.616 27.0578 15.16 28.2578 15.16ZM42.3237 15C41.6037 14.584 41.5077 13.576 41.5077 12.824V3.272C43.5397 3.432 44.6917 4.728 45.4117 6.632L45.1397 2.872H35.5237L35.2517 6.632C35.9717 4.712 37.1397 3.432 39.1717 3.272V12.824C39.1717 13.576 39.0757 14.584 38.3557 15H42.3237ZM50.9625 14.344C50.8665 14.408 50.7545 14.44 50.6425 14.44C50.1945 14.44 50.1465 13.752 50.1465 13.448V9.768C50.1465 8.056 48.8825 7.144 47.2505 7.144C45.9065 7.144 44.1465 7.768 44.1465 9.368C44.1465 9.992 44.5145 10.584 45.1865 10.584C46.0825 10.584 46.6585 9.864 46.8985 9.08C46.5305 9.08 46.2745 8.888 46.2745 8.504C46.2745 8.088 46.5945 7.528 47.0585 7.528C47.8905 7.528 47.8105 8.936 47.8105 9.48V9.992C46.7865 11.112 43.8585 11.784 43.8585 13.448C43.8585 14.648 44.6585 15.16 45.7785 15.16C46.6905 15.16 47.3945 14.84 47.8905 14.28C48.1145 14.824 48.7865 15.16 49.3625 15.16C50.0825 15.16 50.4185 14.904 50.9625 14.504V14.344ZM47.8105 13.944C47.6505 14.04 47.4425 14.104 47.1865 14.104C46.3705 14.104 46.2105 13.4 46.2105 12.728C46.2105 11.8 47.2025 11.112 47.8105 10.552V13.944ZM54.275 3.656C52.979 4.408 52.531 4.6 51.043 4.84C51.603 5.512 51.939 6.024 51.939 6.936V12.824C51.939 13.56 51.827 14.6 51.123 15H55.091C54.371 14.6 54.275 13.56 54.275 12.824V3.656ZM59.1218 15C58.4018 14.6 58.3058 13.56 58.3058 12.824V10.92L60.5618 15H64.0658C62.3378 14.04 60.6898 10.68 59.7458 8.92C59.9218 8.76 60.1778 8.664 60.4178 8.664C60.7538 8.664 61.1218 8.856 61.1218 9.24C61.1218 9.416 61.0578 9.576 60.9618 9.72C61.0578 10.024 61.4578 10.168 61.7458 10.168C62.6418 10.168 63.3298 9.464 63.3298 8.568C63.3298 7.64 62.6258 7.144 61.7458 7.144C60.3378 7.144 58.8338 9.272 58.3058 10.424V3.672C57.0098 4.408 56.5618 4.6 55.0898 4.84C55.6498 5.512 55.9858 6.024 55.9858 6.936V12.824C55.9858 13.544 55.8418 14.616 55.1538 15H59.1218Z" fill="white"/>
<circle cx="85.7773" cy="10" r="10" fill="white"/>
<path d="M86.7484 13.9663C86.62 13.8379 86.5584 13.6827 86.5635 13.5008C86.5687 13.3189 86.6357 13.1637 86.7645 13.0353L88.5783 11.2215H81.4194C81.2375 11.2215 81.0849 11.1599 80.9616 11.0366C80.8383 10.9133 80.7769 10.7609 80.7773 10.5794C80.7773 10.3975 80.839 10.2449 80.9623 10.1217C81.0855 9.99839 81.2379 9.93697 81.4194 9.9374H88.5783L86.7484 8.10754C86.62 7.97913 86.5558 7.82654 86.5558 7.64976C86.5558 7.47298 86.62 7.3206 86.7484 7.19262C86.8769 7.06421 87.0295 7 87.2062 7C87.383 7 87.5354 7.06421 87.6634 7.19262L90.6008 10.13C90.665 10.1942 90.7106 10.2638 90.7375 10.3387C90.7645 10.4136 90.7778 10.4938 90.7773 10.5794C90.7773 10.6651 90.7639 10.7453 90.7369 10.8202C90.7099 10.8951 90.6645 10.9647 90.6008 11.0289L87.6473 13.9823C87.5296 14.1 87.3826 14.1589 87.2062 14.1589C87.0299 14.1589 86.8773 14.0947 86.7484 13.9663Z" fill="black"/>
</svg>
