<svg width="48" height="48" viewBox="0 0 48 48" fill="none" xmlns="http://www.w3.org/2000/svg">
<path d="M47.0821 29.5791C45.9721 34.0742 43.5847 38.1519 40.2081 41.3199C36.8315 44.4879 32.6101 46.6109 28.0534 47.4324H27.871H27.7799C24.5971 47.9721 21.3372 47.8479 18.2048 47.0676C17.1849 46.8249 16.1855 46.5031 15.2157 46.105C15.0442 46.049 14.8781 45.9778 14.7192 45.8923C14.569 45.8399 14.4233 45.7756 14.2835 45.6997C13.2451 45.2988 12.2504 44.793 11.3147 44.19C7.56986 41.8726 4.53871 38.5647 2.55634 34.6322C0.573974 30.6996 -0.28242 26.2955 0.0818439 21.9067C0.446108 17.5178 2.01683 13.3152 4.62039 9.76325C7.22395 6.21132 10.759 3.44847 14.8346 1.7801C18.9103 0.11172 23.368 -0.397207 27.7148 0.309574C32.0617 1.01636 36.1285 2.91132 39.4656 5.785C42.8028 8.65867 45.2804 12.3991 46.6245 16.5929C47.9687 20.7867 48.127 25.2706 47.0821 29.5487V29.5791Z" fill="white"/>
<path d="M28.6408 36.2884L28.5496 36.6228C28.5496 36.7139 28.4888 36.8761 28.4584 36.9976C28.428 37.1192 28.3368 37.5245 28.2456 37.8285C28.1545 38.2946 28.0227 38.8417 27.9315 39.4092C27.8729 39.6421 27.8323 39.8792 27.8099 40.1184C27.7491 40.544 27.6579 40.9797 27.5972 41.4458C27.5252 41.9562 27.4846 42.4705 27.4756 42.9859C27.4173 43.4903 27.3936 43.9981 27.4047 44.5057C27.4003 44.796 27.4344 45.0856 27.506 45.367V45.519C27.5668 45.9547 27.6884 46.6335 27.7795 47.4644C24.5968 48.0041 21.3369 47.8799 18.2044 47.0996C17.1846 46.857 16.1852 46.5351 15.2154 46.1371C15.0439 46.081 14.8778 46.0098 14.7189 45.9243C14.5687 45.872 14.423 45.8076 14.2832 45.7318C14.2832 44.7185 14.6581 42.4286 14.8709 39.6523C14.9925 38.2642 15.0837 36.7545 15.1445 35.265C15.1445 34.9306 15.1445 34.6469 15.1445 34.3126V33.1372C15.1445 33.046 15.2154 33.0156 15.3066 33.0156C15.5878 33.038 15.8609 33.1209 16.107 33.2588C16.2869 33.3304 16.4628 33.4116 16.6339 33.502L17.4648 33.6945L19.4102 34.1504L28.0936 36.1769L28.3672 36.2377L28.6408 36.2884Z" fill="#D3766A"/>
<path d="M27.4956 45.3771C27.4956 45.3771 27.4956 45.4683 27.4956 45.5189C27.0396 45.5873 26.5787 45.6178 26.1176 45.6101C17.0795 45.4784 15.8535 33.9883 15.8535 33.9883L19.4302 34.12L28.6102 36.2681C27.8642 38.9499 27.4491 41.7129 27.374 44.4956C27.3871 44.7926 27.4278 45.0877 27.4956 45.3771Z" fill="#263238"/>
<path d="M12.8142 18.8707C11.649 23.714 14.9927 37.2914 18.5592 40.1487C23.7166 44.2929 31.7314 44.2017 35.1865 38.1222C38.4897 32.1948 33.8288 14.5746 29.8873 12.0212C24.0814 8.25197 14.5367 11.7274 12.8142 18.8707Z" fill="#D3766A"/>
<path d="M25.8943 27.5938C25.8943 27.5938 25.8335 27.6546 25.8436 27.6951C26.097 28.5969 26.2287 29.7215 25.4688 30.1876C26.4921 29.8533 26.2996 28.4145 25.8943 27.5938Z" fill="#263238"/>
<path d="M24.8818 26.8339C23.3822 27.077 23.9699 30.0559 25.3682 29.8736C26.7665 29.6912 26.1281 26.6312 24.8818 26.8339Z" fill="#263238"/>
<path d="M31.457 26.2773C31.457 26.2773 31.5381 26.2773 31.5482 26.3381C31.7002 27.2703 32.0346 28.3646 32.9262 28.4457C32.9262 28.4457 32.9262 28.4457 32.9262 28.5065C31.8826 28.5673 31.457 27.1791 31.457 26.2773Z" fill="#263238"/>
<path d="M32.0869 25.1396C33.5561 24.7343 34.2654 27.693 32.9077 28.0679C31.5499 28.4428 30.8609 25.4841 32.0869 25.1396Z" fill="#263238"/>
<path d="M23.4221 25.7094C23.7914 25.5163 24.15 25.3032 24.4962 25.0711C24.9015 24.8178 25.2561 24.6658 25.4587 24.2099C25.5082 24.0763 25.5101 23.9297 25.4639 23.7949C25.4177 23.6601 25.3264 23.5454 25.2054 23.4702C24.9494 23.35 24.6658 23.3007 24.3842 23.3274C24.1026 23.3541 23.8334 23.4559 23.6045 23.6222C23.0871 23.8875 22.6864 24.3351 22.4798 24.8786C22.4407 25.0054 22.4391 25.1407 22.475 25.2684C22.511 25.3961 22.583 25.5107 22.6825 25.5985C22.7821 25.6862 22.9048 25.7433 23.036 25.763C23.1672 25.7827 23.3012 25.7641 23.4221 25.7094Z" fill="#263238"/>
<path d="M32.9883 23.4188C32.5627 23.4188 32.1574 23.4188 31.742 23.3479C31.299 23.3804 30.8575 23.2665 30.4856 23.0236C30.3815 22.9277 30.313 22.7995 30.2909 22.6597C30.2688 22.52 30.2946 22.3769 30.364 22.2536C30.5374 22.0282 30.7677 21.853 31.0313 21.7462C31.2949 21.6393 31.5822 21.6046 31.8636 21.6456C32.4458 21.6449 33.0082 21.8576 33.4442 22.2434C33.5387 22.3379 33.6036 22.4578 33.6311 22.5885C33.6587 22.7193 33.6476 22.8552 33.5993 22.9797C33.5509 23.1042 33.4675 23.2121 33.359 23.29C33.2505 23.368 33.1217 23.4127 32.9883 23.4188Z" fill="#263238"/>
<path d="M26.6864 35.9507C26.9499 36.1229 27.2336 36.3762 27.5679 36.3357C27.913 36.266 28.2382 36.1207 28.5204 35.9102C28.5204 35.9102 28.5812 35.9102 28.5204 35.9102C28.423 36.1167 28.2719 36.2933 28.083 36.4216C27.8941 36.55 27.6743 36.6253 27.4463 36.6397C27.2486 36.6276 27.0588 36.5578 26.9003 36.4389C26.7418 36.3201 26.6217 36.1574 26.5547 35.9709C26.5851 35.9608 26.6459 35.9304 26.6864 35.9507Z" fill="#263238"/>
<path d="M27.1003 32.9953C27.4063 33.3187 27.7757 33.5755 28.1854 33.7498C28.595 33.9241 29.0362 34.0122 29.4814 34.0086C29.8693 34.0063 30.2549 33.9483 30.6264 33.8363L30.8391 33.7654L31.0316 33.6945C31.0776 33.6737 31.1159 33.6391 31.1413 33.5955C31.1667 33.5519 31.178 33.5015 31.1735 33.4513C31.1778 33.4211 31.1778 33.3904 31.1735 33.3601V33.2791C31.0519 32.5698 30.7682 31.5059 30.7682 31.5059C31.0519 31.5768 32.5008 31.9112 32.3995 31.5059C31.6813 28.3176 30.639 25.2111 29.2889 22.2348C29.2382 22.1334 29.0862 22.2348 29.1166 22.2854C29.7752 25.2339 30.9405 28.0507 31.6396 31.0094C31.1229 30.8824 30.5904 30.8312 30.0589 30.8574C29.9677 30.8574 30.6466 32.8839 30.677 33.2284C30.1061 33.4025 29.5059 33.46 28.9123 33.3973C28.3187 33.3346 27.7438 33.1531 27.2219 32.8636C27.0901 32.8535 27.0293 32.9346 27.1003 32.9953Z" fill="#263238"/>
<path d="M30.1312 33.5198C29.8466 34.1073 29.4135 34.6102 28.8748 34.9789C28.5749 35.1749 28.2191 35.2675 27.8616 35.2423C27.0915 35.2423 26.9395 34.5229 26.9497 33.9251C26.9656 33.6023 27.02 33.2825 27.1118 32.9727C28.0336 33.474 29.0921 33.6659 30.1312 33.5198Z" fill="#263238"/>
<path d="M28.8748 34.9779C28.5749 35.174 28.2191 35.2665 27.8616 35.2414C27.0915 35.2414 26.9395 34.522 26.9497 33.9242C27.3424 33.8563 27.7466 33.9236 28.0962 34.115C28.4458 34.3063 28.7203 34.6105 28.8748 34.9779Z" fill="#FF98B9"/>
<path d="M14.1104 30.7055C14.1104 30.7055 9.25699 23.0455 9.60149 18.5467C9.75348 16.5202 12.4892 15.0915 12.4892 15.0915C12.2589 14.2693 12.263 13.399 12.5012 12.579C12.7393 11.759 13.2019 11.0219 13.8368 10.4509C16.1876 8.15084 22.0035 8.53587 22.0035 8.53587C22.0035 8.53587 25.6512 3.01371 31.0214 5.06045C36.3915 7.1072 33.0478 13.1664 33.0478 13.1664C33.0478 13.1664 35.0743 15.9021 30.3324 18.1718C25.5904 20.4414 16.147 18.5061 16.147 18.5061C16.6586 21.7642 16.6791 25.0805 16.2078 28.3447C16.108 28.8926 15.8596 29.4025 15.4898 29.8188C15.1199 30.2352 14.6427 30.5419 14.1104 30.7055Z" fill="#263238"/>
<path d="M22.916 8.59445C21.7185 8.13416 20.4385 7.92715 19.1569 7.9865C18.013 7.99249 16.8786 8.1947 15.8031 8.58432C14.8323 8.88116 13.9608 9.43708 13.2824 10.1923C12.6039 10.9475 12.1443 11.8734 11.9528 12.8703C11.8832 13.3871 11.9182 13.9127 12.0557 14.4157C12.1932 14.9188 12.4304 15.389 12.7533 15.7986C12.7533 15.7986 12.8343 15.7986 12.8039 15.7986C11.5374 14.3091 12.1352 11.9179 13.3815 10.6209C14.9087 9.23285 16.8907 8.45088 18.9543 8.4222C20.2734 8.37606 21.5933 8.48832 22.8856 8.75657C22.9071 8.7606 22.9294 8.75592 22.9474 8.74357C22.9655 8.73121 22.9779 8.7122 22.9819 8.69071C22.9859 8.66921 22.9813 8.64699 22.9689 8.62894C22.9566 8.61089 22.9375 8.59848 22.916 8.59445Z" fill="#263238"/>
<path d="M34.8823 7.56223C34.6185 6.86063 34.1869 6.23431 33.6252 5.73799C33.0636 5.24167 32.3889 4.89046 31.6602 4.71503C29.9869 4.24325 28.2041 4.34309 26.594 4.99874C24.9898 5.67036 23.5917 6.75396 22.541 8.13978C22.541 8.13978 22.541 8.21071 22.5917 8.13978C23.5385 6.91874 24.796 5.97454 26.2327 5.40593C27.6693 4.83732 29.2324 4.66519 30.7584 4.90755C31.4678 4.99792 32.1474 5.24826 32.746 5.63968C33.3445 6.0311 33.8463 6.55337 34.2135 7.16707C34.5037 7.78533 34.6541 8.45993 34.6541 9.14289C34.6541 9.82586 34.5037 10.5004 34.2135 11.1187C33.4468 12.579 32.2846 13.7939 30.8597 14.6245C30.8597 14.6245 30.8597 14.6954 30.8597 14.6245C32.2082 13.9263 33.361 12.9023 34.2135 11.6456C34.6061 11.0503 34.8685 10.3789 34.9838 9.6753C35.099 8.97165 35.0644 8.25159 34.8823 7.56223Z" fill="#263238"/>
<path d="M31.4882 18.4449C29.3831 19.3466 27.1108 19.792 24.8211 19.7519C22.4342 19.734 20.0563 19.4588 17.7284 18.9312C16.3808 18.6374 15.0433 18.2929 13.6755 17.918C13.6755 17.918 13.6147 17.9686 13.6755 17.9788C16.0166 18.9268 18.4519 19.6231 20.9404 20.0559C23.2488 20.4415 25.6106 20.3692 27.8912 19.8431C29.1417 19.5456 30.35 19.0929 31.4882 18.4955C31.4882 18.4955 31.5186 18.4347 31.4882 18.4449Z" fill="#263238"/>
<path d="M16.422 29.8835C16.422 29.8835 12.9669 25.6988 11.0518 26.9653C9.13681 28.2319 11.9739 34.4734 14.4057 35.1624C14.7112 35.2729 15.0361 35.3201 15.3604 35.3013C15.6848 35.2826 16.002 35.1982 16.2928 35.0532C16.5837 34.9083 16.842 34.7058 17.0523 34.4581C17.2626 34.2104 17.4205 33.9227 17.5163 33.6122L16.422 29.8835Z" fill="#D3766A"/>
<path d="M11.9121 28.7383C11.9121 28.7383 11.9121 28.7889 11.9121 28.7991C12.7027 29.1159 13.4179 29.5953 14.0114 30.2062C14.6049 30.8171 15.0634 31.5459 15.3571 32.3454C15.2469 32.1862 15.1033 32.0528 14.9365 31.9545C14.7696 31.8562 14.5834 31.7953 14.3907 31.7761C14.198 31.7568 14.0034 31.7796 13.8204 31.8429C13.6373 31.9062 13.4703 32.0085 13.3307 32.1428C13.3307 32.1428 13.3306 32.2441 13.3813 32.2238C13.6659 32.1093 13.9788 32.0848 14.2777 32.1536C14.5767 32.2225 14.8473 32.3814 15.0532 32.6088C15.3877 32.9975 15.683 33.4184 15.9347 33.8653C16.0259 34.0071 16.2792 33.8653 16.2184 33.7437C16.0664 31.5855 14.1919 28.7687 11.9121 28.7383Z" fill="#263238"/>
</svg>
