<svg width="161" height="43" viewBox="0 0 161 43" fill="none" xmlns="http://www.w3.org/2000/svg">
<g clip-path="url(#clip0_2091_37354)">
<path d="M50.8534 19.126C53.3734 19.126 55.2214 17.712 55.4874 15.556L53.9474 15.542C53.6954 16.914 52.5054 17.81 50.8534 17.81C48.7394 17.81 47.4234 16.382 47.4234 13.904C47.4234 11.412 48.7394 9.998 50.8534 9.998C52.5194 9.998 53.6674 10.908 53.9474 12.21H55.4874C55.1794 10.068 53.3734 8.682 50.8534 8.682C47.8574 8.682 45.8554 10.67 45.8554 13.904C45.8554 17.124 47.8434 19.126 50.8534 19.126ZM59.6395 19.126C60.7875 19.126 61.7535 18.524 62.1175 17.502H62.2015L62.2715 19H63.6435V11.594H62.2015V15.598C62.2015 16.956 61.3895 17.922 60.1715 17.922C58.9255 17.922 58.4215 17.166 58.4215 15.794V11.594H56.9795V16.158C56.9795 18.118 57.9595 19.126 59.6395 19.126ZM65.5944 19H67.0224V14.772C67.0924 13.554 67.8344 12.868 69.1504 12.868C69.3184 12.868 69.4864 12.868 69.5984 12.882V11.524C69.4724 11.51 69.3324 11.496 69.1644 11.496C68.1844 11.496 67.3444 11.958 67.0224 12.91H66.9524L66.8824 11.594H65.5944V19ZM72.4681 19H74.2321L76.8641 11.594H75.3101L73.8261 16.158L73.3781 17.754H73.3221L72.8461 16.158L71.3621 11.594H69.8081L72.4681 19ZM80.7604 19.126C82.5104 19.126 83.8544 18.174 84.0504 16.718H82.6784C82.4964 17.488 81.7544 17.978 80.7604 17.978C79.4724 17.978 78.6324 17.11 78.6044 15.584H84.0924C84.3164 13.26 83.1404 11.482 80.7044 11.482C78.5344 11.482 77.1764 12.994 77.1764 15.332C77.1764 17.614 78.5344 19.126 80.7604 19.126ZM80.6904 12.616C81.7824 12.616 82.6364 13.19 82.6784 14.562H78.6324C78.7444 13.358 79.5284 12.616 80.6904 12.616ZM88.3078 19.126C89.5538 19.126 90.4778 18.482 90.8278 17.53H90.9118L90.9678 19H92.3538V8.794H90.9118V13.05H90.8278C90.4778 12.098 89.5538 11.468 88.3078 11.468C86.5018 11.468 85.2838 12.812 85.2838 15.29C85.2838 17.768 86.5018 19.126 88.3078 19.126ZM88.8118 17.936C87.5798 17.936 86.7678 17.026 86.7678 15.29C86.7678 13.54 87.5798 12.644 88.8118 12.644C90.1838 12.644 90.8978 13.736 90.8978 14.87V15.71C90.8978 16.858 90.1838 17.936 88.8118 17.936Z" fill="#1E2C31"/>
<path d="M46.1754 36H47.2454V32.6L47.2254 29.86H47.2954L49.4654 36H50.3354L52.5054 29.86H52.5754L52.5454 32.59V36H53.6054V28.71H51.9454L49.9154 34.29H49.8754L47.8454 28.71H46.1754V36ZM55.2146 29.9H56.2446V28.71H55.2146V29.9ZM55.2146 36H56.2446V30.71H55.2146V36ZM59.8856 36.09C61.2056 36.09 62.1656 35.31 62.2456 34.11H61.2456C61.1656 34.78 60.6556 35.23 59.8856 35.23C58.9656 35.23 58.3656 34.56 58.3656 33.37C58.3656 32.24 58.9156 31.49 59.8956 31.49C60.5756 31.49 61.1056 31.85 61.2256 32.54H62.2256C62.1456 31.4 61.2056 30.63 59.9256 30.63C58.3356 30.63 57.3156 31.72 57.3156 33.36C57.3156 35 58.3356 36.09 59.8856 36.09ZM63.2908 36H64.3108V32.98C64.3608 32.11 64.8908 31.62 65.8308 31.62C65.9508 31.62 66.0708 31.62 66.1508 31.63V30.66C66.0608 30.65 65.9608 30.64 65.8408 30.64C65.1408 30.64 64.5408 30.97 64.3108 31.65H64.2608L64.2108 30.71H63.2908V36ZM69.1243 36.09C70.7143 36.09 71.7043 34.98 71.7043 33.36C71.7043 31.68 70.6643 30.63 69.1243 30.63C67.5243 30.63 66.5343 31.74 66.5343 33.37C66.5343 35.03 67.5743 36.09 69.1243 36.09ZM69.1243 35.23C68.1843 35.23 67.5843 34.55 67.5843 33.37C67.5843 32.15 68.2043 31.48 69.1243 31.48C70.0743 31.48 70.6543 32.17 70.6543 33.36C70.6543 34.56 70.0443 35.23 69.1243 35.23ZM73.203 36H74.233V31.55H75.403V30.71H74.233V30.03C74.233 29.69 74.363 29.46 74.833 29.46H75.513V28.71H74.563C73.723 28.71 73.203 29.13 73.203 29.93V30.71H72.243V31.55H73.203V36ZM76.2986 29.9H77.3286V28.71H76.2986V29.9ZM76.2986 36H77.3286V30.71H76.2986V36ZM78.7596 36H79.7796V33.11C79.7796 32.2 80.3496 31.48 81.2596 31.48C82.0996 31.48 82.4896 31.99 82.4896 33.07V36H83.5196V32.86C83.5196 31.24 82.7096 30.63 81.6296 30.63C80.8496 30.63 80.1496 31.01 79.8396 31.76H79.7796L79.7396 30.71H78.7596V36ZM86.7119 36.09C87.6019 36.09 88.2619 35.63 88.5119 34.95H88.5719V36H89.6019V30.71H88.6119L88.5719 31.75H88.5119C88.2619 31.07 87.6019 30.62 86.7119 30.62C85.4219 30.62 84.5519 31.58 84.5519 33.35C84.5519 35.12 85.4219 36.09 86.7119 36.09ZM87.0719 35.24C86.1919 35.24 85.6119 34.59 85.6119 33.35C85.6119 32.1 86.1919 31.46 87.0719 31.46C88.0519 31.46 88.5619 32.24 88.5619 33.05V33.65C88.5619 34.47 88.0519 35.24 87.0719 35.24ZM91.0447 36H92.0647V33.11C92.0647 32.2 92.6347 31.48 93.5447 31.48C94.3847 31.48 94.7747 31.99 94.7747 33.07V36H95.8047V32.86C95.8047 31.24 94.9947 30.63 93.9147 30.63C93.1347 30.63 92.4347 31.01 92.1247 31.76H92.0647L92.0247 30.71H91.0447V36ZM99.4071 36.09C100.727 36.09 101.687 35.31 101.767 34.11H100.767C100.687 34.78 100.177 35.23 99.4071 35.23C98.4871 35.23 97.8871 34.56 97.8871 33.37C97.8871 32.24 98.4371 31.49 99.4171 31.49C100.097 31.49 100.627 31.85 100.747 32.54H101.747C101.667 31.4 100.727 30.63 99.4471 30.63C97.8571 30.63 96.8371 31.72 96.8371 33.36C96.8371 35 97.8571 36.09 99.4071 36.09ZM105.012 36.09C106.262 36.09 107.222 35.41 107.362 34.37H106.382C106.252 34.92 105.722 35.27 105.012 35.27C104.092 35.27 103.492 34.65 103.472 33.56H107.392C107.552 31.9 106.712 30.63 104.972 30.63C103.422 30.63 102.452 31.71 102.452 33.38C102.452 35.01 103.422 36.09 105.012 36.09ZM104.962 31.44C105.742 31.44 106.352 31.85 106.382 32.83H103.492C103.572 31.97 104.132 31.44 104.962 31.44ZM112.712 36.1C114.092 36.1 114.952 35.58 114.952 34.5C114.952 33.29 114.032 33.05 112.932 32.9C112.032 32.78 111.632 32.62 111.632 32.1C111.632 31.65 112.012 31.34 112.712 31.34C113.392 31.34 113.822 31.63 113.832 32.27H114.842C114.822 31.24 114.032 30.61 112.732 30.61C111.452 30.61 110.602 31.19 110.602 32.2C110.602 33.28 111.432 33.56 112.632 33.73C113.522 33.86 113.902 34 113.902 34.59C113.902 35.08 113.502 35.37 112.742 35.37C112.002 35.37 111.472 35.06 111.472 34.34H110.452C110.452 35.39 111.262 36.1 112.712 36.1ZM118.402 36.09C119.992 36.09 120.982 34.98 120.982 33.36C120.982 31.68 119.942 30.63 118.402 30.63C116.802 30.63 115.812 31.74 115.812 33.37C115.812 35.03 116.852 36.09 118.402 36.09ZM118.402 35.23C117.462 35.23 116.862 34.55 116.862 33.37C116.862 32.15 117.482 31.48 118.402 31.48C119.352 31.48 119.932 32.17 119.932 33.36C119.932 34.56 119.322 35.23 118.402 35.23ZM122.06 36H123.09V28.71H122.06V36ZM126.371 36.09C127.191 36.09 127.881 35.66 128.141 34.93H128.201L128.251 36H129.231V30.71H128.201V33.57C128.201 34.54 127.621 35.23 126.751 35.23C125.861 35.23 125.501 34.69 125.501 33.71V30.71H124.471V33.97C124.471 35.37 125.171 36.09 126.371 36.09ZM132.135 36H133.195V35.15H132.475C132.145 35.15 132.025 35.06 132.025 34.71V31.55H133.195V30.71H132.025V29.06L130.995 29.18V30.71H129.995V31.55H130.995V34.9C130.995 35.61 131.265 36 132.135 36ZM134.219 29.9H135.249V28.71H134.219V29.9ZM134.219 36H135.249V30.71H134.219V36ZM138.909 36.09C140.499 36.09 141.489 34.98 141.489 33.36C141.489 31.68 140.449 30.63 138.909 30.63C137.309 30.63 136.319 31.74 136.319 33.37C136.319 35.03 137.359 36.09 138.909 36.09ZM138.909 35.23C137.969 35.23 137.369 34.55 137.369 33.37C137.369 32.15 137.989 31.48 138.909 31.48C139.859 31.48 140.439 32.17 140.439 33.36C140.439 34.56 139.829 35.23 138.909 35.23ZM142.568 36H143.588V33.11C143.588 32.2 144.158 31.48 145.068 31.48C145.908 31.48 146.298 31.99 146.298 33.07V36H147.328V32.86C147.328 31.24 146.518 30.63 145.438 30.63C144.658 30.63 143.958 31.01 143.648 31.76H143.588L143.548 30.71H142.568V36Z" fill="#9CA3AF"/>
<path d="M25.2438 13.4355L13.5462 6.70273C13.3524 6.58164 13.086 6.5332 12.7954 6.5332C12.5048 6.5332 12.2384 6.60586 12.0446 6.70273L0.419629 13.4598C0.00791004 13.702 -0.282715 14.3074 -0.282715 14.7676V28.2574C-0.282715 28.5238 -0.234277 28.8387 -0.0405273 29.1051L25.8251 14.0895C25.6798 13.7988 25.4618 13.5809 25.2438 13.4355Z" fill="#659AD3"/>
<path d="M-0.113281 29.0801C0.00781249 29.2738 0.177344 29.4434 0.346875 29.5402L12.0203 36.2973C12.2141 36.4184 12.4805 36.4668 12.7711 36.4668C13.0617 36.4668 13.3281 36.3941 13.5219 36.2973L25.1469 29.5402C25.5586 29.298 25.8492 28.6926 25.8492 28.2324V14.7426C25.8492 14.5246 25.825 14.2824 25.7039 14.0645L-0.113281 29.0801Z" fill="#03599C"/>
<path d="M17.954 24.4305C16.9368 26.2227 14.9993 27.4336 12.7954 27.4336C9.52588 27.4336 6.86182 24.7695 6.86182 21.5C6.86182 18.2305 9.52588 15.5664 12.7954 15.5664C14.9993 15.5664 16.9368 16.7773 17.954 18.5938L21.1024 16.7773C19.4556 13.8953 16.3556 11.9336 12.7954 11.9336C7.51572 11.9336 3.229 16.2203 3.229 21.5C3.229 26.7797 7.51572 31.0664 12.7954 31.0664C16.3313 31.0664 19.4313 29.1289 21.0782 26.2711L17.954 24.4305Z" fill="white"/>
</g>
<defs>
<clipPath id="clip0_2091_37354">
<rect width="161" height="43" fill="white"/>
</clipPath>
</defs>
</svg>
