<svg width="20" height="20" viewBox="0 0 20 20" fill="none" xmlns="http://www.w3.org/2000/svg">
<path d="M4.16667 18.3346C3.70833 18.3346 3.31583 18.1713 2.98917 17.8446C2.6625 17.518 2.49945 17.1257 2.5 16.668V5.0013C2.5 4.54297 2.66333 4.15047 2.99 3.8238C3.31667 3.49714 3.70889 3.33408 4.16667 3.33464H5V1.66797H6.66667V3.33464H13.3333V1.66797H15V3.33464H15.8333C16.2917 3.33464 16.6842 3.49797 17.0108 3.82464C17.3375 4.1513 17.5006 4.54352 17.5 5.0013V16.668C17.5 17.1263 17.3367 17.5188 17.01 17.8455C16.6833 18.1721 16.2911 18.3352 15.8333 18.3346H4.16667ZM4.16667 16.668H15.8333V8.33464H4.16667V16.668ZM4.16667 6.66797H15.8333V5.0013H4.16667V6.66797ZM10 11.668C9.76389 11.668 9.56583 11.588 9.40583 11.428C9.24583 11.268 9.16611 11.0702 9.16667 10.8346C9.16667 10.5985 9.24667 10.4005 9.40667 10.2405C9.56667 10.0805 9.76445 10.0007 10 10.0013C10.2361 10.0013 10.4342 10.0813 10.5942 10.2413C10.7542 10.4013 10.8339 10.5991 10.8333 10.8346C10.8333 11.0707 10.7533 11.2688 10.5933 11.4288C10.4333 11.5888 10.2356 11.6685 10 11.668ZM6.66667 11.668C6.43056 11.668 6.2325 11.588 6.0725 11.428C5.9125 11.268 5.83278 11.0702 5.83333 10.8346C5.83333 10.5985 5.91333 10.4005 6.07333 10.2405C6.23334 10.0805 6.43111 10.0007 6.66667 10.0013C6.90278 10.0013 7.10083 10.0813 7.26084 10.2413C7.42084 10.4013 7.50056 10.5991 7.5 10.8346C7.5 11.0707 7.42 11.2688 7.26 11.4288C7.1 11.5888 6.90222 11.6685 6.66667 11.668ZM13.3333 11.668C13.0972 11.668 12.8992 11.588 12.7392 11.428C12.5792 11.268 12.4994 11.0702 12.5 10.8346C12.5 10.5985 12.58 10.4005 12.74 10.2405C12.9 10.0805 13.0978 10.0007 13.3333 10.0013C13.5694 10.0013 13.7675 10.0813 13.9275 10.2413C14.0875 10.4013 14.1672 10.5991 14.1667 10.8346C14.1667 11.0707 14.0867 11.2688 13.9267 11.4288C13.7667 11.5888 13.5689 11.6685 13.3333 11.668ZM10 15.0013C9.76389 15.0013 9.56583 14.9213 9.40583 14.7613C9.24583 14.6013 9.16611 14.4035 9.16667 14.168C9.16667 13.9319 9.24667 13.7338 9.40667 13.5738C9.56667 13.4138 9.76445 13.3341 10 13.3346C10.2361 13.3346 10.4342 13.4146 10.5942 13.5746C10.7542 13.7346 10.8339 13.9324 10.8333 14.168C10.8333 14.4041 10.7533 14.6021 10.5933 14.7621C10.4333 14.9221 10.2356 15.0019 10 15.0013ZM6.66667 15.0013C6.43056 15.0013 6.2325 14.9213 6.0725 14.7613C5.9125 14.6013 5.83278 14.4035 5.83333 14.168C5.83333 13.9319 5.91333 13.7338 6.07333 13.5738C6.23334 13.4138 6.43111 13.3341 6.66667 13.3346C6.90278 13.3346 7.10083 13.4146 7.26084 13.5746C7.42084 13.7346 7.50056 13.9324 7.5 14.168C7.5 14.4041 7.42 14.6021 7.26 14.7621C7.1 14.9221 6.90222 15.0019 6.66667 15.0013ZM13.3333 15.0013C13.0972 15.0013 12.8992 14.9213 12.7392 14.7613C12.5792 14.6013 12.4994 14.4035 12.5 14.168C12.5 13.9319 12.58 13.7338 12.74 13.5738C12.9 13.4138 13.0978 13.3341 13.3333 13.3346C13.5694 13.3346 13.7675 13.4146 13.9275 13.5746C14.0875 13.7346 14.1672 13.9324 14.1667 14.168C14.1667 14.4041 14.0867 14.6021 13.9267 14.7621C13.7667 14.9221 13.5689 15.0019 13.3333 15.0013Z" fill="#4E7BF1"/>
</svg>
