<svg width="272" height="80" viewBox="0 0 272 80" fill="none" xmlns="http://www.w3.org/2000/svg">
<g clip-path="url(#clip0_4351_31830)">
<path d="M82.8607 59H65.5707C66.3174 58.58 66.924 57.9967 67.3907 57.25C67.8574 56.4567 68.2074 55.64 68.4407 54.8C68.7207 53.9133 68.9074 53.0033 69.0007 52.07C69.094 51.1367 69.1407 50.2733 69.1407 49.48V39.54C69.1407 38.56 69.0474 37.6733 68.8607 36.88C68.674 36.04 68.4174 35.27 68.0907 34.57C67.764 33.87 67.344 33.1933 66.8307 32.54C66.364 31.84 65.8274 31.1167 65.2207 30.37C66.854 30.09 68.2307 29.8333 69.3507 29.6C70.5174 29.32 71.5907 28.9933 72.5707 28.62C73.5974 28.2467 74.624 27.8033 75.6507 27.29C76.724 26.73 77.9607 26.03 79.3607 25.19V30.65C79.6874 30.3233 80.364 29.8333 81.3907 29.18C82.4174 28.5267 83.4907 27.8733 84.6107 27.22C85.7774 26.52 86.8274 25.9133 87.7607 25.4C88.7407 24.8867 89.324 24.63 89.5107 24.63C91.0974 24.63 92.474 24.9333 93.6407 25.54C94.8074 26.1467 95.764 26.9633 96.5107 27.99C97.304 29.0167 97.8874 30.2067 98.2607 31.56C98.6807 32.9133 98.8907 34.3133 98.8907 35.76V49.48C98.8907 50.2733 98.9374 51.1367 99.0307 52.07C99.124 53.0033 99.2874 53.9133 99.5207 54.8C99.754 55.6867 100.104 56.5033 100.571 57.25C101.084 57.9967 101.714 58.58 102.461 59H85.1707C85.9174 58.58 86.524 57.9967 86.9907 57.25C87.4574 56.4567 87.8074 55.64 88.0407 54.8C88.274 53.9133 88.4374 53.0033 88.5307 52.07C88.624 51.1367 88.6707 50.2733 88.6707 49.48V36.04C88.6707 35.34 88.6007 34.6167 88.4607 33.87C88.3207 33.1233 88.0874 32.4467 87.7607 31.84C87.434 31.2333 86.9674 30.7433 86.3607 30.37C85.8007 29.9967 85.1007 29.81 84.2607 29.81C82.814 29.81 81.694 30.3233 80.9007 31.35C80.1074 32.33 79.594 33.4733 79.3607 34.78V49.48C79.3607 50.2733 79.384 51.1367 79.4307 52.07C79.524 53.0033 79.6874 53.9133 79.9207 54.8C80.154 55.6867 80.504 56.5033 80.9707 57.25C81.4374 57.9967 82.0674 58.58 82.8607 59ZM115.653 59.7C114.346 59.7 112.9 59.5367 111.313 59.21C109.773 58.8833 108.326 58.37 106.973 57.67C105.62 56.97 104.476 56.06 103.543 54.94C102.656 53.7733 102.213 52.3733 102.213 50.74C102.213 49.2 102.633 47.87 103.473 46.75C104.36 45.63 105.62 45.07 107.253 45.07C108.84 45.07 110.123 45.6767 111.103 46.89C112.13 48.0567 112.783 49.34 113.063 50.74C112.223 50.74 111.523 51.02 110.963 51.58C110.45 52.14 110.193 52.84 110.193 53.68C110.193 54.38 110.356 55.01 110.683 55.57C111.01 56.13 111.43 56.5967 111.943 56.97C112.503 57.2967 113.11 57.5533 113.763 57.74C114.416 57.9267 115.046 58.02 115.653 58.02C116.4 58.02 117.146 57.9267 117.893 57.74C118.64 57.5533 119.316 57.2733 119.923 56.9C120.53 56.48 121.02 55.9667 121.393 55.36C121.766 54.7067 121.953 53.9367 121.953 53.05C121.953 51.8367 121.486 50.8333 120.553 50.04C119.666 49.2 118.546 48.43 117.193 47.73C115.84 46.9833 114.37 46.26 112.783 45.56C111.196 44.8133 109.726 43.9733 108.373 43.04C107.02 42.06 105.876 40.8933 104.943 39.54C104.056 38.1867 103.613 36.53 103.613 34.57C103.613 32.7967 104.056 31.3033 104.943 30.09C105.876 28.83 107.02 27.8033 108.373 27.01C109.726 26.17 111.22 25.5633 112.853 25.19C114.533 24.8167 116.096 24.63 117.543 24.63C118.85 24.63 120.25 24.7933 121.743 25.12C123.283 25.4 124.683 25.89 125.943 26.59C127.25 27.29 128.323 28.2 129.163 29.32C130.003 30.3933 130.423 31.7467 130.423 33.38C130.423 34.8267 130.003 35.97 129.163 36.81C128.37 37.65 127.25 38.07 125.803 38.07C124.31 38.07 123.073 37.6267 122.093 36.74C121.113 35.8533 120.413 34.7333 119.993 33.38C120.786 33.38 121.393 33.1467 121.813 32.68C122.233 32.1667 122.443 31.5367 122.443 30.79C122.443 29.39 121.906 28.2933 120.833 27.5C119.76 26.7067 118.57 26.31 117.263 26.31C115.723 26.31 114.44 26.8 113.413 27.78C112.386 28.7133 111.873 29.95 111.873 31.49C111.873 32.6567 112.34 33.66 113.273 34.5C114.253 35.34 115.443 36.1333 116.843 36.88C118.29 37.58 119.83 38.28 121.463 38.98C123.143 39.68 124.683 40.52 126.083 41.5C127.53 42.48 128.72 43.6467 129.653 45C130.633 46.3067 131.123 47.9167 131.123 49.83C131.123 51.7433 130.586 53.3533 129.513 54.66C128.486 55.92 127.203 56.9233 125.663 57.67C124.123 58.4167 122.443 58.93 120.623 59.21C118.85 59.5367 117.193 59.7 115.653 59.7ZM149.435 36.11C150.601 36.11 151.675 35.8533 152.655 35.34C153.635 34.8267 154.125 33.8933 154.125 32.54C154.125 31.7467 153.938 30.9767 153.565 30.23C153.238 29.4833 152.771 28.83 152.165 28.27C151.605 27.6633 150.951 27.1967 150.205 26.87C149.458 26.4967 148.688 26.31 147.895 26.31C146.915 26.31 146.121 26.7067 145.515 27.5C144.908 28.2467 144.418 29.1567 144.045 30.23C143.718 31.3033 143.485 32.4 143.345 33.52C143.205 34.64 143.135 35.55 143.135 36.25C143.135 38.21 143.391 40.17 143.905 42.13C144.418 44.0433 145.188 45.77 146.215 47.31C147.288 48.85 148.641 50.0867 150.275 51.02C151.908 51.9533 153.845 52.42 156.085 52.42C156.598 52.42 157.205 52.3967 157.905 52.35C158.651 52.2567 159.398 52.14 160.145 52C160.891 51.86 161.591 51.6733 162.245 51.44C162.945 51.16 163.481 50.8333 163.855 50.46L164.415 50.88C161.148 56.76 156.178 59.7 149.505 59.7C147.078 59.7 144.815 59.2567 142.715 58.37C140.661 57.4833 138.888 56.27 137.395 54.73C135.948 53.1433 134.805 51.3 133.965 49.2C133.125 47.1 132.705 44.8367 132.705 42.41C132.705 40.0767 133.055 37.8367 133.755 35.69C134.501 33.5433 135.551 31.6533 136.905 30.02C138.305 28.3867 139.985 27.08 141.945 26.1C143.905 25.12 146.121 24.63 148.595 24.63C150.321 24.63 152.048 24.8867 153.775 25.4C155.501 25.9133 157.065 26.6833 158.465 27.71C159.865 28.69 160.985 29.9267 161.825 31.42C162.711 32.9133 163.155 34.6167 163.155 36.53C163.155 38.35 162.641 39.82 161.615 40.94C160.588 42.06 159.118 42.62 157.205 42.62C155.058 42.62 153.378 42.0367 152.165 40.87C150.951 39.6567 150.041 38.07 149.435 36.11ZM177.517 25.19V48.15C177.517 48.85 177.587 49.5733 177.727 50.32C177.867 51.0667 178.1 51.7433 178.427 52.35C178.753 52.9567 179.197 53.4467 179.757 53.82C180.363 54.1933 181.087 54.38 181.927 54.38C183.28 54.38 184.33 53.9367 185.077 53.05C185.87 52.1633 186.407 51.1367 186.687 49.97C186.687 49.0367 186.71 48.1267 186.757 47.24C186.803 46.3533 186.827 45.49 186.827 44.65V34.71C186.827 33.9167 186.78 33.0533 186.687 32.12C186.64 31.1867 186.5 30.2767 186.267 29.39C186.033 28.5033 185.683 27.6867 185.217 26.94C184.75 26.1933 184.12 25.61 183.327 25.19H197.047V48.01C197.047 50.2967 197.327 52.2567 197.887 53.89C198.493 55.5233 199.52 57.2267 200.967 59H188.437C188.203 58.1133 187.947 57.2033 187.667 56.27C187.387 55.29 187.153 54.3333 186.967 53.4C186.827 53.6333 186.243 54.1 185.217 54.8C184.19 55.4533 183.07 56.13 181.857 56.83C180.69 57.53 179.593 58.16 178.567 58.72C177.54 59.28 176.91 59.56 176.677 59.56C175.09 59.56 173.713 59.2567 172.547 58.65C171.38 58.0433 170.4 57.2267 169.607 56.2C168.86 55.1733 168.277 53.9833 167.857 52.63C167.483 51.2767 167.297 49.8767 167.297 48.43V34.71C167.297 33.9167 167.25 33.0533 167.157 32.12C167.063 31.1867 166.9 30.2767 166.667 29.39C166.433 28.5033 166.083 27.6867 165.617 26.94C165.15 26.1933 164.52 25.61 163.727 25.19H177.517ZM215.122 32.89C215.589 31.91 216.149 30.93 216.802 29.95C217.502 28.9233 218.272 28.0367 219.112 27.29C219.999 26.4967 220.956 25.8667 221.982 25.4C223.056 24.8867 224.176 24.63 225.342 24.63C227.256 24.63 228.749 25.2833 229.822 26.59C230.942 27.85 231.502 29.39 231.502 31.21C231.502 32.3767 231.269 33.45 230.802 34.43C230.382 35.41 229.776 36.2267 228.982 36.88C228.236 37.5333 227.349 38.0467 226.322 38.42C225.342 38.7933 224.269 38.98 223.102 38.98C223.196 38.7 223.266 38.42 223.312 38.14C223.359 37.86 223.382 37.5567 223.382 37.23C223.382 36.0167 222.962 35.0133 222.122 34.22C221.329 33.38 220.326 32.96 219.112 32.96C218.646 32.96 218.179 33.0767 217.712 33.31C217.246 33.4967 216.802 33.7767 216.382 34.15C216.009 34.4767 215.706 34.8733 215.472 35.34C215.239 35.76 215.122 36.2267 215.122 36.74V49.48C215.122 50.2733 215.146 51.1367 215.192 52.07C215.286 53.0033 215.449 53.9133 215.682 54.8C215.962 55.6867 216.336 56.5033 216.802 57.25C217.269 57.9967 217.876 58.58 218.622 59H201.332C202.079 58.58 202.686 57.9967 203.152 57.25C203.619 56.4567 203.969 55.64 204.202 54.8C204.482 53.9133 204.669 53.0033 204.762 52.07C204.856 51.1367 204.902 50.2733 204.902 49.48V39.54C204.902 38.56 204.809 37.6733 204.622 36.88C204.436 36.04 204.179 35.27 203.852 34.57C203.526 33.87 203.106 33.1933 202.592 32.54C202.126 31.84 201.589 31.1167 200.982 30.37C202.616 30.09 203.992 29.8333 205.112 29.6C206.279 29.32 207.352 28.9933 208.332 28.62C209.359 28.2467 210.386 27.8033 211.412 27.29C212.486 26.73 213.722 26.03 215.122 25.19V32.89ZM264.184 9.44V49.48C264.184 50.2733 264.207 51.1367 264.254 52.07C264.347 53.0033 264.51 53.9133 264.744 54.8C264.977 55.6867 265.327 56.5033 265.794 57.25C266.26 57.9967 266.89 58.58 267.684 59H253.964V56.13C253.17 57.25 252.167 58.1133 250.954 58.72C249.787 59.3267 248.177 59.63 246.124 59.63C243.697 59.63 241.55 59.1633 239.684 58.23C237.817 57.2967 236.23 56.06 234.924 54.52C233.664 52.9333 232.707 51.1133 232.054 49.06C231.4 47.0067 231.074 44.86 231.074 42.62C231.074 40.24 231.424 37.9533 232.124 35.76C232.824 33.5667 233.85 31.63 235.204 29.95C236.604 28.27 238.284 26.94 240.244 25.96C242.25 24.9333 244.514 24.42 247.034 24.42C247.36 24.42 247.85 24.5367 248.504 24.77C249.157 24.9567 249.834 25.19 250.534 25.47C251.234 25.7033 251.91 25.96 252.564 26.24C253.217 26.52 253.684 26.73 253.964 26.87V23.72C253.964 22.74 253.87 21.8533 253.684 21.06C253.497 20.22 253.24 19.45 252.914 18.75C252.587 18.05 252.167 17.3733 251.654 16.72C251.187 16.02 250.65 15.2967 250.044 14.55C251.677 14.27 253.054 14.0133 254.174 13.78C255.34 13.5 256.414 13.1733 257.394 12.8C258.42 12.4267 259.447 11.9833 260.474 11.47C261.547 10.91 262.784 10.2333 264.184 9.44ZM253.964 35.27C253.964 34.3367 253.894 33.3567 253.754 32.33C253.614 31.2567 253.334 30.2767 252.914 29.39C252.494 28.4567 251.91 27.6867 251.164 27.08C250.464 26.4733 249.53 26.17 248.364 26.17C246.964 26.17 245.774 26.5667 244.794 27.36C243.814 28.1067 243.02 29.0633 242.414 30.23C241.807 31.35 241.364 32.5867 241.084 33.94C240.85 35.2467 240.734 36.4833 240.734 37.65C240.734 39.47 240.967 41.2667 241.434 43.04C241.947 44.7667 242.694 46.33 243.674 47.73C244.654 49.0833 245.89 50.2033 247.384 51.09C248.924 51.93 250.697 52.35 252.704 52.35H253.964V35.27Z" fill="url(#paint0_linear_4351_31830)"/>
<g filter="url(#filter0_d_4351_31830)">
<ellipse cx="29.07" cy="36.7917" rx="22.8913" ry="28.1209" transform="rotate(-36.1332 29.07 36.7917)" fill="url(#paint1_linear_4351_31830)"/>
<ellipse cx="33.3681" cy="34.895" rx="21.4548" ry="27.5433" transform="rotate(-36.1332 33.3681 34.895)" fill="#30F6F6"/>
<ellipse cx="33.3607" cy="34.8673" rx="6.28971" ry="8.07463" transform="rotate(-36.1332 33.3607 34.8673)" fill="#020D0D"/>
</g>
</g>
<defs>
<filter id="filter0_d_4351_31830" x="-0.212498" y="7.07734" width="61.7766" height="62.8078" filterUnits="userSpaceOnUse" color-interpolation-filters="sRGB">
<feFlood flood-opacity="0" result="BackgroundImageFix"/>
<feColorMatrix in="SourceAlpha" type="matrix" values="0 0 0 0 0 0 0 0 0 0 0 0 0 0 0 0 0 0 127 0" result="hardAlpha"/>
<feOffset dy="2.22344"/>
<feGaussianBlur stdDeviation="2.22344"/>
<feComposite in2="hardAlpha" operator="out"/>
<feColorMatrix type="matrix" values="0 0 0 0 0 0 0 0 0 0 0 0 0 0 0 0 0 0 0.12 0"/>
<feBlend mode="normal" in2="BackgroundImageFix" result="effect1_dropShadow_4351_31830"/>
<feBlend mode="normal" in="SourceGraphic" in2="effect1_dropShadow_4351_31830" result="shape"/>
</filter>
<linearGradient id="paint0_linear_4351_31830" x1="66.5" y1="20" x2="226.232" y2="-49.9151" gradientUnits="userSpaceOnUse">
<stop stop-color="#30C7E9"/>
<stop offset="1" stop-color="#76DB7C"/>
</linearGradient>
<linearGradient id="paint1_linear_4351_31830" x1="15.2566" y1="9.47781" x2="32.7751" y2="79.4853" gradientUnits="userSpaceOnUse">
<stop stop-color="#30F6F6"/>
<stop offset="1" stop-color="#30F6F6" stop-opacity="0"/>
</linearGradient>
<clipPath id="clip0_4351_31830">
<rect width="272" height="80" fill="white"/>
</clipPath>
</defs>
</svg>
