<svg width="508" height="342" viewBox="0 0 508 342" fill="none" xmlns="http://www.w3.org/2000/svg">
<g clip-path="url(#clip0_4122_31894)">
<rect y="-15" width="508" height="357" fill="#F7F7F7"/>
<path d="M150 128.104C150 123.076 154.076 119 159.104 119H742.896C747.924 119 752 123.076 752 128.104V460.399H150V128.104Z" fill="#041004"/>
<rect x="363.941" y="268.078" width="28.4499" height="128.594" rx="4.55198" fill="url(#paint0_linear_4122_31894)"/>
<path d="M190.539 158.692H188.464V164.418H187.499V158.692H185.414V157.881H190.539V158.692ZM197.295 161.15C197.295 161.638 197.216 162.087 197.058 162.497C196.903 162.904 196.683 163.256 196.398 163.553C196.113 163.847 195.771 164.077 195.374 164.24C194.976 164.404 194.535 164.486 194.049 164.486C193.567 164.486 193.125 164.404 192.724 164.24C192.327 164.077 191.985 163.847 191.7 163.553C191.418 163.256 191.198 162.904 191.04 162.497C190.882 162.087 190.803 161.638 190.803 161.15C190.803 160.664 190.882 160.216 191.04 159.807C191.198 159.397 191.418 159.045 191.7 158.751C191.985 158.453 192.327 158.223 192.724 158.059C193.125 157.892 193.567 157.808 194.049 157.808C194.535 157.808 194.976 157.892 195.374 158.059C195.771 158.223 196.113 158.453 196.398 158.751C196.683 159.045 196.903 159.397 197.058 159.807C197.216 160.216 197.295 160.664 197.295 161.15ZM196.302 161.15C196.302 160.761 196.249 160.412 196.143 160.103C196.037 159.793 195.885 159.531 195.688 159.315C195.494 159.1 195.257 158.934 194.978 158.819C194.701 158.704 194.392 158.646 194.049 158.646C193.706 158.646 193.395 158.704 193.116 158.819C192.84 158.934 192.603 159.1 192.406 159.315C192.208 159.531 192.057 159.793 191.951 160.103C191.844 160.412 191.791 160.761 191.791 161.15C191.791 161.541 191.844 161.892 191.951 162.201C192.057 162.508 192.208 162.769 192.406 162.984C192.603 163.2 192.84 163.365 193.116 163.48C193.395 163.593 193.706 163.649 194.049 163.649C194.392 163.649 194.701 163.593 194.978 163.48C195.257 163.365 195.494 163.2 195.688 162.984C195.885 162.769 196.037 162.508 196.143 162.201C196.249 161.892 196.302 161.541 196.302 161.15ZM202.693 158.692H200.617V164.418H199.652V158.692H197.567V157.881H202.693V158.692ZM206.466 161.983L205.497 159.447C205.427 159.274 205.357 159.056 205.287 158.792C205.254 158.922 205.219 159.044 205.182 159.156C205.149 159.268 205.116 159.368 205.082 159.456L204.117 161.983H206.466ZM208.383 164.418H207.636C207.551 164.418 207.481 164.397 207.427 164.354C207.372 164.312 207.333 164.257 207.308 164.19L206.73 162.675H203.849L203.271 164.19C203.249 164.248 203.21 164.301 203.152 164.35C203.095 164.395 203.025 164.418 202.943 164.418H202.196L204.8 157.881H205.779L208.383 164.418ZM212.94 163.603V164.418H209.199V157.881H210.168V163.603H212.94ZM218.246 163.649C218.492 163.649 218.701 163.62 218.874 163.562C219.05 163.505 219.193 163.426 219.302 163.325C219.415 163.225 219.496 163.107 219.548 162.97C219.6 162.831 219.625 162.679 219.625 162.515C219.625 162.191 219.513 161.936 219.289 161.751C219.064 161.562 218.717 161.468 218.246 161.468H216.881V163.649H218.246ZM216.881 158.641V160.781H217.996C218.472 160.781 218.826 160.685 219.056 160.494C219.29 160.3 219.407 160.039 219.407 159.711C219.407 159.338 219.296 159.066 219.075 158.896C218.853 158.726 218.509 158.641 218.041 158.641H216.881ZM218.041 157.881C218.451 157.881 218.802 157.921 219.093 158C219.387 158.079 219.628 158.192 219.817 158.341C220.005 158.49 220.143 158.67 220.231 158.883C220.322 159.092 220.367 159.33 220.367 159.597C220.367 159.755 220.343 159.907 220.295 160.053C220.246 160.198 220.172 160.335 220.072 160.462C219.971 160.587 219.845 160.699 219.694 160.799C219.542 160.899 219.363 160.983 219.157 161.049C220.106 161.238 220.581 161.734 220.581 162.538C220.581 162.817 220.53 163.072 220.427 163.303C220.323 163.53 220.173 163.728 219.976 163.894C219.779 164.061 219.536 164.19 219.248 164.281C218.959 164.372 218.632 164.418 218.264 164.418H215.911V157.881H218.041ZM225.199 161.983L224.229 159.447C224.159 159.274 224.089 159.056 224.02 158.792C223.986 158.922 223.951 159.044 223.915 159.156C223.882 159.268 223.848 159.368 223.815 159.456L222.85 161.983H225.199ZM227.115 164.418H226.368C226.283 164.418 226.214 164.397 226.159 164.354C226.104 164.312 226.065 164.257 226.041 164.19L225.463 162.675H222.581L222.003 164.19C221.982 164.248 221.942 164.301 221.885 164.35C221.827 164.395 221.757 164.418 221.675 164.418H220.929L223.533 157.881H224.511L227.115 164.418ZM231.673 163.603V164.418H227.931V157.881H228.901V163.603H231.673ZM236.09 161.983L235.12 159.447C235.05 159.274 234.98 159.056 234.911 158.792C234.877 158.922 234.842 159.044 234.806 159.156C234.773 159.268 234.739 159.368 234.706 159.456L233.741 161.983H236.09ZM238.006 164.418H237.259C237.174 164.418 237.105 164.397 237.05 164.354C236.995 164.312 236.956 164.257 236.932 164.19L236.354 162.675H233.472L232.894 164.19C232.873 164.248 232.833 164.301 232.776 164.35C232.718 164.395 232.648 164.418 232.566 164.418H231.82L234.424 157.881H235.402L238.006 164.418ZM244.175 157.881V164.418H243.684C243.608 164.418 243.544 164.404 243.492 164.377C243.444 164.35 243.394 164.306 243.342 164.245L239.651 159.47C239.657 159.552 239.661 159.632 239.664 159.711C239.67 159.79 239.673 159.864 239.673 159.934V164.418H238.822V157.881H239.323C239.408 157.881 239.471 157.892 239.514 157.913C239.556 157.931 239.603 157.975 239.655 158.045L243.356 162.825C243.347 162.737 243.339 162.652 243.333 162.57C243.33 162.485 243.329 162.406 243.329 162.333V157.881H244.175ZM250.358 163.016C250.413 163.016 250.46 163.037 250.499 163.08L250.881 163.498C250.614 163.814 250.288 164.058 249.903 164.231C249.52 164.404 249.059 164.491 248.519 164.491C248.046 164.491 247.616 164.409 247.231 164.245C246.848 164.081 246.521 163.852 246.247 163.558C245.977 163.263 245.768 162.911 245.619 162.502C245.471 162.092 245.396 161.641 245.396 161.15C245.396 160.658 245.474 160.207 245.628 159.798C245.786 159.388 246.006 159.036 246.288 158.742C246.571 158.447 246.908 158.218 247.299 158.054C247.693 157.89 248.129 157.808 248.605 157.808C249.07 157.808 249.482 157.884 249.844 158.036C250.205 158.188 250.519 158.39 250.786 158.641L250.467 159.092C250.446 159.126 250.419 159.153 250.385 159.174C250.355 159.195 250.314 159.206 250.262 159.206C250.205 159.206 250.136 159.177 250.057 159.119C249.982 159.062 249.88 158.998 249.753 158.928C249.628 158.855 249.473 158.79 249.288 158.733C249.103 158.675 248.872 158.646 248.596 158.646C248.272 158.646 247.974 158.704 247.704 158.819C247.434 158.931 247.2 159.095 247.003 159.311C246.809 159.523 246.657 159.786 246.548 160.098C246.442 160.408 246.389 160.758 246.389 161.15C246.389 161.547 246.445 161.901 246.557 162.21C246.669 162.52 246.824 162.782 247.021 162.998C247.219 163.213 247.451 163.377 247.718 163.489C247.985 163.602 248.273 163.658 248.583 163.658C248.771 163.658 248.939 163.647 249.088 163.626C249.24 163.602 249.378 163.567 249.502 163.521C249.63 163.476 249.749 163.418 249.862 163.348C249.974 163.275 250.085 163.189 250.194 163.089C250.218 163.068 250.244 163.051 250.271 163.039C250.299 163.024 250.328 163.016 250.358 163.016ZM255.911 163.63L255.907 164.418H251.856V157.881H255.907V158.669H252.83V160.74H255.306V161.5H252.83V163.63H255.911Z" fill="white"/>
<path d="M198.125 185.459H195.451L195.997 186.495H198.125V185.459ZM198.216 190.66C198.186 190.379 198.163 190.102 198.148 189.829C198.133 189.556 198.125 189.298 198.125 189.055V188.054H196.828L198.216 190.66ZM193.289 186.495L192.743 185.459H190.603V186.495H193.289ZM190.524 181.283C190.554 181.548 190.573 181.81 190.58 182.068C190.596 182.318 190.603 182.553 190.603 182.773V183.9H191.912L190.524 181.283ZM200.64 185.459V186.495H202.495V187.325C202.495 187.507 202.419 187.674 202.268 187.826C202.123 187.978 201.934 188.054 201.699 188.054H200.64V194.188H198.171C197.936 194.188 197.735 194.15 197.568 194.074C197.408 193.99 197.253 193.854 197.101 193.664L194.12 188.054H190.603V194.188H188.077V188.054H186.222V186.495H188.077V185.459H186.222V184.628C186.222 184.446 186.298 184.279 186.449 184.128C186.601 183.976 186.791 183.9 187.018 183.9H188.077V177.732H190.569C190.698 177.732 190.808 177.74 190.899 177.755C190.998 177.762 191.081 177.785 191.149 177.823C191.225 177.853 191.297 177.903 191.366 177.971C191.434 178.032 191.51 178.115 191.593 178.221L194.62 183.9H198.125V177.732H200.64V183.9H202.495V185.459H200.64ZM211.539 187.985V182.603C211.539 182.094 211.573 181.533 211.641 180.918L206.532 187.985H211.539ZM216.057 187.985V189.613C216.057 189.764 216.007 189.897 215.909 190.011C215.81 190.117 215.67 190.17 215.488 190.17H213.986V194.188H211.539V190.17H204.597C204.407 190.17 204.241 190.113 204.096 190C203.952 189.878 203.861 189.73 203.823 189.556L203.527 188.133L211.323 177.721H213.986V187.985H216.057ZM217.982 196.976C217.845 196.862 217.777 196.721 217.777 196.555C217.777 196.494 217.796 196.426 217.834 196.35C217.879 196.274 217.932 196.206 217.993 196.145C218.077 196.054 218.179 195.94 218.3 195.803C218.422 195.674 218.543 195.523 218.665 195.348C218.786 195.181 218.896 194.995 218.995 194.791C219.101 194.593 219.18 194.381 219.234 194.153C218.991 194.153 218.771 194.112 218.574 194.028C218.376 193.937 218.206 193.816 218.061 193.664C217.925 193.512 217.815 193.334 217.731 193.129C217.656 192.924 217.618 192.701 217.618 192.458C217.618 192.245 217.656 192.048 217.731 191.866C217.815 191.676 217.929 191.513 218.073 191.377C218.217 191.233 218.391 191.122 218.596 191.047C218.801 190.963 219.025 190.921 219.268 190.921C219.556 190.921 219.806 190.975 220.019 191.081C220.239 191.179 220.417 191.32 220.554 191.502C220.698 191.676 220.804 191.881 220.872 192.116C220.948 192.344 220.986 192.587 220.986 192.845C220.986 193.209 220.929 193.592 220.815 193.994C220.709 194.396 220.55 194.798 220.337 195.2C220.125 195.602 219.859 195.993 219.541 196.372C219.23 196.752 218.873 197.101 218.471 197.419L217.982 196.976ZM234.605 185.96C234.605 187.394 234.45 188.642 234.138 189.704C233.835 190.758 233.41 191.631 232.864 192.321C232.325 193.012 231.684 193.527 230.941 193.869C230.205 194.203 229.408 194.37 228.551 194.37C227.694 194.37 226.897 194.203 226.161 193.869C225.433 193.527 224.799 193.012 224.261 192.321C223.722 191.631 223.301 190.758 222.997 189.704C222.694 188.642 222.542 187.394 222.542 185.96C222.542 184.518 222.694 183.27 222.997 182.216C223.301 181.161 223.722 180.289 224.261 179.598C224.799 178.908 225.433 178.396 226.161 178.062C226.897 177.721 227.694 177.55 228.551 177.55C229.408 177.55 230.205 177.721 230.941 178.062C231.684 178.396 232.325 178.908 232.864 179.598C233.41 180.289 233.835 181.161 234.138 182.216C234.45 183.27 234.605 184.518 234.605 185.96ZM231.703 185.96C231.703 184.769 231.616 183.782 231.441 183.001C231.267 182.22 231.032 181.597 230.736 181.135C230.448 180.672 230.114 180.349 229.734 180.167C229.355 179.978 228.961 179.883 228.551 179.883C228.149 179.883 227.758 179.978 227.379 180.167C227.007 180.349 226.677 180.672 226.389 181.135C226.1 181.597 225.869 182.22 225.695 183.001C225.528 183.782 225.444 184.769 225.444 185.96C225.444 187.151 225.528 188.137 225.695 188.919C225.869 189.7 226.1 190.322 226.389 190.785C226.677 191.248 227.007 191.574 227.379 191.764C227.758 191.946 228.149 192.037 228.551 192.037C228.961 192.037 229.355 191.946 229.734 191.764C230.114 191.574 230.448 191.248 230.736 190.785C231.032 190.322 231.267 189.7 231.441 188.919C231.616 188.137 231.703 187.151 231.703 185.96ZM247.808 185.96C247.808 187.394 247.652 188.642 247.341 189.704C247.038 190.758 246.613 191.631 246.066 192.321C245.528 193.012 244.887 193.527 244.143 193.869C243.407 194.203 242.611 194.37 241.753 194.37C240.896 194.37 240.1 194.203 239.364 193.869C238.635 193.527 238.002 193.012 237.463 192.321C236.925 191.631 236.503 190.758 236.2 189.704C235.897 188.642 235.745 187.394 235.745 185.96C235.745 184.518 235.897 183.27 236.2 182.216C236.503 181.161 236.925 180.289 237.463 179.598C238.002 178.908 238.635 178.396 239.364 178.062C240.1 177.721 240.896 177.55 241.753 177.55C242.611 177.55 243.407 177.721 244.143 178.062C244.887 178.396 245.528 178.908 246.066 179.598C246.613 180.289 247.038 181.161 247.341 182.216C247.652 183.27 247.808 184.518 247.808 185.96ZM244.906 185.96C244.906 184.769 244.818 183.782 244.644 183.001C244.469 182.22 244.234 181.597 243.938 181.135C243.65 180.672 243.316 180.349 242.937 180.167C242.558 179.978 242.163 179.883 241.753 179.883C241.351 179.883 240.961 179.978 240.581 180.167C240.21 180.349 239.88 180.672 239.591 181.135C239.303 181.597 239.072 182.22 238.897 183.001C238.73 183.782 238.647 184.769 238.647 185.96C238.647 187.151 238.73 188.137 238.897 188.919C239.072 189.7 239.303 190.322 239.591 190.785C239.88 191.248 240.21 191.574 240.581 191.764C240.961 191.946 241.351 192.037 241.753 192.037C242.163 192.037 242.558 191.946 242.937 191.764C243.316 191.574 243.65 191.248 243.938 190.785C244.234 190.322 244.469 189.7 244.644 188.919C244.818 188.137 244.906 187.151 244.906 185.96ZM261.01 185.96C261.01 187.394 260.855 188.642 260.544 189.704C260.24 190.758 259.815 191.631 259.269 192.321C258.73 193.012 258.089 193.527 257.346 193.869C256.61 194.203 255.813 194.37 254.956 194.37C254.099 194.37 253.302 194.203 252.566 193.869C251.838 193.527 251.204 193.012 250.666 192.321C250.127 191.631 249.706 190.758 249.403 189.704C249.099 188.642 248.947 187.394 248.947 185.96C248.947 184.518 249.099 183.27 249.403 182.216C249.706 181.161 250.127 180.289 250.666 179.598C251.204 178.908 251.838 178.396 252.566 178.062C253.302 177.721 254.099 177.55 254.956 177.55C255.813 177.55 256.61 177.721 257.346 178.062C258.089 178.396 258.73 178.908 259.269 179.598C259.815 180.289 260.24 181.161 260.544 182.216C260.855 183.27 261.01 184.518 261.01 185.96ZM258.108 185.96C258.108 184.769 258.021 183.782 257.846 183.001C257.672 182.22 257.437 181.597 257.141 181.135C256.853 180.672 256.519 180.349 256.139 180.167C255.76 179.978 255.366 179.883 254.956 179.883C254.554 179.883 254.163 179.978 253.784 180.167C253.412 180.349 253.082 180.672 252.794 181.135C252.505 181.597 252.274 182.22 252.1 183.001C251.933 183.782 251.849 184.769 251.849 185.96C251.849 187.151 251.933 188.137 252.1 188.919C252.274 189.7 252.505 190.322 252.794 190.785C253.082 191.248 253.412 191.574 253.784 191.764C254.163 191.946 254.554 192.037 254.956 192.037C255.366 192.037 255.76 191.946 256.139 191.764C256.519 191.574 256.853 191.248 257.141 190.785C257.437 190.322 257.672 189.7 257.846 188.919C258.021 188.137 258.108 187.151 258.108 185.96ZM262.56 192.64C262.56 192.405 262.601 192.181 262.685 191.968C262.776 191.756 262.897 191.574 263.049 191.422C263.201 191.27 263.383 191.149 263.595 191.058C263.808 190.967 264.035 190.921 264.278 190.921C264.521 190.921 264.745 190.967 264.949 191.058C265.162 191.149 265.344 191.27 265.496 191.422C265.655 191.574 265.78 191.756 265.871 191.968C265.962 192.181 266.008 192.405 266.008 192.64C266.008 192.883 265.962 193.11 265.871 193.323C265.78 193.527 265.655 193.706 265.496 193.857C265.344 194.009 265.162 194.127 264.949 194.21C264.745 194.301 264.521 194.347 264.278 194.347C264.035 194.347 263.808 194.301 263.595 194.21C263.383 194.127 263.201 194.009 263.049 193.857C262.897 193.706 262.776 193.527 262.685 193.323C262.601 193.11 262.56 192.883 262.56 192.64ZM279.614 185.96C279.614 187.394 279.458 188.642 279.147 189.704C278.844 190.758 278.419 191.631 277.873 192.321C277.334 193.012 276.693 193.527 275.949 193.869C275.213 194.203 274.417 194.37 273.56 194.37C272.702 194.37 271.906 194.203 271.17 193.869C270.441 193.527 269.808 193.012 269.269 192.321C268.731 191.631 268.31 190.758 268.006 189.704C267.703 188.642 267.551 187.394 267.551 185.96C267.551 184.518 267.703 183.27 268.006 182.216C268.31 181.161 268.731 180.289 269.269 179.598C269.808 178.908 270.441 178.396 271.17 178.062C271.906 177.721 272.702 177.55 273.56 177.55C274.417 177.55 275.213 177.721 275.949 178.062C276.693 178.396 277.334 178.908 277.873 179.598C278.419 180.289 278.844 181.161 279.147 182.216C279.458 183.27 279.614 184.518 279.614 185.96ZM276.712 185.96C276.712 184.769 276.625 183.782 276.45 183.001C276.276 182.22 276.04 181.597 275.744 181.135C275.456 180.672 275.122 180.349 274.743 180.167C274.364 179.978 273.969 179.883 273.56 179.883C273.157 179.883 272.767 179.978 272.387 180.167C272.016 180.349 271.686 180.672 271.397 181.135C271.109 181.597 270.878 182.22 270.703 183.001C270.536 183.782 270.453 184.769 270.453 185.96C270.453 187.151 270.536 188.137 270.703 188.919C270.878 189.7 271.109 190.322 271.397 190.785C271.686 191.248 272.016 191.574 272.387 191.764C272.767 191.946 273.157 192.037 273.56 192.037C273.969 192.037 274.364 191.946 274.743 191.764C275.122 191.574 275.456 191.248 275.744 190.785C276.04 190.322 276.276 189.7 276.45 188.919C276.625 188.137 276.712 187.151 276.712 185.96ZM292.816 185.96C292.816 187.394 292.661 188.642 292.35 189.704C292.046 190.758 291.621 191.631 291.075 192.321C290.536 193.012 289.895 193.527 289.152 193.869C288.416 194.203 287.619 194.37 286.762 194.37C285.905 194.37 285.108 194.203 284.372 193.869C283.644 193.527 283.01 193.012 282.472 192.321C281.933 191.631 281.512 190.758 281.209 189.704C280.905 188.642 280.753 187.394 280.753 185.96C280.753 184.518 280.905 183.27 281.209 182.216C281.512 181.161 281.933 180.289 282.472 179.598C283.01 178.908 283.644 178.396 284.372 178.062C285.108 177.721 285.905 177.55 286.762 177.55C287.619 177.55 288.416 177.721 289.152 178.062C289.895 178.396 290.536 178.908 291.075 179.598C291.621 180.289 292.046 181.161 292.35 182.216C292.661 183.27 292.816 184.518 292.816 185.96ZM289.914 185.96C289.914 184.769 289.827 183.782 289.653 183.001C289.478 182.22 289.243 181.597 288.947 181.135C288.659 180.672 288.325 180.349 287.946 180.167C287.566 179.978 287.172 179.883 286.762 179.883C286.36 179.883 285.969 179.978 285.59 180.167C285.218 180.349 284.888 180.672 284.6 181.135C284.312 181.597 284.08 182.22 283.906 183.001C283.739 183.782 283.655 184.769 283.655 185.96C283.655 187.151 283.739 188.137 283.906 188.919C284.08 189.7 284.312 190.322 284.6 190.785C284.888 191.248 285.218 191.574 285.59 191.764C285.969 191.946 286.36 192.037 286.762 192.037C287.172 192.037 287.566 191.946 287.946 191.764C288.325 191.574 288.659 191.248 288.947 190.785C289.243 190.322 289.478 189.7 289.653 188.919C289.827 188.137 289.914 187.151 289.914 185.96Z" fill="white"/>
<path d="M185.277 351.151H200.105C208.274 351.151 216.015 347.494 221.202 341.183L257.869 296.583C268.003 284.256 286.925 284.414 296.851 296.909V296.909C305.51 307.809 321.392 309.563 332.221 300.816L350.099 286.376C360.047 278.341 374.237 278.284 384.25 286.239L409.797 306.536C417.67 312.79 428.342 314.213 437.579 310.24L449.74 305.009C461.496 299.952 475.188 303.737 482.678 314.114L491.12 325.811C500.799 339.22 520.08 341.019 532.072 329.632L542.299 319.921C551.311 311.364 564.963 309.969 575.519 316.528L607.487 336.39C620.515 344.485 637.653 340.267 645.436 327.05L654.371 311.875C663.399 296.544 684.441 293.799 697.099 306.302L707.618 316.691" stroke="#FFA000" stroke-width="2.27599"/>
<g filter="url(#filter0_d_4122_31894)">
<rect x="349.148" y="251.008" width="62.5898" height="20.4839" rx="2.27599" fill="#FFA000"/>
<path d="M363.402 263.68C363.723 263.638 363.966 263.53 364.13 263.357C364.297 263.181 364.38 262.952 364.38 262.67C364.38 262.554 364.359 262.454 364.317 262.369C364.277 262.281 364.219 262.204 364.144 262.137C364.071 262.07 363.984 262.013 363.884 261.964C363.784 261.915 363.675 261.87 363.556 261.827L363.402 263.68ZM363.11 258.869C362.94 258.89 362.796 258.926 362.678 258.978C362.559 259.026 362.462 259.087 362.387 259.16C362.311 259.233 362.254 259.315 362.218 259.406C362.185 259.497 362.168 259.592 362.168 259.693C362.168 259.808 362.188 259.909 362.227 259.998C362.27 260.082 362.326 260.16 362.396 260.23C362.468 260.296 362.553 260.357 362.651 260.412C362.748 260.463 362.854 260.512 362.969 260.557L363.11 258.869ZM363.643 260.776C363.861 260.843 364.078 260.917 364.294 260.999C364.509 261.078 364.702 261.181 364.872 261.308C365.045 261.436 365.184 261.595 365.291 261.786C365.397 261.975 365.45 262.211 365.45 262.497C365.45 262.779 365.403 263.044 365.309 263.293C365.215 263.539 365.077 263.757 364.895 263.949C364.713 264.137 364.49 264.292 364.226 264.413C363.961 264.531 363.66 264.601 363.32 264.622L363.265 265.291C363.262 265.361 363.232 265.425 363.174 265.483C363.119 265.543 363.05 265.574 362.965 265.574H362.55L362.632 264.6C362.277 264.551 361.943 264.454 361.631 264.308C361.318 264.163 361.053 263.982 360.834 263.767L361.18 263.252C361.211 263.207 361.25 263.17 361.299 263.143C361.35 263.113 361.405 263.097 361.462 263.097C361.529 263.097 361.601 263.122 361.676 263.17C361.752 263.216 361.839 263.27 361.936 263.334C362.033 263.395 362.144 263.457 362.268 263.521C362.393 263.584 362.54 263.632 362.71 263.662L362.878 261.627C362.663 261.566 362.449 261.495 362.236 261.413C362.027 261.331 361.837 261.224 361.667 261.09C361.5 260.953 361.365 260.782 361.262 260.576C361.159 260.369 361.107 260.111 361.107 259.802C361.107 259.571 361.153 259.347 361.244 259.128C361.335 258.907 361.469 258.709 361.645 258.536C361.824 258.363 362.042 258.221 362.3 258.108C362.558 257.996 362.854 257.932 363.188 257.917L363.238 257.344C363.244 257.271 363.274 257.206 363.329 257.148C363.383 257.09 363.455 257.061 363.543 257.061H363.957L363.884 257.954C364.206 258.005 364.483 258.098 364.717 258.231C364.951 258.362 365.153 258.509 365.323 258.673L365.049 259.087C365.01 259.148 364.969 259.193 364.927 259.224C364.884 259.254 364.832 259.269 364.772 259.269C364.726 259.269 364.672 259.256 364.608 259.228C364.544 259.198 364.473 259.163 364.394 259.124C364.315 259.081 364.226 259.039 364.125 258.996C364.028 258.954 363.921 258.919 363.802 258.891L363.643 260.776ZM370.781 257.976V258.463C370.781 258.609 370.766 258.728 370.736 258.819C370.705 258.907 370.675 258.981 370.645 259.042L368.15 264.176C368.098 264.282 368.026 264.373 367.932 264.449C367.837 264.522 367.712 264.559 367.554 264.559H366.739L369.283 259.529C369.341 259.425 369.397 259.331 369.452 259.246C369.51 259.158 369.573 259.075 369.643 258.996H366.493C366.423 258.996 366.363 258.97 366.311 258.919C366.259 258.867 366.234 258.806 366.234 258.737V257.976H370.781ZM376.144 261.268C376.144 261.841 376.082 262.34 375.957 262.765C375.836 263.187 375.666 263.536 375.448 263.812C375.232 264.088 374.976 264.295 374.678 264.431C374.384 264.565 374.065 264.631 373.722 264.631C373.379 264.631 373.061 264.565 372.766 264.431C372.475 264.295 372.222 264.088 372.006 263.812C371.791 263.536 371.622 263.187 371.501 262.765C371.38 262.34 371.319 261.841 371.319 261.268C371.319 260.691 371.38 260.192 371.501 259.77C371.622 259.348 371.791 258.999 372.006 258.723C372.222 258.447 372.475 258.242 372.766 258.108C373.061 257.972 373.379 257.904 373.722 257.904C374.065 257.904 374.384 257.972 374.678 258.108C374.976 258.242 375.232 258.447 375.448 258.723C375.666 258.999 375.836 259.348 375.957 259.77C376.082 260.192 376.144 260.691 376.144 261.268ZM374.983 261.268C374.983 260.791 374.948 260.397 374.879 260.084C374.809 259.771 374.715 259.523 374.596 259.337C374.481 259.152 374.348 259.023 374.196 258.951C374.044 258.875 373.886 258.837 373.722 258.837C373.562 258.837 373.405 258.875 373.254 258.951C373.105 259.023 372.973 259.152 372.857 259.337C372.742 259.523 372.65 259.771 372.58 260.084C372.513 260.397 372.48 260.791 372.48 261.268C372.48 261.744 372.513 262.138 372.58 262.451C372.65 262.764 372.742 263.012 372.857 263.198C372.973 263.383 373.105 263.513 373.254 263.589C373.405 263.662 373.562 263.698 373.722 263.698C373.886 263.698 374.044 263.662 374.196 263.589C374.348 263.513 374.481 263.383 374.596 263.198C374.715 263.012 374.809 262.764 374.879 262.451C374.948 262.138 374.983 261.744 374.983 261.268ZM381.425 261.268C381.425 261.841 381.363 262.34 381.238 262.765C381.117 263.187 380.947 263.536 380.729 263.812C380.513 264.088 380.257 264.295 379.959 264.431C379.665 264.565 379.346 264.631 379.003 264.631C378.66 264.631 378.342 264.565 378.047 264.431C377.756 264.295 377.503 264.088 377.287 263.812C377.072 263.536 376.903 263.187 376.782 262.765C376.661 262.34 376.6 261.841 376.6 261.268C376.6 260.691 376.661 260.192 376.782 259.77C376.903 259.348 377.072 258.999 377.287 258.723C377.503 258.447 377.756 258.242 378.047 258.108C378.342 257.972 378.66 257.904 379.003 257.904C379.346 257.904 379.665 257.972 379.959 258.108C380.257 258.242 380.513 258.447 380.729 258.723C380.947 258.999 381.117 259.348 381.238 259.77C381.363 260.192 381.425 260.691 381.425 261.268ZM380.264 261.268C380.264 260.791 380.229 260.397 380.16 260.084C380.09 259.771 379.996 259.523 379.877 259.337C379.762 259.152 379.629 259.023 379.477 258.951C379.325 258.875 379.167 258.837 379.003 258.837C378.843 258.837 378.686 258.875 378.535 258.951C378.386 259.023 378.254 259.152 378.139 259.337C378.023 259.523 377.931 259.771 377.861 260.084C377.794 260.397 377.761 260.791 377.761 261.268C377.761 261.744 377.794 262.138 377.861 262.451C377.931 262.764 378.023 263.012 378.139 263.198C378.254 263.383 378.386 263.513 378.535 263.589C378.686 263.662 378.843 263.698 379.003 263.698C379.167 263.698 379.325 263.662 379.477 263.589C379.629 263.513 379.762 263.383 379.877 263.198C379.996 263.012 380.09 262.764 380.16 262.451C380.229 262.138 380.264 261.744 380.264 261.268ZM382.045 263.94C382.045 263.845 382.062 263.756 382.095 263.671C382.131 263.586 382.18 263.513 382.241 263.452C382.301 263.392 382.374 263.343 382.459 263.307C382.544 263.27 382.635 263.252 382.732 263.252C382.829 263.252 382.919 263.27 383.001 263.307C383.086 263.343 383.159 263.392 383.219 263.452C383.283 263.513 383.333 263.586 383.369 263.671C383.406 263.756 383.424 263.845 383.424 263.94C383.424 264.037 383.406 264.128 383.369 264.213C383.333 264.295 383.283 264.366 383.219 264.427C383.159 264.487 383.086 264.534 383.001 264.568C382.919 264.604 382.829 264.622 382.732 264.622C382.635 264.622 382.544 264.604 382.459 264.568C382.374 264.534 382.301 264.487 382.241 264.427C382.18 264.366 382.131 264.295 382.095 264.213C382.062 264.128 382.045 264.037 382.045 263.94ZM386.454 263.753C386.639 263.753 386.801 263.727 386.941 263.676C387.081 263.621 387.197 263.547 387.291 263.452C387.389 263.358 387.461 263.246 387.51 263.116C387.559 262.985 387.583 262.844 387.583 262.692C387.583 262.331 387.483 262.058 387.282 261.873C387.082 261.688 386.806 261.595 386.454 261.595C386.102 261.595 385.826 261.688 385.625 261.873C385.425 262.058 385.325 262.331 385.325 262.692C385.325 262.844 385.349 262.985 385.398 263.116C385.446 263.246 385.518 263.358 385.612 263.452C385.709 263.547 385.827 263.621 385.967 263.676C386.106 263.727 386.269 263.753 386.454 263.753ZM386.454 258.75C386.287 258.75 386.143 258.776 386.021 258.828C385.9 258.879 385.798 258.949 385.716 259.037C385.638 259.122 385.578 259.221 385.539 259.333C385.503 259.445 385.484 259.564 385.484 259.688C385.484 259.818 385.5 259.946 385.53 260.07C385.563 260.192 385.618 260.301 385.694 260.398C385.77 260.492 385.87 260.568 385.994 260.626C386.119 260.683 386.272 260.712 386.454 260.712C386.636 260.712 386.789 260.683 386.914 260.626C387.038 260.568 387.138 260.492 387.214 260.398C387.29 260.301 387.343 260.192 387.373 260.07C387.407 259.946 387.423 259.818 387.423 259.688C387.423 259.564 387.404 259.445 387.364 259.333C387.325 259.221 387.266 259.122 387.187 259.037C387.108 258.949 387.008 258.879 386.886 258.828C386.765 258.776 386.621 258.75 386.454 258.75ZM387.565 261.126C387.965 261.257 388.261 261.457 388.452 261.727C388.643 261.994 388.739 262.322 388.739 262.71C388.739 263.002 388.683 263.266 388.571 263.503C388.461 263.739 388.307 263.941 388.106 264.108C387.906 264.275 387.665 264.404 387.383 264.495C387.103 264.586 386.794 264.631 386.454 264.631C386.114 264.631 385.803 264.586 385.521 264.495C385.242 264.404 385.002 264.275 384.802 264.108C384.601 263.941 384.445 263.739 384.333 263.503C384.223 263.266 384.169 263.002 384.169 262.71C384.169 262.322 384.264 261.994 384.456 261.727C384.647 261.457 384.943 261.257 385.343 261.126C385.025 260.993 384.785 260.803 384.624 260.557C384.466 260.312 384.387 260.016 384.387 259.67C384.387 259.421 384.437 259.189 384.538 258.973C384.641 258.758 384.783 258.571 384.965 258.413C385.147 258.253 385.364 258.128 385.616 258.04C385.871 257.949 386.15 257.904 386.454 257.904C386.757 257.904 387.035 257.949 387.287 258.04C387.542 258.128 387.76 258.253 387.942 258.413C388.124 258.571 388.266 258.758 388.366 258.973C388.469 259.189 388.521 259.421 388.521 259.67C388.521 260.016 388.44 260.312 388.279 260.557C388.121 260.803 387.883 260.993 387.565 261.126ZM394.066 257.976V258.463C394.066 258.609 394.05 258.728 394.02 258.819C393.99 258.907 393.959 258.981 393.929 259.042L391.435 264.176C391.383 264.282 391.31 264.373 391.216 264.449C391.122 264.522 390.996 264.559 390.838 264.559H390.023L392.568 259.529C392.626 259.425 392.682 259.331 392.736 259.246C392.794 259.158 392.858 259.075 392.928 258.996H389.778C389.708 258.996 389.647 258.97 389.595 258.919C389.544 258.867 389.518 258.806 389.518 258.737V257.976H394.066ZM396.752 260.366L396.524 260.648C396.652 260.585 396.788 260.536 396.934 260.503C397.083 260.466 397.242 260.448 397.412 260.448C397.661 260.448 397.902 260.489 398.136 260.571C398.372 260.653 398.58 260.777 398.759 260.944C398.938 261.108 399.083 261.313 399.192 261.559C399.301 261.805 399.356 262.091 399.356 262.419C399.356 262.726 399.3 263.014 399.187 263.284C399.075 263.551 398.917 263.785 398.714 263.985C398.511 264.185 398.265 264.343 397.976 264.458C397.691 264.574 397.376 264.631 397.03 264.631C396.678 264.631 396.362 264.575 396.083 264.463C395.804 264.351 395.565 264.194 395.368 263.994C395.171 263.791 395.019 263.548 394.913 263.266C394.81 262.981 394.758 262.665 394.758 262.319C394.758 262.009 394.82 261.692 394.945 261.368C395.072 261.04 395.268 260.7 395.532 260.348L397.102 258.24C397.157 258.168 397.236 258.105 397.339 258.054C397.445 258.002 397.567 257.976 397.703 257.976H398.705L396.752 260.366ZM397.007 263.712C397.186 263.712 397.35 263.682 397.498 263.621C397.65 263.56 397.779 263.475 397.885 263.366C397.995 263.257 398.08 263.129 398.14 262.984C398.201 262.835 398.231 262.674 398.231 262.501C398.231 262.313 398.202 262.145 398.145 261.996C398.087 261.844 398.005 261.717 397.899 261.613C397.793 261.507 397.665 261.427 397.517 261.372C397.368 261.318 397.204 261.29 397.025 261.29C396.846 261.29 396.684 261.321 396.538 261.381C396.392 261.442 396.268 261.527 396.165 261.636C396.062 261.742 395.981 261.87 395.923 262.019C395.866 262.164 395.837 262.322 395.837 262.492C395.837 262.674 395.861 262.841 395.91 262.993C395.961 263.141 396.036 263.269 396.133 263.375C396.233 263.481 396.356 263.565 396.502 263.625C396.647 263.683 396.816 263.712 397.007 263.712Z" fill="white"/>
</g>
<circle cx="377.598" cy="281.734" r="5.68998" fill="#FFA000" stroke="#F4DEB9" stroke-width="2.27599"/>
<g filter="url(#filter1_d_4122_31894)">
<rect x="49" y="84" width="172" height="70.5817" rx="2.74104" fill="white"/>
<path d="M66.9678 104.02H71.178V103.238H67.8641V101.322H70.7669V100.599H67.8641V98.7979H71.1698V98.0249H66.9678V104.02ZM73.7241 104.102C74.8589 104.102 75.5661 103.674 75.5661 102.786C75.5661 101.791 74.8095 101.594 73.905 101.47C73.1649 101.372 72.836 101.24 72.836 100.813C72.836 100.442 73.1485 100.188 73.7241 100.188C74.2833 100.188 74.6369 100.426 74.6451 100.952H75.4756C75.4592 100.105 74.8095 99.5873 73.7405 99.5873C72.688 99.5873 71.989 100.064 71.989 100.895C71.989 101.783 72.6715 102.013 73.6583 102.153C74.3902 102.26 74.7026 102.375 74.7026 102.86C74.7026 103.263 74.3737 103.501 73.7488 103.501C73.1402 103.501 72.7044 103.247 72.7044 102.654H71.8657C71.8657 103.518 72.5317 104.102 73.7241 104.102ZM77.7706 104.02H78.6422V103.321H78.0501C77.7788 103.321 77.6801 103.247 77.6801 102.959V100.36H78.6422V99.6695H77.6801V98.3127L76.8331 98.4114V99.6695H76.0108V100.36H76.8331V103.115C76.8331 103.699 77.0552 104.02 77.7706 104.02ZM79.4841 99.0034H80.331V98.0249H79.4841V99.0034ZM79.4841 104.02H80.331V99.6695H79.4841V104.02ZM81.5077 104.02H82.3465V101.643C82.3465 100.895 82.7987 100.303 83.5224 100.303C84.1967 100.303 84.5009 100.722 84.5009 101.61V104.02H85.3479V101.643C85.3479 100.895 85.8002 100.303 86.5156 100.303C87.1981 100.303 87.5024 100.722 87.5024 101.61V104.02H88.3411V101.437C88.3411 100.105 87.6997 99.6037 86.8363 99.6037C86.1373 99.6037 85.5453 99.9491 85.3068 100.623H85.241C85.019 99.8833 84.4762 99.6037 83.8348 99.6037C83.2017 99.6037 82.6425 99.9162 82.3958 100.533H82.3465L82.3136 99.6695H81.5077V104.02ZM90.962 104.094C91.6939 104.094 92.2366 103.715 92.4422 103.156H92.4915V104.02H93.3385V99.6695H92.5244L92.4915 100.525H92.4422C92.2366 99.9655 91.6939 99.5955 90.962 99.5955C89.9013 99.5955 89.1858 100.385 89.1858 101.84C89.1858 103.296 89.9013 104.094 90.962 104.094ZM91.2581 103.395C90.5344 103.395 90.0575 102.86 90.0575 101.84C90.0575 100.813 90.5344 100.286 91.2581 100.286C92.0639 100.286 92.4833 100.928 92.4833 101.594V102.087C92.4833 102.761 92.0639 103.395 91.2581 103.395ZM95.7666 104.02H96.6383V103.321H96.0462C95.7749 103.321 95.6762 103.247 95.6762 102.959V100.36H96.6383V99.6695H95.6762V98.3127L94.8292 98.4114V99.6695H94.0069V100.36H94.8292V103.115C94.8292 103.699 95.0512 104.02 95.7666 104.02ZM99.1688 104.094C100.197 104.094 100.986 103.534 101.101 102.679H100.295C100.188 103.131 99.7526 103.419 99.1688 103.419C98.4122 103.419 97.9188 102.909 97.9024 102.013H101.126C101.257 100.648 100.567 99.6037 99.1359 99.6037C97.8613 99.6037 97.0636 100.492 97.0636 101.865C97.0636 103.205 97.8613 104.094 99.1688 104.094ZM99.1276 100.27C99.769 100.27 100.271 100.607 100.295 101.413H97.9188C97.9846 100.706 98.4451 100.27 99.1276 100.27ZM103.602 104.094C104.334 104.094 104.876 103.715 105.082 103.156H105.131L105.164 104.02H105.978V98.0249H105.131V100.525H105.082C104.876 99.9655 104.334 99.5955 103.602 99.5955C102.541 99.5955 101.826 100.385 101.826 101.84C101.826 103.296 102.541 104.094 103.602 104.094ZM103.898 103.395C103.174 103.395 102.697 102.86 102.697 101.84C102.697 100.813 103.174 100.286 103.898 100.286C104.704 100.286 105.123 100.928 105.123 101.594V102.087C105.123 102.761 104.704 103.395 103.898 103.395ZM110.484 104.094C111.216 104.094 111.758 103.715 111.964 103.156H112.013V104.02H112.86V99.6695H112.046L112.013 100.525H111.964C111.758 99.9655 111.216 99.5955 110.484 99.5955C109.423 99.5955 108.708 100.385 108.708 101.84C108.708 103.296 109.423 104.094 110.484 104.094ZM110.78 103.395C110.056 103.395 109.579 102.86 109.579 101.84C109.579 100.813 110.056 100.286 110.78 100.286C111.586 100.286 112.005 100.928 112.005 101.594V102.087C112.005 102.761 111.586 103.395 110.78 103.395ZM114.047 104.02H114.886V101.643C114.886 100.895 115.338 100.303 116.061 100.303C116.736 100.303 117.04 100.722 117.04 101.61V104.02H117.887V101.643C117.887 100.895 118.339 100.303 119.055 100.303C119.737 100.303 120.041 100.722 120.041 101.61V104.02H120.88V101.437C120.88 100.105 120.239 99.6037 119.375 99.6037C118.676 99.6037 118.084 99.9491 117.846 100.623H117.78C117.558 99.8833 117.015 99.6037 116.374 99.6037C115.741 99.6037 115.182 99.9162 114.935 100.533H114.886L114.853 99.6695H114.047V104.02ZM123.855 104.094C125.162 104.094 125.976 103.181 125.976 101.849C125.976 100.467 125.121 99.6037 123.855 99.6037C122.539 99.6037 121.725 100.516 121.725 101.857C121.725 103.222 122.58 104.094 123.855 104.094ZM123.855 103.386C123.082 103.386 122.588 102.827 122.588 101.857C122.588 100.854 123.098 100.303 123.855 100.303C124.636 100.303 125.113 100.87 125.113 101.849C125.113 102.835 124.611 103.386 123.855 103.386ZM128.385 104.094C129.059 104.094 129.626 103.74 129.84 103.14H129.889L129.931 104.02H130.736V99.6695H129.889V102.021C129.889 102.819 129.412 103.386 128.697 103.386C127.965 103.386 127.669 102.942 127.669 102.136V99.6695H126.822V102.35C126.822 103.501 127.398 104.094 128.385 104.094ZM131.882 104.02H132.721V101.643C132.721 100.895 133.19 100.303 133.938 100.303C134.629 100.303 134.949 100.722 134.949 101.61V104.02H135.796V101.437C135.796 100.105 135.13 99.6037 134.242 99.6037C133.601 99.6037 133.025 99.9162 132.77 100.533H132.721L132.688 99.6695H131.882V104.02ZM138.079 104.02H138.95V103.321H138.358C138.087 103.321 137.988 103.247 137.988 102.959V100.36H138.95V99.6695H137.988V98.3127L137.141 98.4114V99.6695H136.319V100.36H137.141V103.115C137.141 103.699 137.363 104.02 138.079 104.02ZM141.977 104.02H142.824V100.36H143.786V99.6695H142.824V99.1103C142.824 98.8307 142.93 98.6416 143.317 98.6416H143.876V98.0249H143.095C142.404 98.0249 141.977 98.3703 141.977 99.0281V99.6695H141.187V100.36H141.977V104.02ZM146.235 104.094C147.543 104.094 148.357 103.181 148.357 101.849C148.357 100.467 147.502 99.6037 146.235 99.6037C144.92 99.6037 144.106 100.516 144.106 101.857C144.106 103.222 144.961 104.094 146.235 104.094ZM146.235 103.386C145.462 103.386 144.969 102.827 144.969 101.857C144.969 100.854 145.479 100.303 146.235 100.303C147.017 100.303 147.494 100.87 147.494 101.849C147.494 102.835 146.992 103.386 146.235 103.386ZM149.244 104.02H150.083V101.536C150.124 100.821 150.56 100.418 151.333 100.418C151.431 100.418 151.53 100.418 151.596 100.426V99.6284C151.522 99.6202 151.44 99.6119 151.341 99.6119C150.765 99.6119 150.272 99.8833 150.083 100.442H150.042L150 99.6695H149.244V104.02ZM155.416 104.02H156.288V103.321H155.696C155.425 103.321 155.326 103.247 155.326 102.959V100.36H156.288V99.6695H155.326V98.3127L154.479 98.4114V99.6695H153.657V100.36H154.479V103.115C154.479 103.699 154.701 104.02 155.416 104.02ZM157.13 104.02H157.969V101.643C157.969 100.895 158.437 100.303 159.186 100.303C159.876 100.303 160.197 100.722 160.197 101.61V104.02H161.044V101.437C161.044 100.105 160.378 99.6037 159.49 99.6037C158.848 99.6037 158.273 99.9162 158.018 100.533H157.969V98.0249H157.13V104.02ZM162.189 99.0034H163.036V98.0249H162.189V99.0034ZM162.189 104.02H163.036V99.6695H162.189V104.02ZM165.816 104.102C166.951 104.102 167.658 103.674 167.658 102.786C167.658 101.791 166.902 101.594 165.997 101.47C165.257 101.372 164.928 101.24 164.928 100.813C164.928 100.442 165.241 100.188 165.816 100.188C166.376 100.188 166.729 100.426 166.737 100.952H167.568C167.552 100.105 166.902 99.5873 165.833 99.5873C164.78 99.5873 164.081 100.064 164.081 100.895C164.081 101.783 164.764 102.013 165.751 102.153C166.483 102.26 166.795 102.375 166.795 102.86C166.795 103.263 166.466 103.501 165.841 103.501C165.233 103.501 164.797 103.247 164.797 102.654H163.958C163.958 103.518 164.624 104.102 165.816 104.102ZM170.46 104.02H171.299V101.643C171.299 100.895 171.751 100.303 172.475 100.303C173.149 100.303 173.453 100.722 173.453 101.61V104.02H174.3V101.643C174.3 100.895 174.753 100.303 175.468 100.303C176.151 100.303 176.455 100.722 176.455 101.61V104.02H177.294V101.437C177.294 100.105 176.652 99.6037 175.789 99.6037C175.09 99.6037 174.498 99.9491 174.259 100.623H174.194C173.971 99.8833 173.429 99.6037 172.787 99.6037C172.154 99.6037 171.595 99.9162 171.348 100.533H171.299L171.266 99.6695H170.46V104.02ZM180.268 104.094C181.576 104.094 182.39 103.181 182.39 101.849C182.39 100.467 181.534 99.6037 180.268 99.6037C178.952 99.6037 178.138 100.516 178.138 101.857C178.138 103.222 178.994 104.094 180.268 104.094ZM180.268 103.386C179.495 103.386 179.002 102.827 179.002 101.857C179.002 100.854 179.512 100.303 180.268 100.303C181.049 100.303 181.526 100.87 181.526 101.849C181.526 102.835 181.025 103.386 180.268 103.386ZM183.277 104.02H184.115V101.643C184.115 100.895 184.568 100.303 185.291 100.303C185.966 100.303 186.27 100.722 186.27 101.61V104.02H187.117V101.643C187.117 100.895 187.569 100.303 188.285 100.303C188.967 100.303 189.271 100.722 189.271 101.61V104.02H190.11V101.437C190.11 100.105 189.469 99.6037 188.605 99.6037C187.906 99.6037 187.314 99.9491 187.076 100.623H187.01C186.788 99.8833 186.245 99.6037 185.604 99.6037C184.971 99.6037 184.411 99.9162 184.165 100.533H184.115L184.083 99.6695H183.277V104.02ZM192.388 104.02H193.26V103.321H192.668C192.396 103.321 192.298 103.247 192.298 102.959V100.36H193.26V99.6695H192.298V98.3127L191.451 98.4114V99.6695H190.628V100.36H191.451V103.115C191.451 103.699 191.673 104.02 192.388 104.02ZM194.102 104.02H194.94V101.643C194.94 100.895 195.409 100.303 196.157 100.303C196.848 100.303 197.169 100.722 197.169 101.61V104.02H198.016V101.437C198.016 100.105 197.35 99.6037 196.462 99.6037C195.82 99.6037 195.245 99.9162 194.99 100.533H194.94V98.0249H194.102V104.02Z" fill="#C0C0C0"/>
<path d="M67.6421 135.207V130.129H66.4497V128.608H67.6421V127.128H66.4497V125.607H67.6421V120.529H70.8696L72.4731 125.607H74.3439V120.529H76.6258V125.607H77.7976V127.128H76.6258V128.608H77.7976V130.129H76.6258V135.207H73.3777L71.7331 130.129H69.924V135.207H67.6421ZM69.924 128.608H71.2808L70.8285 127.128H69.8829L69.924 128.608ZM74.4056 132H74.5084L74.4261 130.129H73.8711L74.4056 132ZM69.8418 125.607H70.4174L69.8212 123.633H69.739L69.8418 125.607ZM73.4394 128.608H74.385L74.3439 127.128H72.9665L73.4394 128.608ZM83.4359 135.207V121.433H81.4007C80.7017 122.317 79.7355 122.667 78.6048 122.667V124.353H81.1129V135.207H83.4359ZM86.2534 137.592C87.7953 137.427 88.3914 136.626 88.3914 135.248V132.288H85.76V135.207H86.973V135.474C86.973 136.153 86.5207 136.297 85.7806 136.379L86.2534 137.592ZM95.7331 135.392C99.5774 135.392 101.51 132.35 101.51 128.3C101.51 124.27 99.5774 121.228 95.7331 121.228C91.8888 121.228 89.9358 124.27 89.9358 128.3C89.9358 132.35 91.8888 135.392 95.7331 135.392ZM95.7331 133.172C93.2868 133.172 92.3822 131.198 92.3822 128.3C92.3822 125.422 93.2868 123.427 95.7331 123.427C98.2001 123.427 99.0841 125.422 99.0841 128.3C99.0841 131.198 98.2001 133.172 95.7331 133.172ZM109.164 135.392C113.008 135.392 114.941 132.35 114.941 128.3C114.941 124.27 113.008 121.228 109.164 121.228C105.32 121.228 103.367 124.27 103.367 128.3C103.367 132.35 105.32 135.392 109.164 135.392ZM109.164 133.172C106.718 133.172 105.813 131.198 105.813 128.3C105.813 125.422 106.718 123.427 109.164 123.427C111.631 123.427 112.515 125.422 112.515 128.3C112.515 131.198 111.631 133.172 109.164 133.172ZM122.595 135.392C126.439 135.392 128.371 132.35 128.371 128.3C128.371 124.27 126.439 121.228 122.595 121.228C118.75 121.228 116.797 124.27 116.797 128.3C116.797 132.35 118.75 135.392 122.595 135.392ZM122.595 133.172C120.148 133.172 119.244 131.198 119.244 128.3C119.244 125.422 120.148 123.427 122.595 123.427C125.062 123.427 125.946 125.422 125.946 128.3C125.946 131.198 125.062 133.172 122.595 133.172ZM130.421 137.592C131.962 137.427 132.559 136.626 132.559 135.248V132.288H129.927V135.207H131.14V135.474C131.14 136.153 130.688 136.297 129.948 136.379L130.421 137.592ZM139.9 135.392C143.745 135.392 145.677 132.35 145.677 128.3C145.677 124.27 143.745 121.228 139.9 121.228C136.056 121.228 134.103 124.27 134.103 128.3C134.103 132.35 136.056 135.392 139.9 135.392ZM139.9 133.172C137.454 133.172 136.549 131.198 136.549 128.3C136.549 125.422 137.454 123.427 139.9 123.427C142.367 123.427 143.251 125.422 143.251 128.3C143.251 131.198 142.367 133.172 139.9 133.172ZM153.331 135.392C157.175 135.392 159.108 132.35 159.108 128.3C159.108 124.27 157.175 121.228 153.331 121.228C149.487 121.228 147.534 124.27 147.534 128.3C147.534 132.35 149.487 135.392 153.331 135.392ZM153.331 133.172C150.885 133.172 149.98 131.198 149.98 128.3C149.98 125.422 150.885 123.427 153.331 123.427C155.798 123.427 156.682 125.422 156.682 128.3C156.682 131.198 155.798 133.172 153.331 133.172ZM166.762 135.392C170.606 135.392 172.539 132.35 172.539 128.3C172.539 124.27 170.606 121.228 166.762 121.228C162.918 121.228 160.965 124.27 160.965 128.3C160.965 132.35 162.918 135.392 166.762 135.392ZM166.762 133.172C164.315 133.172 163.411 131.198 163.411 128.3C163.411 125.422 164.315 123.427 166.762 123.427C169.229 123.427 170.113 125.422 170.113 128.3C170.113 131.198 169.229 133.172 166.762 133.172Z" fill="black"/>
</g>
<g filter="url(#filter2_d_4122_31894)">
<rect x="35" y="217" width="178" height="78.236" rx="2.1003" fill="white"/>
<path d="M52.6978 260.43H53.937C54.8191 260.43 55.3231 259.821 55.3231 258.901C55.3231 257.981 54.8191 257.367 53.937 257.367H52.6978V260.43ZM53.1556 260.035V257.762H53.8697C54.4578 257.762 54.8527 258.115 54.8527 258.892C54.8527 259.669 54.462 260.035 53.8697 260.035H53.1556ZM55.3927 260.43H55.8716L56.1236 259.716H57.4804L57.7324 260.43H58.2113L57.1234 257.367H56.4807L55.3927 260.43ZM56.2328 259.359L56.5773 258.413L56.7915 257.788H56.8167L57.0309 258.413L57.367 259.359H56.2328ZM58.5884 260.43H59.0463V257.367H58.5884V260.43ZM59.7904 260.43H61.71V260.018H60.2482V257.367H59.7904V260.43ZM62.2617 260.43H62.7195V259.224L63.8579 257.367H63.3412L62.5011 258.779H62.4801L61.6484 257.367H61.1275L62.2617 259.224V260.43ZM65.8148 260.43H66.2726V257.767H67.243V257.367H64.8528V257.767H65.8148V260.43ZM67.6542 260.43H68.112V259.191H69.0236C69.4562 259.191 69.5696 259.354 69.5696 259.665V260.089C69.5696 260.232 69.578 260.35 69.6159 260.43H70.0779C70.0275 260.316 70.0275 260.203 70.0275 260.098V259.585C70.0275 259.237 69.8889 259.039 69.557 258.98V258.951C69.9057 258.859 70.0989 258.581 70.0989 258.212C70.0989 257.67 69.7545 257.367 69.0824 257.367H67.6542V260.43ZM68.112 258.821V257.754H69.0194C69.3848 257.754 69.6285 257.905 69.6285 258.271C69.6285 258.59 69.4562 258.821 69.0194 258.821H68.112ZM70.3204 260.43H70.7993L71.0513 259.716H72.4081L72.6601 260.43H73.139L72.051 257.367H71.4084L70.3204 260.43ZM71.1605 259.359L71.505 258.413L71.7192 257.788H71.7444L71.9586 258.413L72.2947 259.359H71.1605ZM73.5161 260.43H73.9824V258.959L73.9656 258.006H73.9908L75.5744 260.43H76.1121V257.367H75.6668V258.796L75.692 259.821H75.6626L74.079 257.367H73.5161V260.43ZM77.8761 260.467C78.6574 260.467 79.0733 260.11 79.0733 259.585C79.0733 258.88 78.565 258.745 78.0231 258.657C77.4351 258.552 77.204 258.485 77.204 258.145C77.204 257.867 77.4351 257.687 77.8383 257.687C78.2332 257.687 78.4978 257.863 78.5104 258.229H78.9767C78.9683 257.691 78.5566 257.334 77.8551 257.334C77.1536 257.334 76.7294 257.67 76.7294 258.208C76.7294 258.733 77.0906 258.938 77.7921 259.06C78.3928 259.161 78.5986 259.262 78.5986 259.627C78.5986 259.951 78.313 260.106 77.8845 260.106C77.3636 260.106 77.1368 259.863 77.1284 259.472H76.6579C76.6663 260.06 77.0612 260.467 77.8761 260.467ZM79.2097 260.43H79.6886L79.9406 259.716H81.2974L81.5495 260.43H82.0283L80.9404 257.367H80.2977L79.2097 260.43ZM80.0499 259.359L80.3943 258.413L80.6085 257.788H80.6337L80.848 258.413L81.184 259.359H80.0499ZM83.5968 260.467C84.3529 260.467 84.9074 260.043 84.9872 259.396L84.5251 259.392C84.4495 259.804 84.0925 260.073 83.5968 260.073C82.9625 260.073 82.5676 259.644 82.5676 258.901C82.5676 258.153 82.9625 257.729 83.5968 257.729C84.0967 257.729 84.4411 258.002 84.5251 258.392H84.9872C84.8948 257.75 84.3529 257.334 83.5968 257.334C82.6979 257.334 82.0972 257.93 82.0972 258.901C82.0972 259.867 82.6937 260.467 83.5968 260.467ZM86.0178 260.43H86.4757V257.767H87.446V257.367H85.0559V257.767H86.0178V260.43ZM87.8572 260.43H88.3151V257.367H87.8572V260.43ZM90.3655 260.467C91.2728 260.467 91.8777 259.875 91.8777 258.901C91.8777 257.926 91.277 257.334 90.3655 257.334C89.4582 257.334 88.8575 257.926 88.8575 258.901C88.8575 259.871 89.454 260.467 90.3655 260.467ZM90.3655 260.073C89.7312 260.073 89.328 259.644 89.328 258.901C89.328 258.157 89.727 257.729 90.3655 257.729C91.004 257.729 91.4073 258.157 91.4073 258.901C91.4073 259.64 91.004 260.073 90.3655 260.073ZM92.4106 260.43H92.8768V258.959L92.86 258.006H92.8853L94.4689 260.43H95.0065V257.367H94.5613V258.796L94.5865 259.821H94.5571L92.9735 257.367H92.4106V260.43ZM96.685 260.43H98.6047V260.018H97.1429V257.367H96.685V260.43ZM99.0109 260.43H99.4688V257.367H99.0109V260.43ZM100.213 260.43H100.662V259.001L100.654 257.851H100.683L101.595 260.43H101.96L102.872 257.851H102.901L102.889 258.997V260.43H103.334V257.367H102.637L101.784 259.711H101.767L100.914 257.367H100.213V260.43ZM104.077 260.43H104.535V257.367H104.077V260.43ZM105.909 260.43H106.367V257.767H107.337V257.367H104.947V257.767H105.909V260.43Z" fill="#B9B9B9"/>
<path d="M53.0674 239.227H57.3688V238.428H53.9832V236.471H56.9488V235.732H53.9832V233.892H57.3604V233.102H53.0674V239.227ZM57.767 239.227H58.7415L60.0353 237.488H60.0857L61.3291 239.227H62.3456L60.6654 236.908L62.1776 234.782H61.1947L60.1109 236.337H60.0689L58.9683 234.782H57.9434L59.4976 236.933L57.767 239.227ZM62.934 240.63H63.7993V238.353H63.8498C64.0682 238.924 64.6227 239.302 65.362 239.302C66.4457 239.302 67.1766 238.496 67.1766 237.009C67.1766 235.522 66.4457 234.707 65.362 234.707C64.6227 234.707 64.0682 235.093 63.8498 235.656H63.7993L63.7657 234.782H62.934V240.63ZM65.0595 238.588C64.2362 238.588 63.8077 237.941 63.8077 237.252V236.757C63.8077 236.068 64.2362 235.421 65.0595 235.421C65.7988 235.421 66.2945 235.959 66.2945 237.009C66.2945 238.05 65.7988 238.588 65.0595 238.588ZM70.0248 239.302C71.075 239.302 71.8815 238.731 71.9991 237.857H71.1758C71.0666 238.319 70.6213 238.613 70.0248 238.613C69.2519 238.613 68.7478 238.092 68.731 237.177H72.0243C72.1587 235.782 71.453 234.715 69.9912 234.715C68.689 234.715 67.8741 235.622 67.8741 237.025C67.8741 238.395 68.689 239.302 70.0248 239.302ZM69.9828 235.396C70.6381 235.396 71.1506 235.74 71.1758 236.563H68.7478C68.815 235.841 69.2855 235.396 69.9828 235.396ZM72.9597 239.227H73.8166V236.799C73.8166 236.034 74.2954 235.429 75.0599 235.429C75.7656 235.429 76.0933 235.858 76.0933 236.765V239.227H76.9586V236.589C76.9586 235.228 76.2781 234.715 75.3708 234.715C74.7155 234.715 74.1274 235.034 73.867 235.664H73.8166L73.783 234.782H72.9597V239.227ZM79.7834 239.311C80.9427 239.311 81.6652 238.874 81.6652 237.966C81.6652 236.95 80.8923 236.748 79.9682 236.622C79.2121 236.521 78.8761 236.387 78.8761 235.95C78.8761 235.572 79.1953 235.312 79.7834 235.312C80.3547 235.312 80.7159 235.555 80.7243 236.093H81.5728C81.556 235.228 80.8923 234.698 79.8002 234.698C78.7248 234.698 78.0107 235.186 78.0107 236.034C78.0107 236.941 78.708 237.177 79.7162 237.319C80.4639 237.429 80.7831 237.546 80.7831 238.042C80.7831 238.454 80.4471 238.697 79.8086 238.697C79.1869 238.697 78.7416 238.437 78.7416 237.832H77.8847C77.8847 238.714 78.5652 239.311 79.7834 239.311ZM84.5382 239.302C85.5883 239.302 86.3948 238.731 86.5125 237.857H85.6891C85.5799 238.319 85.1347 238.613 84.5382 238.613C83.7653 238.613 83.2612 238.092 83.2444 237.177H86.5377C86.6721 235.782 85.9664 234.715 84.5046 234.715C83.2024 234.715 82.3875 235.622 82.3875 237.025C82.3875 238.395 83.2024 239.302 84.5382 239.302ZM84.4962 235.396C85.1515 235.396 85.6639 235.74 85.6891 236.563H83.2612C83.3284 235.841 83.7989 235.396 84.4962 235.396ZM89.1281 239.311C90.2874 239.311 91.0099 238.874 91.0099 237.966C91.0099 236.95 90.237 236.748 89.3129 236.622C88.5568 236.521 88.2207 236.387 88.2207 235.95C88.2207 235.572 88.54 235.312 89.1281 235.312C89.6993 235.312 90.0606 235.555 90.069 236.093H90.9175C90.9007 235.228 90.237 234.698 89.1449 234.698C88.0695 234.698 87.3554 235.186 87.3554 236.034C87.3554 236.941 88.0527 237.177 89.0608 237.319C89.8085 237.429 90.1278 237.546 90.1278 238.042C90.1278 238.454 89.7917 238.697 89.1533 238.697C88.5316 238.697 88.0863 238.437 88.0863 237.832H87.2294C87.2294 238.714 87.9099 239.311 89.1281 239.311ZM94.0068 239.227H97.8461V238.403H94.9225V233.102H94.0068V239.227ZM98.5242 234.102H99.3895V233.102H98.5242V234.102ZM98.5242 239.227H99.3895V234.782H98.5242V239.227ZM100.592 239.227H101.449V236.799C101.449 236.034 101.911 235.429 102.65 235.429C103.339 235.429 103.65 235.858 103.65 236.765V239.227H104.515V236.799C104.515 236.034 104.977 235.429 105.708 235.429C106.405 235.429 106.716 235.858 106.716 236.765V239.227H107.573V236.589C107.573 235.228 106.918 234.715 106.036 234.715C105.322 234.715 104.717 235.068 104.473 235.757H104.406C104.179 235.001 103.624 234.715 102.969 234.715C102.322 234.715 101.751 235.034 101.499 235.664H101.449L101.415 234.782H100.592V239.227ZM108.739 234.102H109.604V233.102H108.739V234.102ZM108.739 239.227H109.604V234.782H108.739V239.227ZM112.075 239.227H112.965V238.512H112.36C112.083 238.512 111.982 238.437 111.982 238.143V235.488H112.965V234.782H111.982V233.396L111.117 233.497V234.782H110.277V235.488H111.117V238.302C111.117 238.899 111.344 239.227 112.075 239.227ZM115.48 239.311C116.64 239.311 117.362 238.874 117.362 237.966C117.362 236.95 116.589 236.748 115.665 236.622C114.909 236.521 114.573 236.387 114.573 235.95C114.573 235.572 114.892 235.312 115.48 235.312C116.051 235.312 116.413 235.555 116.421 236.093H117.27C117.253 235.228 116.589 234.698 115.497 234.698C114.422 234.698 113.708 235.186 113.708 236.034C113.708 236.941 114.405 237.177 115.413 237.319C116.161 237.429 116.48 237.546 116.48 238.042C116.48 238.454 116.144 238.697 115.505 238.697C114.884 238.697 114.438 238.437 114.438 237.832H113.582C113.582 238.714 114.262 239.311 115.48 239.311Z" fill="black"/>
<path d="M53.736 278.184V276.887H53.4314V276.498H53.736V276.12H53.4314V275.731H53.736V274.435H54.5603L54.9699 275.731H55.4477V274.435H56.0305V275.731H56.3298V276.12H56.0305V276.498H56.3298V276.887H56.0305V278.184H55.2009L54.7809 276.887H54.3188V278.184H53.736ZM54.3188 276.498H54.6653L54.5498 276.12H54.3083L54.3188 276.498ZM55.4634 277.364H55.4897L55.4687 276.887H55.3269L55.4634 277.364ZM54.2978 275.731H54.4448L54.2925 275.227H54.2715L54.2978 275.731ZM55.2167 276.498H55.4582L55.4477 276.12H55.0959L55.2167 276.498ZM59.2926 278.184V277.659H57.9432L57.4181 277.711L57.8277 277.406L58.316 276.976C58.6888 276.666 59.1929 276.178 59.1929 275.611C59.1929 275.033 58.8463 274.613 58.1375 274.613C57.3289 274.613 56.7565 275.128 56.7723 275.831L57.2711 276.188C57.2396 275.511 57.5651 275.18 58.085 275.18C58.4263 275.18 58.5733 275.395 58.5733 275.647C58.5733 275.978 58.3317 276.246 57.9904 276.577L56.7775 277.732V278.184H59.2926ZM61.1569 278.231C62.1388 278.231 62.6324 277.454 62.6324 276.419C62.6324 275.39 62.1388 274.613 61.1569 274.613C60.175 274.613 59.6762 275.39 59.6762 276.419C59.6762 277.454 60.175 278.231 61.1569 278.231ZM61.1569 277.664C60.5321 277.664 60.3011 277.16 60.3011 276.419C60.3011 275.684 60.5321 275.175 61.1569 275.175C61.787 275.175 62.0128 275.684 62.0128 276.419C62.0128 277.16 61.787 277.664 61.1569 277.664ZM64.5873 278.231C65.5692 278.231 66.0628 277.454 66.0628 276.419C66.0628 275.39 65.5692 274.613 64.5873 274.613C63.6055 274.613 63.1066 275.39 63.1066 276.419C63.1066 277.454 63.6055 278.231 64.5873 278.231ZM64.5873 277.664C63.9625 277.664 63.7315 277.16 63.7315 276.419C63.7315 275.684 63.9625 275.175 64.5873 275.175C65.2174 275.175 65.4432 275.684 65.4432 276.419C65.4432 277.16 65.2174 277.664 64.5873 277.664ZM66.5862 278.793C66.98 278.751 67.1322 278.546 67.1322 278.194V277.438H66.4601V278.184H66.7699V278.252C66.7699 278.425 66.6544 278.462 66.4654 278.483L66.5862 278.793ZM69.0074 278.231C69.9893 278.231 70.4829 277.454 70.4829 276.419C70.4829 275.39 69.9893 274.613 69.0074 274.613C68.0255 274.613 67.5267 275.39 67.5267 276.419C67.5267 277.454 68.0255 278.231 69.0074 278.231ZM69.0074 277.664C68.3826 277.664 68.1515 277.16 68.1515 276.419C68.1515 275.684 68.3826 275.175 69.0074 275.175C69.6375 275.175 69.8633 275.684 69.8633 276.419C69.8633 277.16 69.6375 277.664 69.0074 277.664ZM72.4378 278.231C73.4197 278.231 73.9133 277.454 73.9133 276.419C73.9133 275.39 73.4197 274.613 72.4378 274.613C71.4559 274.613 70.9571 275.39 70.9571 276.419C70.9571 277.454 71.4559 278.231 72.4378 278.231ZM72.4378 277.664C71.813 277.664 71.5819 277.16 71.5819 276.419C71.5819 275.684 71.813 275.175 72.4378 275.175C73.0679 275.175 73.2937 275.684 73.2937 276.419C73.2937 277.16 73.0679 277.664 72.4378 277.664ZM75.8682 278.231C76.8501 278.231 77.3437 277.454 77.3437 276.419C77.3437 275.39 76.8501 274.613 75.8682 274.613C74.8863 274.613 74.3875 275.39 74.3875 276.419C74.3875 277.454 74.8863 278.231 75.8682 278.231ZM75.8682 277.664C75.2434 277.664 75.0124 277.16 75.0124 276.419C75.0124 275.684 75.2434 275.175 75.8682 275.175C76.4983 275.175 76.7241 275.684 76.7241 276.419C76.7241 277.16 76.4983 277.664 75.8682 277.664ZM80.044 278.236C80.5849 278.236 81.0102 277.984 81.0102 277.48C81.0102 277.112 80.8001 276.881 80.2278 276.734L79.918 276.656C79.5715 276.566 79.435 276.498 79.435 276.314C79.435 276.141 79.5872 276.047 79.813 276.047C80.1438 276.047 80.4168 276.215 80.5954 276.498L80.9419 276.131C80.7844 275.842 80.4011 275.579 79.855 275.579C79.2669 275.579 78.8836 275.868 78.8836 276.346C78.8836 276.813 79.2564 276.992 79.6607 277.086L80.002 277.17C80.2856 277.238 80.4798 277.301 80.4798 277.49C80.4798 277.674 80.3171 277.764 80.065 277.764C79.6082 277.764 79.2932 277.501 79.1514 277.244L78.8049 277.611C78.9991 278.016 79.498 278.236 80.044 278.236ZM82.0636 279.16V277.501C82.1477 277.895 82.3629 278.236 82.8723 278.236C83.5023 278.236 83.9014 277.727 83.9014 276.902C83.9014 276.078 83.5023 275.569 82.8828 275.569C82.3734 275.569 82.1477 275.91 82.0636 276.309V275.626H81.4756V279.16H82.0636ZM82.0636 277.06V276.745C82.0636 276.325 82.2369 276.047 82.6517 276.047C83.0193 276.047 83.2976 276.325 83.2976 276.902C83.2976 277.48 83.0193 277.758 82.6517 277.758C82.2369 277.758 82.0636 277.48 82.0636 277.06ZM85.5633 278.236C86.1303 278.236 86.4769 277.979 86.6712 277.685L86.3089 277.307C86.2144 277.522 86.0148 277.753 85.5685 277.753C85.1642 277.753 84.8964 277.506 84.8649 277.049H86.6922C86.7027 276.997 86.7132 276.887 86.7132 276.792C86.7132 276.083 86.2879 275.574 85.5213 275.574C84.8019 275.574 84.3031 276.104 84.3031 276.908C84.3031 277.706 84.8019 278.236 85.5633 278.236ZM85.5213 276.047C85.9098 276.047 86.1408 276.267 86.1828 276.671H84.8702C84.9174 276.257 85.159 276.047 85.5213 276.047ZM87.8169 278.184V276.75C87.8169 276.33 87.9639 276.052 88.3945 276.052C88.7883 276.052 88.8933 276.267 88.8933 276.582V278.184H89.4866V276.404C89.4866 275.873 89.1821 275.574 88.6833 275.574C88.1739 275.574 87.9114 275.921 87.8169 276.325V275.626H87.2288V278.184H87.8169ZM90.9475 278.241C91.3203 278.241 91.5724 278.068 91.6826 277.905L91.4989 277.38C91.4253 277.527 91.2783 277.69 91.0788 277.69C90.9055 277.69 90.7742 277.622 90.7742 277.343V276.083H91.5566V275.626H90.7742V274.944L90.1862 275.317V275.626H89.7871V276.083H90.1862V277.485C90.1862 277.937 90.4645 278.241 90.9475 278.241ZM94.2174 278.236C94.963 278.236 95.4671 277.701 95.4671 276.908C95.4671 276.11 94.963 275.574 94.2174 275.574C93.4823 275.574 92.9782 276.11 92.9782 276.908C92.9782 277.701 93.4823 278.236 94.2174 278.236ZM94.2227 277.748C93.8446 277.748 93.5821 277.496 93.5821 276.908C93.5821 276.314 93.8446 276.062 94.2227 276.062C94.606 276.062 94.8685 276.314 94.8685 276.908C94.8685 277.496 94.606 277.748 94.2227 277.748ZM96.7077 278.184V276.083H97.4533V275.626H96.7077V275.411C96.7077 275.201 96.797 275.086 97.0122 275.086C97.2065 275.086 97.3588 275.201 97.4533 275.353L97.7106 274.933C97.6056 274.797 97.3588 274.613 96.986 274.613C96.4452 274.613 96.1196 274.939 96.1196 275.469V275.626H95.7258V276.083H96.1196V278.184H96.7077ZM98.962 278.184V276.887H98.6575V276.498H98.962V276.12H98.6575V275.731H98.962V274.435H99.7864L100.196 275.731H100.674V274.435H101.257V275.731H101.556V276.12H101.257V276.498H101.556V276.887H101.257V278.184H100.427L100.007 276.887H99.5449V278.184H98.962ZM99.5449 276.498H99.8914L99.7759 276.12H99.5344L99.5449 276.498ZM100.69 277.364H100.716L100.695 276.887H100.553L100.69 277.364ZM99.5239 275.731H99.6709L99.5186 275.227H99.4976L99.5239 275.731ZM100.443 276.498H100.684L100.674 276.12H100.322L100.443 276.498ZM102.996 278.184V274.666H102.476C102.298 274.891 102.051 274.981 101.762 274.981V275.411H102.403V278.184H102.996ZM103.716 278.793C104.109 278.751 104.262 278.546 104.262 278.194V277.438H103.59V278.184H103.899V278.252C103.899 278.425 103.784 278.462 103.595 278.483L103.716 278.793ZM106.137 278.231C107.119 278.231 107.612 277.454 107.612 276.419C107.612 275.39 107.119 274.613 106.137 274.613C105.155 274.613 104.656 275.39 104.656 276.419C104.656 277.454 105.155 278.231 106.137 278.231ZM106.137 277.664C105.512 277.664 105.281 277.16 105.281 276.419C105.281 275.684 105.512 275.175 106.137 275.175C106.767 275.175 106.993 275.684 106.993 276.419C106.993 277.16 106.767 277.664 106.137 277.664ZM109.567 278.231C110.549 278.231 111.043 277.454 111.043 276.419C111.043 275.39 110.549 274.613 109.567 274.613C108.585 274.613 108.087 275.39 108.087 276.419C108.087 277.454 108.585 278.231 109.567 278.231ZM109.567 277.664C108.942 277.664 108.711 277.16 108.711 276.419C108.711 275.684 108.942 275.175 109.567 275.175C110.197 275.175 110.423 275.684 110.423 276.419C110.423 277.16 110.197 277.664 109.567 277.664ZM112.998 278.231C113.98 278.231 114.473 277.454 114.473 276.419C114.473 275.39 113.98 274.613 112.998 274.613C112.016 274.613 111.517 275.39 111.517 276.419C111.517 277.454 112.016 278.231 112.998 278.231ZM112.998 277.664C112.373 277.664 112.142 277.16 112.142 276.419C112.142 275.684 112.373 275.175 112.998 275.175C113.628 275.175 113.854 275.684 113.854 276.419C113.854 277.16 113.628 277.664 112.998 277.664ZM114.997 278.793C115.39 278.751 115.543 278.546 115.543 278.194V277.438H114.871V278.184H115.18V278.252C115.18 278.425 115.065 278.462 114.876 278.483L114.997 278.793ZM117.418 278.231C118.4 278.231 118.893 277.454 118.893 276.419C118.893 275.39 118.4 274.613 117.418 274.613C116.436 274.613 115.937 275.39 115.937 276.419C115.937 277.454 116.436 278.231 117.418 278.231ZM117.418 277.664C116.793 277.664 116.562 277.16 116.562 276.419C116.562 275.684 116.793 275.175 117.418 275.175C118.048 275.175 118.274 275.684 118.274 276.419C118.274 277.16 118.048 277.664 117.418 277.664ZM120.848 278.231C121.83 278.231 122.324 277.454 122.324 276.419C122.324 275.39 121.83 274.613 120.848 274.613C119.866 274.613 119.367 275.39 119.367 276.419C119.367 277.454 119.866 278.231 120.848 278.231ZM120.848 277.664C120.223 277.664 119.992 277.16 119.992 276.419C119.992 275.684 120.223 275.175 120.848 275.175C121.478 275.175 121.704 275.684 121.704 276.419C121.704 277.16 121.478 277.664 120.848 277.664ZM124.279 278.231C125.26 278.231 125.754 277.454 125.754 276.419C125.754 275.39 125.26 274.613 124.279 274.613C123.297 274.613 122.798 275.39 122.798 276.419C122.798 277.454 123.297 278.231 124.279 278.231ZM124.279 277.664C123.654 277.664 123.423 277.16 123.423 276.419C123.423 275.684 123.654 275.175 124.279 275.175C124.909 275.175 125.134 275.684 125.134 276.419C125.134 277.16 124.909 277.664 124.279 277.664Z" fill="#FFA000"/>
<path d="M189.386 278.184H188.793V275.411H188.152V274.981C188.441 274.981 188.688 274.891 188.866 274.666H189.386V278.184ZM191.44 278.231C190.458 278.231 189.959 277.454 189.959 276.419C189.959 275.39 190.458 274.613 191.44 274.613C192.422 274.613 192.915 275.39 192.915 276.419C192.915 277.454 192.422 278.231 191.44 278.231ZM191.44 277.664C192.07 277.664 192.296 277.16 192.296 276.419C192.296 275.684 192.07 275.175 191.44 275.175C190.815 275.175 190.584 275.684 190.584 276.419C190.584 277.16 190.815 277.664 191.44 277.664ZM194.135 278.252H193.573L196.136 274.597H196.692L194.135 278.252ZM194.109 276.346C193.626 276.346 193.269 276.01 193.269 275.479C193.269 274.954 193.626 274.618 194.109 274.618C194.592 274.618 194.949 274.954 194.949 275.479C194.949 276.01 194.592 276.346 194.109 276.346ZM194.109 275.91C194.335 275.91 194.466 275.758 194.466 275.479C194.466 275.201 194.335 275.049 194.109 275.049C193.888 275.049 193.762 275.201 193.762 275.479C193.762 275.758 193.888 275.91 194.109 275.91ZM196.178 278.184C195.695 278.184 195.337 277.848 195.337 277.317C195.337 276.792 195.695 276.456 196.178 276.456C196.661 276.456 197.018 276.792 197.018 277.317C197.018 277.848 196.661 278.184 196.178 278.184ZM196.178 277.748C196.398 277.748 196.535 277.596 196.535 277.317C196.535 277.034 196.398 276.887 196.178 276.887C195.957 276.887 195.826 277.034 195.826 277.317C195.826 277.596 195.957 277.748 196.178 277.748Z" fill="black"/>
<rect x="51.998" y="267" width="146" height="2" fill="#F1F1F1"/>
<rect x="52.3262" y="266.883" width="65.6342" height="2.1003" fill="#FFA000"/>
</g>
</g>
<defs>
<filter id="filter0_d_4122_31894" x="321.837" y="228.248" width="117.214" height="75.1082" filterUnits="userSpaceOnUse" color-interpolation-filters="sRGB">
<feFlood flood-opacity="0" result="BackgroundImageFix"/>
<feColorMatrix in="SourceAlpha" type="matrix" values="0 0 0 0 0 0 0 0 0 0 0 0 0 0 0 0 0 0 127 0" result="hardAlpha"/>
<feOffset dy="4.55198"/>
<feGaussianBlur stdDeviation="13.656"/>
<feComposite in2="hardAlpha" operator="out"/>
<feColorMatrix type="matrix" values="0 0 0 0 0.325 0 0 0 0 0.325 0 0 0 0 0.325 0 0 0 0.15 0"/>
<feBlend mode="normal" in2="BackgroundImageFix" result="effect1_dropShadow_4122_31894"/>
<feBlend mode="normal" in="SourceGraphic" in2="effect1_dropShadow_4122_31894" result="shape"/>
</filter>
<filter id="filter1_d_4122_31894" x="14" y="53" width="242" height="140.582" filterUnits="userSpaceOnUse" color-interpolation-filters="sRGB">
<feFlood flood-opacity="0" result="BackgroundImageFix"/>
<feColorMatrix in="SourceAlpha" type="matrix" values="0 0 0 0 0 0 0 0 0 0 0 0 0 0 0 0 0 0 127 0" result="hardAlpha"/>
<feOffset dy="4"/>
<feGaussianBlur stdDeviation="17.5"/>
<feComposite in2="hardAlpha" operator="out"/>
<feColorMatrix type="matrix" values="0 0 0 0 0.175 0 0 0 0 0.175 0 0 0 0 0.175 0 0 0 0.15 0"/>
<feBlend mode="normal" in2="BackgroundImageFix" result="effect1_dropShadow_4122_31894"/>
<feBlend mode="normal" in="SourceGraphic" in2="effect1_dropShadow_4122_31894" result="shape"/>
</filter>
<filter id="filter2_d_4122_31894" x="0" y="186" width="248" height="148.234" filterUnits="userSpaceOnUse" color-interpolation-filters="sRGB">
<feFlood flood-opacity="0" result="BackgroundImageFix"/>
<feColorMatrix in="SourceAlpha" type="matrix" values="0 0 0 0 0 0 0 0 0 0 0 0 0 0 0 0 0 0 127 0" result="hardAlpha"/>
<feOffset dy="4"/>
<feGaussianBlur stdDeviation="17.5"/>
<feComposite in2="hardAlpha" operator="out"/>
<feColorMatrix type="matrix" values="0 0 0 0 0.175 0 0 0 0 0.175 0 0 0 0 0.175 0 0 0 0.15 0"/>
<feBlend mode="normal" in2="BackgroundImageFix" result="effect1_dropShadow_4122_31894"/>
<feBlend mode="normal" in="SourceGraphic" in2="effect1_dropShadow_4122_31894" result="shape"/>
</filter>
<linearGradient id="paint0_linear_4122_31894" x1="378.735" y1="772.026" x2="378.735" y2="227.241" gradientUnits="userSpaceOnUse">
<stop stop-color="#FFA000"/>
<stop offset="1"/>
</linearGradient>
<clipPath id="clip0_4122_31894">
<rect width="508" height="342" fill="white"/>
</clipPath>
</defs>
</svg>
