<svg width="74" height="74" viewBox="0 0 74 74" fill="none" xmlns="http://www.w3.org/2000/svg">
<g clip-path="url(#clip0_4390_33170)">
<mask id="mask0_4390_33170" style="mask-type:luminance" maskUnits="userSpaceOnUse" x="0" y="0" width="74" height="74">
<path d="M74 0H0V74H74V0Z" fill="white"/>
</mask>
<g mask="url(#mask0_4390_33170)">
<path d="M36.8928 13.1367C49.6137 13.1367 59.9262 23.6596 59.9262 36.6401C59.9262 49.6205 49.6137 60.1434 36.8928 60.1434C24.1719 60.1434 13.8594 49.6205 13.8594 36.6401C13.8594 23.6596 24.1719 13.1367 36.8928 13.1367Z" fill="#493248"/>
<path d="M23.1288 40.4392C21.8565 40.0741 22.3734 41.3723 22.3734 41.3723C22.3734 41.3723 22.93 43.3197 23.1288 43.7254C23.3276 44.1311 23.8047 44.5774 24.8384 44.9019C25.8722 45.2265 31.7167 46.3625 37.0842 46.3625C42.3626 46.3625 46.8251 45.2671 48.4552 44.8614C49.5045 44.6001 49.7656 44.3054 49.966 44.05C50.2841 43.6443 50.6817 42.8329 51.119 41.3723C51.5564 39.9118 50.2046 40.4798 50.2046 40.4798C50.2046 40.4798 44.5588 42.4272 37.0047 42.4272C29.4505 42.4272 24.4011 40.8044 23.1288 40.4392Z" fill="url(#paint0_linear_4390_33170)"/>
<path d="M36.8928 13.1367C49.6137 13.1367 59.9262 23.6596 59.9262 36.6401C59.9262 49.6205 49.6137 60.1434 36.8928 60.1434C24.1719 60.1434 13.8594 49.6205 13.8594 36.6401C13.8594 23.6596 24.1719 13.1367 36.8928 13.1367ZM36.7338 41.9239C23.9728 41.7421 20.9511 37.6851 21.266 41.2553C21.8894 48.2496 28.324 54.3773 36.7338 54.3773C45.1436 54.3773 51.012 48.2691 52.1221 41.3364C52.7582 37.3606 49.1799 42.1057 36.7338 41.9239ZM29.8157 28.7176C28.4003 28.7176 27.2489 30.1261 27.2489 31.8625C27.2489 32.2001 27.2934 32.5279 27.3761 32.833C27.7101 34.0955 28.677 35.0043 29.8157 35.0043C30.9735 35.0043 31.9532 34.0663 32.2712 32.7746C32.3412 32.4857 32.3794 32.1774 32.3794 31.8625C32.3794 30.1261 31.2311 28.7176 29.8157 28.7176ZM43.5691 28.7176C42.1537 28.7176 41.0055 30.1261 41.0055 31.8625C41.0055 32.1774 41.0405 32.4824 41.1136 32.7681C41.4285 34.0631 42.4082 35.0043 43.5691 35.0043C44.711 35.0043 45.6779 34.0923 46.0119 32.8297C46.0914 32.5246 46.136 32.2001 46.136 31.8625C46.136 30.1261 44.9845 28.7176 43.5691 28.7176Z" fill="url(#paint1_radial_4390_33170)"/>
<g opacity="0.7">
<mask id="mask1_4390_33170" style="mask-type:luminance" maskUnits="userSpaceOnUse" x="16" y="15" width="42" height="43">
<path d="M36.8848 15.8789C48.1136 15.8789 57.2305 25.1818 57.2305 36.6397C57.2305 48.0976 48.1136 57.4005 36.8848 57.4005C25.656 57.4005 16.5391 48.0976 16.5391 36.6397C16.5391 25.1818 25.656 15.8789 36.8848 15.8789Z" fill="url(#paint2_linear_4390_33170)"/>
</mask>
<g mask="url(#mask1_4390_33170)">
<path d="M36.8848 15.8789C48.1136 15.8789 57.2305 25.1818 57.2305 36.6397C57.2305 48.0976 48.1136 57.4005 36.8848 57.4005C25.656 57.4005 16.5391 48.0976 16.5391 36.6397C16.5391 25.1818 25.656 15.8789 36.8848 15.8789Z" fill="url(#paint3_linear_4390_33170)"/>
</g>
</g>
</g>
</g>
<defs>
<linearGradient id="paint0_linear_4390_33170" x1="20.6253" y1="43.4979" x2="53.4864" y2="43.4546" gradientUnits="userSpaceOnUse">
<stop stop-color="#C8C9CB"/>
<stop offset="0.15" stop-color="#DFE0E1"/>
<stop offset="0.5" stop-color="#F5F7F7"/>
<stop offset="0.85" stop-color="#DDDDDC"/>
<stop offset="1" stop-color="#C5C3C1"/>
</linearGradient>
<radialGradient id="paint1_radial_4390_33170" cx="0" cy="0" r="1" gradientUnits="userSpaceOnUse" gradientTransform="translate(37.1295 32.1482) scale(25.1712 25.6847)">
<stop offset="0.47" stop-color="#FFD736"/>
<stop offset="0.79" stop-color="#E7A31D"/>
<stop offset="1" stop-color="#CE7004"/>
</radialGradient>
<linearGradient id="paint2_linear_4390_33170" x1="37.1214" y1="15.6504" x2="37.093" y2="33.5392" gradientUnits="userSpaceOnUse">
<stop stop-color="white"/>
<stop offset="0.36" stop-color="white" stop-opacity="0.5"/>
<stop offset="1" stop-color="white" stop-opacity="0"/>
</linearGradient>
<linearGradient id="paint3_linear_4390_33170" x1="37.1214" y1="15.6504" x2="37.093" y2="33.5392" gradientUnits="userSpaceOnUse">
<stop stop-color="white"/>
<stop offset="0.5" stop-color="white"/>
<stop offset="1" stop-color="white"/>
</linearGradient>
<clipPath id="clip0_4390_33170">
<rect width="74" height="74" fill="white"/>
</clipPath>
</defs>
</svg>
