<svg width="187" height="43" viewBox="0 0 187 43" fill="none" xmlns="http://www.w3.org/2000/svg">
<g clip-path="url(#clip0_2091_37347)">
<path d="M17.4162 40.1056C16.4736 41.722 14.0906 41.722 13.148 40.1056L0.143674 17.8074C-0.790386 16.2058 0.392338 14.2148 2.27775 14.2148H28.2864C30.1719 14.2148 31.3546 16.2058 30.4205 17.8074L17.4162 40.1056Z" fill="#228B22"/>
<g filter="url(#filter0_f_2091_37347)">
<path d="M17.4927 15.8965H1.76953V18.7794H17.4927V15.8965Z" fill="#0D3D0D"/>
</g>
<path d="M7.68382 1.96098C8.44031 0.679677 10.3315 0.679672 11.088 1.96097L18.9601 15.2945C19.7166 16.5759 18.7711 18.1774 17.258 18.1774H1.51373C0.000787548 18.1774 -0.944831 16.5759 -0.188343 15.2945L7.68382 1.96098Z" fill="#23A323"/>
<path d="M55.7774 19.9434H57.3034V15.4354H63.0154V19.9434H64.5414V9.73736H63.0154V14.1054H57.3034V9.73736H55.7774V19.9434ZM69.3117 20.0694C70.5577 20.0694 71.4817 19.4254 71.8317 18.4734H71.9157V19.9434H73.3577V12.5374H71.9717L71.9157 13.9934H71.8317C71.4817 13.0414 70.5577 12.4114 69.3117 12.4114C67.5057 12.4114 66.2877 13.7554 66.2877 16.2334C66.2877 18.7114 67.5057 20.0694 69.3117 20.0694ZM69.8157 18.8794C68.5837 18.8794 67.7717 17.9694 67.7717 16.2334C67.7717 14.4834 68.5837 13.5874 69.8157 13.5874C71.1877 13.5874 71.9017 14.6794 71.9017 15.8134V16.6534C71.9017 17.8014 71.1877 18.8794 69.8157 18.8794ZM75.3776 19.9434H76.8056V15.7154C76.8756 14.4974 77.6176 13.8114 78.9336 13.8114C79.1016 13.8114 79.2696 13.8114 79.3816 13.8254V12.4674C79.2556 12.4534 79.1156 12.4394 78.9476 12.4394C77.9676 12.4394 77.1276 12.9014 76.8056 13.8534H76.7356L76.6656 12.5374H75.3776V19.9434ZM83.3486 22.4214C85.4346 22.4214 86.8486 21.5814 86.8486 19.2574V12.5374H85.4486L85.4206 13.9094H85.3226C84.9866 13.0134 84.0906 12.4114 82.9146 12.4114C81.1226 12.4114 79.9186 13.6994 79.9186 15.9674C79.9186 18.2214 81.0946 19.5094 82.9006 19.5094C84.0766 19.5094 84.9866 18.9074 85.3226 18.0114H85.4206V19.4534C85.4206 20.8254 84.7066 21.3574 83.3766 21.3574C82.4386 21.3574 81.7946 20.9514 81.6826 20.2934H80.2826C80.4366 21.6094 81.5706 22.4214 83.3486 22.4214ZM83.3906 18.3894C82.1866 18.3894 81.4026 17.5354 81.4026 15.9674C81.4026 14.4274 82.1726 13.5454 83.4046 13.5454C84.7066 13.5454 85.3926 14.5394 85.4066 15.5054L85.4206 16.4014C85.3926 17.3814 84.6786 18.3894 83.3906 18.3894ZM91.8571 20.0694C94.0831 20.0694 95.4691 18.5154 95.4691 16.2474C95.4691 13.8954 94.0131 12.4254 91.8571 12.4254C89.6171 12.4254 88.2311 13.9794 88.2311 16.2614C88.2311 18.5854 89.6871 20.0694 91.8571 20.0694ZM91.8571 18.8654C90.5411 18.8654 89.7011 17.9134 89.7011 16.2614C89.7011 14.5534 90.5691 13.6154 91.8571 13.6154C93.1871 13.6154 93.9991 14.5814 93.9991 16.2474C93.9991 17.9274 93.1451 18.8654 91.8571 18.8654ZM96.9792 19.9434H98.4072V15.8974C98.4072 14.6234 99.2052 13.6154 100.479 13.6154C101.655 13.6154 102.201 14.3294 102.201 15.8414V19.9434H103.643V15.5474C103.643 13.2794 102.509 12.4254 100.997 12.4254C99.9052 12.4254 98.9252 12.9574 98.4912 14.0074H98.4072L98.3512 12.5374H96.9792V19.9434Z" fill="#1E2C31"/>
<path d="M58.5154 39.0334C60.3154 39.0334 61.6354 38.0234 61.8254 36.4834L60.7254 36.4734C60.5454 37.4534 59.6954 38.0934 58.5154 38.0934C57.0054 38.0934 56.0654 37.0734 56.0654 35.3034C56.0654 33.5234 57.0054 32.5134 58.5154 32.5134C59.7054 32.5134 60.5254 33.1634 60.7254 34.0934H61.8254C61.6054 32.5634 60.3154 31.5734 58.5154 31.5734C56.3754 31.5734 54.9454 32.9934 54.9454 35.3034C54.9454 37.6034 56.3654 39.0334 58.5154 39.0334ZM62.9412 38.9434H63.9612V35.9234C64.0112 35.0534 64.5412 34.5634 65.4812 34.5634C65.6012 34.5634 65.7212 34.5634 65.8012 34.5734V33.6034C65.7112 33.5934 65.6112 33.5834 65.4912 33.5834C64.7912 33.5834 64.1912 33.9134 63.9612 34.5934H63.9112L63.8612 33.6534H62.9412V38.9434ZM68.7447 39.0334C69.9947 39.0334 70.9547 38.3534 71.0947 37.3134H70.1147C69.9847 37.8634 69.4547 38.2134 68.7447 38.2134C67.8247 38.2134 67.2247 37.5934 67.2047 36.5034H71.1247C71.2847 34.8434 70.4447 33.5734 68.7047 33.5734C67.1547 33.5734 66.1847 34.6534 66.1847 36.3234C66.1847 37.9534 67.1547 39.0334 68.7447 39.0334ZM68.6947 34.3834C69.4747 34.3834 70.0847 34.7934 70.1147 35.7734H67.2247C67.3047 34.9134 67.8647 34.3834 68.6947 34.3834ZM74.1357 39.0334C75.0257 39.0334 75.6857 38.5734 75.9357 37.8934H75.9957L76.0357 38.9434H77.0257V31.6534H75.9957V34.6934H75.9357C75.6857 34.0134 75.0257 33.5634 74.1357 33.5634C72.8457 33.5634 71.9757 34.5234 71.9757 36.2934C71.9757 38.0634 72.8457 39.0334 74.1357 39.0334ZM74.4957 38.1834C73.6157 38.1834 73.0357 37.5334 73.0357 36.2934C73.0357 35.0434 73.6157 34.4034 74.4957 34.4034C75.4757 34.4034 75.9857 35.1834 75.9857 35.9934V36.5934C75.9857 37.4134 75.4757 38.1834 74.4957 38.1834ZM78.4685 32.8434H79.4985V31.6534H78.4685V32.8434ZM78.4685 38.9434H79.4985V33.6534H78.4685V38.9434ZM82.4395 38.9434H83.4995V38.0934H82.7795C82.4495 38.0934 82.3295 38.0034 82.3295 37.6534V34.4934H83.4995V33.6534H82.3295V32.0034L81.2995 32.1234V33.6534H80.2995V34.4934H81.2995V37.8434C81.2995 38.5534 81.5695 38.9434 82.4395 38.9434ZM88.5596 39.0334C89.4496 39.0334 90.1096 38.5734 90.3596 37.8934H90.4196V38.9434H91.4496V33.6534H90.4596L90.4196 34.6934H90.3596C90.1096 34.0134 89.4496 33.5634 88.5596 33.5634C87.2696 33.5634 86.3996 34.5234 86.3996 36.2934C86.3996 38.0634 87.2696 39.0334 88.5596 39.0334ZM88.9196 38.1834C88.0396 38.1834 87.4596 37.5334 87.4596 36.2934C87.4596 35.0434 88.0396 34.4034 88.9196 34.4034C89.8996 34.4034 90.4096 35.1834 90.4096 35.9934V36.5934C90.4096 37.4134 89.8996 38.1834 88.9196 38.1834ZM92.8924 38.9434H93.9124V36.0534C93.9124 35.1434 94.4824 34.4234 95.3924 34.4234C96.2324 34.4234 96.6224 34.9334 96.6224 36.0134V38.9434H97.6524V35.8034C97.6524 34.1834 96.8424 33.5734 95.7624 33.5734C94.9824 33.5734 94.2824 33.9534 93.9724 34.7034H93.9124L93.8724 33.6534H92.8924V38.9434ZM98.431 40.6134H99.171C100.001 40.6134 100.531 40.3234 100.871 39.4034L103.071 33.6534H101.981L100.841 36.8734L100.631 37.5034H100.591L100.371 36.8734L99.161 33.6534H98.031L100.111 38.5634L99.881 39.1534C99.711 39.5734 99.471 39.7634 99.001 39.7634H98.431V40.6134ZM105.272 38.9434H106.332V38.0934H105.612C105.282 38.0934 105.162 38.0034 105.162 37.6534V34.4934H106.332V33.6534H105.162V32.0034L104.132 32.1234V33.6534H103.132V34.4934H104.132V37.8434C104.132 38.5534 104.402 38.9434 105.272 38.9434ZM107.355 32.8434H108.385V31.6534H107.355V32.8434ZM107.355 38.9434H108.385V33.6534H107.355V38.9434ZM109.816 38.9434H110.836V36.0534C110.836 35.1434 111.386 34.4234 112.266 34.4234C113.086 34.4234 113.456 34.9334 113.456 36.0134V38.9434H114.486V36.0534C114.486 35.1434 115.036 34.4234 115.906 34.4234C116.736 34.4234 117.106 34.9334 117.106 36.0134V38.9434H118.126V35.8034C118.126 34.1834 117.346 33.5734 116.296 33.5734C115.446 33.5734 114.726 33.9934 114.436 34.8134H114.356C114.086 33.9134 113.426 33.5734 112.646 33.5734C111.876 33.5734 111.196 33.9534 110.896 34.7034H110.836L110.796 33.6534H109.816V38.9434ZM121.713 39.0334C122.963 39.0334 123.923 38.3534 124.063 37.3134H123.083C122.953 37.8634 122.423 38.2134 121.713 38.2134C120.793 38.2134 120.193 37.5934 120.173 36.5034H124.093C124.253 34.8434 123.413 33.5734 121.673 33.5734C120.123 33.5734 119.153 34.6534 119.153 36.3234C119.153 37.9534 120.123 39.0334 121.713 39.0334ZM121.663 34.3834C122.443 34.3834 123.053 34.7934 123.083 35.7734H120.193C120.273 34.9134 120.833 34.3834 121.663 34.3834Z" fill="#9CA3AF"/>
</g>
<defs>
<filter id="filter0_f_2091_37347" x="-17.7322" y="-3.60525" width="54.7266" height="41.8863" filterUnits="userSpaceOnUse" color-interpolation-filters="sRGB">
<feFlood flood-opacity="0" result="BackgroundImageFix"/>
<feBlend mode="normal" in="SourceGraphic" in2="BackgroundImageFix" result="shape"/>
<feGaussianBlur stdDeviation="9.75087" result="effect1_foregroundBlur_2091_37347"/>
</filter>
<clipPath id="clip0_2091_37347">
<rect width="187" height="43" fill="white"/>
</clipPath>
</defs>
</svg>
