<svg width="55" height="46" viewBox="0 0 55 46" fill="none" xmlns="http://www.w3.org/2000/svg">
<path d="M35.4162 44.6432C34.4736 46.2972 32.0906 46.2972 31.148 44.6432L18.1437 21.8265C17.2096 20.1877 18.3923 18.1504 20.2778 18.1504H46.2864C48.1719 18.1504 49.3546 20.1877 48.4205 21.8265L35.4162 44.6432Z" fill="#228B22"/>
<g filter="url(#filter0_f_2034_34458)">
<path d="M35.4927 19.8711H19.7695V22.8211H35.4927V19.8711Z" fill="#0D3D0D"/>
</g>
<path d="M25.6838 5.61224C26.4403 4.30113 28.3315 4.30113 29.088 5.61222L36.9601 19.2558C37.7166 20.567 36.7711 22.2058 35.258 22.2058H19.5137C18.0008 22.2058 17.0552 20.567 17.8117 19.2558L25.6838 5.61224Z" fill="#23A323"/>
<defs>
<filter id="filter0_f_2034_34458" x="0.267797" y="0.36936" width="54.7266" height="41.9527" filterUnits="userSpaceOnUse" color-interpolation-filters="sRGB">
<feFlood flood-opacity="0" result="BackgroundImageFix"/>
<feBlend mode="normal" in="SourceGraphic" in2="BackgroundImageFix" result="shape"/>
<feGaussianBlur stdDeviation="9.75087" result="effect1_foregroundBlur_2034_34458"/>
</filter>
</defs>
</svg>
