<svg width="457" height="175" viewBox="0 0 457 175" fill="none" xmlns="http://www.w3.org/2000/svg">
<path d="M12.935 88.52C12.935 89.1433 12.9717 89.8217 13.045 90.555C13.1183 91.2883 13.2467 92.0033 13.43 92.7C13.6133 93.3967 13.8883 94.0383 14.255 94.625C14.6583 95.2117 15.1533 95.67 15.74 96H2.1C2.72333 95.67 3.21833 95.2117 3.585 94.625C3.95167 94.0383 4.22667 93.3967 4.41 92.7C4.59333 92.0033 4.72167 91.2883 4.795 90.555C4.86833 89.8217 4.905 89.1433 4.905 88.52V61.79C4.905 61.13 4.86833 60.4517 4.795 59.755C4.75833 59.0217 4.63 58.3067 4.41 57.61C4.22667 56.9133 3.95167 56.29 3.585 55.74C3.21833 55.1533 2.72333 54.6767 2.1 54.31H15.74C15.1533 54.6767 14.6583 55.1533 14.255 55.74C13.8883 56.3267 13.6133 56.9683 13.43 57.665C13.2467 58.325 13.1183 59.0217 13.045 59.755C12.9717 60.4883 12.935 61.1667 12.935 61.79V88.52ZM30.7047 96H17.1197C17.7064 95.67 18.1831 95.2117 18.5497 94.625C18.9164 94.0017 19.1914 93.36 19.3747 92.7C19.5947 92.0033 19.7414 91.2883 19.8147 90.555C19.8881 89.8217 19.9247 89.1433 19.9247 88.52V80.71C19.9247 79.94 19.8514 79.2433 19.7047 78.62C19.5581 77.96 19.3564 77.355 19.0997 76.805C18.8431 76.255 18.5131 75.7233 18.1097 75.21C17.7431 74.66 17.3214 74.0917 16.8447 73.505C18.1281 73.285 19.2097 73.0833 20.0897 72.9C21.0064 72.68 21.8497 72.4233 22.6197 72.13C23.4264 71.8367 24.2331 71.4883 25.0397 71.085C25.8831 70.645 26.8547 70.095 27.9547 69.435V73.725C28.2114 73.4683 28.7431 73.0833 29.5497 72.57C30.3564 72.0567 31.1997 71.5433 32.0797 71.03C32.9964 70.48 33.8214 70.0033 34.5547 69.6C35.3247 69.1967 35.7831 68.995 35.9297 68.995C37.1764 68.995 38.2581 69.2333 39.1747 69.71C40.0914 70.1867 40.8431 70.8283 41.4297 71.635C42.0531 72.4417 42.5114 73.3767 42.8047 74.44C43.1347 75.5033 43.2997 76.6033 43.2997 77.74V88.52C43.2997 89.1433 43.3364 89.8217 43.4097 90.555C43.4831 91.2883 43.6114 92.0033 43.7947 92.7C43.9781 93.3967 44.2531 94.0383 44.6197 94.625C45.0231 95.2117 45.5181 95.67 46.1047 96H32.5197C33.1064 95.67 33.5831 95.2117 33.9497 94.625C34.3164 94.0017 34.5914 93.36 34.7747 92.7C34.9581 92.0033 35.0864 91.2883 35.1597 90.555C35.2331 89.8217 35.2697 89.1433 35.2697 88.52V77.96C35.2697 77.41 35.2147 76.8417 35.1047 76.255C34.9947 75.6683 34.8114 75.1367 34.5547 74.66C34.2981 74.1833 33.9314 73.7983 33.4547 73.505C33.0147 73.2117 32.4647 73.065 31.8047 73.065C30.6681 73.065 29.7881 73.4683 29.1647 74.275C28.5414 75.045 28.1381 75.9433 27.9547 76.97V88.52C27.9547 89.1433 27.9731 89.8217 28.0097 90.555C28.0831 91.2883 28.2114 92.0033 28.3947 92.7C28.5781 93.3967 28.8531 94.0383 29.2197 94.625C29.5864 95.2117 30.0814 95.67 30.7047 96ZM59.9772 96H46.3922C46.9789 95.67 47.4555 95.2117 47.8222 94.625C48.1889 94.0017 48.4639 93.36 48.6472 92.7C48.8672 92.0033 49.0139 91.2883 49.0872 90.555C49.1605 89.8217 49.1972 89.1433 49.1972 88.52V80.71C49.1972 79.94 49.1239 79.2433 48.9772 78.62C48.8305 77.96 48.6289 77.355 48.3722 76.805C48.1155 76.255 47.7855 75.7233 47.3822 75.21C47.0155 74.66 46.5939 74.0917 46.1172 73.505C47.4005 73.285 48.4822 73.0833 49.3622 72.9C50.2789 72.68 51.1222 72.4233 51.8922 72.13C52.6989 71.8367 53.5055 71.4883 54.3122 71.085C55.1555 70.645 56.1272 70.095 57.2272 69.435V73.725C57.4839 73.4683 58.0155 73.0833 58.8222 72.57C59.6289 72.0567 60.4722 71.5433 61.3522 71.03C62.2689 70.48 63.0939 70.0033 63.8272 69.6C64.5972 69.1967 65.0555 68.995 65.2022 68.995C66.4489 68.995 67.5305 69.2333 68.4472 69.71C69.3639 70.1867 70.1155 70.8283 70.7022 71.635C71.3255 72.4417 71.7839 73.3767 72.0772 74.44C72.4072 75.5033 72.5722 76.6033 72.5722 77.74V88.52C72.5722 89.1433 72.6089 89.8217 72.6822 90.555C72.7555 91.2883 72.8839 92.0033 73.0672 92.7C73.2505 93.3967 73.5255 94.0383 73.8922 94.625C74.2955 95.2117 74.7905 95.67 75.3772 96H61.7922C62.3789 95.67 62.8555 95.2117 63.2222 94.625C63.5889 94.0017 63.8639 93.36 64.0472 92.7C64.2305 92.0033 64.3589 91.2883 64.4322 90.555C64.5055 89.8217 64.5422 89.1433 64.5422 88.52V77.96C64.5422 77.41 64.4872 76.8417 64.3772 76.255C64.2672 75.6683 64.0839 75.1367 63.8272 74.66C63.5705 74.1833 63.2039 73.7983 62.7272 73.505C62.2872 73.2117 61.7372 73.065 61.0772 73.065C59.9405 73.065 59.0605 73.4683 58.4372 74.275C57.8139 75.045 57.4105 75.9433 57.2272 76.97V88.52C57.2272 89.1433 57.2455 89.8217 57.2822 90.555C57.3555 91.2883 57.4839 92.0033 57.6672 92.7C57.8505 93.3967 58.1255 94.0383 58.4922 94.625C58.8589 95.2117 59.3539 95.67 59.9772 96ZM89.1396 68.995C91.0463 68.995 92.8063 69.3617 94.4196 70.095C96.033 70.8283 97.4263 71.8367 98.5996 73.12C99.8096 74.3667 100.745 75.8333 101.405 77.52C102.065 79.17 102.395 80.93 102.395 82.8C102.395 84.67 102.065 86.4483 101.405 88.135C100.745 89.785 99.8096 91.2333 98.5996 92.48C97.4263 93.7267 96.033 94.7167 94.4196 95.45C92.8063 96.1833 91.0463 96.55 89.1396 96.55C87.233 96.55 85.4546 96.1833 83.8046 95.45C82.1913 94.7167 80.798 93.7267 79.6246 92.48C78.4513 91.2333 77.5163 89.785 76.8196 88.135C76.1596 86.4483 75.8296 84.67 75.8296 82.8C75.8296 80.93 76.1596 79.17 76.8196 77.52C77.5163 75.8333 78.4513 74.3667 79.6246 73.12C80.798 71.8367 82.1913 70.8283 83.8046 70.095C85.4546 69.3617 87.233 68.995 89.1396 68.995ZM90.8996 95.065C91.743 95.065 92.403 94.7533 92.8796 94.13C93.3563 93.5067 93.723 92.7733 93.9797 91.93C94.2363 91.05 94.4013 90.1517 94.4746 89.235C94.548 88.3183 94.5846 87.585 94.5846 87.035C94.5846 86.3383 94.5296 85.44 94.4196 84.34C94.3096 83.24 94.1263 82.085 93.8696 80.875C93.613 79.665 93.283 78.455 92.8796 77.245C92.513 75.9983 92.0363 74.8983 91.4496 73.945C90.863 72.955 90.1846 72.1483 89.4146 71.525C88.6813 70.9017 87.8196 70.59 86.8296 70.59C86.0596 70.59 85.4546 70.8833 85.0146 71.47C84.5746 72.0567 84.2446 72.7533 84.0246 73.56C83.8046 74.3667 83.658 75.1917 83.5846 76.035C83.548 76.8783 83.5296 77.5567 83.5296 78.07C83.5296 78.73 83.5846 79.61 83.6946 80.71C83.8046 81.7733 83.9696 82.9467 84.1896 84.23C84.4463 85.4767 84.758 86.7417 85.1246 88.025C85.528 89.3083 86.0046 90.4817 86.5546 91.545C87.1046 92.5717 87.728 93.415 88.4246 94.075C89.158 94.735 89.983 95.065 90.8996 95.065ZM121.151 90.17C121.591 89.0333 122.031 87.7133 122.471 86.21C122.911 84.7067 123.388 83.1667 123.901 81.59C124.451 79.9767 125.056 78.4183 125.716 76.915C126.413 75.375 127.201 74 128.081 72.79C128.998 71.58 130.061 70.6083 131.271 69.875C132.481 69.105 133.874 68.72 135.451 68.72C136.771 68.72 137.889 69.0867 138.806 69.82C139.723 70.5533 140.181 71.6167 140.181 73.01C140.181 73.8167 140.016 74.5683 139.686 75.265C139.393 75.925 138.971 76.4933 138.421 76.97C137.871 77.4467 137.229 77.8317 136.496 78.125C135.799 78.3817 135.066 78.51 134.296 78.51C134.296 77.85 134.021 77.3733 133.471 77.08C132.921 76.7867 132.371 76.64 131.821 76.64C130.941 76.64 130.134 76.86 129.401 77.3C128.704 77.74 128.081 78.29 127.531 78.95C126.981 79.61 126.486 80.3433 126.046 81.15C125.643 81.92 125.313 82.6533 125.056 83.35L120.436 96H115.596L110.591 83.515C110.261 82.6717 109.821 81.535 109.271 80.105C108.721 78.675 108.116 77.2267 107.456 75.76C106.796 74.2933 106.063 72.9733 105.256 71.8C104.486 70.59 103.679 69.8017 102.836 69.435H118.016C117.099 69.7283 116.421 70.2783 115.981 71.085C115.541 71.8917 115.321 72.7717 115.321 73.725C115.321 74.495 115.559 75.6317 116.036 77.135C116.513 78.6383 117.063 80.215 117.686 81.865C118.346 83.515 118.988 85.11 119.611 86.65C120.271 88.1533 120.784 89.3267 121.151 90.17ZM141.061 68.995C142.454 68.995 143.756 69.1967 144.966 69.6C146.176 69.9667 147.221 70.535 148.101 71.305C149.018 72.075 149.733 73.0283 150.246 74.165C150.759 75.265 151.016 76.5483 151.016 78.015V90.665C151.016 90.9217 151.034 91.2517 151.071 91.655C151.108 92.0217 151.181 92.3883 151.291 92.755C151.401 93.1217 151.566 93.4333 151.786 93.69C152.043 93.9467 152.354 94.075 152.721 94.075C153.124 94.075 153.491 93.965 153.821 93.745V94.295C153.344 94.625 152.904 94.9367 152.501 95.23C152.098 95.5233 151.694 95.7617 151.291 95.945C150.888 96.1283 150.448 96.275 149.971 96.385C149.494 96.495 148.944 96.55 148.321 96.55C147.331 96.55 146.341 96.2933 145.351 95.78C144.361 95.2667 143.664 94.5333 143.261 93.58C142.418 94.5333 141.391 95.2667 140.181 95.78C139.008 96.2933 137.614 96.55 136.001 96.55C134.058 96.55 132.463 96.0917 131.216 95.175C130.006 94.2583 129.401 92.755 129.401 90.665C129.401 89.235 129.933 87.9883 130.996 86.925C132.096 85.8617 133.379 84.89 134.846 84.01C136.349 83.13 137.853 82.2867 139.356 81.48C140.896 80.6367 142.106 79.7383 142.986 78.785C142.986 78.345 143.004 77.6117 143.041 76.585C143.078 75.5217 143.041 74.4767 142.931 73.45C142.858 72.3867 142.656 71.47 142.326 70.7C141.996 69.8933 141.446 69.49 140.676 69.49L141.061 68.995ZM142.986 92.37V80.71C142.473 81.1867 141.886 81.7 141.226 82.25C140.603 82.8 140.016 83.3867 139.466 84.01C138.916 84.5967 138.439 85.2383 138.036 85.935C137.669 86.6317 137.486 87.3833 137.486 88.19C137.486 88.7767 137.523 89.3633 137.596 89.95C137.706 90.5 137.871 90.995 138.091 91.435C138.348 91.875 138.696 92.2417 139.136 92.535C139.576 92.7917 140.144 92.92 140.841 92.92C141.648 92.92 142.363 92.7367 142.986 92.37ZM165.076 69.435H170.796V70.755H165.076V90.225C165.076 91.2883 165.425 92.0583 166.121 92.535C166.855 92.975 167.698 93.195 168.651 93.195C169.165 93.195 169.66 93.14 170.136 93.03C170.65 92.92 171.126 92.7367 171.566 92.48V93.03C170.466 94.0567 169.183 94.9 167.716 95.56C166.286 96.22 164.801 96.55 163.261 96.55C162.161 96.55 161.208 96.3483 160.401 95.945C159.631 95.5417 158.99 95.01 158.476 94.35C158 93.6533 157.633 92.865 157.376 91.985C157.156 91.0683 157.046 90.115 157.046 89.125V70.755H154.351V69.93C155.635 69.82 156.79 69.6 157.816 69.27C158.843 68.94 159.76 68.5 160.566 67.95C161.373 67.3633 162.07 66.63 162.656 65.75C163.28 64.87 163.811 63.8067 164.251 62.56H165.076V69.435ZM178.454 68.17C177.354 68.17 176.401 67.785 175.594 67.015C174.824 66.2083 174.439 65.255 174.439 64.155C174.439 63.055 174.824 62.12 175.594 61.35C176.401 60.5433 177.354 60.14 178.454 60.14C179.554 60.14 180.489 60.5433 181.259 61.35C182.066 62.12 182.469 63.055 182.469 64.155C182.469 65.255 182.066 66.2083 181.259 67.015C180.489 67.785 179.554 68.17 178.454 68.17ZM185.714 96H172.129C172.716 95.67 173.193 95.2117 173.559 94.625C173.926 94.0017 174.201 93.36 174.384 92.7C174.604 92.0033 174.751 91.2883 174.824 90.555C174.898 89.8217 174.934 89.1433 174.934 88.52V80.71C174.934 79.94 174.861 79.2433 174.714 78.62C174.568 77.96 174.366 77.355 174.109 76.805C173.853 76.255 173.523 75.7233 173.119 75.21C172.753 74.66 172.331 74.0917 171.854 73.505C173.138 73.285 174.219 73.0833 175.099 72.9C176.016 72.68 176.859 72.4233 177.629 72.13C178.436 71.8367 179.243 71.4883 180.049 71.085C180.893 70.645 181.864 70.095 182.964 69.435V88.52C182.964 89.1433 182.983 89.8217 183.019 90.555C183.093 91.2883 183.221 92.0033 183.404 92.7C183.588 93.3967 183.863 94.0383 184.229 94.625C184.596 95.2117 185.091 95.67 185.714 96ZM214.833 69.435C213.989 69.8017 213.164 70.59 212.358 71.8C211.588 73.01 210.854 74.3483 210.158 75.815C209.498 77.245 208.893 78.6933 208.343 80.16C207.793 81.59 207.353 82.745 207.023 83.625L202.073 96H197.398L192.393 83.515C192.063 82.6717 191.623 81.535 191.073 80.105C190.523 78.675 189.918 77.2267 189.258 75.76C188.598 74.2933 187.864 72.9733 187.058 71.8C186.288 70.59 185.481 69.8017 184.638 69.435H199.818C198.901 69.7283 198.223 70.2783 197.783 71.085C197.343 71.8917 197.123 72.7717 197.123 73.725C197.123 74.495 197.361 75.6317 197.838 77.135C198.314 78.6383 198.864 80.215 199.488 81.865C200.148 83.515 200.789 85.11 201.413 86.65C202.073 88.1533 202.586 89.3267 202.953 90.17C203.356 89.1433 203.778 88.08 204.218 86.98C204.694 85.8433 205.116 84.7067 205.483 83.57C205.886 82.3967 206.216 81.2233 206.473 80.05C206.729 78.8767 206.858 77.74 206.858 76.64C206.858 74.88 206.473 73.395 205.703 72.185C204.933 70.975 203.723 70.0583 202.073 69.435H214.833ZM220.884 82.525C221.141 83.6617 221.526 84.7433 222.039 85.77C222.552 86.76 223.194 87.64 223.964 88.41C224.734 89.1433 225.632 89.73 226.659 90.17C227.722 90.61 228.914 90.83 230.234 90.83C230.637 90.83 231.114 90.8117 231.664 90.775C232.251 90.7017 232.837 90.61 233.424 90.5C234.011 90.39 234.561 90.2433 235.074 90.06C235.624 89.84 236.046 89.5833 236.339 89.29L236.779 89.62C235.532 91.8933 234.047 93.6167 232.324 94.79C230.637 95.9633 228.437 96.55 225.724 96.55C223.817 96.55 222.039 96.2017 220.389 95.505C218.776 94.8083 217.382 93.855 216.209 92.645C215.072 91.3983 214.174 89.95 213.514 88.3C212.854 86.65 212.524 84.8717 212.524 82.965C212.524 81.1317 212.799 79.3717 213.349 77.685C213.936 75.9983 214.761 74.5133 215.824 73.23C216.924 71.9467 218.244 70.92 219.784 70.15C221.324 69.38 223.066 68.995 225.009 68.995C226.769 68.995 228.364 69.27 229.794 69.82C231.261 70.3333 232.489 71.1033 233.479 72.13C234.506 73.12 235.294 74.33 235.844 75.76C236.394 77.19 236.669 78.785 236.669 80.545V81.865L220.884 82.525ZM229.299 76.145C229.299 75.5217 229.171 74.8617 228.914 74.165C228.694 73.4683 228.364 72.845 227.924 72.295C227.484 71.7083 226.971 71.2317 226.384 70.865C225.797 70.4983 225.156 70.315 224.459 70.315C223.652 70.315 222.992 70.645 222.479 71.305C221.966 71.965 221.562 72.7533 221.269 73.67C220.976 74.55 220.756 75.4667 220.609 76.42C220.499 77.3733 220.444 78.125 220.444 78.675C220.444 79.4817 220.499 80.3067 220.609 81.15C221.342 81.0767 222.076 80.985 222.809 80.875C223.542 80.765 224.276 80.655 225.009 80.545C226.256 80.3617 227.282 79.9217 228.089 79.225C228.896 78.5283 229.299 77.5017 229.299 76.145Z" fill="black"/>
<path d="M262.809 57.61C263.652 57.61 264.514 57.72 265.394 57.94C266.274 58.16 267.062 58.49 267.759 58.93C268.492 59.37 269.079 59.9567 269.519 60.69C269.959 61.3867 270.179 62.23 270.179 63.22C270.179 64.5033 269.757 65.5667 268.914 66.41C268.071 67.2167 267.007 67.62 265.724 67.62C264.551 67.62 263.579 67.235 262.809 66.465C262.039 65.695 261.489 64.7783 261.159 63.715C261.856 63.715 262.424 63.5133 262.864 63.11C263.304 62.67 263.524 62.1017 263.524 61.405C263.524 60.6717 263.286 60.1033 262.809 59.7C262.332 59.26 261.727 59.04 260.994 59.04C260.407 59.04 259.857 59.1683 259.344 59.425C258.831 59.6817 258.391 60.03 258.024 60.47C257.694 60.91 257.419 61.405 257.199 61.955C257.016 62.505 256.924 63.055 256.924 63.605C256.924 64.7417 257.199 65.695 257.749 66.465C258.336 67.1983 259.069 67.785 259.949 68.225C260.829 68.665 261.782 68.9767 262.809 69.16C263.836 69.3433 264.807 69.435 265.724 69.435V70.755H259.454V88.52C259.454 89.1433 259.472 89.8217 259.509 90.555C259.582 91.2883 259.711 92.0033 259.894 92.7C260.077 93.3967 260.352 94.0383 260.719 94.625C261.086 95.2117 261.581 95.67 262.204 96H248.619C249.206 95.67 249.682 95.2117 250.049 94.625C250.416 94.0017 250.691 93.36 250.874 92.7C251.094 92.0033 251.241 91.2883 251.314 90.555C251.387 89.8217 251.424 89.1433 251.424 88.52V70.755H248.399V69.435H251.534C251.534 67.675 251.772 66.08 252.249 64.65C252.762 63.1833 253.496 61.9367 254.449 60.91C255.402 59.8467 256.576 59.04 257.969 58.49C259.399 57.9033 261.012 57.61 262.809 57.61ZM287.193 80.71C287.193 79.94 287.12 79.2433 286.973 78.62C286.826 77.96 286.625 77.355 286.368 76.805C286.111 76.255 285.781 75.7233 285.378 75.21C285.011 74.66 284.59 74.0917 284.113 73.505C285.176 73.3217 286.24 73.0283 287.303 72.625C288.403 72.185 289.375 71.635 290.218 70.975C291.061 70.2783 291.74 69.4533 292.253 68.5C292.803 67.5467 293.078 66.4467 293.078 65.2C293.078 63.9533 292.803 62.8533 292.253 61.9C291.74 60.91 291.043 60.085 290.163 59.425C289.32 58.765 288.348 58.27 287.248 57.94C286.148 57.5733 285.03 57.39 283.893 57.39C282.61 57.39 281.326 57.61 280.043 58.05C278.76 58.4533 277.696 59.15 276.853 60.14C277.953 60.14 278.888 60.5433 279.658 61.35C280.465 62.12 280.868 63.055 280.868 64.155C280.868 65.255 280.465 66.2083 279.658 67.015C278.888 67.785 277.953 68.17 276.853 68.17C275.753 68.17 274.8 67.785 273.993 67.015C273.223 66.2083 272.838 65.255 272.838 64.155C272.838 62.6883 273.223 61.46 273.993 60.47C274.8 59.4433 275.79 58.6183 276.963 57.995C278.136 57.335 279.401 56.8583 280.758 56.565C282.151 56.2717 283.453 56.125 284.663 56.125C286.093 56.125 287.505 56.3267 288.898 56.73C290.291 57.0967 291.52 57.665 292.583 58.435C293.683 59.205 294.563 60.1767 295.223 61.35C295.92 62.5233 296.268 63.9167 296.268 65.53C296.268 66.9967 295.92 68.2983 295.223 69.435V73.67C295.333 73.56 295.59 73.3767 295.993 73.12C296.396 72.8267 296.873 72.515 297.423 72.185C297.973 71.8183 298.56 71.4517 299.183 71.085C299.843 70.7183 300.448 70.3883 300.998 70.095C301.548 69.765 302.025 69.5083 302.428 69.325C302.831 69.105 303.088 68.995 303.198 68.995C304.445 68.995 305.526 69.2333 306.443 69.71C307.36 70.1867 308.111 70.8283 308.698 71.635C309.321 72.4417 309.78 73.3767 310.073 74.44C310.403 75.5033 310.568 76.6033 310.568 77.74V88.52C310.568 89.1433 310.605 89.8217 310.678 90.555C310.751 91.2883 310.88 92.0033 311.063 92.7C311.246 93.3967 311.521 94.0383 311.888 94.625C312.291 95.2117 312.786 95.67 313.373 96H299.788C300.375 95.67 300.851 95.2117 301.218 94.625C301.585 94.0017 301.86 93.36 302.043 92.7C302.226 92.0033 302.355 91.2883 302.428 90.555C302.501 89.8217 302.538 89.1433 302.538 88.52V77.96C302.538 77.41 302.483 76.8417 302.373 76.255C302.263 75.6683 302.08 75.1367 301.823 74.66C301.566 74.1833 301.2 73.7983 300.723 73.505C300.283 73.2117 299.733 73.065 299.073 73.065C298.596 73.065 298.12 73.1933 297.643 73.45C297.203 73.67 296.8 73.9633 296.433 74.33C296.066 74.6967 295.773 75.1183 295.553 75.595C295.333 76.035 295.223 76.4933 295.223 76.97V88.52C295.223 89.1433 295.241 89.8217 295.278 90.555C295.351 91.2883 295.48 92.0033 295.663 92.7C295.846 93.3967 296.121 94.0383 296.488 94.625C296.855 95.2117 297.35 95.67 297.973 96H284.388C284.975 95.67 285.451 95.2117 285.818 94.625C286.185 94.0017 286.46 93.36 286.643 92.7C286.863 92.0033 287.01 91.2883 287.083 90.555C287.156 89.8217 287.193 89.1433 287.193 88.52V80.71ZM270.253 73.505C271.536 73.285 272.618 73.0833 273.498 72.9C274.415 72.68 275.258 72.4233 276.028 72.13C276.835 71.8367 277.641 71.4883 278.448 71.085C279.291 70.645 280.263 70.095 281.363 69.435V88.52C281.363 89.1433 281.381 89.8217 281.418 90.555C281.491 91.2883 281.62 92.0033 281.803 92.7C281.986 93.3967 282.261 94.0383 282.628 94.625C282.995 95.2117 283.49 95.67 284.113 96H270.528C271.115 95.67 271.591 95.2117 271.958 94.625C272.325 94.0017 272.6 93.36 272.783 92.7C273.003 92.0033 273.15 91.2883 273.223 90.555C273.296 89.8217 273.333 89.1433 273.333 88.52V80.71C273.333 79.94 273.26 79.2433 273.113 78.62C272.966 77.96 272.765 77.355 272.508 76.805C272.251 76.255 271.921 75.7233 271.518 75.21C271.151 74.66 270.73 74.0917 270.253 73.505ZM318.388 80.82C317.214 80.82 316.316 80.3983 315.693 79.555C315.106 78.675 314.813 77.7033 314.813 76.64C314.813 75.2467 315.143 74.0733 315.803 73.12C316.499 72.1667 317.361 71.3783 318.388 70.755C319.451 70.1317 320.606 69.6917 321.853 69.435C323.136 69.1417 324.346 68.995 325.483 68.995C326.876 68.995 328.178 69.1967 329.388 69.6C330.598 69.9667 331.643 70.535 332.523 71.305C333.439 72.075 334.154 73.0283 334.668 74.165C335.181 75.265 335.438 76.5483 335.438 78.015V90.665C335.438 90.9217 335.456 91.2517 335.493 91.655C335.529 92.0217 335.603 92.3883 335.713 92.755C335.823 93.1217 335.988 93.4333 336.208 93.69C336.464 93.9467 336.776 94.075 337.143 94.075C337.546 94.075 337.913 93.965 338.243 93.745V94.295C337.326 94.9917 336.483 95.5417 335.713 95.945C334.943 96.3483 333.953 96.55 332.743 96.55C332.156 96.55 331.533 96.44 330.873 96.22C330.249 96.0367 329.681 95.7617 329.168 95.395C328.654 95.0283 328.233 94.57 327.903 94.02C327.573 93.47 327.408 92.865 327.408 92.205V80.71C323.741 82.8 321.908 86.0083 321.908 90.335C321.908 91.8017 322.146 93.14 322.623 94.35C323.136 95.5233 323.833 96.5317 324.713 97.375C325.593 98.2183 326.638 98.86 327.848 99.3C329.058 99.7767 330.378 100.015 331.808 100.015C333.421 100.015 334.833 99.7217 336.043 99.135C337.253 98.585 338.261 97.815 339.068 96.825C339.911 95.835 340.534 94.68 340.938 93.36C341.378 92.04 341.598 90.61 341.598 89.07V80.71C341.598 79.94 341.524 79.2433 341.378 78.62C341.231 77.96 341.029 77.355 340.773 76.805C340.516 76.255 340.186 75.7233 339.783 75.21C339.416 74.66 338.994 74.0917 338.518 73.505C339.801 73.285 340.883 73.0833 341.763 72.9C342.679 72.68 343.523 72.4233 344.293 72.13C345.099 71.8 345.906 71.4333 346.713 71.03C347.556 70.59 348.528 70.0583 349.628 69.435V73.67C349.738 73.56 349.994 73.3767 350.398 73.12C350.801 72.8267 351.278 72.515 351.828 72.185C352.378 71.8183 352.964 71.4517 353.588 71.085C354.248 70.7183 354.853 70.3883 355.403 70.095C355.953 69.765 356.429 69.5083 356.833 69.325C357.236 69.105 357.493 68.995 357.603 68.995C358.849 68.995 359.931 69.2333 360.848 69.71C361.764 70.1867 362.516 70.8283 363.103 71.635C363.726 72.4417 364.184 73.3767 364.478 74.44C364.808 75.5033 364.973 76.6033 364.973 77.74V88.52C364.973 89.1433 365.009 89.8217 365.083 90.555C365.156 91.2883 365.284 92.0033 365.468 92.7C365.651 93.3967 365.926 94.0383 366.293 94.625C366.696 95.2117 367.191 95.67 367.778 96H354.193C354.779 95.67 355.256 95.2117 355.623 94.625C355.989 94.0017 356.264 93.36 356.448 92.7C356.631 92.0033 356.759 91.2883 356.833 90.555C356.906 89.8217 356.943 89.1433 356.943 88.52V77.96C356.943 77.41 356.888 76.8417 356.778 76.255C356.668 75.6683 356.484 75.1367 356.228 74.66C355.971 74.1833 355.604 73.7983 355.128 73.505C354.688 73.2117 354.138 73.065 353.478 73.065C353.001 73.065 352.524 73.175 352.048 73.395C351.608 73.615 351.204 73.9083 350.838 74.275C350.471 74.6417 350.178 75.0633 349.958 75.54C349.738 76.0167 349.628 76.4933 349.628 76.97C349.591 77.5933 349.573 78.2167 349.573 78.84C349.609 79.4633 349.628 80.0867 349.628 80.71V89.455C349.628 91.8383 349.004 93.8183 347.758 95.395C346.548 96.935 345.008 98.1633 343.138 99.08C341.268 99.9967 339.233 100.62 337.033 100.95C334.869 101.317 332.834 101.5 330.928 101.5C329.131 101.5 327.224 101.353 325.208 101.06C323.228 100.767 321.394 100.217 319.708 99.41C318.021 98.6033 316.609 97.485 315.473 96.055C314.373 94.625 313.823 92.7917 313.823 90.555C313.823 89.015 314.299 87.6583 315.253 86.485C316.243 85.275 317.434 84.23 318.828 83.35C320.258 82.4333 321.743 81.645 323.283 80.985C324.859 80.325 326.234 79.775 327.408 79.335C327.408 78.785 327.426 78.015 327.463 77.025C327.499 75.9983 327.463 74.99 327.353 74C327.243 73.01 327.004 72.1483 326.638 71.415C326.271 70.6817 325.666 70.315 324.823 70.315C324.419 70.315 324.053 70.425 323.723 70.645C323.393 70.865 323.099 71.14 322.843 71.47C322.623 71.8 322.439 72.1667 322.293 72.57C322.183 72.9367 322.128 73.3033 322.128 73.67C322.128 74.33 322.329 74.825 322.733 75.155C323.136 75.485 323.649 75.65 324.273 75.65C323.869 77.0067 323.173 78.2167 322.183 79.28C321.193 80.3067 319.928 80.82 318.388 80.82ZM381.377 78.015C382.294 78.015 383.137 77.8133 383.907 77.41C384.677 77.0067 385.062 76.2733 385.062 75.21C385.062 74.5867 384.915 73.9817 384.622 73.395C384.365 72.8083 383.999 72.295 383.522 71.855C383.082 71.3783 382.569 71.0117 381.982 70.755C381.395 70.4617 380.79 70.315 380.167 70.315C379.397 70.315 378.774 70.6267 378.297 71.25C377.82 71.8367 377.435 72.5517 377.142 73.395C376.885 74.2383 376.702 75.1 376.592 75.98C376.482 76.86 376.427 77.575 376.427 78.125C376.427 79.665 376.629 81.205 377.032 82.745C377.435 84.2483 378.04 85.605 378.847 86.815C379.69 88.025 380.754 88.9967 382.037 89.73C383.32 90.4633 384.842 90.83 386.602 90.83C387.005 90.83 387.482 90.8117 388.032 90.775C388.619 90.7017 389.205 90.61 389.792 90.5C390.379 90.39 390.929 90.2433 391.442 90.06C391.992 89.84 392.414 89.5833 392.707 89.29L393.147 89.62C390.58 94.24 386.675 96.55 381.432 96.55C379.525 96.55 377.747 96.2017 376.097 95.505C374.484 94.8083 373.09 93.855 371.917 92.645C370.78 91.3983 369.882 89.95 369.222 88.3C368.562 86.65 368.232 84.8717 368.232 82.965C368.232 81.1317 368.507 79.3717 369.057 77.685C369.644 75.9983 370.469 74.5133 371.532 73.23C372.632 71.9467 373.952 70.92 375.492 70.15C377.032 69.38 378.774 68.995 380.717 68.995C382.074 68.995 383.43 69.1967 384.787 69.6C386.144 70.0033 387.372 70.6083 388.472 71.415C389.572 72.185 390.452 73.1567 391.112 74.33C391.809 75.5033 392.157 76.8417 392.157 78.345C392.157 79.775 391.754 80.93 390.947 81.81C390.14 82.69 388.985 83.13 387.482 83.13C385.795 83.13 384.475 82.6717 383.522 81.755C382.569 80.8017 381.854 79.555 381.377 78.015ZM400.281 68.17C399.181 68.17 398.227 67.785 397.421 67.015C396.651 66.2083 396.266 65.255 396.266 64.155C396.266 63.055 396.651 62.12 397.421 61.35C398.227 60.5433 399.181 60.14 400.281 60.14C401.381 60.14 402.316 60.5433 403.086 61.35C403.892 62.12 404.296 63.055 404.296 64.155C404.296 65.255 403.892 66.2083 403.086 67.015C402.316 67.785 401.381 68.17 400.281 68.17ZM407.541 96H393.956C394.542 95.67 395.019 95.2117 395.386 94.625C395.752 94.0017 396.027 93.36 396.211 92.7C396.431 92.0033 396.577 91.2883 396.651 90.555C396.724 89.8217 396.761 89.1433 396.761 88.52V80.71C396.761 79.94 396.687 79.2433 396.541 78.62C396.394 77.96 396.192 77.355 395.936 76.805C395.679 76.255 395.349 75.7233 394.946 75.21C394.579 74.66 394.157 74.0917 393.681 73.505C394.964 73.285 396.046 73.0833 396.926 72.9C397.842 72.68 398.686 72.4233 399.456 72.13C400.262 71.8367 401.069 71.4883 401.876 71.085C402.719 70.645 403.691 70.095 404.791 69.435V88.52C404.791 89.1433 404.809 89.8217 404.846 90.555C404.919 91.2883 405.047 92.0033 405.231 92.7C405.414 93.3967 405.689 94.0383 406.056 94.625C406.422 95.2117 406.917 95.67 407.541 96ZM432.398 94.295C431.921 94.625 431.481 94.9367 431.078 95.23C430.675 95.5233 430.271 95.7617 429.868 95.945C429.465 96.1283 429.025 96.275 428.548 96.385C428.071 96.495 427.521 96.55 426.898 96.55C425.908 96.55 424.918 96.2933 423.928 95.78C422.938 95.23 422.241 94.4783 421.838 93.525C420.995 94.4783 419.968 95.23 418.758 95.78C417.548 96.2933 416.155 96.55 414.578 96.55C412.635 96.55 411.04 96.0917 409.793 95.175C408.583 94.2583 407.978 92.755 407.978 90.665C407.978 89.235 408.51 87.9883 409.573 86.925C410.673 85.8617 411.956 84.89 413.423 84.01C414.926 83.13 416.43 82.2867 417.933 81.48C419.473 80.6367 420.683 79.7383 421.563 78.785V77.025C421.563 76.5483 421.563 75.9433 421.563 75.21C421.563 74.44 421.49 73.7067 421.343 73.01C421.196 72.2767 420.94 71.6533 420.573 71.14C420.243 70.59 419.711 70.315 418.978 70.315C418.575 70.315 418.208 70.425 417.878 70.645C417.548 70.865 417.255 71.14 416.998 71.47C416.778 71.8 416.595 72.1667 416.448 72.57C416.338 72.9367 416.283 73.3033 416.283 73.67C416.283 74.33 416.485 74.825 416.888 75.155C417.291 75.485 417.805 75.65 418.428 75.65C418.025 77.0067 417.328 78.2167 416.338 79.28C415.348 80.3067 414.083 80.82 412.543 80.82C411.37 80.82 410.471 80.3983 409.848 79.555C409.261 78.675 408.968 77.7033 408.968 76.64C408.968 75.2467 409.298 74.0733 409.958 73.12C410.655 72.1667 411.516 71.3783 412.543 70.755C413.606 70.1317 414.761 69.6917 416.008 69.435C417.291 69.1417 418.501 68.995 419.638 68.995C421.031 68.995 422.333 69.1967 423.543 69.6C424.753 69.9667 425.798 70.535 426.678 71.305C427.595 72.075 428.31 73.0283 428.823 74.165C429.336 75.265 429.593 76.5483 429.593 78.015V90.665C429.593 90.9217 429.611 91.2517 429.648 91.655C429.685 92.0217 429.758 92.3883 429.868 92.755C429.978 93.1217 430.143 93.4333 430.363 93.69C430.62 93.9467 430.931 94.075 431.298 94.075C431.701 94.075 432.068 93.965 432.398 93.745V94.295ZM421.563 80.71C421.05 81.1867 420.463 81.7 419.803 82.25C419.18 82.8 418.593 83.3867 418.043 84.01C417.493 84.5967 417.016 85.2383 416.613 85.935C416.246 86.6317 416.063 87.3833 416.063 88.19C416.063 88.7767 416.1 89.3633 416.173 89.95C416.283 90.5 416.448 90.995 416.668 91.435C416.925 91.875 417.273 92.2417 417.713 92.535C418.153 92.7917 418.721 92.92 419.418 92.92C420.225 92.92 420.94 92.7367 421.563 92.37V80.71ZM443.785 88.52C443.785 89.1433 443.803 89.8217 443.84 90.555C443.913 91.2883 444.041 92.0033 444.225 92.7C444.445 93.3967 444.738 94.0383 445.105 94.625C445.471 95.2117 445.966 95.67 446.59 96H432.95C433.573 95.67 434.068 95.2117 434.435 94.625C434.801 94.0383 435.076 93.3967 435.26 92.7C435.443 92.0033 435.571 91.2883 435.645 90.555C435.718 89.8217 435.755 89.1433 435.755 88.52V68.28C435.755 67.51 435.681 66.8133 435.535 66.19C435.388 65.53 435.186 64.925 434.93 64.375C434.673 63.825 434.343 63.2933 433.94 62.78C433.573 62.23 433.151 61.6617 432.675 61.075C433.958 60.855 435.04 60.6533 435.92 60.47C436.836 60.25 437.68 59.9933 438.45 59.7C439.256 59.4067 440.063 59.0583 440.87 58.655C441.713 58.215 442.685 57.665 443.785 57.005V88.52ZM12.11 135.485C12.4767 134.715 12.9167 133.945 13.43 133.175C13.98 132.368 14.585 131.672 15.245 131.085C15.9417 130.462 16.6933 129.967 17.5 129.6C18.3433 129.197 19.2233 128.995 20.14 128.995C21.6433 128.995 22.8167 129.508 23.66 130.535C24.54 131.525 24.98 132.735 24.98 134.165C24.98 135.082 24.7967 135.925 24.43 136.695C24.1 137.465 23.6233 138.107 23 138.62C22.4133 139.133 21.7167 139.537 20.91 139.83C20.14 140.123 19.2967 140.27 18.38 140.27C18.4533 140.05 18.5083 139.83 18.545 139.61C18.5817 139.39 18.6 139.152 18.6 138.895C18.6 137.942 18.27 137.153 17.61 136.53C16.9867 135.87 16.1983 135.54 15.245 135.54C14.8783 135.54 14.5117 135.632 14.145 135.815C13.7783 135.962 13.43 136.182 13.1 136.475C12.8067 136.732 12.5683 137.043 12.385 137.41C12.2017 137.74 12.11 138.107 12.11 138.51V148.52C12.11 149.143 12.1283 149.822 12.165 150.555C12.2383 151.288 12.3667 152.003 12.55 152.7C12.77 153.397 13.0633 154.038 13.43 154.625C13.7967 155.212 14.2733 155.67 14.86 156H1.275C1.86167 155.67 2.33833 155.212 2.705 154.625C3.07167 154.002 3.34667 153.36 3.53 152.7C3.75 152.003 3.89667 151.288 3.97 150.555C4.04333 149.822 4.08 149.143 4.08 148.52V140.71C4.08 139.94 4.00667 139.243 3.86 138.62C3.71333 137.96 3.51167 137.355 3.255 136.805C2.99833 136.255 2.66833 135.723 2.265 135.21C1.89833 134.66 1.47667 134.092 1 133.505C2.28333 133.285 3.365 133.083 4.245 132.9C5.16167 132.68 6.005 132.423 6.775 132.13C7.58167 131.837 8.38833 131.488 9.195 131.085C10.0383 130.645 11.01 130.095 12.11 129.435V135.485ZM33.0031 142.525C33.2598 143.662 33.6448 144.743 34.1581 145.77C34.6715 146.76 35.3131 147.64 36.0831 148.41C36.8531 149.143 37.7515 149.73 38.7781 150.17C39.8415 150.61 41.0331 150.83 42.3531 150.83C42.7565 150.83 43.2331 150.812 43.7831 150.775C44.3698 150.702 44.9565 150.61 45.5431 150.5C46.1298 150.39 46.6798 150.243 47.1931 150.06C47.7431 149.84 48.1648 149.583 48.4581 149.29L48.8981 149.62C47.6515 151.893 46.1665 153.617 44.4431 154.79C42.7565 155.963 40.5565 156.55 37.8431 156.55C35.9365 156.55 34.1581 156.202 32.5081 155.505C30.8948 154.808 29.5015 153.855 28.3281 152.645C27.1915 151.398 26.2931 149.95 25.6331 148.3C24.9731 146.65 24.6431 144.872 24.6431 142.965C24.6431 141.132 24.9181 139.372 25.4681 137.685C26.0548 135.998 26.8798 134.513 27.9431 133.23C29.0431 131.947 30.3631 130.92 31.9031 130.15C33.4431 129.38 35.1848 128.995 37.1281 128.995C38.8881 128.995 40.4831 129.27 41.9131 129.82C43.3798 130.333 44.6081 131.103 45.5981 132.13C46.6248 133.12 47.4131 134.33 47.9631 135.76C48.5131 137.19 48.7881 138.785 48.7881 140.545V141.865L33.0031 142.525ZM41.4181 136.145C41.4181 135.522 41.2898 134.862 41.0331 134.165C40.8131 133.468 40.4831 132.845 40.0431 132.295C39.6031 131.708 39.0898 131.232 38.5031 130.865C37.9165 130.498 37.2748 130.315 36.5781 130.315C35.7715 130.315 35.1115 130.645 34.5981 131.305C34.0848 131.965 33.6815 132.753 33.3881 133.67C33.0948 134.55 32.8748 135.467 32.7281 136.42C32.6181 137.373 32.5631 138.125 32.5631 138.675C32.5631 139.482 32.6181 140.307 32.7281 141.15C33.4615 141.077 34.1948 140.985 34.9281 140.875C35.6615 140.765 36.3948 140.655 37.1281 140.545C38.3748 140.362 39.4015 139.922 40.2081 139.225C41.0148 138.528 41.4181 137.502 41.4181 136.145ZM63.5694 138.015C64.486 138.015 65.3294 137.813 66.0994 137.41C66.8694 137.007 67.2544 136.273 67.2544 135.21C67.2544 134.587 67.1077 133.982 66.8144 133.395C66.5577 132.808 66.191 132.295 65.7144 131.855C65.2744 131.378 64.761 131.012 64.1744 130.755C63.5877 130.462 62.9827 130.315 62.3594 130.315C61.5894 130.315 60.966 130.627 60.4894 131.25C60.0127 131.837 59.6277 132.552 59.3344 133.395C59.0777 134.238 58.8944 135.1 58.7844 135.98C58.6744 136.86 58.6194 137.575 58.6194 138.125C58.6194 139.665 58.821 141.205 59.2244 142.745C59.6277 144.248 60.2327 145.605 61.0394 146.815C61.8827 148.025 62.946 148.997 64.2294 149.73C65.5127 150.463 67.0344 150.83 68.7944 150.83C69.1977 150.83 69.6744 150.812 70.2244 150.775C70.811 150.702 71.3977 150.61 71.9844 150.5C72.571 150.39 73.121 150.243 73.6344 150.06C74.1844 149.84 74.606 149.583 74.8994 149.29L75.3394 149.62C72.7727 154.24 68.8677 156.55 63.6244 156.55C61.7177 156.55 59.9394 156.202 58.2894 155.505C56.676 154.808 55.2827 153.855 54.1094 152.645C52.9727 151.398 52.0744 149.95 51.4144 148.3C50.7544 146.65 50.4244 144.872 50.4244 142.965C50.4244 141.132 50.6994 139.372 51.2494 137.685C51.836 135.998 52.661 134.513 53.7244 133.23C54.8244 131.947 56.1444 130.92 57.6844 130.15C59.2244 129.38 60.966 128.995 62.9094 128.995C64.266 128.995 65.6227 129.197 66.9794 129.6C68.336 130.003 69.5644 130.608 70.6644 131.415C71.7644 132.185 72.6444 133.157 73.3044 134.33C74.001 135.503 74.3494 136.842 74.3494 138.345C74.3494 139.775 73.946 140.93 73.1394 141.81C72.3327 142.69 71.1777 143.13 69.6744 143.13C67.9877 143.13 66.6677 142.672 65.7144 141.755C64.761 140.802 64.046 139.555 63.5694 138.015ZM89.0859 128.995C90.9926 128.995 92.7526 129.362 94.3659 130.095C95.9793 130.828 97.3726 131.837 98.5459 133.12C99.7559 134.367 100.691 135.833 101.351 137.52C102.011 139.17 102.341 140.93 102.341 142.8C102.341 144.67 102.011 146.448 101.351 148.135C100.691 149.785 99.7559 151.233 98.5459 152.48C97.3726 153.727 95.9793 154.717 94.3659 155.45C92.7526 156.183 90.9926 156.55 89.0859 156.55C87.1793 156.55 85.4009 156.183 83.7509 155.45C82.1376 154.717 80.7443 153.727 79.5709 152.48C78.3976 151.233 77.4626 149.785 76.7659 148.135C76.1059 146.448 75.7759 144.67 75.7759 142.8C75.7759 140.93 76.1059 139.17 76.7659 137.52C77.4626 135.833 78.3976 134.367 79.5709 133.12C80.7443 131.837 82.1376 130.828 83.7509 130.095C85.4009 129.362 87.1793 128.995 89.0859 128.995ZM90.8459 155.065C91.6893 155.065 92.3493 154.753 92.8259 154.13C93.3026 153.507 93.6693 152.773 93.9259 151.93C94.1826 151.05 94.3476 150.152 94.4209 149.235C94.4943 148.318 94.5309 147.585 94.5309 147.035C94.5309 146.338 94.4759 145.44 94.3659 144.34C94.2559 143.24 94.0726 142.085 93.8159 140.875C93.5593 139.665 93.2293 138.455 92.8259 137.245C92.4593 135.998 91.9826 134.898 91.3959 133.945C90.8093 132.955 90.1309 132.148 89.3609 131.525C88.6276 130.902 87.7659 130.59 86.7759 130.59C86.0059 130.59 85.4009 130.883 84.9609 131.47C84.5209 132.057 84.1909 132.753 83.9709 133.56C83.7509 134.367 83.6043 135.192 83.5309 136.035C83.4943 136.878 83.4759 137.557 83.4759 138.07C83.4759 138.73 83.5309 139.61 83.6409 140.71C83.7509 141.773 83.9159 142.947 84.1359 144.23C84.3926 145.477 84.7043 146.742 85.0709 148.025C85.4743 149.308 85.9509 150.482 86.5009 151.545C87.0509 152.572 87.6743 153.415 88.3709 154.075C89.1043 154.735 89.9293 155.065 90.8459 155.065ZM113.355 135.485C113.722 134.715 114.162 133.945 114.675 133.175C115.225 132.368 115.83 131.672 116.49 131.085C117.187 130.462 117.938 129.967 118.745 129.6C119.588 129.197 120.468 128.995 121.385 128.995C122.888 128.995 124.062 129.508 124.905 130.535C125.785 131.525 126.225 132.735 126.225 134.165C126.225 135.082 126.042 135.925 125.675 136.695C125.345 137.465 124.868 138.107 124.245 138.62C123.658 139.133 122.962 139.537 122.155 139.83C121.385 140.123 120.542 140.27 119.625 140.27C119.698 140.05 119.753 139.83 119.79 139.61C119.827 139.39 119.845 139.152 119.845 138.895C119.845 137.942 119.515 137.153 118.855 136.53C118.232 135.87 117.443 135.54 116.49 135.54C116.123 135.54 115.757 135.632 115.39 135.815C115.023 135.962 114.675 136.182 114.345 136.475C114.052 136.732 113.813 137.043 113.63 137.41C113.447 137.74 113.355 138.107 113.355 138.51V148.52C113.355 149.143 113.373 149.822 113.41 150.555C113.483 151.288 113.612 152.003 113.795 152.7C114.015 153.397 114.308 154.038 114.675 154.625C115.042 155.212 115.518 155.67 116.105 156H102.52C103.107 155.67 103.583 155.212 103.95 154.625C104.317 154.002 104.592 153.36 104.775 152.7C104.995 152.003 105.142 151.288 105.215 150.555C105.288 149.822 105.325 149.143 105.325 148.52V140.71C105.325 139.94 105.252 139.243 105.105 138.62C104.958 137.96 104.757 137.355 104.5 136.805C104.243 136.255 103.913 135.723 103.51 135.21C103.143 134.66 102.722 134.092 102.245 133.505C103.528 133.285 104.61 133.083 105.49 132.9C106.407 132.68 107.25 132.423 108.02 132.13C108.827 131.837 109.633 131.488 110.44 131.085C111.283 130.645 112.255 130.095 113.355 129.435V135.485ZM151.903 117.06V148.52C151.903 149.143 151.922 149.822 151.958 150.555C152.032 151.288 152.16 152.003 152.343 152.7C152.527 153.397 152.802 154.038 153.168 154.625C153.535 155.212 154.03 155.67 154.653 156H143.873V153.745C143.25 154.625 142.462 155.303 141.508 155.78C140.592 156.257 139.327 156.495 137.713 156.495C135.807 156.495 134.12 156.128 132.653 155.395C131.187 154.662 129.94 153.69 128.913 152.48C127.923 151.233 127.172 149.803 126.658 148.19C126.145 146.577 125.888 144.89 125.888 143.13C125.888 141.26 126.163 139.463 126.713 137.74C127.263 136.017 128.07 134.495 129.133 133.175C130.233 131.855 131.553 130.81 133.093 130.04C134.67 129.233 136.448 128.83 138.428 128.83C138.685 128.83 139.07 128.922 139.583 129.105C140.097 129.252 140.628 129.435 141.178 129.655C141.728 129.838 142.26 130.04 142.773 130.26C143.287 130.48 143.653 130.645 143.873 130.755V128.28C143.873 127.51 143.8 126.813 143.653 126.19C143.507 125.53 143.305 124.925 143.048 124.375C142.792 123.825 142.462 123.293 142.058 122.78C141.692 122.23 141.27 121.662 140.793 121.075C142.077 120.855 143.158 120.653 144.038 120.47C144.955 120.25 145.798 119.993 146.568 119.7C147.375 119.407 148.182 119.058 148.988 118.655C149.832 118.215 150.803 117.683 151.903 117.06ZM143.873 137.355C143.873 136.622 143.818 135.852 143.708 135.045C143.598 134.202 143.378 133.432 143.048 132.735C142.718 132.002 142.26 131.397 141.673 130.92C141.123 130.443 140.39 130.205 139.473 130.205C138.373 130.205 137.438 130.517 136.668 131.14C135.898 131.727 135.275 132.478 134.798 133.395C134.322 134.275 133.973 135.247 133.753 136.31C133.57 137.337 133.478 138.308 133.478 139.225C133.478 140.655 133.662 142.067 134.028 143.46C134.432 144.817 135.018 146.045 135.788 147.145C136.558 148.208 137.53 149.088 138.703 149.785C139.913 150.445 141.307 150.775 142.883 150.775H143.873V137.355ZM165.02 156.55C163.993 156.55 162.857 156.422 161.61 156.165C160.4 155.908 159.263 155.505 158.2 154.955C157.137 154.405 156.238 153.69 155.505 152.81C154.808 151.893 154.46 150.793 154.46 149.51C154.46 148.3 154.79 147.255 155.45 146.375C156.147 145.495 157.137 145.055 158.42 145.055C159.667 145.055 160.675 145.532 161.445 146.485C162.252 147.402 162.765 148.41 162.985 149.51C162.325 149.51 161.775 149.73 161.335 150.17C160.932 150.61 160.73 151.16 160.73 151.82C160.73 152.37 160.858 152.865 161.115 153.305C161.372 153.745 161.702 154.112 162.105 154.405C162.545 154.662 163.022 154.863 163.535 155.01C164.048 155.157 164.543 155.23 165.02 155.23C165.607 155.23 166.193 155.157 166.78 155.01C167.367 154.863 167.898 154.643 168.375 154.35C168.852 154.02 169.237 153.617 169.53 153.14C169.823 152.627 169.97 152.022 169.97 151.325C169.97 150.372 169.603 149.583 168.87 148.96C168.173 148.3 167.293 147.695 166.23 147.145C165.167 146.558 164.012 145.99 162.765 145.44C161.518 144.853 160.363 144.193 159.3 143.46C158.237 142.69 157.338 141.773 156.605 140.71C155.908 139.647 155.56 138.345 155.56 136.805C155.56 135.412 155.908 134.238 156.605 133.285C157.338 132.295 158.237 131.488 159.3 130.865C160.363 130.205 161.537 129.728 162.82 129.435C164.14 129.142 165.368 128.995 166.505 128.995C167.532 128.995 168.632 129.123 169.805 129.38C171.015 129.6 172.115 129.985 173.105 130.535C174.132 131.085 174.975 131.8 175.635 132.68C176.295 133.523 176.625 134.587 176.625 135.87C176.625 137.007 176.295 137.905 175.635 138.565C175.012 139.225 174.132 139.555 172.995 139.555C171.822 139.555 170.85 139.207 170.08 138.51C169.31 137.813 168.76 136.933 168.43 135.87C169.053 135.87 169.53 135.687 169.86 135.32C170.19 134.917 170.355 134.422 170.355 133.835C170.355 132.735 169.933 131.873 169.09 131.25C168.247 130.627 167.312 130.315 166.285 130.315C165.075 130.315 164.067 130.7 163.26 131.47C162.453 132.203 162.05 133.175 162.05 134.385C162.05 135.302 162.417 136.09 163.15 136.75C163.92 137.41 164.855 138.033 165.955 138.62C167.092 139.17 168.302 139.72 169.585 140.27C170.905 140.82 172.115 141.48 173.215 142.25C174.352 143.02 175.287 143.937 176.02 145C176.79 146.027 177.175 147.292 177.175 148.795C177.175 150.298 176.753 151.563 175.91 152.59C175.103 153.58 174.095 154.368 172.885 154.955C171.675 155.542 170.355 155.945 168.925 156.165C167.532 156.422 166.23 156.55 165.02 156.55Z" fill="#FFA000"/>
<g clip-path="url(#clip0_4689_33349)">
<g opacity="0.5" filter="url(#filter0_d_4689_33349)">
<path fill-rule="evenodd" clip-rule="evenodd" d="M30.25 16.5015C30.25 24.0957 24.0941 30.2515 16.5 30.2515C14.945 30.2535 13.4009 29.9912 11.9336 29.476C11.3151 27.9778 10.9979 26.3724 11 24.7515C10.9962 21.8175 12.0385 18.9782 13.9398 16.7435C14.7603 17.9415 15.8606 18.9213 17.1453 19.5979C18.4301 20.2746 19.8605 20.6276 21.3125 20.6265C22.8527 20.6273 24.367 20.2298 25.7082 19.4725C27.0495 18.7153 28.1721 17.6241 28.9671 16.3049C29.2971 15.7604 30.25 15.8649 30.25 16.5015Z" fill="#F59E0B"/>
</g>
<path d="M2.75 16.5C2.75 22.4936 6.58487 27.5908 11.9336 29.4731C11.3153 27.9753 10.998 26.3704 11 24.75C11 21.6961 12.1069 18.8994 13.9397 16.742C12.9176 15.2549 12.3719 13.492 12.375 11.6875C12.3742 10.1473 12.7718 8.633 13.529 7.29176C14.2862 5.95052 15.3774 4.82789 16.6966 4.03288C17.2425 3.70288 17.1366 2.75 16.5 2.75C8.90588 2.75 2.75 8.90588 2.75 16.5Z" fill="url(#paint0_linear_4689_33349)"/>
</g>
<defs>
<filter id="filter0_d_4689_33349" x="-29.6154" y="15.9531" width="59.8654" height="96.3738" filterUnits="userSpaceOnUse" color-interpolation-filters="sRGB">
<feFlood flood-opacity="0" result="BackgroundImageFix"/>
<feColorMatrix in="SourceAlpha" type="matrix" values="0 0 0 0 0 0 0 0 0 0 0 0 0 0 0 0 0 0 127 0" result="hardAlpha"/>
<feOffset dx="-37.2308" dy="78.6923"/>
<feGaussianBlur stdDeviation="1.69231"/>
<feComposite in2="hardAlpha" operator="out"/>
<feColorMatrix type="matrix" values="0 0 0 0 0 0 0 0 0 0 0 0 0 0 0 0 0 0 0.25 0"/>
<feBlend mode="normal" in2="BackgroundImageFix" result="effect1_dropShadow_4689_33349"/>
<feBlend mode="normal" in="SourceGraphic" in2="effect1_dropShadow_4689_33349" result="shape"/>
</filter>
<linearGradient id="paint0_linear_4689_33349" x1="9.89949" y1="2.75" x2="9.89949" y2="29.4731" gradientUnits="userSpaceOnUse">
<stop stop-color="#F59E0B"/>
<stop offset="1" stop-color="#FFA917" stop-opacity="0"/>
</linearGradient>
<clipPath id="clip0_4689_33349">
<rect width="33" height="33" fill="white"/>
</clipPath>
</defs>
</svg>
