<svg width="28" height="29" viewBox="0 0 28 29" fill="none" xmlns="http://www.w3.org/2000/svg">
<path d="M15.3422 19.1453H13.0407C12.4078 19.1453 11.89 18.6262 11.89 17.9917H3.84633V22.6061C3.84633 23.8751 4.88199 24.9133 6.1478 24.9133H22.2466C23.5124 24.9133 24.5481 23.8751 24.5481 22.6061V17.9917H16.4929C16.4929 18.6262 15.9751 19.1453 15.3422 19.1453ZM23.3973 8.76286H18.7944C18.7944 6.21339 16.7346 4.14844 14.1914 4.14844C11.6483 4.14844 9.5885 6.21339 9.5885 8.76286H4.98555C3.71974 8.76286 2.68408 9.80111 2.68408 11.0701V14.5309C2.68408 15.8114 3.70824 16.8381 4.98555 16.8381H11.89V15.6845C11.89 15.05 12.4078 14.5309 13.0407 14.5309H15.3422C15.9751 14.5309 16.4929 15.05 16.4929 15.6845V16.8381H23.3973C24.6631 16.8381 25.6988 15.7999 25.6988 14.5309V11.0701C25.6988 9.80111 24.6631 8.76286 23.3973 8.76286ZM11.89 8.76286C11.89 7.4939 12.9256 6.45565 14.1914 6.45565C15.4573 6.45565 16.4929 7.4939 16.4929 8.76286H11.8785H11.89Z" fill="#EAB308"/>
</svg>
