<svg width="29" height="29" viewBox="0 0 29 29" fill="none" xmlns="http://www.w3.org/2000/svg">
<path d="M14.5002 14.4948C13.171 14.4948 12.0331 14.0215 11.0866 13.075C10.1401 12.1285 9.66683 10.9906 9.66683 9.66146C9.66683 8.33229 10.1401 7.19444 11.0866 6.24792C12.0331 5.30139 13.171 4.82812 14.5002 4.82812C15.8293 4.82812 16.9672 5.30139 17.9137 6.24792C18.8602 7.19444 19.3335 8.33229 19.3335 9.66146C19.3335 10.9906 18.8602 12.1285 17.9137 13.075C16.9672 14.0215 15.8293 14.4948 14.5002 14.4948ZM4.8335 24.1615V20.7781C4.8335 20.0934 5.00991 19.4639 5.36275 18.8895C5.71558 18.3151 6.18361 17.8773 6.76683 17.576C8.01544 16.9517 9.28419 16.4833 10.5731 16.1708C11.862 15.8582 13.171 15.7023 14.5002 15.7031C15.8293 15.7031 17.1384 15.8594 18.4272 16.172C19.7161 16.4845 20.9849 16.9525 22.2335 17.576C22.8175 17.8781 23.286 18.3163 23.6388 18.8907C23.9916 19.4651 24.1676 20.0942 24.1668 20.7781V24.1615H4.8335Z" fill="#2563EB"/>
</svg>
