<svg width="28" height="29" viewBox="0 0 28 29" fill="none" xmlns="http://www.w3.org/2000/svg">
<path d="M13.3003 3.3125C13.1146 3.3125 12.9366 3.38643 12.8053 3.51804C12.674 3.64964 12.6003 3.82813 12.6003 4.01425V7.66332C11.0194 7.98736 9.59868 8.84875 8.5783 10.1018C7.55791 11.3549 7.00049 12.9228 7.00029 14.5404V15.9439H5.60029C4.85769 15.9439 4.1455 16.2397 3.62039 16.7661C3.09529 17.2925 2.80029 18.0064 2.80029 18.7509V24.3649C2.80029 24.7371 2.94779 25.0941 3.21034 25.3573C3.47289 25.6205 3.82899 25.7684 4.20029 25.7684H10.5003C10.6859 25.7684 10.864 25.6944 10.9953 25.5628C11.1265 25.4312 11.2003 25.2527 11.2003 25.0666V22.2596C11.2003 22.0735 11.274 21.895 11.4053 21.7634C11.5366 21.6318 11.7146 21.5579 11.9003 21.5579H16.1003C16.2859 21.5579 16.464 21.6318 16.5953 21.7634C16.7265 21.895 16.8003 22.0735 16.8003 22.2596V25.0666C16.8003 25.2527 16.874 25.4312 17.0053 25.5628C17.1366 25.6944 17.3146 25.7684 17.5003 25.7684H23.8003C24.1716 25.7684 24.5277 25.6205 24.7902 25.3573C25.0528 25.0941 25.2003 24.7371 25.2003 24.3649V18.7509C25.2003 18.0064 24.9053 17.2925 24.3802 16.7661C23.8551 16.2397 23.1429 15.9439 22.4003 15.9439H21.0003V14.5404C21.0003 12.6793 20.2628 10.8944 18.95 9.57834C17.6373 8.26231 15.8568 7.52297 14.0003 7.52297V6.11948H17.5003C17.6859 6.11948 17.864 6.04555 17.9953 5.91395C18.1265 5.78234 18.2003 5.60385 18.2003 5.41774V4.01425C18.2003 3.82813 18.1265 3.64964 17.9953 3.51804C17.864 3.38643 17.6859 3.3125 17.5003 3.3125H13.3003ZM8.40029 19.4527V22.2596C8.40029 22.4457 8.32654 22.6242 8.19527 22.7558C8.06399 22.8874 7.88594 22.9614 7.70029 22.9614C7.51464 22.9614 7.33659 22.8874 7.20532 22.7558C7.07404 22.6242 7.00029 22.4457 7.00029 22.2596V19.4527C7.00029 19.2665 7.07404 19.088 7.20532 18.9564C7.33659 18.8248 7.51464 18.7509 7.70029 18.7509C7.88594 18.7509 8.06399 18.8248 8.19527 18.9564C8.32654 19.088 8.40029 19.2665 8.40029 19.4527ZM20.3003 18.7509C20.4859 18.7509 20.664 18.8248 20.7953 18.9564C20.9265 19.088 21.0003 19.2665 21.0003 19.4527V22.2596C21.0003 22.4457 20.9265 22.6242 20.7953 22.7558C20.664 22.8874 20.4859 22.9614 20.3003 22.9614C20.1146 22.9614 19.9366 22.8874 19.8053 22.7558C19.674 22.6242 19.6003 22.4457 19.6003 22.2596V19.4527C19.6003 19.2665 19.674 19.088 19.8053 18.9564C19.9366 18.8248 20.1146 18.7509 20.3003 18.7509ZM12.6003 13.8387V16.6457C12.6003 16.8318 12.5265 17.0103 12.3953 17.1419C12.264 17.2735 12.0859 17.3474 11.9003 17.3474C11.7146 17.3474 11.5366 17.2735 11.4053 17.1419C11.274 17.0103 11.2003 16.8318 11.2003 16.6457V13.8387C11.2003 13.6526 11.274 13.4741 11.4053 13.3425C11.5366 13.2109 11.7146 13.1369 11.9003 13.1369C12.0859 13.1369 12.264 13.2109 12.3953 13.3425C12.5265 13.4741 12.6003 13.6526 12.6003 13.8387ZM16.1003 13.1369C16.2859 13.1369 16.464 13.2109 16.5953 13.3425C16.7265 13.4741 16.8003 13.6526 16.8003 13.8387V16.6457C16.8003 16.8318 16.7265 17.0103 16.5953 17.1419C16.464 17.2735 16.2859 17.3474 16.1003 17.3474C15.9146 17.3474 15.7366 17.2735 15.6053 17.1419C15.474 17.0103 15.4003 16.8318 15.4003 16.6457V13.8387C15.4003 13.6526 15.474 13.4741 15.6053 13.3425C15.7366 13.2109 15.9146 13.1369 16.1003 13.1369Z" fill="#EF4444"/>
</svg>
