<svg width="20" height="20" viewBox="0 0 20 20" fill="none" xmlns="http://www.w3.org/2000/svg">
<path d="M9.99935 5.41797C10.5519 5.41797 11.0818 5.63746 11.4725 6.02816C11.8632 6.41886 12.0827 6.94877 12.0827 7.5013C12.0827 7.77489 12.0288 8.0458 11.9241 8.29856C11.8194 8.55132 11.6659 8.78099 11.4725 8.97444C11.279 9.1679 11.0494 9.32135 10.7966 9.42605C10.5438 9.53075 10.2729 9.58464 9.99935 9.58464C9.44681 9.58464 8.91691 9.36514 8.52621 8.97444C8.13551 8.58374 7.91602 8.05384 7.91602 7.5013C7.91602 6.94877 8.13551 6.41886 8.52621 6.02816C8.91691 5.63746 9.44681 5.41797 9.99935 5.41797ZM9.99935 1.66797C11.5464 1.66797 13.0302 2.28255 14.1241 3.37651C15.2181 4.47047 15.8327 5.95421 15.8327 7.5013C15.8327 11.8763 9.99935 18.3346 9.99935 18.3346C9.99935 18.3346 4.16602 11.8763 4.16602 7.5013C4.16602 5.95421 4.7806 4.47047 5.87456 3.37651C6.96852 2.28255 8.45225 1.66797 9.99935 1.66797ZM9.99935 3.33464C8.89428 3.33464 7.83447 3.77362 7.05307 4.55502C6.27167 5.33643 5.83268 6.39623 5.83268 7.5013C5.83268 8.33464 5.83268 10.0013 9.99935 15.593C14.166 10.0013 14.166 8.33464 14.166 7.5013C14.166 6.39623 13.727 5.33643 12.9456 4.55502C12.1642 3.77362 11.1044 3.33464 9.99935 3.33464Z" fill="#4E7BF1"/>
</svg>
