<svg width="41" height="54" viewBox="0 0 41 54" fill="none" xmlns="http://www.w3.org/2000/svg">
<path d="M40.8696 37.9549C39.0199 46.907 26.3606 60.7995 6.91116 47.5236C2.16587 44.2846 0.222479 40.4524 0.0195555 36.5189C-0.61263 24.7024 14.2866 11.9339 15.1998 11.1612H15.2466C15.2466 11.1612 14.6223 5.573 10.3062 4.9174C9.92047 4.87134 9.54253 4.77422 9.18234 4.62862C6.84092 3.59839 10.3062 0.905749 10.3062 0.905749C13.0847 -1.25617 15.8632 3.01303 17.7129 2.57597C19.5627 2.1389 21.7324 -0.943979 22.9655 0.289172C24.1987 1.52232 22.6533 4.9174 25.4318 4.9174C28.2103 4.9174 31.5352 3.68425 32.4561 4.9174C33.3771 6.15055 32.4561 10.3807 32.4561 10.3807C32.4561 10.3807 25.705 8.96807 23.8709 11.0988C23.8709 11.0988 39.816 26.2322 40.9165 35.6213C41.0259 36.3967 41.0101 37.1846 40.8696 37.9549Z" fill="white"/>
<path d="M25.5955 35.4674L25.9857 38.3395L23.4102 38.2381L23.0902 35.3972C20.0853 35.124 17.1586 34.2186 15.5508 33.0557L16.7761 30.7689C18.6153 31.8652 20.6716 32.5471 22.8014 32.767L22.3019 28.2714C19.1176 27.5846 15.7459 26.7105 15.6366 23.9242C15.5586 21.9886 17.4083 20.4432 21.4121 20.3184L21.1936 18.3516L23.2619 18.4296L23.5272 20.3574C25.4073 20.4853 27.2533 20.923 28.9906 21.653L28.2647 23.5027C26.8342 22.9014 25.326 22.5047 23.7848 22.3242L24.3233 26.2734C27.4921 26.9446 31.0354 27.8343 31.6676 30.847C32.1671 33.2196 30.333 35.2645 25.5955 35.4674ZM22.0209 25.7427L21.6307 22.2852C19.7731 22.4257 19.0395 23.0656 19.1019 23.9164C19.1644 24.7671 20.3897 25.3758 22.0209 25.7427ZM27.9916 30.886C27.8042 29.7933 26.4306 29.2392 24.6823 28.8021L25.2365 32.7982C27.3672 32.6577 28.1555 31.9006 27.9916 30.9172V30.886Z" fill="#EAB308"/>
<path opacity="0.2" d="M32.4945 10.4023C32.4945 10.4023 25.7433 8.98961 23.9092 11.1203C21.4351 10.6286 16.8069 9.73886 15.2616 11.1203C15.2616 11.1203 14.6372 5.5321 10.3211 4.8765C9.93538 4.83044 9.55745 4.73333 9.19727 4.58772C9.5394 4.0375 10.0362 3.60041 10.6255 3.33115C13.7474 1.94191 15.5659 7.03842 17.7279 6.26574C19.8898 5.49307 21.4351 3.02677 22.8244 4.70479C24.2136 6.38282 30.2935 4.46285 32.4945 10.4023Z" fill="black"/>
<path opacity="0.2" d="M40.8696 37.9568C39.0199 46.9089 26.3606 60.8014 6.91113 47.5255C2.16584 44.2865 0.222455 40.4544 0.0195312 36.5208C1.18244 37.7695 2.56388 38.3861 5.52189 38.3393C10.6106 38.2612 21.186 33.0242 25.705 36.2632C30.2239 39.5022 37.9507 39.0885 40.9399 35.6466C41.0391 36.4156 41.0154 37.1954 40.8696 37.9568Z" fill="black"/>
<path d="M14.6448 11.6451C14.6448 11.6451 12.6234 10.4744 16.479 9.38949C20.3345 8.30463 26.6251 10.4041 25.2359 12.449C23.6464 11.5225 21.8673 10.9687 20.0328 10.8295C18.1982 10.6902 16.356 10.9691 14.6448 11.6451Z" fill="#263238"/>
<path d="M20.834 10.1303C20.834 10.1303 21.6145 16.1478 23.6593 15.219C25.7042 14.2902 22.2466 11.1605 22.2466 11.1605C22.2466 11.1605 27.0544 14.1263 27.5149 12.0581C27.9753 9.9898 21.8018 8.92835 20.834 10.1303ZM23.3081 14.22C22.8866 14.5244 22.192 11.8317 22.192 11.8317C22.3091 11.902 23.7374 13.8688 23.3081 14.181V14.22ZM26.3441 11.7459C26.0476 12.2142 23.6593 10.6688 23.6593 10.6688C23.6593 10.6688 26.6407 11.2464 26.3441 11.6912V11.7459Z" fill="#263238"/>
<path d="M22.8002 10.9102C22.8002 10.9102 27.1007 13.5638 29.3797 13.7121C29.4339 13.8268 29.462 13.952 29.462 14.0789C29.462 14.2057 29.4339 14.331 29.3797 14.4457C29.3797 14.4457 24.2285 12.8848 23.1358 11.6048C23.1358 11.6048 25.6256 15.6086 27.569 14.4457C27.7828 14.5984 27.9437 14.8139 28.0294 15.0623C28.0294 15.0623 27.3192 15.6398 25.8051 15.0623C24.291 14.4847 22.2695 11.1599 22.2695 11.1599L22.8002 10.9102Z" fill="#263238"/>
</svg>
