<svg width="161" height="43" viewBox="0 0 161 43" fill="none" xmlns="http://www.w3.org/2000/svg">
<g clip-path="url(#clip0_2091_37355)">
<path d="M0.376859 30.9998C0.376859 35.4181 3.95858 38.9998 8.37686 38.9998C12.7951 38.9998 16.3769 35.4181 16.3769 30.9998C16.3769 26.5816 12.7951 22.9998 8.37686 22.9998C3.95858 22.9998 0.376859 26.5816 0.376859 30.9998ZM17.3769 11.4998L18.4674 10.4699L18.4184 10.418L18.3646 10.371L17.3769 11.4998ZM29.1638 17.1177C28.6766 17.7877 28.8247 18.7258 29.4947 19.2131C30.1647 19.7004 31.1028 19.5522 31.5901 18.8823L29.1638 17.1177ZM9.81466 30.5724C8.9119 27.5358 8.03206 23.9625 7.46618 20.5366C6.89543 17.0813 6.66505 13.8959 6.9875 11.5819C7.14907 10.4224 7.43301 9.61106 7.77487 9.10403C8.08027 8.65108 8.41891 8.44698 8.87018 8.39697C9.40002 8.33826 10.2597 8.47753 11.5599 9.14626C12.8451 9.80724 14.4404 10.9236 16.3891 12.6287L18.3646 10.371C16.3133 8.57608 14.5128 7.29142 12.932 6.47843C11.3664 5.6732 9.89015 5.2656 8.53979 5.41522C7.11085 5.57355 6.02501 6.33299 5.28745 7.42691C4.58634 8.46676 4.20882 9.78561 4.01621 11.1678C3.63033 13.9371 3.92079 17.4809 4.50629 21.0256C5.09666 24.5997 6.00848 28.2972 6.93905 31.4273L9.81466 30.5724ZM16.2863 12.5298C18.3177 14.6807 20.2399 17.4017 22.0549 20.128C23.8348 22.8018 25.5519 25.5466 27.0728 27.536C27.8361 28.5345 28.6166 29.4339 29.4029 30.0748C30.1532 30.6864 31.1713 31.2777 32.3455 31.1287C33.5908 30.9706 34.4289 30.0677 34.9857 29.05C35.5479 28.0224 35.987 26.5983 36.3478 24.7942L33.4061 24.2058C33.0669 25.9017 32.6998 26.9776 32.3538 27.6102C32.0023 28.2526 31.8303 28.17 31.9677 28.1526C32.0342 28.1441 31.8468 28.1964 31.2982 27.7494C30.7857 27.3317 30.174 26.653 29.4561 25.7139C28.0145 23.8283 26.4128 21.2606 24.5521 18.4656C22.7264 15.7231 20.686 12.8191 18.4674 10.4699L16.2863 12.5298ZM36.3478 24.7942C37.055 21.2581 37.3204 18.7255 37.228 16.9831C37.182 16.1164 37.0432 15.3354 36.7493 14.6969C36.4413 14.028 35.9117 13.4229 35.0974 13.1851C34.3363 12.9629 33.6207 13.1512 33.0988 13.3845C32.565 13.6231 32.0644 13.9825 31.6226 14.3611C30.7347 15.1222 29.8671 16.1508 29.1638 17.1177L31.5901 18.8823C32.2201 18.0159 32.9317 17.1903 33.575 16.6389C33.8989 16.3613 34.1519 16.1998 34.3231 16.1233C34.5061 16.0415 34.4468 16.1204 34.2565 16.0649C34.013 15.9938 33.9689 15.8314 34.0242 15.9515C34.0935 16.1021 34.1958 16.4565 34.2322 17.1419C34.3044 18.5037 34.0989 20.7419 33.4061 24.2058L36.3478 24.7942Z" fill="url(#paint0_linear_2091_37355)"/>
<path d="M47.757 37H48.827V33.6L48.807 30.86H48.877L51.047 37H51.917L54.087 30.86H54.157L54.127 33.59V37H55.187V29.71H53.527L51.497 35.29H51.457L49.427 29.71H47.757V37ZM59.0262 37.09C60.6162 37.09 61.6062 35.98 61.6062 34.36C61.6062 32.68 60.5662 31.63 59.0262 31.63C57.4262 31.63 56.4362 32.74 56.4362 34.37C56.4362 36.03 57.4762 37.09 59.0262 37.09ZM59.0262 36.23C58.0862 36.23 57.4862 35.55 57.4862 34.37C57.4862 33.15 58.1062 32.48 59.0262 32.48C59.9762 32.48 60.5562 33.17 60.5562 34.36C60.5562 35.56 59.9462 36.23 59.0262 36.23ZM65.5748 37.09C66.8648 37.09 67.7348 36.13 67.7348 34.36C67.7348 32.59 66.8648 31.62 65.5748 31.62C64.6848 31.62 64.0248 32.08 63.7748 32.75H63.7148V29.71H62.6848V37H63.6748L63.7148 35.96H63.7748C64.0248 36.64 64.6848 37.09 65.5748 37.09ZM65.2148 36.24C64.2348 36.24 63.7248 35.47 63.7248 34.65V34.06C63.7248 33.24 64.2348 32.47 65.2148 32.47C66.0948 32.47 66.6748 33.11 66.6748 34.36C66.6748 35.6 66.0948 36.24 65.2148 36.24ZM68.8177 30.9H69.8477V29.71H68.8177V30.9ZM68.8177 37H69.8477V31.71H68.8177V37ZM71.2786 37H72.3086V29.71H71.2786V37ZM75.9395 37.09C77.1895 37.09 78.1495 36.41 78.2895 35.37H77.3095C77.1795 35.92 76.6495 36.27 75.9395 36.27C75.0195 36.27 74.4195 35.65 74.3995 34.56H78.3195C78.4795 32.9 77.6395 31.63 75.8995 31.63C74.3495 31.63 73.3795 32.71 73.3795 34.38C73.3795 36.01 74.3495 37.09 75.9395 37.09ZM75.8895 32.44C76.6695 32.44 77.2795 32.85 77.3095 33.83H74.4195C74.4995 32.97 75.0595 32.44 75.8895 32.44ZM81.6692 38.67H82.6992V35.96H82.7592C83.0192 36.64 83.6792 37.09 84.5592 37.09C85.8492 37.09 86.7192 36.13 86.7192 34.36C86.7192 32.59 85.8492 31.62 84.5592 31.62C83.6792 31.62 83.0192 32.08 82.7592 32.75H82.6992L82.6592 31.71H81.6692V38.67ZM84.1992 36.24C83.2192 36.24 82.7092 35.47 82.7092 34.65V34.06C82.7092 33.24 83.2192 32.47 84.1992 32.47C85.0792 32.47 85.6692 33.11 85.6692 34.36C85.6692 35.6 85.0792 36.24 84.1992 36.24ZM89.7095 37.09C90.5995 37.09 91.2595 36.63 91.5095 35.95H91.5695V37H92.5995V31.71H91.6095L91.5695 32.75H91.5095C91.2595 32.07 90.5995 31.62 89.7095 31.62C88.4195 31.62 87.5495 32.58 87.5495 34.35C87.5495 36.12 88.4195 37.09 89.7095 37.09ZM90.0695 36.24C89.1895 36.24 88.6095 35.59 88.6095 34.35C88.6095 33.1 89.1895 32.46 90.0695 32.46C91.0495 32.46 91.5595 33.24 91.5595 34.05V34.65C91.5595 35.47 91.0495 36.24 90.0695 36.24ZM93.6923 38.67H94.4323C95.2623 38.67 95.7923 38.38 96.1323 37.46L98.3323 31.71H97.2423L96.1023 34.93L95.8923 35.56H95.8523L95.6323 34.93L94.4223 31.71H93.2923L95.3723 36.62L95.1423 37.21C94.9723 37.63 94.7323 37.82 94.2623 37.82H93.6923V38.67ZM99.0227 37H100.043V34.11C100.043 33.2 100.593 32.48 101.473 32.48C102.293 32.48 102.663 32.99 102.663 34.07V37H103.693V34.11C103.693 33.2 104.243 32.48 105.113 32.48C105.943 32.48 106.313 32.99 106.313 34.07V37H107.333V33.86C107.333 32.24 106.553 31.63 105.503 31.63C104.653 31.63 103.933 32.05 103.643 32.87H103.563C103.293 31.97 102.633 31.63 101.853 31.63C101.083 31.63 100.403 32.01 100.103 32.76H100.043L100.003 31.71H99.0227V37ZM110.92 37.09C112.17 37.09 113.13 36.41 113.27 35.37H112.29C112.16 35.92 111.63 36.27 110.92 36.27C110 36.27 109.4 35.65 109.38 34.56H113.3C113.46 32.9 112.62 31.63 110.88 31.63C109.33 31.63 108.36 32.71 108.36 34.38C108.36 36.01 109.33 37.09 110.92 37.09ZM110.87 32.44C111.65 32.44 112.26 32.85 112.29 33.83H109.4C109.48 32.97 110.04 32.44 110.87 32.44ZM114.413 37H115.433V34.11C115.433 33.2 116.003 32.48 116.913 32.48C117.753 32.48 118.143 32.99 118.143 34.07V37H119.173V33.86C119.173 32.24 118.363 31.63 117.283 31.63C116.503 31.63 115.803 32.01 115.493 32.76H115.433L115.393 31.71H114.413V37ZM121.949 37H123.009V36.15H122.289C121.959 36.15 121.839 36.06 121.839 35.71V32.55H123.009V31.71H121.839V30.06L120.809 30.18V31.71H119.809V32.55H120.809V35.9C120.809 36.61 121.079 37 121.949 37Z" fill="#9CA3AF"/>
<path d="M48.109 20H49.663V15.1L49.607 11.922H49.691L54.969 20H56.761V9.794H55.277V14.554L55.361 17.97H55.263L49.985 9.794H48.109V20ZM62.0802 20.126C63.8302 20.126 65.1742 19.174 65.3702 17.718H63.9982C63.8162 18.488 63.0742 18.978 62.0802 18.978C60.7922 18.978 59.9522 18.11 59.9242 16.584H65.4122C65.6362 14.26 64.4602 12.482 62.0242 12.482C59.8542 12.482 58.4962 13.994 58.4962 16.332C58.4962 18.614 59.8542 20.126 62.0802 20.126ZM62.0102 13.616C63.1022 13.616 63.9562 14.19 63.9982 15.562H59.9522C60.0642 14.358 60.8482 13.616 62.0102 13.616ZM69.6276 20.126C70.8736 20.126 71.7976 19.482 72.1476 18.53H72.2316V20H73.6736V12.594H72.2876L72.2316 14.05H72.1476C71.7976 13.098 70.8736 12.468 69.6276 12.468C67.8216 12.468 66.6036 13.812 66.6036 16.29C66.6036 18.768 67.8216 20.126 69.6276 20.126ZM70.1316 18.936C68.8996 18.936 68.0876 18.026 68.0876 16.29C68.0876 14.54 68.8996 13.644 70.1316 13.644C71.5036 13.644 72.2176 14.736 72.2176 15.87V16.71C72.2176 17.858 71.5036 18.936 70.1316 18.936ZM75.6935 20H77.1215V15.772C77.1915 14.554 77.9335 13.868 79.2495 13.868C79.4175 13.868 79.5855 13.868 79.6975 13.882V12.524C79.5715 12.51 79.4315 12.496 79.2635 12.496C78.2835 12.496 77.4435 12.958 77.1215 13.91H77.0515L76.9815 12.594H75.6935V20ZM80.9572 20H82.3992V9.794H80.9572V20ZM83.9125 22.338H84.9485C86.1105 22.338 86.8525 21.932 87.3285 20.644L90.4085 12.594H88.8825L87.2865 17.102L86.9925 17.984H86.9365L86.6285 17.102L84.9345 12.594H83.3525L86.2645 19.468L85.9425 20.294C85.7045 20.882 85.3685 21.148 84.7105 21.148H83.9125V22.338Z" fill="#1E2C31"/>
<g clip-path="url(#clip1_2091_37355)">
<mask id="mask0_2091_37355" style="mask-type:luminance" maskUnits="userSpaceOnUse" x="90" y="5" width="23" height="22">
<path d="M112.377 5H90.877V26.5H112.377V5Z" fill="white"/>
</mask>
<g mask="url(#mask0_2091_37355)">
<mask id="mask1_2091_37355" style="mask-type:luminance" maskUnits="userSpaceOnUse" x="90" y="5" width="23" height="22">
<path d="M90.877 5H112.377V26.5H90.877V5Z" fill="white"/>
</mask>
<g mask="url(#mask1_2091_37355)">
<path d="M101.628 8.82227C97.8028 8.82227 94.7017 11.9234 94.7017 15.7488C94.7017 19.5743 97.8028 22.6755 101.628 22.6755C105.454 22.6755 108.555 19.5743 108.555 15.7488C108.555 11.9234 105.454 8.82227 101.628 8.82227Z" fill="#DE5A00"/>
<path d="M101.628 8.82227C97.8028 8.82227 94.7017 11.9234 94.7017 15.7488C94.7017 19.5743 97.8028 22.6755 101.628 22.6755C105.454 22.6755 108.555 19.5743 108.555 15.7488C108.555 11.9234 105.454 8.82227 101.628 8.82227Z" fill="#EF7B00"/>
<path d="M101.628 8.82227C97.8028 8.82227 94.7017 11.9234 94.7017 15.7488C94.7017 19.5743 97.8028 22.6755 101.628 22.6755C105.454 22.6755 108.555 19.5743 108.555 15.7488C108.555 11.9234 105.454 8.82227 101.628 8.82227ZM101.628 20.873C98.7982 20.873 96.5041 18.5789 96.5041 15.7488C96.5041 12.9188 98.7982 10.6247 101.628 10.6247C104.458 10.6247 106.752 12.9188 106.752 15.7488C106.752 18.5789 104.458 20.873 101.628 20.873Z" fill="#DE5A00"/>
<path d="M102.921 15.3901C102.667 15.2905 102.363 15.1997 102.01 15.1174V13.5586C102.127 13.6022 102.224 13.6654 102.301 13.7486C102.358 13.8111 102.405 13.8794 102.442 13.9537C102.578 14.2286 102.865 14.4123 103.191 14.4123H103.237C103.88 14.4123 104.289 13.7591 103.955 13.248C103.844 13.0779 103.705 12.9221 103.538 12.7806C103.137 12.4419 102.627 12.2402 102.01 12.1755V11.8137C102.01 11.6038 101.839 11.4336 101.63 11.4336C101.42 11.4336 101.25 11.6038 101.25 11.8137V12.1642C100.614 12.2127 100.088 12.4169 99.673 12.7773C99.1934 13.194 98.9536 13.713 98.9536 14.3347C98.9536 15.3945 99.7191 16.1001 101.25 16.4519V18.0578C101.05 18.0176 100.88 17.9402 100.742 17.8248C100.635 17.7363 100.553 17.6285 100.496 17.5011C100.374 17.2301 100.08 17.0607 99.7642 17.0607C99.1546 17.0607 98.7613 17.6704 99.0604 18.1637C99.0763 18.1901 99.0929 18.2163 99.1101 18.2424C99.3509 18.6072 99.683 18.8943 100.106 19.1036C100.448 19.2723 100.829 19.373 101.25 19.4057V19.6848C101.25 19.8947 101.42 20.0649 101.63 20.0649C101.839 20.0649 102.01 19.8947 102.01 19.6848V19.3955C102.615 19.3341 103.123 19.1441 103.535 18.8252C104.044 18.4302 104.299 17.9133 104.299 17.2744C104.299 16.3808 103.84 15.7527 102.921 15.3901ZM100.901 14.7458C100.718 14.6185 100.627 14.4512 100.627 14.244C100.627 14.0238 100.707 13.8425 100.868 13.7001C100.969 13.6105 101.096 13.5492 101.25 13.5159V14.9167C101.105 14.8637 100.988 14.8068 100.901 14.7458ZM102.352 17.8862C102.261 17.9587 102.147 18.0111 102.01 18.045V16.6728C102.121 16.7171 102.215 16.7633 102.292 16.8114C102.502 16.9431 102.608 17.1233 102.608 17.3521C102.608 17.5722 102.522 17.7503 102.352 17.8862Z" fill="#DE5A00"/>
<path d="M101.628 8.82227C97.8028 8.82227 94.7017 11.9234 94.7017 15.7488C94.7017 19.5743 97.8028 22.6755 101.628 22.6755C105.454 22.6755 108.555 19.5743 108.555 15.7488C108.555 11.9234 105.454 8.82227 101.628 8.82227ZM101.628 20.873C98.7982 20.873 96.5041 18.5789 96.5041 15.7488C96.5041 12.9188 98.7982 10.6247 101.628 10.6247C104.458 10.6247 106.752 12.9188 106.752 15.7488C106.752 18.5789 104.458 20.873 101.628 20.873Z" fill="#FFC711"/>
<mask id="mask2_2091_37355" style="mask-type:alpha" maskUnits="userSpaceOnUse" x="94" y="8" width="15" height="15">
<mask id="mask3_2091_37355" style="mask-type:luminance" maskUnits="userSpaceOnUse" x="90" y="5" width="23" height="22">
<path d="M90.877 5H112.377V26.5H90.877V5Z" fill="white"/>
</mask>
<g mask="url(#mask3_2091_37355)">
<path d="M101.628 8.82812C97.8028 8.82812 94.7017 11.9292 94.7017 15.7547C94.7017 19.5802 97.8028 22.6814 101.628 22.6814C105.454 22.6814 108.555 19.5802 108.555 15.7547C108.555 11.9292 105.454 8.82812 101.628 8.82812ZM101.628 20.8789C98.7982 20.8789 96.5041 18.5847 96.5041 15.7547C96.5041 12.9247 98.7982 10.6305 101.628 10.6305C104.458 10.6305 106.752 12.9247 106.752 15.7547C106.752 18.5847 104.458 20.8789 101.628 20.8789Z" fill="#FFC711"/>
<path d="M102.922 15.3901C102.668 15.2905 102.364 15.1997 102.011 15.1174V13.5586C102.128 13.6022 102.225 13.6654 102.302 13.7486C102.359 13.8111 102.406 13.8794 102.443 13.9537C102.579 14.2286 102.866 14.4123 103.192 14.4123H103.238C103.881 14.4123 104.29 13.7591 103.956 13.248C103.845 13.0779 103.706 12.9221 103.539 12.7806C103.138 12.4419 102.628 12.2402 102.011 12.1755V11.8137C102.011 11.6038 101.84 11.4336 101.631 11.4336C101.421 11.4336 101.251 11.6038 101.251 11.8137V12.1642C100.615 12.2127 100.089 12.4169 99.674 12.7773C99.1944 13.194 98.9546 13.713 98.9546 14.3347C98.9546 15.3945 99.7201 16.1001 101.251 16.4519V18.0578C101.051 18.0176 100.881 17.9402 100.743 17.8248C100.636 17.7363 100.554 17.6285 100.497 17.5011C100.375 17.2301 100.081 17.0607 99.7651 17.0607C99.1556 17.0607 98.7623 17.6704 99.0613 18.1637C99.0773 18.1901 99.0939 18.2163 99.1111 18.2424C99.3519 18.6072 99.6839 18.8943 100.107 19.1036C100.449 19.2723 100.83 19.373 101.251 19.4057V19.6848C101.251 19.8947 101.421 20.0649 101.631 20.0649C101.84 20.0649 102.011 19.8947 102.011 19.6848V19.3955C102.616 19.3341 103.124 19.1441 103.536 18.8252C104.045 18.4302 104.3 17.9133 104.3 17.2744C104.3 16.3808 103.841 15.7527 102.922 15.3901ZM100.902 14.7458C100.719 14.6185 100.628 14.4512 100.628 14.244C100.628 14.0238 100.708 13.8425 100.869 13.7001C100.97 13.6105 101.097 13.5492 101.251 13.5159V14.9167C101.106 14.8637 100.989 14.8068 100.902 14.7458ZM102.353 17.8862C102.262 17.9587 102.147 18.0111 102.011 18.045V16.6728C102.122 16.7171 102.216 16.7633 102.293 16.8114C102.503 16.9431 102.609 17.1233 102.609 17.3521C102.609 17.5722 102.523 17.7503 102.353 17.8862Z" fill="#FFC711"/>
</g>
</mask>
<g mask="url(#mask2_2091_37355)">
<path d="M106.404 8.29971L96.7579 24.3544L93.1385 22.1797L102.785 6.125L106.404 8.29971Z" fill="#FFE286"/>
</g>
</g>
</g>
<circle cx="101.627" cy="15.7501" r="4.65833" fill="#EF7B00"/>
<path d="M99.8353 17.8996V13.9766C99.8353 13.8932 99.863 13.8122 99.914 13.7462C99.965 13.6803 100.036 13.6332 100.117 13.6122C100.198 13.5913 100.283 13.5978 100.36 13.6307C100.437 13.6635 100.5 13.7209 100.541 13.7938L102.713 17.7054C102.754 17.7783 102.817 17.8357 102.894 17.8685C102.971 17.9014 103.056 17.9079 103.137 17.887C103.217 17.8661 103.289 17.8189 103.34 17.753C103.391 17.687 103.419 17.606 103.419 17.5226V13.5996M99.1187 15.0329H104.135M99.1187 16.4663H104.135" stroke="#FFE286" stroke-width="0.716667" stroke-linecap="round" stroke-linejoin="round"/>
</g>
</g>
<defs>
<linearGradient id="paint0_linear_2091_37355" x1="6.89252" y1="5.59801" x2="36.0553" y2="6.75605" gradientUnits="userSpaceOnUse">
<stop stop-color="#0C6B8A"/>
<stop offset="1" stop-color="#FFCC00"/>
</linearGradient>
<clipPath id="clip0_2091_37355">
<rect width="161" height="43" fill="white"/>
</clipPath>
<clipPath id="clip1_2091_37355">
<rect width="21.5" height="21.5" fill="white" transform="translate(90.877 5)"/>
</clipPath>
</defs>
</svg>
