<svg width="981" height="389" viewBox="0 0 981 389" fill="none" xmlns="http://www.w3.org/2000/svg">
<g clip-path="url(#clip0_4587_33630)">
<g filter="url(#filter0_b_4587_33630)">
<circle cx="786.867" cy="194.132" r="194.132" fill="url(#paint0_linear_4587_33630)"/>
</g>
<path d="M720.564 137.604C720.564 141.182 722.695 143.514 725.951 144.68H713.568C716.021 143.594 718.916 136.84 719.921 134.307L727.841 114.245H729.329L738.656 138.729C739.34 140.539 740.666 143.715 742.395 144.68H731.701C732.706 144.077 733.269 143.232 733.269 142.066C733.269 141.182 732.947 140.378 732.666 139.574L731.017 135.151C729.409 134.829 727.761 134.588 726.112 134.588C724.343 134.588 722.655 134.87 720.926 135.191C720.685 136.156 720.564 136.96 720.564 137.604ZM730.655 134.106L725.951 121.401C724.906 124.175 722.373 130.005 721.207 134.186C722.816 133.865 724.464 133.623 726.112 133.623C727.64 133.623 729.168 133.824 730.655 134.106ZM750.708 131.533C752.035 131.533 753.402 131.01 753.402 129.482C753.402 127.673 751.633 125.904 749.823 125.904C747.572 125.904 747.09 130.045 747.09 131.613C747.09 136.156 749.381 140.9 754.527 140.9C755.653 140.9 758.146 140.619 758.99 139.775L759.312 140.016C757.462 143.353 754.568 145.082 750.748 145.082C745.12 145.082 741.099 140.699 741.099 135.151C741.099 129.804 744.516 124.939 750.226 124.939C754.166 124.939 758.588 127.351 758.588 131.774C758.588 133.865 757.342 135.272 755.171 135.272C752.718 135.272 751.391 133.784 750.708 131.533ZM769.633 131.533C770.959 131.533 772.326 131.01 772.326 129.482C772.326 127.673 770.557 125.904 768.748 125.904C766.497 125.904 766.014 130.045 766.014 131.613C766.014 136.156 768.306 140.9 773.452 140.9C774.578 140.9 777.07 140.619 777.915 139.775L778.236 140.016C776.387 143.353 773.492 145.082 769.673 145.082C764.044 145.082 760.024 140.699 760.024 135.151C760.024 129.804 763.441 124.939 769.15 124.939C773.09 124.939 777.513 127.351 777.513 131.774C777.513 133.865 776.266 135.272 774.095 135.272C771.643 135.272 770.316 133.784 769.633 131.533ZM796.206 134.347L784.667 134.829C785.431 138.166 787.602 140.9 791.502 140.9C792.627 140.9 795.12 140.619 795.964 139.775L796.286 140.016C794.437 143.353 792.185 145.082 788.205 145.082C782.576 145.082 778.556 140.699 778.556 135.151C778.556 129.804 781.973 124.939 787.682 124.939C792.869 124.939 796.206 128.196 796.206 133.382V134.347ZM790.818 130.166C790.818 128.316 789.33 125.904 787.28 125.904C784.948 125.904 784.345 130.367 784.345 132.015C784.345 132.618 784.385 133.221 784.466 133.824C785.551 133.704 786.597 133.543 787.682 133.382C789.491 133.101 790.818 132.136 790.818 130.166ZM804.648 145.082C801.633 145.082 796.929 143.715 796.929 139.936C796.929 138.166 797.934 136.679 799.823 136.679C801.633 136.679 802.839 138.327 803.16 139.936C802.195 139.936 801.512 140.659 801.512 141.624C801.512 143.273 803.201 144.117 804.648 144.117C806.377 144.117 808.266 143.273 808.266 141.262C808.266 137.121 797.733 137.443 797.733 130.648C797.733 126.628 802.356 124.939 805.733 124.939C808.749 124.939 813.131 126.266 813.131 129.965C813.131 131.613 812.126 132.658 810.478 132.658C808.789 132.658 807.623 131.533 807.141 129.965C808.025 129.965 808.548 129.321 808.548 128.477C808.548 126.869 807.06 125.904 805.573 125.904C803.804 125.904 802.477 127.11 802.477 128.879C802.477 132.94 813.533 132.779 813.533 139.413C813.533 143.835 808.146 145.082 804.648 145.082ZM822.081 145.082C819.065 145.082 814.361 143.715 814.361 139.936C814.361 138.166 815.366 136.679 817.256 136.679C819.065 136.679 820.271 138.327 820.593 139.936C819.628 139.936 818.945 140.659 818.945 141.624C818.945 143.273 820.633 144.117 822.081 144.117C823.809 144.117 825.699 143.273 825.699 141.262C825.699 137.121 815.165 137.443 815.165 130.648C815.165 126.628 819.789 124.939 823.166 124.939C826.181 124.939 830.564 126.266 830.564 129.965C830.564 131.613 829.559 132.658 827.91 132.658C826.222 132.658 825.056 131.533 824.573 129.965C825.458 129.965 825.98 129.321 825.98 128.477C825.98 126.869 824.493 125.904 823.005 125.904C821.236 125.904 819.909 127.11 819.909 128.879C819.909 132.94 830.966 132.779 830.966 139.413C830.966 143.835 825.578 145.082 822.081 145.082ZM847.093 120.235V125.261H851.274V126.226H847.093V140.458C847.093 142.026 848.339 142.629 849.706 142.629C850.43 142.629 851.194 142.468 851.837 142.107V142.509C850.229 143.996 847.977 145.082 845.766 145.082C842.55 145.082 841.223 142.589 841.223 139.654V126.226H839.253V125.623C843.032 125.261 845.163 123.894 846.49 120.235H847.093ZM860.489 124.939C866.078 124.939 870.178 129.563 870.178 135.031C870.178 140.498 866.078 145.082 860.489 145.082C854.901 145.082 850.76 140.539 850.76 135.031C850.76 129.563 854.901 124.939 860.489 124.939ZM861.776 143.996C864.188 143.996 864.469 139.775 864.469 138.126C864.469 135.031 863.102 126.105 858.8 126.105C856.589 126.105 856.388 130.085 856.388 131.573C856.388 134.427 857.755 143.996 861.776 143.996ZM697.684 187.533C699.011 187.533 700.378 187.01 700.378 185.482C700.378 183.673 698.609 181.904 696.799 181.904C694.548 181.904 694.065 186.045 694.065 187.613C694.065 192.156 696.357 196.9 701.503 196.9C702.629 196.9 705.122 196.619 705.966 195.775L706.288 196.016C704.438 199.353 701.543 201.082 697.724 201.082C692.095 201.082 688.075 196.699 688.075 191.151C688.075 185.804 691.492 180.939 697.201 180.939C701.141 180.939 705.564 183.351 705.564 187.774C705.564 189.865 704.318 191.272 702.147 191.272C699.694 191.272 698.367 189.784 697.684 187.533ZM705.893 181.261H713.813V194.448C713.813 196.096 714.376 198.026 716.346 198.026C717.874 198.026 718.758 196.82 719.08 195.493C719.08 194.448 719.16 193.403 719.16 192.438V186.729C719.16 184.879 718.959 182.266 717.15 181.261H725.03V194.368C725.03 196.981 725.633 198.629 727.282 200.68H720.085C719.844 199.675 719.442 198.549 719.241 197.463C718.879 197.986 713.813 201.001 713.33 201.001C709.712 201.001 707.943 197.946 707.943 194.609V186.729C707.943 184.879 707.662 182.266 705.893 181.261ZM735.251 201.082C732.236 201.082 727.532 199.715 727.532 195.936C727.532 194.166 728.537 192.679 730.427 192.679C732.236 192.679 733.442 194.327 733.764 195.936C732.799 195.936 732.115 196.659 732.115 197.624C732.115 199.273 733.804 200.117 735.251 200.117C736.98 200.117 738.87 199.273 738.87 197.262C738.87 193.121 728.336 193.443 728.336 186.648C728.336 183.07 731.995 181.301 735.211 180.979C734.849 180.296 734.688 179.532 734.688 178.728C734.688 173.582 739.835 171.531 744.257 171.531C750.368 171.531 752.097 173.622 752.097 179.411V181.261H756.278V182.226H752.097V196.458C752.097 198.026 753.343 198.629 754.71 198.629C755.434 198.629 756.198 198.468 756.841 198.107V198.509C755.233 199.996 752.982 201.082 750.77 201.082C747.554 201.082 746.227 198.589 746.227 195.654V182.226H744.257V181.623C746.951 181.341 750.408 179.693 750.408 176.557C750.408 173.381 746.83 172.375 744.257 172.375C741.121 172.375 737.221 174.748 737.221 178.245C737.221 179.451 737.623 180.416 738.347 181.14C741.001 181.623 743.734 183.03 743.734 185.965C743.734 187.613 742.729 188.658 741.081 188.658C739.392 188.658 738.226 187.533 737.744 185.965C738.628 185.965 739.151 185.321 739.151 184.477C739.151 182.869 737.664 181.904 736.176 181.904C734.407 181.904 733.08 183.11 733.08 184.879C733.08 188.94 744.137 188.779 744.137 195.413C744.137 199.835 738.749 201.082 735.251 201.082ZM767.103 180.939C772.691 180.939 776.792 185.563 776.792 191.031C776.792 196.498 772.691 201.082 767.103 201.082C761.514 201.082 757.373 196.539 757.373 191.031C757.373 185.563 761.514 180.939 767.103 180.939ZM768.39 199.996C770.802 199.996 771.083 195.775 771.083 194.126C771.083 191.031 769.716 182.105 765.414 182.105C763.203 182.105 763.002 186.085 763.002 187.573C763.002 190.427 764.369 199.996 768.39 199.996ZM796.172 185.08L796.132 184.799C796.494 184.236 801.881 180.939 802.364 180.939C805.982 180.939 807.751 183.995 807.751 187.332V195.212C807.751 197.061 808.033 199.675 809.802 200.68H799.871C801.6 199.675 801.881 197.021 801.881 195.212V187.492C801.881 185.844 801.318 183.914 799.348 183.914C797.418 183.914 796.534 185.804 796.453 187.492V195.212C796.453 197.061 796.735 199.675 798.504 200.68H788.573C790.302 199.675 790.584 197.021 790.584 195.212V187.492C790.584 185.844 790.021 183.914 788.051 183.914C786.402 183.914 785.518 185.281 785.236 186.769V195.212C785.236 197.061 785.437 199.675 787.247 200.68H777.316C779.045 199.675 779.366 197.021 779.366 195.212V189.503C779.366 187.211 778.522 185.924 777.115 184.236C780.854 183.633 781.98 183.15 785.236 181.261V184.397C785.96 183.673 790.624 180.939 791.066 180.939C793.84 180.939 795.529 182.748 796.172 185.08ZM827.792 190.347L816.253 190.829C817.017 194.166 819.188 196.9 823.088 196.9C824.214 196.9 826.707 196.619 827.551 195.775L827.873 196.016C826.023 199.353 823.772 201.082 819.791 201.082C814.163 201.082 810.142 196.699 810.142 191.151C810.142 185.804 813.56 180.939 819.269 180.939C824.455 180.939 827.792 184.196 827.792 189.382V190.347ZM822.405 186.166C822.405 184.316 820.917 181.904 818.867 181.904C816.535 181.904 815.932 186.367 815.932 188.015C815.932 188.618 815.972 189.221 816.052 189.824C817.138 189.704 818.183 189.543 819.269 189.382C821.078 189.101 822.405 188.136 822.405 186.166ZM836.396 190.387V195.212C836.396 197.061 836.597 199.675 838.406 200.68H828.475C830.204 199.675 830.526 197.021 830.526 195.212V189.503C830.526 187.251 829.681 185.924 828.274 184.236C832.013 183.633 833.139 183.11 836.396 181.261V187.01C838.325 181.783 843.994 177.28 849.663 177.28C852.276 177.28 855.533 178.286 855.533 181.422C855.533 183.633 853.764 185.241 851.593 185.241C851.593 182.507 849.703 181.261 847.17 181.261C842.507 181.261 836.396 185.281 836.396 190.387ZM848.738 182.105V182.185C847.331 182.185 845.643 182.829 845.643 184.477C845.643 189.342 856.699 188.578 856.699 195.413C856.699 199.835 851.312 201.082 847.814 201.082C844.798 201.082 840.094 199.715 840.094 195.936C840.094 194.166 841.099 192.679 842.989 192.679C844.798 192.679 846.004 194.327 846.326 195.936C845.361 195.936 844.678 196.659 844.678 197.624C844.678 199.273 846.366 200.117 847.814 200.117C849.543 200.117 851.432 199.273 851.432 197.262C851.432 193.121 840.898 193.081 840.898 186.648C840.898 182.708 845.763 182.105 848.738 182.105ZM877.171 189.503C877.171 187.211 876.327 185.924 874.92 184.236C878.056 183.713 881.473 181.783 881.473 178.165C881.473 174.546 878.096 172.456 874.759 172.456C872.91 172.456 870.819 173.019 869.613 174.466C871.221 174.466 872.548 175.793 872.548 177.401C872.548 179.009 871.221 180.336 869.613 180.336C868.005 180.336 866.678 179.009 866.678 177.401C866.678 173.139 871.824 171.531 875.322 171.531C879.503 171.531 883.805 173.702 883.805 178.406C883.805 179.411 883.564 180.416 883.041 181.261V184.356C883.524 183.834 888.389 180.939 888.871 180.939C892.49 180.939 894.259 183.995 894.259 187.332V195.212C894.259 197.061 894.54 199.675 896.309 200.68H886.378C888.107 199.675 888.389 197.021 888.389 195.212V187.492C888.389 185.844 887.826 183.914 885.856 183.914C884.449 183.914 883.041 185.402 883.041 186.769V195.212C883.041 197.061 883.242 199.675 885.052 200.68H875.121C876.85 199.675 877.171 197.021 877.171 195.212V189.503ZM864.788 184.236C868.527 183.633 869.653 183.15 872.91 181.261V195.212C872.91 197.061 873.111 199.675 874.92 200.68H864.989C866.718 199.675 867.04 197.021 867.04 195.212V189.503C867.04 187.211 866.196 185.924 864.788 184.236ZM663.031 240.683C664.077 238.392 666.167 235.939 668.901 235.939C671.072 235.939 672.439 237.628 672.439 239.718C672.439 242.452 670.268 244.181 667.615 244.181C667.695 243.859 667.776 243.538 667.776 243.176C667.776 241.809 666.73 240.723 665.323 240.723C664.238 240.723 663.031 241.729 663.031 242.895V250.212C663.031 252.061 663.273 254.675 665.042 255.68H655.111C656.84 254.675 657.162 252.021 657.162 250.212V244.503C657.162 242.211 656.317 240.924 654.91 239.236C658.649 238.633 659.775 238.15 663.031 236.261V240.683ZM689.843 245.347L678.304 245.829C679.068 249.166 681.239 251.9 685.139 251.9C686.265 251.9 688.758 251.619 689.602 250.775L689.923 251.016C688.074 254.353 685.823 256.082 681.842 256.082C676.214 256.082 672.193 251.699 672.193 246.151C672.193 240.804 675.611 235.939 681.32 235.939C686.506 235.939 689.843 239.196 689.843 244.382V245.347ZM684.456 241.166C684.456 239.316 682.968 236.904 680.918 236.904C678.586 236.904 677.983 241.367 677.983 243.015C677.983 243.618 678.023 244.221 678.103 244.824C679.189 244.704 680.234 244.543 681.32 244.382C683.129 244.101 684.456 243.136 684.456 241.166ZM709.382 240.08L709.342 239.799C709.704 239.236 715.091 235.939 715.574 235.939C719.192 235.939 720.961 238.995 720.961 242.332V250.212C720.961 252.061 721.242 254.675 723.012 255.68H713.081C714.81 254.675 715.091 252.021 715.091 250.212V242.492C715.091 240.844 714.528 238.914 712.558 238.914C710.628 238.914 709.744 240.804 709.663 242.492V250.212C709.663 252.061 709.945 254.675 711.714 255.68H701.783C703.512 254.675 703.794 252.021 703.794 250.212V242.492C703.794 240.844 703.231 238.914 701.261 238.914C699.612 238.914 698.728 240.281 698.446 241.769V250.212C698.446 252.061 698.647 254.675 700.457 255.68H690.526C692.255 254.675 692.576 252.021 692.576 250.212V244.503C692.576 242.211 691.732 240.924 690.325 239.236C694.064 238.633 695.19 238.15 698.446 236.261V239.397C699.17 238.673 703.834 235.939 704.276 235.939C707.05 235.939 708.739 237.748 709.382 240.08ZM733.082 235.939C738.67 235.939 742.771 240.563 742.771 246.031C742.771 251.498 738.67 256.082 733.082 256.082C727.493 256.082 723.352 251.539 723.352 246.031C723.352 240.563 727.493 235.939 733.082 235.939ZM734.368 254.996C736.781 254.996 737.062 250.775 737.062 249.126C737.062 246.031 735.695 237.105 731.393 237.105C729.182 237.105 728.981 241.085 728.981 242.573C728.981 245.427 730.348 254.996 734.368 254.996ZM750.742 231.235V236.261H754.924V237.226H750.742V251.458C750.742 253.026 751.989 253.629 753.356 253.629C754.079 253.629 754.843 253.468 755.486 253.107V253.509C753.878 254.996 751.627 256.082 749.415 256.082C746.199 256.082 744.872 253.589 744.872 250.654V237.226H742.902V236.623C746.682 236.261 748.812 234.894 750.139 231.235H750.742ZM772.059 245.347L760.52 245.829C761.284 249.166 763.455 251.9 767.355 251.9C768.481 251.9 770.973 251.619 771.818 250.775L772.139 251.016C770.29 254.353 768.039 256.082 764.058 256.082C758.43 256.082 754.409 251.699 754.409 246.151C754.409 240.804 757.826 235.939 763.536 235.939C768.722 235.939 772.059 239.196 772.059 244.382V245.347ZM766.672 241.166C766.672 239.316 765.184 236.904 763.134 236.904C760.802 236.904 760.199 241.367 760.199 243.015C760.199 243.618 760.239 244.221 760.319 244.824C761.405 244.704 762.45 244.543 763.536 244.382C765.345 244.101 766.672 243.136 766.672 241.166ZM788.554 227.174V250.212C788.554 252.061 788.795 254.675 790.604 255.68H780.634C782.403 254.675 782.684 252.061 782.684 250.212V235.416C782.684 233.125 781.84 231.838 780.433 230.15C784.172 229.546 785.297 229.064 788.554 227.174ZM800.653 235.939C806.241 235.939 810.342 240.563 810.342 246.031C810.342 251.498 806.241 256.082 800.653 256.082C795.064 256.082 790.923 251.539 790.923 246.031C790.923 240.563 795.064 235.939 800.653 235.939ZM801.939 254.996C804.352 254.996 804.633 250.775 804.633 249.126C804.633 246.031 803.266 237.105 798.964 237.105C796.753 237.105 796.552 241.085 796.552 242.573C796.552 245.427 797.919 254.996 801.939 254.996ZM821.381 242.533C822.707 242.533 824.074 242.01 824.074 240.482C824.074 238.673 822.305 236.904 820.496 236.904C818.245 236.904 817.762 241.045 817.762 242.613C817.762 247.156 820.054 251.9 825.2 251.9C826.326 251.9 828.819 251.619 829.663 250.775L829.985 251.016C828.135 254.353 825.24 256.082 821.421 256.082C815.792 256.082 811.772 251.699 811.772 246.151C811.772 240.804 815.189 235.939 820.898 235.939C824.838 235.939 829.261 238.351 829.261 242.774C829.261 244.865 828.015 246.272 825.843 246.272C823.391 246.272 822.064 244.784 821.381 242.533ZM831.46 241.688C831.46 237.869 835.682 236.261 838.898 236.261C842.637 236.261 846.376 236.301 850.115 236.261C850.276 236.261 851 235.939 851.161 235.859C853.412 234.773 854.819 232.562 855.583 230.27H855.985V236.261C857.995 236.261 860.77 235.376 860.77 232.883C860.77 232.039 860.287 231.316 859.523 230.994C860.408 229.506 861.775 228.662 863.504 228.662C865.433 228.662 866.76 230.15 866.76 232.039C866.76 235.738 862.74 237.226 859.644 237.226H855.985V251.458C855.985 253.026 857.232 253.629 858.599 253.629C859.322 253.629 860.086 253.468 860.729 253.107V253.509C859.121 254.996 856.87 256.082 854.658 256.082C851.442 256.082 850.115 253.589 850.115 250.654V237.226H840.828C839.019 237.226 837.008 238.191 837.008 240.201C837.008 241.246 837.612 242.131 838.536 242.533C837.652 244.02 836.285 244.865 834.556 244.865C832.707 244.865 831.46 243.498 831.46 241.688ZM835.521 256.082C832.707 256.082 830.696 254.795 830.696 251.78C830.696 247.598 838.054 245.91 840.627 243.096C840.627 241.769 840.949 238.472 838.938 238.512L839.22 238.15C843.24 238.15 846.497 240.08 846.497 244.422V251.78C846.497 252.544 846.617 254.273 847.743 254.273C848.025 254.273 848.306 254.192 848.547 254.031V254.433C847.18 255.438 846.336 256.082 844.527 256.082C843.079 256.082 841.391 255.278 840.828 253.87C839.421 255.479 837.612 256.082 835.521 256.082ZM836.606 249.971C836.606 251.659 837.008 253.428 839.059 253.428C839.622 253.428 840.144 253.267 840.627 252.986V244.503C839.099 245.91 836.606 247.639 836.606 249.971ZM865.746 235.336C864.137 235.336 862.811 234.009 862.811 232.401C862.811 230.793 864.137 229.466 865.746 229.466C867.354 229.466 868.681 230.793 868.681 232.401C868.681 234.009 867.354 235.336 865.746 235.336ZM871.053 255.68H861.122C862.851 254.675 863.172 252.021 863.172 250.212V244.503C863.172 242.211 862.328 240.924 860.921 239.236C864.66 238.633 865.786 238.15 869.042 236.261V250.212C869.042 252.061 869.243 254.675 871.053 255.68ZM881.102 235.939C886.69 235.939 890.791 240.563 890.791 246.031C890.791 251.498 886.69 256.082 881.102 256.082C875.513 256.082 871.372 251.539 871.372 246.031C871.372 240.563 875.513 235.939 881.102 235.939ZM882.389 254.996C884.801 254.996 885.082 250.775 885.082 249.126C885.082 246.031 883.715 237.105 879.413 237.105C877.202 237.105 877.001 241.085 877.001 242.573C877.001 245.427 878.368 254.996 882.389 254.996ZM901.246 255.68H891.315C893.044 254.675 893.365 252.021 893.365 250.212V244.503C893.365 242.211 892.521 240.924 891.114 239.236C894.853 238.633 895.979 238.15 899.235 236.261V239.397C899.959 238.673 904.623 235.939 905.065 235.939C908.683 235.939 910.452 238.995 910.452 242.332V250.212C910.452 252.061 910.734 254.675 912.503 255.68H902.572C904.301 254.675 904.583 252.021 904.583 250.212V242.492C904.583 240.844 904.02 238.914 902.05 238.914C900.401 238.914 899.517 240.281 899.235 241.769V250.212C899.235 252.061 899.436 254.675 901.246 255.68ZM920.08 256.082C917.065 256.082 912.361 254.715 912.361 250.936C912.361 249.166 913.366 247.679 915.255 247.679C917.065 247.679 918.271 249.327 918.592 250.936C917.627 250.936 916.944 251.659 916.944 252.624C916.944 254.273 918.633 255.117 920.08 255.117C921.809 255.117 923.698 254.273 923.698 252.262C923.698 248.121 913.165 248.443 913.165 241.648C913.165 237.628 917.788 235.939 921.166 235.939C924.181 235.939 928.563 237.266 928.563 240.965C928.563 242.613 927.558 243.658 925.91 243.658C924.221 243.658 923.055 242.533 922.573 240.965C923.457 240.965 923.98 240.321 923.98 239.477C923.98 237.869 922.492 236.904 921.005 236.904C919.236 236.904 917.909 238.11 917.909 239.879C917.909 243.94 928.965 243.779 928.965 250.413C928.965 254.835 923.578 256.082 920.08 256.082Z" fill="white"/>
<g filter="url(#filter1_b_4587_33630)">
<circle cx="490.5" cy="194.132" r="193.132" stroke="white" stroke-width="2"/>
</g>
<path d="M426.272 125.235C426.272 127.285 424.945 128.974 422.815 128.974C420.483 128.974 419.035 127.084 418.794 124.913C420 124.913 420.563 123.787 420.563 122.742C420.563 120.249 417.829 119.365 415.779 119.365C412.562 119.365 410.552 121.777 410.552 124.913C410.552 131.909 427.036 131.306 427.036 141.156C427.036 147.106 421.086 149.679 415.94 149.679C411.115 149.679 404.722 147.428 404.722 141.679C404.722 139.427 405.969 137.216 408.421 137.216C410.994 137.216 412.482 139.548 412.763 141.839C411.195 141.839 410.391 143.448 410.391 144.815C410.391 147.428 412.603 148.714 414.975 148.714C418.191 148.714 420.965 146.905 420.965 143.448C420.965 135.487 405.728 136.613 405.728 126.923C405.728 121.295 410.874 118.4 415.98 118.4C419.88 118.4 426.272 120.45 426.272 125.235ZM432.462 128.934C430.854 128.934 429.527 127.607 429.527 125.999C429.527 121.737 434.673 120.129 438.171 120.129C442.353 120.129 446.655 122.3 446.655 127.004C446.655 128.009 446.413 129.014 445.891 129.858V132.954C446.373 132.431 451.238 129.537 451.72 129.537C454.253 129.537 456.143 131.185 456.826 133.597L456.786 133.396C457.148 132.834 462.536 129.537 463.018 129.537C466.636 129.537 468.405 132.592 468.405 135.929V143.809C468.405 145.659 468.687 148.272 470.456 149.277H460.525C462.254 148.272 462.536 145.619 462.536 143.809V136.09C462.536 134.442 461.973 132.512 460.003 132.512C458.153 132.512 457.108 134.442 457.108 136.09V143.809C457.108 145.659 457.389 148.272 459.158 149.277H449.228C450.956 148.272 451.238 145.619 451.238 143.809V136.09C451.238 134.442 450.675 132.512 448.705 132.512C447.298 132.512 445.891 133.999 445.891 135.366V143.809C445.891 145.659 446.092 148.272 447.901 149.277H437.97C439.699 148.272 440.021 145.619 440.021 143.809V138.1C440.021 135.809 439.176 134.522 437.769 132.834C440.905 132.311 444.323 130.381 444.323 126.763C444.323 123.144 440.945 121.053 437.608 121.053C435.759 121.053 433.668 121.616 432.462 123.064C434.07 123.064 435.397 124.39 435.397 125.999C435.397 127.607 434.07 128.934 432.462 128.934ZM427.638 132.834C431.377 132.23 432.502 131.748 435.759 129.858V143.809C435.759 145.659 435.96 148.272 437.769 149.277H427.839C429.567 148.272 429.889 145.619 429.889 143.809V138.1C429.889 135.809 429.045 134.522 427.638 132.834ZM472.725 152.735V138.06C472.725 135.768 471.88 134.482 470.473 132.793C474.212 132.19 475.338 131.708 478.595 129.858V132.753C479.962 131.185 481.771 129.416 483.097 129.416C488.686 129.416 491.742 133.999 491.742 139.186C491.742 144.614 488.405 149.639 482.575 149.639C480.766 149.639 479.801 149.398 478.595 148.956V152.735C478.595 154.584 478.836 157.158 480.605 158.203H470.674C472.443 157.158 472.725 154.584 472.725 152.735ZM478.595 133.236V143.407C478.595 145.498 479.117 148.634 481.811 148.634C485.148 148.634 486.193 144.413 486.193 141.759C486.193 137.618 484.062 132.954 479.318 132.954C479.117 132.954 478.836 133.075 478.595 133.236ZM492.068 123.747C494.922 123.265 497.535 122.501 499.988 120.893C500.47 120.571 500.953 120.169 501.476 119.847C503.566 118.561 506.3 117.636 508.793 117.636C511.446 117.636 513.899 118.802 513.899 121.777C513.899 124.431 511.929 126.763 509.677 127.929C508.913 128.331 507.989 128.934 507.064 128.934C505.456 128.934 504.129 127.607 504.129 125.999C504.129 124.39 505.456 123.064 507.064 123.064C508.672 123.064 509.999 124.39 509.999 125.999C509.999 127.004 509.436 127.888 508.632 128.451C510.441 127.366 511.728 125.396 511.728 123.265C511.728 120.491 509.758 119.083 507.144 119.083C504.652 119.083 501.677 120.491 500.189 122.501V143.809C500.189 145.659 500.43 148.272 502.239 149.277H492.269C494.038 148.272 494.319 145.659 494.319 143.809V129.014C494.319 126.722 493.475 125.436 492.068 123.747ZM502.239 132.834C505.978 132.23 507.104 131.748 510.361 129.858V143.809C510.361 145.659 510.562 148.272 512.371 149.277H502.44C504.169 148.272 504.491 145.619 504.491 143.809V138.1C504.491 135.809 503.647 134.522 502.239 132.834ZM523.101 121.214C525.594 121.214 528.489 122.42 528.489 125.315C528.489 127.205 527.081 128.532 525.232 128.532C523.543 128.532 522.377 127.205 521.895 125.677C522.9 125.677 523.624 124.994 523.624 123.988C523.624 122.903 522.82 122.26 521.774 122.26C520.005 122.26 518.799 123.948 518.799 125.597C518.799 128.934 522.578 129.858 525.232 129.858V130.823H520.649V143.809C520.649 145.659 520.85 148.272 522.659 149.277H512.728C514.457 148.272 514.779 145.619 514.779 143.809V130.823H512.567V129.858H514.859C514.859 124.752 517.794 121.214 523.101 121.214ZM531.757 128.934C530.149 128.934 528.822 127.607 528.822 125.999C528.822 124.39 530.149 123.064 531.757 123.064C533.366 123.064 534.692 124.39 534.692 125.999C534.692 127.607 533.366 128.934 531.757 128.934ZM537.064 149.277H527.134C528.863 148.272 529.184 145.619 529.184 143.809V138.1C529.184 135.809 528.34 134.522 526.933 132.834C530.672 132.23 531.798 131.748 535.054 129.858V143.809C535.054 145.659 535.255 148.272 537.064 149.277ZM555.034 138.945L543.495 139.427C544.259 142.764 546.43 145.498 550.33 145.498C551.456 145.498 553.949 145.217 554.793 144.372L555.115 144.614C553.265 147.951 551.014 149.679 547.033 149.679C541.405 149.679 537.384 145.297 537.384 139.749C537.384 134.402 540.802 129.537 546.511 129.537C551.697 129.537 555.034 132.793 555.034 137.98V138.945ZM549.647 134.763C549.647 132.914 548.159 130.502 546.109 130.502C543.777 130.502 543.174 134.964 543.174 136.613C543.174 137.216 543.214 137.819 543.294 138.422C544.38 138.301 545.425 138.141 546.511 137.98C548.32 137.698 549.647 136.733 549.647 134.763ZM574.855 120.812V143.809C574.855 145.659 575.056 148.272 576.865 149.277H568.985V147.629C568.1 148.915 566.814 149.639 564.482 149.639C558.893 149.639 555.838 145.056 555.838 139.869C555.838 134.442 559.175 129.416 565.004 129.416C565.728 129.416 568.301 130.502 568.985 130.823V129.014C568.985 126.722 568.14 125.436 566.733 123.747C570.472 123.144 571.598 122.662 574.855 120.812ZM568.985 145.458V135.648C568.985 133.557 568.462 130.421 565.768 130.421C562.512 130.421 561.386 134.361 561.386 137.015C561.386 141.156 563.597 145.458 568.261 145.458C568.542 145.458 568.784 145.458 568.985 145.458ZM428.694 177.214C431.187 177.214 434.082 178.42 434.082 181.315C434.082 183.205 432.674 184.532 430.825 184.532C429.136 184.532 427.97 183.205 427.488 181.677C428.493 181.677 429.217 180.994 429.217 179.988C429.217 178.903 428.413 178.26 427.367 178.26C425.598 178.26 424.392 179.948 424.392 181.597C424.392 184.934 428.171 185.858 430.825 185.858V186.823H426.242V199.809C426.242 201.659 426.443 204.272 428.252 205.277H418.321C420.05 204.272 420.372 201.619 420.372 199.809V186.823H418.16V185.858H420.452C420.452 180.752 423.387 177.214 428.694 177.214ZM446.519 194.1C446.519 191.809 445.674 190.522 444.267 188.834C447.403 188.311 450.821 186.381 450.821 182.763C450.821 179.144 447.443 177.053 444.106 177.053C442.257 177.053 440.166 177.616 438.96 179.064C440.568 179.064 441.895 180.39 441.895 181.999C441.895 183.607 440.568 184.934 438.96 184.934C437.352 184.934 436.025 183.607 436.025 181.999C436.025 177.737 441.171 176.129 444.669 176.129C448.851 176.129 453.153 178.3 453.153 183.004C453.153 184.009 452.911 185.014 452.389 185.858V188.954C452.871 188.431 457.736 185.537 458.218 185.537C461.837 185.537 463.606 188.592 463.606 191.929V199.809C463.606 201.659 463.887 204.272 465.656 205.277H455.726C457.454 204.272 457.736 201.619 457.736 199.809V192.09C457.736 190.442 457.173 188.512 455.203 188.512C453.796 188.512 452.389 189.999 452.389 191.366V199.809C452.389 201.659 452.59 204.272 454.399 205.277H444.468C446.197 204.272 446.519 201.619 446.519 199.809V194.1ZM434.136 188.834C437.875 188.23 439 187.748 442.257 185.858V199.809C442.257 201.659 442.458 204.272 444.267 205.277H434.337C436.065 204.272 436.387 201.619 436.387 199.809V194.1C436.387 191.809 435.543 190.522 434.136 188.834ZM469.322 194.181C467.634 194.181 466.709 192.693 466.709 191.125C466.709 187.105 471.131 185.537 474.509 185.537C478.609 185.537 481.786 187.828 481.786 192.13V201.377C481.786 202.141 481.906 203.87 483.032 203.87C483.313 203.87 483.595 203.79 483.836 203.629V204.031C482.469 205.036 481.585 205.679 479.816 205.679C478.047 205.679 475.916 204.473 475.916 202.503V194.1C473.222 195.628 471.895 198.04 471.895 201.136C471.895 205.438 474.911 208.212 479.132 208.212C483.836 208.212 486.289 204.674 486.289 200.212V194.1C486.289 191.809 485.444 190.522 484.037 188.834C487.776 188.23 488.902 187.708 492.159 185.858V188.954C492.641 188.431 497.506 185.537 497.988 185.537C501.607 185.537 503.376 188.592 503.376 191.929V199.809C503.376 201.659 503.657 204.272 505.426 205.277H495.496C497.224 204.272 497.506 201.619 497.506 199.809V192.09C497.506 190.442 496.943 188.512 494.973 188.512C493.525 188.512 492.199 189.959 492.159 191.366C492.118 192.251 492.159 193.216 492.159 194.1V200.493C492.159 207.489 484.037 209.298 478.489 209.298C473.262 209.298 465.985 207.891 465.985 201.297C465.985 196.794 472.458 194.422 475.916 193.095C475.916 191.527 476.438 186.502 474.026 186.502C472.86 186.502 472.056 187.909 472.056 188.954C472.056 189.919 472.699 190.402 473.624 190.402C473.021 192.372 471.574 194.181 469.322 194.181ZM515.367 192.13C516.694 192.13 518.061 191.608 518.061 190.08C518.061 188.271 516.292 186.502 514.483 186.502C512.231 186.502 511.749 190.643 511.749 192.211C511.749 196.754 514.04 201.498 519.187 201.498C520.312 201.498 522.805 201.217 523.649 200.372L523.971 200.614C522.122 203.951 519.227 205.679 515.407 205.679C509.779 205.679 505.758 201.297 505.758 195.749C505.758 190.402 509.176 185.537 514.885 185.537C518.825 185.537 523.247 187.949 523.247 192.372C523.247 194.462 522.001 195.869 519.83 195.869C517.377 195.869 516.051 194.382 515.367 192.13ZM529.186 184.934C527.577 184.934 526.251 183.607 526.251 181.999C526.251 180.39 527.577 179.064 529.186 179.064C530.794 179.064 532.121 180.39 532.121 181.999C532.121 183.607 530.794 184.934 529.186 184.934ZM534.493 205.277H524.562C526.291 204.272 526.613 201.619 526.613 199.809V194.1C526.613 191.809 525.768 190.522 524.361 188.834C528.1 188.23 529.226 187.748 532.482 185.858V199.809C532.482 201.659 532.684 204.272 534.493 205.277ZM552.663 203.629V204.031C551.297 205.036 550.452 205.679 548.643 205.679C547.196 205.679 545.507 204.835 544.944 203.468C543.698 204.875 541.929 205.679 539.637 205.679C536.823 205.679 534.812 204.393 534.812 201.377C534.812 197.196 542.17 195.508 544.743 192.693V191.407C544.743 190.04 544.944 186.502 542.853 186.502C541.688 186.502 540.883 187.909 540.883 188.954C540.883 189.919 541.527 190.402 542.451 190.402C541.848 192.372 540.401 194.181 538.149 194.181C536.461 194.181 535.536 192.693 535.536 191.125C535.536 187.105 539.959 185.537 543.336 185.537C547.437 185.537 550.613 187.828 550.613 192.13V201.377C550.613 202.141 550.734 203.87 551.859 203.87C552.141 203.87 552.422 203.79 552.663 203.629ZM544.743 202.624V194.1C543.215 195.508 540.723 197.236 540.723 199.568C540.723 201.257 541.125 203.026 543.175 203.026C543.818 203.026 544.341 202.865 544.743 202.624ZM560.987 176.772V199.809C560.987 201.659 561.228 204.272 563.038 205.277H553.067C554.836 204.272 555.117 201.659 555.117 199.809V185.014C555.117 182.722 554.273 181.436 552.866 179.747C556.605 179.144 557.731 178.662 560.987 176.772ZM418.326 245.281C419.372 242.989 421.462 240.537 424.196 240.537C426.367 240.537 427.734 242.225 427.734 244.316C427.734 247.05 425.563 248.779 422.91 248.779C422.99 248.457 423.071 248.135 423.071 247.774C423.071 246.407 422.025 245.321 420.618 245.321C419.533 245.321 418.326 246.326 418.326 247.492V254.809C418.326 256.659 418.568 259.272 420.337 260.277H410.406C412.135 259.272 412.457 256.619 412.457 254.809V249.1C412.457 246.809 411.612 245.522 410.205 243.834C413.944 243.23 415.07 242.748 418.326 240.858V245.281ZM445.138 249.945L433.599 250.427C434.363 253.764 436.534 256.498 440.434 256.498C441.56 256.498 444.053 256.217 444.897 255.372L445.218 255.614C443.369 258.951 441.118 260.679 437.137 260.679C431.509 260.679 427.488 256.297 427.488 250.749C427.488 245.402 430.906 240.537 436.615 240.537C441.801 240.537 445.138 243.793 445.138 248.98V249.945ZM439.751 245.763C439.751 243.914 438.263 241.502 436.213 241.502C433.881 241.502 433.278 245.964 433.278 247.613C433.278 248.216 433.318 248.819 433.398 249.422C434.484 249.301 435.529 249.141 436.615 248.98C438.424 248.698 439.751 247.733 439.751 245.763ZM447.871 263.735V249.06C447.871 246.768 447.027 245.482 445.62 243.793C449.359 243.19 450.485 242.708 453.741 240.858V243.753C455.108 242.185 456.917 240.416 458.244 240.416C463.833 240.416 466.888 244.999 466.888 250.186C466.888 255.614 463.551 260.639 457.722 260.639C455.912 260.639 454.947 260.398 453.741 259.956V263.735C453.741 265.584 453.983 268.158 455.752 269.203H445.821C447.59 268.158 447.871 265.584 447.871 263.735ZM453.741 244.236V254.407C453.741 256.498 454.264 259.634 456.958 259.634C460.295 259.634 461.34 255.413 461.34 252.759C461.34 248.618 459.209 243.954 454.465 243.954C454.264 243.954 453.983 244.075 453.741 244.236ZM478.051 240.537C483.639 240.537 487.74 245.16 487.74 250.628C487.74 256.096 483.639 260.679 478.051 260.679C472.462 260.679 468.321 256.136 468.321 250.628C468.321 245.16 472.462 240.537 478.051 240.537ZM479.337 259.594C481.75 259.594 482.031 255.372 482.031 253.724C482.031 250.628 480.664 241.703 476.362 241.703C474.151 241.703 473.95 245.683 473.95 247.171C473.95 250.025 475.317 259.594 479.337 259.594ZM495.792 245.281C496.837 242.989 498.928 240.537 501.661 240.537C503.833 240.537 505.2 242.225 505.2 244.316C505.2 247.05 503.028 248.779 500.375 248.779C500.455 248.457 500.536 248.135 500.536 247.774C500.536 246.407 499.49 245.321 498.083 245.321C496.998 245.321 495.792 246.326 495.792 247.492V254.809C495.792 256.659 496.033 259.272 497.802 260.277H487.871C489.6 259.272 489.922 256.619 489.922 254.809V249.1C489.922 246.809 489.077 245.522 487.67 243.834C491.409 243.23 492.535 242.748 495.792 240.858V245.281ZM513.065 235.833V240.858H517.247V241.823H513.065V256.056C513.065 257.624 514.312 258.227 515.679 258.227C516.402 258.227 517.166 258.066 517.809 257.704V258.106C516.201 259.594 513.95 260.679 511.738 260.679C508.522 260.679 507.195 258.187 507.195 255.252V241.823H505.225V241.22C509.005 240.858 511.135 239.491 512.462 235.833H513.065ZM530.403 249.1C530.403 246.809 529.559 245.522 528.152 243.834C531.288 243.311 534.705 241.381 534.705 237.763C534.705 234.144 531.328 232.053 527.991 232.053C526.142 232.053 524.051 232.616 522.845 234.064C524.453 234.064 525.78 235.39 525.78 236.999C525.78 238.607 524.453 239.934 522.845 239.934C521.237 239.934 519.91 238.607 519.91 236.999C519.91 232.737 525.056 231.129 528.554 231.129C532.735 231.129 537.037 233.3 537.037 238.004C537.037 239.009 536.796 240.014 536.273 240.858V243.954C536.756 243.431 541.62 240.537 542.103 240.537C545.721 240.537 547.49 243.592 547.49 246.929V254.809C547.49 256.659 547.772 259.272 549.541 260.277H539.61C541.339 259.272 541.62 256.619 541.62 254.809V247.09C541.62 245.442 541.058 243.512 539.088 243.512C537.68 243.512 536.273 244.999 536.273 246.366V254.809C536.273 256.659 536.474 259.272 538.283 260.277H528.353C530.082 259.272 530.403 256.619 530.403 254.809V249.1ZM518.02 243.834C521.759 243.23 522.885 242.748 526.142 240.858V254.809C526.142 256.659 526.343 259.272 528.152 260.277H518.221C519.95 259.272 520.272 256.619 520.272 254.809V249.1C520.272 246.809 519.427 245.522 518.02 243.834ZM559.76 240.537C560.243 240.537 560.765 240.577 561.248 240.617C562.615 238.205 564.866 235.27 567.721 235.27C569.289 235.27 570.575 236.275 570.575 237.883C570.575 239.733 569.007 240.778 567.278 240.778C567.077 240.778 566.796 240.738 566.595 240.698C566.314 239.893 565.55 239.491 564.746 239.491C563.7 239.491 562.775 240.014 562.052 240.738C565.751 241.381 569.329 243.592 569.329 247.814C569.329 252.96 564.223 255.131 559.76 255.131C558.031 255.131 556.142 254.809 554.533 254.086C554.252 254.367 554.131 254.729 554.131 255.131C554.131 258.629 570.334 254.568 570.334 263.494C570.334 268.72 563.137 269.524 559.278 269.524C556.383 269.524 549.789 268.72 549.789 264.66C549.789 263.132 550.915 262.167 552.403 262.167C553.971 262.167 555.016 263.413 555.458 264.82C555.177 265.102 554.976 265.464 554.976 265.866C554.976 267.836 558.232 268.56 559.72 268.56C561.569 268.56 564.384 267.836 564.384 265.544C564.384 260.599 551.116 263.775 551.116 258.629C551.116 258.146 553.207 254.769 553.85 253.724C551.679 252.558 550.111 250.628 550.111 247.814C550.111 242.708 555.378 240.537 559.76 240.537ZM561.047 254.046C563.178 254.046 563.74 251.714 563.74 249.985C563.74 246.849 561.851 241.703 558.071 241.703C556.101 241.703 555.659 243.914 555.659 245.482C555.659 248.377 557.428 254.046 561.047 254.046Z" fill="white"/>
<g filter="url(#filter2_b_4587_33630)">
<circle cx="194.132" cy="194.132" r="194.132" fill="url(#paint1_linear_4587_33630)"/>
</g>
<path d="M129.127 139.467V124.27C129.127 122.38 127.719 119.767 126.071 118.802H133.268L142.836 141.397L151.159 118.842L157.27 118.802C155.541 119.847 155.26 122.42 155.26 124.27V143.809C155.26 145.659 155.461 148.272 157.27 149.277H147.339C149.068 148.272 149.39 145.619 149.39 143.809V126.401L140.987 149.277H139.781L130.091 126.401V139.467C130.091 143.93 131.941 147.91 136.444 149.277H126.071C128.885 148.473 128.966 146.463 129.086 143.85C129.127 142.402 129.127 140.915 129.127 139.467ZM158.09 129.858H166.011V143.046C166.011 144.694 166.574 146.624 168.544 146.624C170.071 146.624 170.956 145.418 171.278 144.091C171.278 143.046 171.358 142 171.358 141.035V135.326C171.358 133.477 171.157 130.863 169.348 129.858H177.228V142.965C177.228 145.578 177.831 147.227 179.479 149.277H172.283C172.041 148.272 171.639 147.146 171.438 146.061C171.077 146.584 166.011 149.599 165.528 149.599C161.91 149.599 160.141 146.543 160.141 143.206V135.326C160.141 133.477 159.859 130.863 158.09 129.858ZM187.61 120.772V143.809C187.61 145.659 187.851 148.272 189.66 149.277H179.69C181.459 148.272 181.74 145.659 181.74 143.809V129.014C181.74 126.722 180.896 125.436 179.489 123.747C183.228 123.144 184.353 122.662 187.61 120.772ZM197.699 124.833V129.858H201.88V130.823H197.699V145.056C197.699 146.624 198.945 147.227 200.312 147.227C201.036 147.227 201.799 147.066 202.443 146.704V147.106C200.834 148.594 198.583 149.679 196.372 149.679C193.155 149.679 191.829 147.187 191.829 144.252V130.823H189.859V130.22C193.638 129.858 195.769 128.491 197.095 124.833H197.699ZM215.037 152.735V138.06C215.037 135.809 214.152 134.522 212.785 132.834C215.921 132.311 219.338 130.381 219.338 126.763C219.338 123.144 215.961 121.053 212.624 121.053C210.775 121.053 208.684 121.616 207.478 123.064C209.086 123.064 210.413 124.39 210.413 125.999C210.413 127.607 209.086 128.934 207.478 128.934C205.87 128.934 204.543 127.607 204.543 125.999C204.543 121.737 209.689 120.129 213.187 120.129C217.368 120.129 221.67 122.3 221.67 127.004C221.67 128.009 221.429 129.014 220.906 129.858V132.753C222.273 131.185 224.083 129.416 225.409 129.416C230.998 129.416 234.053 133.999 234.053 139.186C234.053 144.614 230.716 149.639 224.887 149.639C223.078 149.639 222.113 149.398 220.906 148.956V152.735C220.906 154.584 221.148 157.158 222.917 158.203H212.986C214.755 157.158 215.037 154.584 215.037 152.735ZM212.785 149.277H202.854C204.583 148.272 204.905 145.619 204.905 143.809V138.1C204.905 135.809 204.061 134.522 202.653 132.834C206.392 132.23 207.518 131.748 210.775 129.858V143.809C210.775 145.659 210.976 148.272 212.785 149.277ZM220.906 133.236V143.407C220.906 145.498 221.429 148.634 224.123 148.634C227.46 148.634 228.505 144.413 228.505 141.759C228.505 137.618 226.374 132.954 221.63 132.954C221.429 132.954 221.148 133.075 220.906 133.236ZM242.499 120.772V143.809C242.499 145.659 242.74 148.272 244.549 149.277H234.579C236.348 148.272 236.629 145.659 236.629 143.809V129.014C236.629 126.722 235.785 125.436 234.378 123.747C238.117 123.144 239.242 122.662 242.499 120.772ZM262.518 138.945L250.979 139.427C251.743 142.764 253.914 145.498 257.814 145.498C258.94 145.498 261.433 145.217 262.277 144.372L262.599 144.614C260.749 147.951 258.498 149.679 254.517 149.679C248.889 149.679 244.868 145.297 244.868 139.749C244.868 134.402 248.286 129.537 253.995 129.537C259.181 129.537 262.518 132.793 262.518 137.98V138.945ZM257.131 134.763C257.131 132.914 255.643 130.502 253.593 130.502C251.261 130.502 250.658 134.964 250.658 136.613C250.658 137.216 250.698 137.819 250.778 138.422C251.864 138.301 252.909 138.141 253.995 137.98C255.804 137.698 257.131 136.733 257.131 134.763ZM124.79 208.735V194.06C124.79 191.768 123.945 190.482 122.538 188.793C126.277 188.19 127.403 187.708 130.659 185.858V188.753C132.026 187.185 133.836 185.416 135.162 185.416C140.751 185.416 143.806 189.999 143.806 195.186C143.806 200.614 140.469 205.639 134.64 205.639C132.831 205.639 131.866 205.398 130.659 204.956V208.735C130.659 210.584 130.901 213.158 132.67 214.203H122.739C124.508 213.158 124.79 210.584 124.79 208.735ZM130.659 189.236V199.407C130.659 201.498 131.182 204.634 133.876 204.634C137.213 204.634 138.258 200.413 138.258 197.759C138.258 193.618 136.127 188.954 131.383 188.954C131.182 188.954 130.901 189.075 130.659 189.236ZM162.305 203.629V204.031C160.938 205.036 160.094 205.679 158.285 205.679C156.837 205.679 155.149 204.835 154.586 203.468C153.339 204.875 151.57 205.679 149.279 205.679C146.464 205.679 144.454 204.393 144.454 201.377C144.454 197.196 151.812 195.508 154.385 192.693V191.407C154.385 190.04 154.586 186.502 152.495 186.502C151.329 186.502 150.525 187.909 150.525 188.954C150.525 189.919 151.168 190.402 152.093 190.402C151.49 192.372 150.043 194.181 147.791 194.181C146.103 194.181 145.178 192.693 145.178 191.125C145.178 187.105 149.6 185.537 152.978 185.537C157.079 185.537 160.255 187.828 160.255 192.13V201.377C160.255 202.141 160.375 203.87 161.501 203.87C161.782 203.87 162.064 203.79 162.305 203.629ZM154.385 202.624V194.1C152.857 195.508 150.364 197.236 150.364 199.568C150.364 201.257 150.766 203.026 152.817 203.026C153.46 203.026 153.983 202.865 154.385 202.624ZM169.008 205.277L165.349 196.151C164.344 193.658 162.133 186.944 159.681 185.858H170.777C169.45 186.301 168.807 187.627 168.807 188.994C168.807 191.286 172.023 198.523 173.069 201.016C174.275 198 175.923 194.382 175.923 191.125C175.923 188.592 174.838 186.743 172.425 185.858H181.753C179.301 186.944 177.049 193.698 176.044 196.231L172.425 205.277C171.018 208.775 169.37 214.082 164.787 214.082C162.334 214.082 160.243 212.916 160.243 210.263C160.243 208.815 161.128 206.524 162.857 206.524C162.857 208.454 164.304 209.338 166.073 209.338C167.601 209.338 170.777 208.253 170.777 206.323C170.777 205.478 169.651 205.277 169.008 205.277ZM200.018 189.678L199.978 189.396C200.34 188.834 205.727 185.537 206.21 185.537C209.828 185.537 211.597 188.592 211.597 191.929V199.809C211.597 201.659 211.878 204.272 213.647 205.277H203.717C205.446 204.272 205.727 201.619 205.727 199.809V192.09C205.727 190.442 205.164 188.512 203.194 188.512C201.264 188.512 200.38 190.402 200.299 192.09V199.809C200.299 201.659 200.581 204.272 202.35 205.277H192.419C194.148 204.272 194.43 201.619 194.43 199.809V192.09C194.43 190.442 193.867 188.512 191.897 188.512C190.248 188.512 189.364 189.879 189.082 191.366V199.809C189.082 201.659 189.283 204.272 191.093 205.277H181.162C182.891 204.272 183.212 201.619 183.212 199.809V194.1C183.212 191.809 182.368 190.522 180.961 188.834C184.7 188.23 185.826 187.748 189.082 185.858V188.994C189.806 188.271 194.47 185.537 194.912 185.537C197.686 185.537 199.375 187.346 200.018 189.678ZM231.638 194.945L220.099 195.427C220.863 198.764 223.034 201.498 226.934 201.498C228.06 201.498 230.553 201.217 231.397 200.372L231.719 200.614C229.869 203.951 227.618 205.679 223.637 205.679C218.009 205.679 213.988 201.297 213.988 195.749C213.988 190.402 217.406 185.537 223.115 185.537C228.301 185.537 231.638 188.793 231.638 193.98V194.945ZM226.251 190.763C226.251 188.914 224.763 186.502 222.713 186.502C220.381 186.502 219.778 190.964 219.778 192.613C219.778 193.216 219.818 193.819 219.898 194.422C220.984 194.301 222.029 194.141 223.115 193.98C224.924 193.698 226.251 192.733 226.251 190.763ZM242.252 205.277H232.321C234.05 204.272 234.372 201.619 234.372 199.809V194.1C234.372 191.809 233.527 190.522 232.12 188.834C235.859 188.23 236.985 187.748 240.241 185.858V188.994C240.965 188.271 245.629 185.537 246.071 185.537C249.69 185.537 251.459 188.592 251.459 191.929V199.809C251.459 201.659 251.74 204.272 253.509 205.277H243.578C245.307 204.272 245.589 201.619 245.589 199.809V192.09C245.589 190.442 245.026 188.512 243.056 188.512C241.407 188.512 240.523 189.879 240.241 191.366V199.809C240.241 201.659 240.442 204.272 242.252 205.277ZM260.774 180.833V185.858H264.955V186.823H260.774V201.056C260.774 202.624 262.02 203.227 263.387 203.227C264.111 203.227 264.875 203.066 265.518 202.704V203.106C263.91 204.594 261.658 205.679 259.447 205.679C256.231 205.679 254.904 203.187 254.904 200.252V186.823H252.934V186.22C256.713 185.858 258.844 184.491 260.171 180.833H260.774ZM142.935 240.537C148.523 240.537 152.624 245.16 152.624 250.628C152.624 256.096 148.523 260.679 142.935 260.679C137.347 260.679 133.205 256.136 133.205 250.628C133.205 245.16 137.347 240.537 142.935 240.537ZM144.222 259.594C146.634 259.594 146.915 255.372 146.915 253.724C146.915 250.628 145.548 241.703 141.246 241.703C139.035 241.703 138.834 245.683 138.834 247.171C138.834 250.025 140.201 259.594 144.222 259.594ZM155.198 263.735V249.06C155.198 246.768 154.354 245.482 152.947 243.793C156.686 243.19 157.812 242.708 161.068 240.858V243.753C162.435 242.185 164.245 240.416 165.571 240.416C171.16 240.416 174.215 244.999 174.215 250.186C174.215 255.614 170.878 260.639 165.049 260.639C163.239 260.639 162.275 260.398 161.068 259.956V263.735C161.068 265.584 161.31 268.158 163.079 269.203H153.148C154.917 268.158 155.198 265.584 155.198 263.735ZM161.068 244.236V254.407C161.068 256.498 161.591 259.634 164.285 259.634C167.622 259.634 168.667 255.413 168.667 252.759C168.667 248.618 166.536 243.954 161.792 243.954C161.591 243.954 161.31 244.075 161.068 244.236ZM182.19 235.833V240.858H186.371V241.823H182.19V256.056C182.19 257.624 183.436 258.227 184.803 258.227C185.527 258.227 186.291 258.066 186.934 257.704V258.106C185.326 259.594 183.074 260.679 180.863 260.679C177.647 260.679 176.32 258.187 176.32 255.252V241.823H174.35V241.22C178.129 240.858 180.26 239.491 181.587 235.833H182.19ZM191.969 239.934C190.361 239.934 189.034 238.607 189.034 236.999C189.034 235.39 190.361 234.064 191.969 234.064C193.578 234.064 194.904 235.39 194.904 236.999C194.904 238.607 193.578 239.934 191.969 239.934ZM197.276 260.277H187.346C189.075 259.272 189.396 256.619 189.396 254.809V249.1C189.396 246.809 188.552 245.522 187.145 243.834C190.884 243.23 192.01 242.748 195.266 240.858V254.809C195.266 256.659 195.467 259.272 197.276 260.277ZM207.326 240.537C212.914 240.537 217.015 245.16 217.015 250.628C217.015 256.096 212.914 260.679 207.326 260.679C201.737 260.679 197.596 256.136 197.596 250.628C197.596 245.16 201.737 240.537 207.326 240.537ZM208.612 259.594C211.025 259.594 211.306 255.372 211.306 253.724C211.306 250.628 209.939 241.703 205.637 241.703C203.426 241.703 203.225 245.683 203.225 247.171C203.225 250.025 204.592 259.594 208.612 259.594ZM227.469 260.277H217.539C219.268 259.272 219.589 256.619 219.589 254.809V249.1C219.589 246.809 218.745 245.522 217.338 243.834C221.077 243.23 222.202 242.748 225.459 240.858V243.994C226.183 243.271 230.847 240.537 231.289 240.537C234.907 240.537 236.676 243.592 236.676 246.929V254.809C236.676 256.659 236.958 259.272 238.727 260.277H228.796C230.525 259.272 230.806 256.619 230.806 254.809V247.09C230.806 245.442 230.243 243.512 228.273 243.512C226.625 243.512 225.741 244.879 225.459 246.366V254.809C225.459 256.659 225.66 259.272 227.469 260.277ZM246.304 260.679C243.288 260.679 238.584 259.312 238.584 255.533C238.584 253.764 239.59 252.277 241.479 252.277C243.288 252.277 244.495 253.925 244.816 255.533C243.851 255.533 243.168 256.257 243.168 257.222C243.168 258.87 244.856 259.714 246.304 259.714C248.033 259.714 249.922 258.87 249.922 256.86C249.922 252.719 239.388 253.04 239.388 246.246C239.388 242.225 244.012 240.537 247.389 240.537C250.405 240.537 254.787 241.863 254.787 245.562C254.787 247.211 253.782 248.256 252.133 248.256C250.445 248.256 249.279 247.13 248.796 245.562C249.681 245.562 250.204 244.919 250.204 244.075C250.204 242.467 248.716 241.502 247.228 241.502C245.459 241.502 244.133 242.708 244.133 244.477C244.133 248.538 255.189 248.377 255.189 255.01C255.189 259.433 249.802 260.679 246.304 260.679Z" fill="white"/>
</g>
<defs>
<filter id="filter0_b_4587_33630" x="133.25" y="-459.485" width="1307.24" height="1307.24" filterUnits="userSpaceOnUse" color-interpolation-filters="sRGB">
<feFlood flood-opacity="0" result="BackgroundImageFix"/>
<feGaussianBlur in="BackgroundImageFix" stdDeviation="229.742"/>
<feComposite in2="SourceAlpha" operator="in" result="effect1_backgroundBlur_4587_33630"/>
<feBlend mode="normal" in="SourceGraphic" in2="effect1_backgroundBlur_4587_33630" result="shape"/>
</filter>
<filter id="filter1_b_4587_33630" x="-163.118" y="-459.485" width="1307.24" height="1307.24" filterUnits="userSpaceOnUse" color-interpolation-filters="sRGB">
<feFlood flood-opacity="0" result="BackgroundImageFix"/>
<feGaussianBlur in="BackgroundImageFix" stdDeviation="229.742"/>
<feComposite in2="SourceAlpha" operator="in" result="effect1_backgroundBlur_4587_33630"/>
<feBlend mode="normal" in="SourceGraphic" in2="effect1_backgroundBlur_4587_33630" result="shape"/>
</filter>
<filter id="filter2_b_4587_33630" x="-459.485" y="-459.485" width="1307.24" height="1307.24" filterUnits="userSpaceOnUse" color-interpolation-filters="sRGB">
<feFlood flood-opacity="0" result="BackgroundImageFix"/>
<feGaussianBlur in="BackgroundImageFix" stdDeviation="229.742"/>
<feComposite in2="SourceAlpha" operator="in" result="effect1_backgroundBlur_4587_33630"/>
<feBlend mode="normal" in="SourceGraphic" in2="effect1_backgroundBlur_4587_33630" result="shape"/>
</filter>
<linearGradient id="paint0_linear_4587_33630" x1="786.867" y1="0" x2="786.867" y2="388.265" gradientUnits="userSpaceOnUse">
<stop stop-color="white" stop-opacity="0.2"/>
<stop offset="1" stop-color="white" stop-opacity="0.26"/>
</linearGradient>
<linearGradient id="paint1_linear_4587_33630" x1="194.132" y1="0" x2="194.132" y2="388.265" gradientUnits="userSpaceOnUse">
<stop stop-color="white" stop-opacity="0.2"/>
<stop offset="1" stop-color="white" stop-opacity="0.26"/>
</linearGradient>
<clipPath id="clip0_4587_33630">
<rect width="981" height="388.265" fill="white"/>
</clipPath>
</defs>
</svg>
