<svg width="172" height="50" viewBox="0 0 172 50" fill="none" xmlns="http://www.w3.org/2000/svg">
<g clip-path="url(#clip0_2166_35179)">
<path d="M55.5154 43.09C57.3154 43.09 58.6354 42.08 58.8254 40.54L57.7254 40.53C57.5454 41.51 56.6954 42.15 55.5154 42.15C54.0054 42.15 53.0654 41.13 53.0654 39.36C53.0654 37.58 54.0054 36.57 55.5154 36.57C56.7054 36.57 57.5254 37.22 57.7254 38.15H58.8254C58.6054 36.62 57.3154 35.63 55.5154 35.63C53.3754 35.63 51.9454 37.05 51.9454 39.36C51.9454 41.66 53.3654 43.09 55.5154 43.09ZM61.7912 43.09C62.6112 43.09 63.3012 42.66 63.5612 41.93H63.6212L63.6712 43H64.6512V37.71H63.6212V40.57C63.6212 41.54 63.0412 42.23 62.1712 42.23C61.2812 42.23 60.9212 41.69 60.9212 40.71V37.71H59.8912V40.97C59.8912 42.37 60.5912 43.09 61.7912 43.09ZM68.0147 43.1C69.3947 43.1 70.2547 42.58 70.2547 41.5C70.2547 40.29 69.3347 40.05 68.2347 39.9C67.3347 39.78 66.9347 39.62 66.9347 39.1C66.9347 38.65 67.3147 38.34 68.0147 38.34C68.6947 38.34 69.1247 38.63 69.1347 39.27H70.1447C70.1247 38.24 69.3347 37.61 68.0347 37.61C66.7547 37.61 65.9047 38.19 65.9047 39.2C65.9047 40.28 66.7347 40.56 67.9347 40.73C68.8247 40.86 69.2047 41 69.2047 41.59C69.2047 42.08 68.8047 42.37 68.0447 42.37C67.3047 42.37 66.7747 42.06 66.7747 41.34H65.7547C65.7547 42.39 66.5647 43.1 68.0147 43.1ZM72.9356 43H73.9956V42.15H73.2756C72.9456 42.15 72.8256 42.06 72.8256 41.71V38.55H73.9956V37.71H72.8256V36.06L71.7956 36.18V37.71H70.7956V38.55H71.7956V41.9C71.7956 42.61 72.0656 43 72.9356 43ZM77.1028 43.09C78.6928 43.09 79.6828 41.98 79.6828 40.36C79.6828 38.68 78.6428 37.63 77.1028 37.63C75.5028 37.63 74.5128 38.74 74.5128 40.37C74.5128 42.03 75.5528 43.09 77.1028 43.09ZM77.1028 42.23C76.1628 42.23 75.5628 41.55 75.5628 40.37C75.5628 39.15 76.1828 38.48 77.1028 38.48C78.0528 38.48 78.6328 39.17 78.6328 40.36C78.6328 41.56 78.0228 42.23 77.1028 42.23ZM80.7615 43H81.7815V40.11C81.7815 39.2 82.3315 38.48 83.2115 38.48C84.0315 38.48 84.4015 38.99 84.4015 40.07V43H85.4315V40.11C85.4315 39.2 85.9815 38.48 86.8515 38.48C87.6815 38.48 88.0515 38.99 88.0515 40.07V43H89.0715V39.86C89.0715 38.24 88.2915 37.63 87.2415 37.63C86.3915 37.63 85.6715 38.05 85.3815 38.87H85.3015C85.0315 37.97 84.3715 37.63 83.5915 37.63C82.8215 37.63 82.1415 38.01 81.8415 38.76H81.7815L81.7415 37.71H80.7615V43ZM95.2951 43.09C97.1551 43.09 98.1451 42.24 98.1451 40.99C98.1451 39.31 96.9351 38.99 95.6451 38.78C94.2451 38.53 93.6951 38.37 93.6951 37.56C93.6951 36.9 94.2451 36.47 95.2051 36.47C96.1451 36.47 96.7751 36.89 96.8051 37.76H97.9151C97.8951 36.48 96.9151 35.63 95.2451 35.63C93.5751 35.63 92.5651 36.43 92.5651 37.71C92.5651 38.96 93.4251 39.45 95.0951 39.74C96.5251 39.98 97.0151 40.22 97.0151 41.09C97.0151 41.86 96.3351 42.23 95.3151 42.23C94.0751 42.23 93.5351 41.65 93.5151 40.72H92.3951C92.4151 42.12 93.3551 43.09 95.2951 43.09ZM101.536 43.09C103.126 43.09 104.116 41.98 104.116 40.36C104.116 38.68 103.076 37.63 101.536 37.63C99.9364 37.63 98.9464 38.74 98.9464 40.37C98.9464 42.03 99.9864 43.09 101.536 43.09ZM101.536 42.23C100.596 42.23 99.9964 41.55 99.9964 40.37C99.9964 39.15 100.616 38.48 101.536 38.48C102.486 38.48 103.066 39.17 103.066 40.36C103.066 41.56 102.456 42.23 101.536 42.23ZM105.195 43H106.225V35.71H105.195V43ZM109.506 43.09C110.326 43.09 111.016 42.66 111.276 41.93H111.336L111.386 43H112.366V37.71H111.336V40.57C111.336 41.54 110.756 42.23 109.886 42.23C108.996 42.23 108.636 41.69 108.636 40.71V37.71H107.606V40.97C107.606 42.37 108.306 43.09 109.506 43.09ZM115.27 43H116.33V42.15H115.61C115.28 42.15 115.16 42.06 115.16 41.71V38.55H116.33V37.71H115.16V36.06L114.13 36.18V37.71H113.13V38.55H114.13V41.9C114.13 42.61 114.4 43 115.27 43ZM117.353 36.9H118.383V35.71H117.353V36.9ZM117.353 43H118.383V37.71H117.353V43ZM122.044 43.09C123.634 43.09 124.624 41.98 124.624 40.36C124.624 38.68 123.584 37.63 122.044 37.63C120.444 37.63 119.454 38.74 119.454 40.37C119.454 42.03 120.494 43.09 122.044 43.09ZM122.044 42.23C121.104 42.23 120.504 41.55 120.504 40.37C120.504 39.15 121.124 38.48 122.044 38.48C122.994 38.48 123.574 39.17 123.574 40.36C123.574 41.56 122.964 42.23 122.044 42.23ZM125.703 43H126.723V40.11C126.723 39.2 127.293 38.48 128.203 38.48C129.043 38.48 129.433 38.99 129.433 40.07V43H130.463V39.86C130.463 38.24 129.653 37.63 128.573 37.63C127.793 37.63 127.093 38.01 126.783 38.76H126.723L126.683 37.71H125.703V43ZM133.825 43.1C135.205 43.1 136.065 42.58 136.065 41.5C136.065 40.29 135.145 40.05 134.045 39.9C133.145 39.78 132.745 39.62 132.745 39.1C132.745 38.65 133.125 38.34 133.825 38.34C134.505 38.34 134.935 38.63 134.945 39.27H135.955C135.935 38.24 135.145 37.61 133.845 37.61C132.565 37.61 131.715 38.19 131.715 39.2C131.715 40.28 132.545 40.56 133.745 40.73C134.635 40.86 135.015 41 135.015 41.59C135.015 42.08 134.615 42.37 133.855 42.37C133.115 42.37 132.585 42.06 132.585 41.34H131.565C131.565 42.39 132.375 43.1 133.825 43.1Z" fill="#9CA3AF"/>
<ellipse cx="17.5867" cy="25.2283" rx="15.6925" ry="19.2775" transform="rotate(-36.1332 17.5867 25.2283)" fill="url(#paint0_linear_2166_35179)"/>
<ellipse cx="20.533" cy="23.9247" rx="14.7078" ry="18.8816" transform="rotate(-36.1332 20.533 23.9247)" fill="#30F6F6"/>
<ellipse cx="20.533" cy="23.9281" rx="4.31174" ry="5.53535" transform="rotate(-36.1332 20.533 23.9281)" fill="white"/>
<path d="M57.1314 24.126C60.1554 24.126 62.1714 22.152 62.1714 18.904C62.1714 15.656 60.1694 13.682 57.1314 13.682C54.1074 13.682 52.1054 15.656 52.1054 18.904C52.1054 22.138 54.0934 24.126 57.1314 24.126ZM57.1314 22.81C55.0174 22.81 53.6734 21.382 53.6734 18.904C53.6734 16.426 55.0034 14.998 57.1314 14.998C59.2594 14.998 60.6034 16.426 60.6034 18.904C60.6034 21.368 59.2594 22.81 57.1314 22.81ZM63.7233 24H65.1513V19.954C65.1513 18.68 65.9493 17.672 67.2233 17.672C68.3993 17.672 68.9453 18.386 68.9453 19.898V24H70.3873V19.604C70.3873 17.336 69.2533 16.482 67.7413 16.482C66.6493 16.482 65.6693 17.014 65.2353 18.064H65.1513L65.0953 16.594H63.7233V24ZM75.4166 24.126C77.1666 24.126 78.5106 23.174 78.7066 21.718H77.3346C77.1526 22.488 76.4106 22.978 75.4166 22.978C74.1286 22.978 73.2886 22.11 73.2606 20.584H78.7486C78.9726 18.26 77.7966 16.482 75.3606 16.482C73.1906 16.482 71.8326 17.994 71.8326 20.332C71.8326 22.614 73.1906 24.126 75.4166 24.126ZM75.3466 17.616C76.4386 17.616 77.2926 18.19 77.3346 19.562H73.2886C73.4006 18.358 74.1846 17.616 75.3466 17.616ZM83.0653 24.14C84.9973 24.14 86.2013 23.412 86.2013 21.9C86.2013 20.206 84.9133 19.87 83.3733 19.66C82.1133 19.492 81.5533 19.268 81.5533 18.54C81.5533 17.91 82.0853 17.476 83.0653 17.476C84.0173 17.476 84.6193 17.882 84.6333 18.778H86.0473C86.0193 17.336 84.9133 16.454 83.0933 16.454C81.3013 16.454 80.1113 17.266 80.1113 18.68C80.1113 20.192 81.2733 20.584 82.9533 20.822C84.1993 21.004 84.7313 21.2 84.7313 22.026C84.7313 22.712 84.1713 23.118 83.1073 23.118C82.0713 23.118 81.3293 22.684 81.3293 21.676H79.9013C79.9013 23.146 81.0353 24.14 83.0653 24.14ZM91.0029 24.126C92.8509 24.126 94.1949 23.034 94.3069 21.354H92.9069C92.7949 22.292 92.0809 22.922 91.0029 22.922C89.7149 22.922 88.8749 21.984 88.8749 20.318C88.8749 18.736 89.6449 17.686 91.0169 17.686C91.9689 17.686 92.7109 18.19 92.8789 19.156H94.2789C94.1669 17.56 92.8509 16.482 91.0589 16.482C88.8329 16.482 87.4049 18.008 87.4049 20.304C87.4049 22.6 88.8329 24.126 91.0029 24.126ZM98.3602 24.126C99.5082 24.126 100.474 23.524 100.838 22.502H100.922L100.992 24H102.364V16.594H100.922V20.598C100.922 21.956 100.11 22.922 98.8922 22.922C97.6462 22.922 97.1422 22.166 97.1422 20.794V16.594H95.7002V21.158C95.7002 23.118 96.6802 24.126 98.3602 24.126ZM106.78 24.126C108.026 24.126 108.95 23.482 109.3 22.53H109.384L109.44 24H110.826V13.794H109.384V18.05H109.3C108.95 17.098 108.026 16.468 106.78 16.468C104.974 16.468 103.756 17.812 103.756 20.29C103.756 22.768 104.974 24.126 106.78 24.126ZM107.284 22.936C106.052 22.936 105.24 22.026 105.24 20.29C105.24 18.54 106.052 17.644 107.284 17.644C108.656 17.644 109.37 18.736 109.37 19.87V20.71C109.37 21.858 108.656 22.936 107.284 22.936Z" fill="#1E2C31"/>
<g clip-path="url(#clip1_2166_35179)">
<mask id="mask0_2166_35179" style="mask-type:luminance" maskUnits="userSpaceOnUse" x="112" y="9" width="23" height="22">
<path d="M134.045 9H112.545V30.5H134.045V9Z" fill="white"/>
</mask>
<g mask="url(#mask0_2166_35179)">
<mask id="mask1_2166_35179" style="mask-type:luminance" maskUnits="userSpaceOnUse" x="112" y="9" width="23" height="22">
<path d="M112.545 9H134.045V30.5H112.545V9Z" fill="white"/>
</mask>
<g mask="url(#mask1_2166_35179)">
<path d="M123.297 12.8223C119.471 12.8223 116.37 15.9234 116.37 19.7488C116.37 23.5743 119.471 26.6755 123.297 26.6755C127.122 26.6755 130.223 23.5743 130.223 19.7488C130.223 15.9234 127.122 12.8223 123.297 12.8223Z" fill="#DE5A00"/>
<path d="M123.297 12.8223C119.471 12.8223 116.37 15.9234 116.37 19.7488C116.37 23.5743 119.471 26.6755 123.297 26.6755C127.122 26.6755 130.223 23.5743 130.223 19.7488C130.223 15.9234 127.122 12.8223 123.297 12.8223Z" fill="#EF7B00"/>
<path d="M123.297 12.8223C119.471 12.8223 116.37 15.9234 116.37 19.7488C116.37 23.5743 119.471 26.6755 123.297 26.6755C127.122 26.6755 130.223 23.5743 130.223 19.7488C130.223 15.9234 127.122 12.8223 123.297 12.8223ZM123.297 24.873C120.467 24.873 118.173 22.5789 118.173 19.7488C118.173 16.9188 120.467 14.6247 123.297 14.6247C126.127 14.6247 128.421 16.9188 128.421 19.7488C128.421 22.5789 126.127 24.873 123.297 24.873Z" fill="#DE5A00"/>
<path d="M124.589 19.3901C124.335 19.2905 124.031 19.1997 123.678 19.1174V17.5586C123.796 17.6022 123.893 17.6654 123.969 17.7486C124.026 17.8111 124.074 17.8794 124.11 17.9537C124.247 18.2286 124.533 18.4123 124.859 18.4123H124.905C125.549 18.4123 125.957 17.7591 125.624 17.248C125.513 17.0779 125.374 16.9221 125.206 16.7806C124.805 16.4419 124.296 16.2402 123.678 16.1755V15.8137C123.678 15.6038 123.508 15.4336 123.298 15.4336C123.088 15.4336 122.918 15.6038 122.918 15.8137V16.1642C122.282 16.2127 121.756 16.4169 121.341 16.7773C120.862 17.194 120.622 17.713 120.622 18.3347C120.622 19.3945 121.388 20.1001 122.918 20.4519V22.0578C122.718 22.0176 122.549 21.9402 122.41 21.8248C122.304 21.7363 122.222 21.6285 122.165 21.5011C122.043 21.2301 121.749 21.0607 121.433 21.0607C120.823 21.0607 120.43 21.6704 120.729 22.1637C120.745 22.1901 120.761 22.2163 120.779 22.2424C121.019 22.6072 121.351 22.8943 121.775 23.1036C122.116 23.2723 122.497 23.373 122.918 23.4057V23.6848C122.918 23.8947 123.088 24.0649 123.298 24.0649C123.508 24.0649 123.678 23.8947 123.678 23.6848V23.3955C124.283 23.3341 124.792 23.1441 125.203 22.8252C125.713 22.4302 125.968 21.9133 125.968 21.2744C125.968 20.3808 125.508 19.7527 124.589 19.3901ZM122.57 18.7458C122.387 18.6185 122.296 18.4512 122.296 18.244C122.296 18.0238 122.376 17.8425 122.536 17.7001C122.637 17.6105 122.765 17.5492 122.918 17.5159V18.9167C122.773 18.8637 122.657 18.8068 122.57 18.7458ZM124.02 21.8862C123.93 21.9587 123.815 22.0111 123.678 22.045V20.6728C123.789 20.7171 123.883 20.7633 123.96 20.8114C124.171 20.9431 124.276 21.1233 124.276 21.3521C124.276 21.5722 124.191 21.7503 124.02 21.8862Z" fill="#DE5A00"/>
<path d="M123.297 12.8223C119.471 12.8223 116.37 15.9234 116.37 19.7488C116.37 23.5743 119.471 26.6755 123.297 26.6755C127.122 26.6755 130.223 23.5743 130.223 19.7488C130.223 15.9234 127.122 12.8223 123.297 12.8223ZM123.297 24.873C120.467 24.873 118.173 22.5789 118.173 19.7488C118.173 16.9188 120.467 14.6247 123.297 14.6247C126.127 14.6247 128.421 16.9188 128.421 19.7488C128.421 22.5789 126.127 24.873 123.297 24.873Z" fill="#FFC711"/>
<mask id="mask2_2166_35179" style="mask-type:alpha" maskUnits="userSpaceOnUse" x="116" y="12" width="15" height="15">
<mask id="mask3_2166_35179" style="mask-type:luminance" maskUnits="userSpaceOnUse" x="112" y="9" width="23" height="22">
<path d="M112.545 9H134.045V30.5H112.545V9Z" fill="white"/>
</mask>
<g mask="url(#mask3_2166_35179)">
<path d="M123.297 12.8281C119.471 12.8281 116.37 15.9292 116.37 19.7547C116.37 23.5802 119.471 26.6814 123.297 26.6814C127.122 26.6814 130.223 23.5802 130.223 19.7547C130.223 15.9292 127.122 12.8281 123.297 12.8281ZM123.297 24.8789C120.467 24.8789 118.173 22.5847 118.173 19.7547C118.173 16.9247 120.467 14.6305 123.297 14.6305C126.127 14.6305 128.421 16.9247 128.421 19.7547C128.421 22.5847 126.127 24.8789 123.297 24.8789Z" fill="#FFC711"/>
<path d="M124.59 19.3901C124.336 19.2905 124.032 19.1997 123.679 19.1174V17.5586C123.797 17.6022 123.894 17.6654 123.97 17.7486C124.027 17.8111 124.075 17.8794 124.111 17.9537C124.248 18.2286 124.534 18.4123 124.86 18.4123H124.906C125.55 18.4123 125.958 17.7591 125.625 17.248C125.514 17.0779 125.375 16.9221 125.207 16.7806C124.806 16.4419 124.297 16.2402 123.679 16.1755V15.8137C123.679 15.6038 123.509 15.4336 123.299 15.4336C123.089 15.4336 122.919 15.6038 122.919 15.8137V16.1642C122.283 16.2127 121.757 16.4169 121.342 16.7773C120.863 17.194 120.623 17.713 120.623 18.3347C120.623 19.3945 121.389 20.1001 122.919 20.4519V22.0578C122.719 22.0176 122.55 21.9402 122.411 21.8248C122.305 21.7363 122.223 21.6285 122.166 21.5011C122.044 21.2301 121.75 21.0607 121.434 21.0607C120.824 21.0607 120.431 21.6704 120.73 22.1637C120.746 22.1901 120.762 22.2163 120.78 22.2424C121.02 22.6072 121.352 22.8943 121.776 23.1036C122.117 23.2723 122.498 23.373 122.919 23.4057V23.6848C122.919 23.8947 123.089 24.0649 123.299 24.0649C123.509 24.0649 123.679 23.8947 123.679 23.6848V23.3955C124.284 23.3341 124.793 23.1441 125.204 22.8252C125.714 22.4302 125.969 21.9133 125.969 21.2744C125.969 20.3808 125.509 19.7527 124.59 19.3901ZM122.571 18.7458C122.388 18.6185 122.297 18.4512 122.297 18.244C122.297 18.0238 122.377 17.8425 122.537 17.7001C122.638 17.6105 122.766 17.5492 122.919 17.5159V18.9167C122.774 18.8637 122.658 18.8068 122.571 18.7458ZM124.021 21.8862C123.93 21.9587 123.816 22.0111 123.679 22.045V20.6728C123.79 20.7171 123.884 20.7633 123.961 20.8114C124.172 20.9431 124.277 21.1233 124.277 21.3521C124.277 21.5722 124.192 21.7503 124.021 21.8862Z" fill="#FFC711"/>
</g>
</mask>
<g mask="url(#mask2_2166_35179)">
<path d="M128.073 12.2997L118.426 28.3544L114.807 26.1797L124.454 10.125L128.073 12.2997Z" fill="#FFE286"/>
</g>
</g>
</g>
<circle cx="123.296" cy="19.7501" r="4.65833" fill="#EF7B00"/>
<path d="M121.504 21.8996V17.9766C121.504 17.8932 121.531 17.8122 121.582 17.7462C121.633 17.6803 121.705 17.6332 121.786 17.6122C121.866 17.5913 121.952 17.5978 122.028 17.6307C122.105 17.6635 122.169 17.7209 122.209 17.7938L124.382 21.7054C124.422 21.7783 124.486 21.8357 124.563 21.8685C124.639 21.9014 124.725 21.9079 124.805 21.887C124.886 21.8661 124.957 21.8189 125.008 21.753C125.059 21.687 125.087 21.606 125.087 21.5226V17.5996M120.787 19.0329H125.804M120.787 20.4663H125.804" stroke="#FFE286" stroke-width="0.716667" stroke-linecap="round" stroke-linejoin="round"/>
</g>
</g>
<defs>
<linearGradient id="paint0_linear_2166_35179" x1="8.11732" y1="6.50393" x2="20.1266" y2="54.4957" gradientUnits="userSpaceOnUse">
<stop stop-color="#30F6F6"/>
<stop offset="1" stop-color="#30F6F6" stop-opacity="0"/>
</linearGradient>
<clipPath id="clip0_2166_35179">
<rect width="172" height="50" fill="white"/>
</clipPath>
<clipPath id="clip1_2166_35179">
<rect width="21.5" height="21.5" fill="white" transform="translate(112.545 9)"/>
</clipPath>
</defs>
</svg>
