<svg width="172" height="42" viewBox="0 0 172 42" fill="none" xmlns="http://www.w3.org/2000/svg">
<g clip-path="url(#clip0_2166_35177)">
<path d="M57.586 15.126C60.61 15.126 62.626 13.152 62.626 9.904C62.626 6.656 60.624 4.682 57.586 4.682C54.562 4.682 52.56 6.656 52.56 9.904C52.56 13.138 54.548 15.126 57.586 15.126ZM57.586 13.81C55.472 13.81 54.128 12.382 54.128 9.904C54.128 7.426 55.458 5.998 57.586 5.998C59.714 5.998 61.058 7.426 61.058 9.904C61.058 12.368 59.714 13.81 57.586 13.81ZM64.1779 15H65.6059V10.954C65.6059 9.68 66.4039 8.672 67.6779 8.672C68.8539 8.672 69.3999 9.386 69.3999 10.898V15H70.8419V10.604C70.8419 8.336 69.7079 7.482 68.1959 7.482C67.1039 7.482 66.1239 8.014 65.6899 9.064H65.6059L65.5499 7.594H64.1779V15ZM73.5521 15H75.4281L76.7581 9.428H76.8141L78.1861 15H80.0761L81.9661 7.594H80.5521L79.0961 13.572H79.0541L77.6401 7.594H76.0441L74.6721 13.558H74.6021L73.1461 7.594H71.6621L73.5521 15ZM85.5104 15.126C86.7564 15.126 87.6804 14.482 88.0304 13.53H88.1144V15H89.5564V7.594H88.1704L88.1144 9.05H88.0304C87.6804 8.098 86.7564 7.468 85.5104 7.468C83.7044 7.468 82.4864 8.812 82.4864 11.29C82.4864 13.768 83.7044 15.126 85.5104 15.126ZM86.0144 13.936C84.7824 13.936 83.9704 13.026 83.9704 11.29C83.9704 9.54 84.7824 8.644 86.0144 8.644C87.3864 8.644 88.1004 9.736 88.1004 10.87V11.71C88.1004 12.858 87.3864 13.936 86.0144 13.936Z" fill="#1E2C31"/>
<path d="M52.88 34H56.13C57.7 34 58.64 33.26 58.64 31.95C58.64 31.12 58.17 30.43 57.28 30.25V30.2C58.06 30 58.45 29.34 58.45 28.58C58.45 27.46 57.68 26.71 56.26 26.71H52.88V34ZM53.95 29.85V27.57H56C56.82 27.57 57.36 27.98 57.36 28.73C57.36 29.4 56.94 29.85 56.09 29.85H53.95ZM53.95 33.14V30.68H56.14C57.01 30.68 57.53 31.11 57.53 31.89C57.53 32.63 57.05 33.14 56.03 33.14H53.95ZM62.0008 34.09C63.5908 34.09 64.5808 32.98 64.5808 31.36C64.5808 29.68 63.5408 28.63 62.0008 28.63C60.4008 28.63 59.4108 29.74 59.4108 31.37C59.4108 33.03 60.4508 34.09 62.0008 34.09ZM62.0008 33.23C61.0608 33.23 60.4608 32.55 60.4608 31.37C60.4608 30.15 61.0808 29.48 62.0008 29.48C62.9508 29.48 63.5308 30.17 63.5308 31.36C63.5308 32.56 62.9208 33.23 62.0008 33.23ZM67.9871 34.09C69.5771 34.09 70.5671 32.98 70.5671 31.36C70.5671 29.68 69.5271 28.63 67.9871 28.63C66.3871 28.63 65.3971 29.74 65.3971 31.37C65.3971 33.03 66.4371 34.09 67.9871 34.09ZM67.9871 33.23C67.0471 33.23 66.4471 32.55 66.4471 31.37C66.4471 30.15 67.0671 29.48 67.9871 29.48C68.9371 29.48 69.5171 30.17 69.5171 31.36C69.5171 32.56 68.9071 33.23 67.9871 33.23ZM71.6458 34H72.6858V32.38L73.6258 31.47L73.9458 32L75.2658 34H76.4758L74.3458 30.77L76.3958 28.71H75.1158L73.1458 30.74L72.6858 31.24V26.71H71.6458V34ZM76.8703 31.79H79.8703V30.92H76.8703V31.79ZM80.8938 34H81.9338V32.38L82.8738 31.47L83.1938 32L84.5138 34H85.7238L83.5938 30.77L85.6438 28.71H84.3638L82.3938 30.74L81.9338 31.24V26.71H80.8938V34ZM88.4747 34.09C89.7247 34.09 90.6847 33.41 90.8247 32.37H89.8447C89.7147 32.92 89.1847 33.27 88.4747 33.27C87.5547 33.27 86.9547 32.65 86.9347 31.56H90.8547C91.0147 29.9 90.1747 28.63 88.4347 28.63C86.8847 28.63 85.9147 29.71 85.9147 31.38C85.9147 33.01 86.8847 34.09 88.4747 34.09ZM88.4247 29.44C89.2047 29.44 89.8147 29.85 89.8447 30.83H86.9547C87.0347 29.97 87.5947 29.44 88.4247 29.44ZM94.2657 34.09C95.5157 34.09 96.4757 33.41 96.6157 32.37H95.6357C95.5057 32.92 94.9757 33.27 94.2657 33.27C93.3457 33.27 92.7457 32.65 92.7257 31.56H96.6457C96.8057 29.9 95.9657 28.63 94.2257 28.63C92.6757 28.63 91.7057 29.71 91.7057 31.38C91.7057 33.01 92.6757 34.09 94.2657 34.09ZM94.2157 29.44C94.9957 29.44 95.6057 29.85 95.6357 30.83H92.7457C92.8257 29.97 93.3857 29.44 94.2157 29.44ZM97.7591 35.67H98.7891V32.96H98.8491C99.1091 33.64 99.7691 34.09 100.649 34.09C101.939 34.09 102.809 33.13 102.809 31.36C102.809 29.59 101.939 28.62 100.649 28.62C99.7691 28.62 99.1091 29.08 98.8491 29.75H98.7891L98.7491 28.71H97.7591V35.67ZM100.289 33.24C99.3091 33.24 98.7991 32.47 98.7991 31.65V31.06C98.7991 30.24 99.3091 29.47 100.289 29.47C101.169 29.47 101.759 30.11 101.759 31.36C101.759 32.6 101.169 33.24 100.289 33.24ZM103.902 27.9H104.932V26.71H103.902V27.9ZM103.902 34H104.932V28.71H103.902V34ZM106.363 34H107.383V31.11C107.383 30.2 107.953 29.48 108.863 29.48C109.703 29.48 110.093 29.99 110.093 31.07V34H111.123V30.86C111.123 29.24 110.313 28.63 109.233 28.63C108.453 28.63 107.753 29.01 107.443 29.76H107.383L107.343 28.71H106.363V34ZM114.605 35.77C116.095 35.77 117.105 35.17 117.105 33.51V28.71H116.105L116.085 29.69H116.015C115.775 29.05 115.135 28.62 114.295 28.62C113.015 28.62 112.155 29.54 112.155 31.16C112.155 32.77 112.995 33.69 114.285 33.69C115.125 33.69 115.775 33.26 116.015 32.62H116.085V33.65C116.085 34.63 115.575 35.01 114.625 35.01C113.955 35.01 113.495 34.72 113.415 34.25H112.415C112.525 35.19 113.335 35.77 114.605 35.77ZM114.635 32.89C113.775 32.89 113.215 32.28 113.215 31.16C113.215 30.06 113.765 29.43 114.645 29.43C115.575 29.43 116.065 30.14 116.075 30.83L116.085 31.47C116.065 32.17 115.555 32.89 114.635 32.89ZM120.728 34H121.748V31.11C121.748 30.2 122.298 29.48 123.178 29.48C123.998 29.48 124.368 29.99 124.368 31.07V34H125.398V31.11C125.398 30.2 125.948 29.48 126.818 29.48C127.648 29.48 128.018 29.99 128.018 31.07V34H129.038V30.86C129.038 29.24 128.258 28.63 127.208 28.63C126.358 28.63 125.638 29.05 125.348 29.87H125.268C124.998 28.97 124.338 28.63 123.558 28.63C122.788 28.63 122.108 29.01 121.808 29.76H121.748L121.708 28.71H120.728V34ZM132.225 34.09C133.115 34.09 133.775 33.63 134.025 32.95H134.085V34H135.115V28.71H134.125L134.085 29.75H134.025C133.775 29.07 133.115 28.62 132.225 28.62C130.935 28.62 130.065 29.58 130.065 31.35C130.065 33.12 130.935 34.09 132.225 34.09ZM132.585 33.24C131.705 33.24 131.125 32.59 131.125 31.35C131.125 30.1 131.705 29.46 132.585 29.46C133.565 29.46 134.075 30.24 134.075 31.05V31.65C134.075 32.47 133.565 33.24 132.585 33.24ZM138.319 34.09C139.209 34.09 139.869 33.63 140.119 32.95H140.179L140.219 34H141.209V26.71H140.179V29.75H140.119C139.869 29.07 139.209 28.62 138.319 28.62C137.029 28.62 136.159 29.58 136.159 31.35C136.159 33.12 137.029 34.09 138.319 34.09ZM138.679 33.24C137.799 33.24 137.219 32.59 137.219 31.35C137.219 30.1 137.799 29.46 138.679 29.46C139.659 29.46 140.169 30.24 140.169 31.05V31.65C140.169 32.47 139.659 33.24 138.679 33.24ZM144.852 34.09C146.102 34.09 147.062 33.41 147.202 32.37H146.222C146.092 32.92 145.562 33.27 144.852 33.27C143.932 33.27 143.332 32.65 143.312 31.56H147.232C147.392 29.9 146.552 28.63 144.812 28.63C143.262 28.63 142.292 29.71 142.292 31.38C142.292 33.01 143.262 34.09 144.852 34.09ZM144.802 29.44C145.582 29.44 146.192 29.85 146.222 30.83H143.332C143.412 29.97 143.972 29.44 144.802 29.44ZM152.781 34.09C154.031 34.09 154.991 33.41 155.131 32.37H154.151C154.021 32.92 153.491 33.27 152.781 33.27C151.861 33.27 151.261 32.65 151.241 31.56H155.161C155.321 29.9 154.481 28.63 152.741 28.63C151.191 28.63 150.221 29.71 150.221 31.38C150.221 33.01 151.191 34.09 152.781 34.09ZM152.731 29.44C153.511 29.44 154.121 29.85 154.151 30.83H151.261C151.341 29.97 151.901 29.44 152.731 29.44ZM158.172 34.09C159.062 34.09 159.722 33.63 159.972 32.95H160.032V34H161.062V28.71H160.072L160.032 29.75H159.972C159.722 29.07 159.062 28.62 158.172 28.62C156.882 28.62 156.012 29.58 156.012 31.35C156.012 33.12 156.882 34.09 158.172 34.09ZM158.532 33.24C157.652 33.24 157.072 32.59 157.072 31.35C157.072 30.1 157.652 29.46 158.532 29.46C159.512 29.46 160.022 30.24 160.022 31.05V31.65C160.022 32.47 159.512 33.24 158.532 33.24ZM164.475 34.1C165.855 34.1 166.715 33.58 166.715 32.5C166.715 31.29 165.795 31.05 164.695 30.9C163.795 30.78 163.395 30.62 163.395 30.1C163.395 29.65 163.775 29.34 164.475 29.34C165.155 29.34 165.585 29.63 165.595 30.27H166.605C166.585 29.24 165.795 28.61 164.495 28.61C163.215 28.61 162.365 29.19 162.365 30.2C162.365 31.28 163.195 31.56 164.395 31.73C165.285 31.86 165.665 32 165.665 32.59C165.665 33.08 165.265 33.37 164.505 33.37C163.765 33.37 163.235 33.06 163.235 32.34H162.215C162.215 33.39 163.025 34.1 164.475 34.1ZM167.35 35.67H168.09C168.92 35.67 169.45 35.38 169.79 34.46L171.99 28.71H170.9L169.76 31.93L169.55 32.56H169.51L169.29 31.93L168.08 28.71H166.95L169.03 33.62L168.8 34.21C168.63 34.63 168.39 34.82 167.92 34.82H167.35V35.67Z" fill="#9CA3AF"/>
<g clip-path="url(#clip1_2166_35177)">
<g opacity="0.5" filter="url(#filter0_d_2166_35177)">
<path fill-rule="evenodd" clip-rule="evenodd" d="M34.75 21.4997C34.75 30.4745 27.4749 37.7497 18.5 37.7497C16.6622 37.752 14.8374 37.4421 13.1034 36.8332C12.3724 35.0626 11.9975 33.1652 12 31.2497C11.9956 27.7822 13.2274 24.4267 15.4743 21.7857C16.4439 23.2015 17.7443 24.3594 19.2627 25.1591C20.781 25.9587 22.4715 26.376 24.1875 26.3747C26.0078 26.3756 27.7974 25.9058 29.3825 25.0109C30.9676 24.1159 32.2943 22.8263 33.2339 21.2673C33.6239 20.6238 34.75 20.7473 34.75 21.4997Z" fill="#F59E0B"/>
</g>
<path d="M2.25 21.5C2.25 28.5834 6.78212 34.6072 13.1034 36.8319C12.3726 35.0618 11.9977 33.165 12 31.25C12 27.6409 13.3081 24.3356 15.4742 21.786C14.2663 20.0285 13.6213 17.9451 13.625 15.8125C13.6241 13.9922 14.0939 12.2026 14.9888 10.6175C15.8837 9.03244 17.1733 7.70569 18.7324 6.76613C19.3775 6.37613 19.2524 5.25 18.5 5.25C9.52513 5.25 2.25 12.5251 2.25 21.5Z" fill="url(#paint0_linear_2166_35177)"/>
</g>
<g clip-path="url(#clip2_2166_35177)">
<mask id="mask0_2166_35177" style="mask-type:luminance" maskUnits="userSpaceOnUse" x="91" y="0" width="22" height="22">
<path d="M112.5 0H91V21.5H112.5V0Z" fill="white"/>
</mask>
<g mask="url(#mask0_2166_35177)">
<mask id="mask1_2166_35177" style="mask-type:luminance" maskUnits="userSpaceOnUse" x="91" y="0" width="22" height="22">
<path d="M91 0H112.5V21.5H91V0Z" fill="white"/>
</mask>
<g mask="url(#mask1_2166_35177)">
<path d="M101.751 3.82227C97.9258 3.82227 94.8247 6.92339 94.8247 10.7488C94.8247 14.5743 97.9258 17.6755 101.751 17.6755C105.577 17.6755 108.678 14.5743 108.678 10.7488C108.678 6.92339 105.577 3.82227 101.751 3.82227Z" fill="#DE5A00"/>
<path d="M101.751 3.82227C97.9258 3.82227 94.8247 6.92339 94.8247 10.7488C94.8247 14.5743 97.9258 17.6755 101.751 17.6755C105.577 17.6755 108.678 14.5743 108.678 10.7488C108.678 6.92339 105.577 3.82227 101.751 3.82227Z" fill="#EF7B00"/>
<path d="M101.751 3.82227C97.9258 3.82227 94.8247 6.92339 94.8247 10.7488C94.8247 14.5743 97.9258 17.6755 101.751 17.6755C105.577 17.6755 108.678 14.5743 108.678 10.7488C108.678 6.92339 105.577 3.82227 101.751 3.82227ZM101.751 15.873C98.9213 15.873 96.6271 13.5789 96.6271 10.7488C96.6271 7.91884 98.9213 5.62468 101.751 5.62468C104.581 5.62468 106.875 7.91884 106.875 10.7488C106.875 13.5789 104.581 15.873 101.751 15.873Z" fill="#DE5A00"/>
<path d="M103.044 10.3901C102.79 10.2905 102.486 10.1997 102.133 10.1174V8.55858C102.25 8.60219 102.347 8.6654 102.424 8.74864C102.481 8.81106 102.528 8.8794 102.565 8.95368C102.701 9.22859 102.988 9.41235 103.314 9.41235H103.36C104.003 9.41235 104.412 8.75907 104.078 8.24798C103.968 8.07788 103.828 7.92207 103.661 7.7806C103.26 7.44187 102.75 7.24024 102.133 7.17552V6.81368C102.133 6.60377 101.963 6.43359 101.753 6.43359C101.543 6.43359 101.373 6.60377 101.373 6.81368V7.16416C100.737 7.21272 100.211 7.41693 99.7961 7.77734C99.3164 8.19398 99.0767 8.71302 99.0767 9.33466C99.0767 10.3945 99.8421 11.1001 101.373 11.4519V13.0578C101.173 13.0176 101.003 12.9402 100.865 12.8248C100.758 12.7363 100.676 12.6285 100.619 12.5011C100.498 12.2301 100.203 12.0607 99.8872 12.0607C99.2777 12.0607 98.8844 12.6704 99.1834 13.1637C99.1994 13.1901 99.216 13.2163 99.2332 13.2424C99.474 13.6072 99.806 13.8943 100.229 14.1036C100.571 14.2723 100.952 14.373 101.373 14.4057V14.6848C101.373 14.8947 101.543 15.0649 101.753 15.0649C101.963 15.0649 102.133 14.8947 102.133 14.6848V14.3955C102.738 14.3341 103.246 14.1441 103.658 13.8252C104.167 13.4302 104.422 12.9133 104.422 12.2744C104.422 11.3808 103.963 10.7527 103.044 10.3901ZM101.024 9.74581C100.841 9.61853 100.75 9.45119 100.75 9.244C100.75 9.02384 100.83 8.84253 100.991 8.70009C101.092 8.61047 101.219 8.54916 101.373 8.5159V9.9167C101.228 9.86367 101.111 9.80676 101.024 9.74581ZM102.475 12.8862C102.384 12.9587 102.27 13.0111 102.133 13.045V11.6728C102.244 11.7171 102.338 11.7633 102.415 11.8114C102.625 11.9431 102.731 12.1233 102.731 12.3521C102.731 12.5722 102.645 12.7503 102.475 12.8862Z" fill="#DE5A00"/>
<path d="M101.751 3.82227C97.9258 3.82227 94.8247 6.92339 94.8247 10.7488C94.8247 14.5743 97.9258 17.6755 101.751 17.6755C105.577 17.6755 108.678 14.5743 108.678 10.7488C108.678 6.92339 105.577 3.82227 101.751 3.82227ZM101.751 15.873C98.9213 15.873 96.6271 13.5789 96.6271 10.7488C96.6271 7.91884 98.9213 5.62468 101.751 5.62468C104.581 5.62468 106.875 7.91884 106.875 10.7488C106.875 13.5789 104.581 15.873 101.751 15.873Z" fill="#FFC711"/>
<mask id="mask2_2166_35177" style="mask-type:alpha" maskUnits="userSpaceOnUse" x="94" y="3" width="15" height="15">
<mask id="mask3_2166_35177" style="mask-type:luminance" maskUnits="userSpaceOnUse" x="91" y="0" width="22" height="22">
<path d="M91 0H112.5V21.5H91V0Z" fill="white"/>
</mask>
<g mask="url(#mask3_2166_35177)">
<path d="M101.751 3.82812C97.9258 3.82812 94.8247 6.92925 94.8247 10.7547C94.8247 14.5802 97.9258 17.6814 101.751 17.6814C105.577 17.6814 108.678 14.5802 108.678 10.7547C108.678 6.92925 105.577 3.82812 101.751 3.82812ZM101.751 15.8789C98.9213 15.8789 96.6271 13.5847 96.6271 10.7547C96.6271 7.9247 98.9213 5.63054 101.751 5.63054C104.581 5.63054 106.875 7.9247 106.875 10.7547C106.875 13.5847 104.581 15.8789 101.751 15.8789Z" fill="#FFC711"/>
<path d="M103.045 10.3901C102.791 10.2905 102.487 10.1997 102.134 10.1174V8.55858C102.251 8.60219 102.348 8.6654 102.425 8.74864C102.482 8.81106 102.529 8.8794 102.566 8.95368C102.702 9.22859 102.989 9.41235 103.315 9.41235H103.361C104.004 9.41235 104.413 8.75907 104.079 8.24798C103.968 8.07788 103.829 7.92207 103.662 7.7806C103.261 7.44187 102.751 7.24024 102.134 7.17552V6.81368C102.134 6.60377 101.964 6.43359 101.754 6.43359C101.544 6.43359 101.374 6.60377 101.374 6.81368V7.16416C100.738 7.21272 100.212 7.41693 99.797 7.77734C99.3174 8.19398 99.0776 8.71302 99.0776 9.33466C99.0776 10.3945 99.8431 11.1001 101.374 11.4519V13.0578C101.174 13.0176 101.004 12.9402 100.866 12.8248C100.759 12.7363 100.677 12.6285 100.62 12.5011C100.498 12.2301 100.204 12.0607 99.8882 12.0607C99.2787 12.0607 98.8854 12.6704 99.1844 13.1637C99.2003 13.1901 99.217 13.2163 99.2342 13.2424C99.475 13.6072 99.807 13.8943 100.23 14.1036C100.572 14.2723 100.953 14.373 101.374 14.4057V14.6848C101.374 14.8947 101.544 15.0649 101.754 15.0649C101.964 15.0649 102.134 14.8947 102.134 14.6848V14.3955C102.739 14.3341 103.247 14.1441 103.659 13.8252C104.168 13.4302 104.423 12.9133 104.423 12.2744C104.423 11.3808 103.964 10.7527 103.045 10.3901ZM101.025 9.74581C100.842 9.61853 100.751 9.45119 100.751 9.244C100.751 9.02384 100.831 8.84253 100.992 8.70009C101.093 8.61047 101.22 8.54916 101.374 8.5159V9.9167C101.229 9.86367 101.112 9.80676 101.025 9.74581ZM102.476 12.8862C102.385 12.9587 102.271 13.0111 102.134 13.045V11.6728C102.245 11.7171 102.339 11.7633 102.416 11.8114C102.626 11.9431 102.732 12.1233 102.732 12.3521C102.732 12.5722 102.646 12.7503 102.476 12.8862Z" fill="#FFC711"/>
</g>
</mask>
<g mask="url(#mask2_2166_35177)">
<path d="M106.528 3.29971L96.8809 19.3544L93.2616 17.1797L102.908 1.125L106.528 3.29971Z" fill="#FFE286"/>
</g>
</g>
</g>
<circle cx="101.75" cy="10.7501" r="4.65833" fill="#EF7B00"/>
<path d="M99.9584 12.8996V8.97658C99.9583 8.8932 99.986 8.81218 100.037 8.74623C100.088 8.68029 100.16 8.63316 100.24 8.61224C100.321 8.59133 100.406 8.59781 100.483 8.63068C100.56 8.66355 100.623 8.72093 100.664 8.79383L102.836 12.7054C102.877 12.7783 102.941 12.8357 103.017 12.8685C103.094 12.9014 103.179 12.9079 103.26 12.887C103.341 12.8661 103.412 12.8189 103.463 12.753C103.514 12.687 103.542 12.606 103.542 12.5226V8.59961M99.2417 10.0329H104.258M99.2417 11.4663H104.258" stroke="#FFE286" stroke-width="0.716667" stroke-linecap="round" stroke-linejoin="round"/>
</g>
</g>
<defs>
<filter id="filter0_d_2166_35177" x="-36" y="20.8516" width="70.75" height="113.898" filterUnits="userSpaceOnUse" color-interpolation-filters="sRGB">
<feFlood flood-opacity="0" result="BackgroundImageFix"/>
<feColorMatrix in="SourceAlpha" type="matrix" values="0 0 0 0 0 0 0 0 0 0 0 0 0 0 0 0 0 0 127 0" result="hardAlpha"/>
<feOffset dx="-44" dy="93"/>
<feGaussianBlur stdDeviation="2"/>
<feComposite in2="hardAlpha" operator="out"/>
<feColorMatrix type="matrix" values="0 0 0 0 0 0 0 0 0 0 0 0 0 0 0 0 0 0 0.25 0"/>
<feBlend mode="normal" in2="BackgroundImageFix" result="effect1_dropShadow_2166_35177"/>
<feBlend mode="normal" in="SourceGraphic" in2="effect1_dropShadow_2166_35177" result="shape"/>
</filter>
<linearGradient id="paint0_linear_2166_35177" x1="10.6994" y1="5.25" x2="10.6994" y2="36.8319" gradientUnits="userSpaceOnUse">
<stop stop-color="#F59E0B"/>
<stop offset="1" stop-color="#FFA917" stop-opacity="0"/>
</linearGradient>
<clipPath id="clip0_2166_35177">
<rect width="172" height="42" fill="white"/>
</clipPath>
<clipPath id="clip1_2166_35177">
<rect width="39" height="39" fill="white" transform="translate(-1 2)"/>
</clipPath>
<clipPath id="clip2_2166_35177">
<rect width="21.5" height="21.5" fill="white" transform="translate(91)"/>
</clipPath>
</defs>
</svg>
