<svg width="294" height="70" viewBox="0 0 294 70" fill="none" xmlns="http://www.w3.org/2000/svg">
<path d="M21.945 4.705C19.605 4.705 17.59 5.31166 15.9 6.525C14.2533 7.73833 12.91 9.27666 11.87 11.14C10.83 13.0033 10.05 15.04 9.53 17.25C9.05333 19.4167 8.815 21.475 8.815 23.425C8.815 26.285 9.205 28.9933 9.985 31.55C10.8083 34.1067 12 36.36 13.56 38.31C15.1633 40.26 17.135 41.7983 19.475 42.925C21.815 44.0517 24.5233 44.615 27.6 44.615C29.8533 44.615 31.9983 44.2467 34.035 43.51C36.115 42.7733 37.935 41.56 39.495 39.87L40.015 40.26C39.0183 44.7233 37.0467 48.0817 34.1 50.335C31.1533 52.545 27.3833 53.65 22.79 53.65C19.2367 53.65 16.0517 53 13.235 51.7C10.4183 50.4 8.035 48.645 6.085 46.435C4.135 44.1817 2.64 41.56 1.6 38.57C0.56 35.58 0.04 32.395 0.04 29.015C0.04 25.635 0.581667 22.385 1.665 19.265C2.74833 16.145 4.28667 13.3933 6.28 11.01C8.31667 8.58333 10.765 6.655 13.625 5.225C16.5283 3.795 19.7783 3.08 23.375 3.08C25.0217 3.08 26.755 3.31833 28.575 3.795C30.4383 4.27166 32.15 4.98666 33.71 5.94C35.27 6.89333 36.5483 8.10666 37.545 9.58C38.585 11.01 39.105 12.7217 39.105 14.715C39.105 16.1883 38.6717 17.4233 37.805 18.42C36.9383 19.3733 35.7467 19.85 34.23 19.85C32.54 19.85 31.175 19.2867 30.135 18.16C29.1383 17.0333 28.4017 15.7117 27.925 14.195C28.5317 14.1517 28.9217 13.805 29.095 13.155C29.2683 12.505 29.355 11.9633 29.355 11.53C29.355 10.49 29.16 9.55833 28.77 8.735C28.38 7.86833 27.8383 7.15333 27.145 6.59C26.495 5.98333 25.715 5.52833 24.805 5.225C23.895 4.87833 22.9417 4.705 21.945 4.705ZM44.6615 20.24C44.6615 19.33 44.5748 18.5067 44.4015 17.77C44.2282 16.99 43.9898 16.275 43.6865 15.625C43.3832 14.975 42.9932 14.3467 42.5165 13.74C42.0832 13.09 41.5848 12.4183 41.0215 11.725C43.4482 11.335 45.7015 10.75 47.7815 9.97C49.9048 9.14666 52.0282 8.12833 54.1515 6.915V26.805C54.2815 26.5883 54.8232 26.1767 55.7765 25.57C56.7298 24.92 57.7482 24.27 58.8315 23.62C59.9582 22.97 60.9982 22.385 61.9515 21.865C62.9482 21.345 63.5332 21.085 63.7065 21.085C65.1798 21.085 66.4582 21.3667 67.5415 21.93C68.6248 22.4933 69.5132 23.2517 70.2065 24.205C70.9432 25.1583 71.4848 26.2633 71.8315 27.52C72.2215 28.7767 72.4165 30.0767 72.4165 31.42V44.16C72.4165 44.8967 72.4598 45.6983 72.5465 46.565C72.6332 47.4317 72.7848 48.2767 73.0015 49.1C73.2182 49.9233 73.5432 50.6817 73.9765 51.375C74.4532 52.0683 75.0382 52.61 75.7315 53H59.6765C60.3698 52.61 60.9332 52.0683 61.3665 51.375C61.7998 50.6383 62.1248 49.88 62.3415 49.1C62.5582 48.2767 62.7098 47.4317 62.7965 46.565C62.8832 45.6983 62.9265 44.8967 62.9265 44.16V31.68C62.9265 31.03 62.8615 30.3583 62.7315 29.665C62.6015 28.9717 62.3848 28.3433 62.0815 27.78C61.7782 27.2167 61.3448 26.7617 60.7815 26.415C60.2615 26.0683 59.6115 25.895 58.8315 25.895C58.0948 25.895 57.4232 26.0683 56.8165 26.415C56.2532 26.7617 55.7765 27.2167 55.3865 27.78C54.9965 28.3433 54.6932 28.9717 54.4765 29.665C54.2598 30.3583 54.1515 31.03 54.1515 31.68V44.16C54.1515 44.8967 54.1732 45.6983 54.2165 46.565C54.3032 47.4317 54.4548 48.2767 54.6715 49.1C54.8882 49.9233 55.2132 50.6817 55.6465 51.375C56.0798 52.0683 56.6648 52.61 57.4015 53H41.3465C42.0398 52.61 42.6032 52.0683 43.0365 51.375C43.4698 50.6383 43.7948 49.88 44.0115 49.1C44.2715 48.2767 44.4448 47.4317 44.5315 46.565C44.6182 45.6983 44.6615 44.8967 44.6615 44.16V20.24ZM105.123 50.985C104.56 51.375 104.04 51.7433 103.563 52.09C103.086 52.4367 102.61 52.7183 102.133 52.935C101.656 53.1517 101.136 53.325 100.573 53.455C100.01 53.585 99.3598 53.65 98.6232 53.65C97.4532 53.65 96.2832 53.3467 95.1132 52.74C93.9432 52.09 93.1198 51.2017 92.6432 50.075C91.6465 51.2017 90.4332 52.09 89.0032 52.74C87.5732 53.3467 85.9265 53.65 84.0632 53.65C81.7665 53.65 79.8815 53.1083 78.4082 52.025C76.9782 50.9417 76.2632 49.165 76.2632 46.695C76.2632 45.005 76.8915 43.5317 78.1482 42.275C79.4482 41.0183 80.9648 39.87 82.6982 38.83C84.4748 37.79 86.2515 36.7933 88.0282 35.84C89.8482 34.8433 91.2782 33.7817 92.3182 32.655V30.575C92.3182 30.0117 92.3182 29.2967 92.3182 28.43C92.3182 27.52 92.2315 26.6533 92.0582 25.83C91.8848 24.9633 91.5815 24.2267 91.1482 23.62C90.7582 22.97 90.1298 22.645 89.2632 22.645C88.7865 22.645 88.3532 22.775 87.9632 23.035C87.5732 23.295 87.2265 23.62 86.9232 24.01C86.6632 24.4 86.4465 24.8333 86.2732 25.31C86.1432 25.7433 86.0782 26.1767 86.0782 26.61C86.0782 27.39 86.3165 27.975 86.7932 28.365C87.2698 28.755 87.8765 28.95 88.6132 28.95C88.1365 30.5533 87.3132 31.9833 86.1432 33.24C84.9732 34.4533 83.4782 35.06 81.6582 35.06C80.2715 35.06 79.2098 34.5617 78.4732 33.565C77.7798 32.525 77.4332 31.3767 77.4332 30.12C77.4332 28.4733 77.8232 27.0867 78.6032 25.96C79.4265 24.8333 80.4448 23.9017 81.6582 23.165C82.9148 22.4283 84.2798 21.9083 85.7532 21.605C87.2698 21.2583 88.6998 21.085 90.0432 21.085C91.6898 21.085 93.2282 21.3233 94.6582 21.8C96.0882 22.2333 97.3232 22.905 98.3632 23.815C99.4465 24.725 100.291 25.8517 100.898 27.195C101.505 28.495 101.808 30.0117 101.808 31.745V46.695C101.808 46.9983 101.83 47.3883 101.873 47.865C101.916 48.2983 102.003 48.7317 102.133 49.165C102.263 49.5983 102.458 49.9667 102.718 50.27C103.021 50.5733 103.39 50.725 103.823 50.725C104.3 50.725 104.733 50.595 105.123 50.335V50.985ZM92.3182 34.93C91.7115 35.4933 91.0182 36.1 90.2382 36.75C89.5015 37.4 88.8082 38.0933 88.1582 38.83C87.5082 39.5233 86.9448 40.2817 86.4682 41.105C86.0348 41.9283 85.8182 42.8167 85.8182 43.77C85.8182 44.4633 85.8615 45.1567 85.9482 45.85C86.0782 46.5 86.2732 47.085 86.5332 47.605C86.8365 48.125 87.2482 48.5583 87.7682 48.905C88.2882 49.2083 88.9598 49.36 89.7832 49.36C90.7365 49.36 91.5815 49.1433 92.3182 48.71V34.93ZM135.025 44.16C135.025 44.8967 135.047 45.6983 135.09 46.565C135.177 47.4317 135.329 48.2767 135.545 49.1C135.805 49.9233 136.152 50.6817 136.585 51.375C137.019 52.0683 137.604 52.61 138.34 53H122.22C122.957 52.61 123.542 52.0683 123.975 51.375C124.409 50.6817 124.734 49.9233 124.95 49.1C125.167 48.2767 125.319 47.4317 125.405 46.565C125.492 45.6983 125.535 44.8967 125.535 44.16V20.24C125.535 19.33 125.449 18.5067 125.275 17.77C125.102 16.99 124.864 16.275 124.56 15.625C124.257 14.975 123.867 14.3467 123.39 13.74C122.957 13.09 122.459 12.4183 121.895 11.725C122.979 11.5517 123.932 11.3783 124.755 11.205C125.622 11.0317 126.402 10.8583 127.095 10.685C127.832 10.4683 128.525 10.23 129.175 9.97C129.825 9.71 130.497 9.40666 131.19 9.06C129.89 9.53666 128.547 9.88333 127.16 10.1C125.817 10.2733 124.43 10.36 123 10.36C121.267 10.36 119.512 10.23 117.735 9.97C116.002 9.71 114.269 9.42833 112.535 9.125C110.845 8.77833 109.112 8.475 107.335 8.215C105.602 7.955 103.869 7.825 102.135 7.825C99.7519 7.825 97.6935 8.30166 95.9602 9.255C94.2269 10.165 92.8402 11.7467 91.8002 14C90.6735 13.2633 89.7419 12.3317 89.0052 11.205C88.2685 10.0783 87.9002 8.82166 87.9002 7.435C87.9002 6.04833 88.2469 4.9 88.9402 3.99C89.5902 3.08 90.4352 2.34333 91.4752 1.78C92.4719 1.17333 93.5769 0.761664 94.7902 0.544997C96.0035 0.284998 97.1735 0.154998 98.3002 0.154998C100.727 0.154998 103.11 0.609998 105.45 1.52C107.747 2.38666 110.065 3.36167 112.405 4.445C114.745 5.485 117.107 6.46 119.49 7.37C121.917 8.23666 124.43 8.67 127.03 8.67C128.417 8.67 129.782 8.51833 131.125 8.215C132.469 7.91166 133.769 7.47833 135.025 6.915V44.16ZM118.58 44.16C118.58 44.8967 118.602 45.6983 118.645 46.565C118.732 47.4317 118.884 48.2767 119.1 49.1C119.36 49.9233 119.707 50.6817 120.14 51.375C120.574 52.0683 121.159 52.61 121.895 53H105.775C106.512 52.61 107.097 52.0683 107.53 51.375C107.964 50.6817 108.289 49.9233 108.505 49.1C108.722 48.2767 108.874 47.4317 108.96 46.565C109.047 45.6983 109.09 44.8967 109.09 44.16V25.895C109.09 24.985 109.004 24.1617 108.83 23.425C108.657 22.645 108.419 21.93 108.115 21.28C107.812 20.63 107.422 20.0017 106.945 19.395C106.512 18.745 106.014 18.0733 105.45 17.38C106.967 17.12 108.245 16.8817 109.285 16.665C110.369 16.405 111.365 16.1017 112.275 15.755C113.229 15.4083 114.182 14.9967 115.135 14.52C116.132 14 117.28 13.35 118.58 12.57V44.16ZM148.731 37.075C149.034 38.4183 149.489 39.6967 150.096 40.91C150.703 42.08 151.461 43.12 152.371 44.03C153.281 44.8967 154.343 45.59 155.556 46.11C156.813 46.63 158.221 46.89 159.781 46.89C160.258 46.89 160.821 46.8683 161.471 46.825C162.164 46.7383 162.858 46.63 163.551 46.5C164.244 46.37 164.894 46.1967 165.501 45.98C166.151 45.72 166.649 45.4167 166.996 45.07L167.516 45.46C166.043 48.1467 164.288 50.1833 162.251 51.57C160.258 52.9567 157.658 53.65 154.451 53.65C152.198 53.65 150.096 53.2383 148.146 52.415C146.239 51.5917 144.593 50.465 143.206 49.035C141.863 47.5617 140.801 45.85 140.021 43.9C139.241 41.95 138.851 39.8483 138.851 37.595C138.851 35.4283 139.176 33.3483 139.826 31.355C140.519 29.3617 141.494 27.6067 142.751 26.09C144.051 24.5733 145.611 23.36 147.431 22.45C149.251 21.54 151.309 21.085 153.606 21.085C155.686 21.085 157.571 21.41 159.261 22.06C160.994 22.6667 162.446 23.5767 163.616 24.79C164.829 25.96 165.761 27.39 166.411 29.08C167.061 30.77 167.386 32.655 167.386 34.735V36.295L148.731 37.075ZM158.676 29.535C158.676 28.7983 158.524 28.0183 158.221 27.195C157.961 26.3717 157.571 25.635 157.051 24.985C156.531 24.2917 155.924 23.7283 155.231 23.295C154.538 22.8617 153.779 22.645 152.956 22.645C152.003 22.645 151.223 23.035 150.616 23.815C150.009 24.595 149.533 25.5267 149.186 26.61C148.839 27.65 148.579 28.7333 148.406 29.86C148.276 30.9867 148.211 31.875 148.211 32.525C148.211 33.4783 148.276 34.4533 148.406 35.45C149.273 35.3633 150.139 35.255 151.006 35.125C151.873 34.995 152.739 34.865 153.606 34.735C155.079 34.5183 156.293 33.9983 157.246 33.175C158.199 32.3517 158.676 31.1383 158.676 29.535ZM218.605 21.085C219.515 21.085 220.447 21.15 221.4 21.28C221.963 20.2833 222.592 19.3083 223.285 18.355C223.978 17.4017 224.737 16.5567 225.56 15.82C226.427 15.04 227.337 14.4117 228.29 13.935C229.287 13.4583 230.348 13.22 231.475 13.22C232.732 13.22 233.815 13.61 234.725 14.39C235.635 15.1267 236.09 16.145 236.09 17.445C236.09 18.9617 235.548 20.1317 234.465 20.955C233.382 21.735 232.147 22.125 230.76 22.125C230.457 22.125 230.088 22.0817 229.655 21.995C229.395 21.3017 228.962 20.7817 228.355 20.435C227.792 20.0883 227.142 19.915 226.405 19.915C225.625 19.915 224.932 20.0667 224.325 20.37C223.718 20.63 223.177 20.9983 222.7 21.475C224.173 21.735 225.582 22.1683 226.925 22.775C228.312 23.3817 229.525 24.1617 230.565 25.115C231.648 26.025 232.493 27.13 233.1 28.43C233.75 29.6867 234.075 31.16 234.075 32.85C234.075 34.9733 233.598 36.7933 232.645 38.31C231.692 39.8267 230.435 41.0617 228.875 42.015C227.358 42.925 225.668 43.5967 223.805 44.03C221.942 44.4633 220.1 44.68 218.28 44.68C217.76 44.7233 217.197 44.81 216.59 44.94C215.983 45.0267 215.442 45.1567 214.965 45.33C214.488 45.5033 214.077 45.72 213.73 45.98C213.427 46.24 213.275 46.565 213.275 46.955C213.275 47.2583 213.362 47.5183 213.535 47.735C213.752 47.9083 213.99 48.0383 214.25 48.125C214.51 48.2117 214.792 48.2767 215.095 48.32C215.398 48.32 215.658 48.32 215.875 48.32H230.565C232.082 48.32 233.338 48.71 234.335 49.49C235.375 50.2267 235.895 51.3967 235.895 53C235.895 56.25 235.18 58.9367 233.75 61.06C232.363 63.1833 230.565 64.8517 228.355 66.065C226.145 67.2783 223.653 68.1233 220.88 68.6C218.15 69.0767 215.442 69.315 212.755 69.315H212.105C210.112 69.2717 207.837 69.0333 205.28 68.6C202.723 68.1667 200.297 67.43 198 66.39C195.747 65.3933 193.84 64.0283 192.28 62.295C190.72 60.605 189.94 58.46 189.94 55.86V31.68C189.94 31.03 189.875 30.3583 189.745 29.665C189.615 28.9717 189.398 28.3433 189.095 27.78C188.792 27.2167 188.358 26.7617 187.795 26.415C187.275 26.0683 186.625 25.895 185.845 25.895C184.502 25.895 183.462 26.3717 182.725 27.325C181.988 28.235 181.512 29.2967 181.295 30.51V44.16C181.295 44.8967 181.317 45.6983 181.36 46.565C181.447 47.4317 181.598 48.2767 181.815 49.1C182.032 49.9233 182.357 50.6817 182.79 51.375C183.223 52.0683 183.808 52.61 184.545 53H168.49C169.183 52.61 169.747 52.0683 170.18 51.375C170.613 50.6383 170.938 49.88 171.155 49.1C171.415 48.2767 171.588 47.4317 171.675 46.565C171.762 45.6983 171.805 44.8967 171.805 44.16V34.93C171.805 34.02 171.718 33.1967 171.545 32.46C171.372 31.68 171.133 30.965 170.83 30.315C170.527 29.665 170.137 29.0367 169.66 28.43C169.227 27.78 168.728 27.1083 168.165 26.415C169.682 26.155 170.96 25.9167 172 25.7C173.083 25.44 174.08 25.1367 174.99 24.79C175.943 24.4433 176.897 24.0317 177.85 23.555C178.847 23.035 179.995 22.385 181.295 21.605V26.675C181.598 26.3717 182.227 25.9167 183.18 25.31C184.133 24.7033 185.13 24.0967 186.17 23.49C187.21 22.84 188.185 22.2767 189.095 21.8C190.005 21.3233 190.547 21.085 190.72 21.085C192.193 21.085 193.472 21.3667 194.555 21.93C195.638 22.4933 196.527 23.2517 197.22 24.205C197.957 25.1583 198.498 26.2633 198.845 27.52C199.235 28.7767 199.43 30.0767 199.43 31.42V55.99C199.43 57.8967 199.798 59.565 200.535 60.995C201.272 62.4683 202.247 63.7033 203.46 64.7C204.717 65.6967 206.147 66.455 207.75 66.975C209.353 67.495 211.043 67.755 212.82 67.755C214.51 67.755 216.157 67.5167 217.76 67.04C219.407 66.6067 220.858 65.9133 222.115 64.96C223.415 64.0067 224.455 62.8367 225.235 61.45C226.015 60.0633 226.405 58.4167 226.405 56.51H208.075C207.338 56.51 206.623 56.3583 205.93 56.055C205.237 55.7517 204.63 55.34 204.11 54.82C203.59 54.3 203.178 53.6933 202.875 53C202.572 52.3067 202.42 51.5917 202.42 50.855C202.42 49.3817 202.81 48.2117 203.59 47.345C204.413 46.4783 205.41 45.8283 206.58 45.395C207.75 44.9183 209.007 44.615 210.35 44.485C211.737 44.3117 212.993 44.225 214.12 44.225C212.69 43.9217 211.303 43.4883 209.96 42.925C208.617 42.3183 207.425 41.5383 206.385 40.585C205.345 39.6317 204.522 38.5267 203.915 37.27C203.308 35.97 203.005 34.4967 203.005 32.85C203.005 30.77 203.482 28.9933 204.435 27.52C205.388 26.0467 206.623 24.8333 208.14 23.88C209.657 22.9267 211.325 22.2333 213.145 21.8C215.008 21.3233 216.828 21.085 218.605 21.085ZM220.685 42.925C221.552 42.925 222.267 42.73 222.83 42.34C223.393 41.9067 223.827 41.365 224.13 40.715C224.477 40.065 224.715 39.35 224.845 38.57C224.975 37.79 225.04 37.0533 225.04 36.36C225.04 35.1033 224.845 33.695 224.455 32.135C224.065 30.575 223.48 29.1233 222.7 27.78C221.963 26.3933 221.01 25.245 219.84 24.335C218.713 23.425 217.392 22.97 215.875 22.97C215.095 22.97 214.445 23.165 213.925 23.555C213.405 23.945 212.993 24.4433 212.69 25.05C212.43 25.6567 212.235 26.3283 212.105 27.065C212.018 27.7583 211.975 28.43 211.975 29.08C211.975 30.25 212.148 31.6367 212.495 33.24C212.885 34.8 213.427 36.3167 214.12 37.79C214.857 39.22 215.767 40.4333 216.85 41.43C217.933 42.4267 219.212 42.925 220.685 42.925ZM246.802 37.075C247.106 38.4183 247.561 39.6967 248.167 40.91C248.774 42.08 249.532 43.12 250.442 44.03C251.352 44.8967 252.414 45.59 253.627 46.11C254.884 46.63 256.292 46.89 257.852 46.89C258.329 46.89 258.892 46.8683 259.542 46.825C260.236 46.7383 260.929 46.63 261.622 46.5C262.316 46.37 262.966 46.1967 263.572 45.98C264.222 45.72 264.721 45.4167 265.067 45.07L265.587 45.46C264.114 48.1467 262.359 50.1833 260.322 51.57C258.329 52.9567 255.729 53.65 252.522 53.65C250.269 53.65 248.167 53.2383 246.217 52.415C244.311 51.5917 242.664 50.465 241.277 49.035C239.934 47.5617 238.872 45.85 238.092 43.9C237.312 41.95 236.922 39.8483 236.922 37.595C236.922 35.4283 237.247 33.3483 237.897 31.355C238.591 29.3617 239.566 27.6067 240.822 26.09C242.122 24.5733 243.682 23.36 245.502 22.45C247.322 21.54 249.381 21.085 251.677 21.085C253.757 21.085 255.642 21.41 257.332 22.06C259.066 22.6667 260.517 23.5767 261.687 24.79C262.901 25.96 263.832 27.39 264.482 29.08C265.132 30.77 265.457 32.655 265.457 34.735V36.295L246.802 37.075ZM256.747 29.535C256.747 28.7983 256.596 28.0183 256.292 27.195C256.032 26.3717 255.642 25.635 255.122 24.985C254.602 24.2917 253.996 23.7283 253.302 23.295C252.609 22.8617 251.851 22.645 251.027 22.645C250.074 22.645 249.294 23.035 248.687 23.815C248.081 24.595 247.604 25.5267 247.257 26.61C246.911 27.65 246.651 28.7333 246.477 29.86C246.347 30.9867 246.282 31.875 246.282 32.525C246.282 33.4783 246.347 34.4533 246.477 35.45C247.344 35.3633 248.211 35.255 249.077 35.125C249.944 34.995 250.811 34.865 251.677 34.735C253.151 34.5183 254.364 33.9983 255.317 33.175C256.271 32.3517 256.747 31.1383 256.747 29.535ZM279.106 53.65C277.893 53.65 276.55 53.4983 275.076 53.195C273.646 52.8917 272.303 52.415 271.046 51.765C269.79 51.115 268.728 50.27 267.861 49.23C267.038 48.1467 266.626 46.8467 266.626 45.33C266.626 43.9 267.016 42.665 267.796 41.625C268.62 40.585 269.79 40.065 271.306 40.065C272.78 40.065 273.971 40.6283 274.881 41.755C275.835 42.8383 276.441 44.03 276.701 45.33C275.921 45.33 275.271 45.59 274.751 46.11C274.275 46.63 274.036 47.28 274.036 48.06C274.036 48.71 274.188 49.295 274.491 49.815C274.795 50.335 275.185 50.7683 275.661 51.115C276.181 51.4183 276.745 51.6567 277.351 51.83C277.958 52.0033 278.543 52.09 279.106 52.09C279.8 52.09 280.493 52.0033 281.186 51.83C281.88 51.6567 282.508 51.3967 283.071 51.05C283.635 50.66 284.09 50.1833 284.436 49.62C284.783 49.0133 284.956 48.2983 284.956 47.475C284.956 46.3483 284.523 45.4167 283.656 44.68C282.833 43.9 281.793 43.185 280.536 42.535C279.28 41.8417 277.915 41.17 276.441 40.52C274.968 39.8267 273.603 39.0467 272.346 38.18C271.09 37.27 270.028 36.1867 269.161 34.93C268.338 33.6733 267.926 32.135 267.926 30.315C267.926 28.6683 268.338 27.2817 269.161 26.155C270.028 24.985 271.09 24.0317 272.346 23.295C273.603 22.515 274.99 21.9517 276.506 21.605C278.066 21.2583 279.518 21.085 280.861 21.085C282.075 21.085 283.375 21.2367 284.761 21.54C286.191 21.8 287.491 22.255 288.661 22.905C289.875 23.555 290.871 24.4 291.651 25.44C292.431 26.4367 292.821 27.6933 292.821 29.21C292.821 30.5533 292.431 31.615 291.651 32.395C290.915 33.175 289.875 33.565 288.531 33.565C287.145 33.565 285.996 33.1533 285.086 32.33C284.176 31.5067 283.526 30.4667 283.136 29.21C283.873 29.21 284.436 28.9933 284.826 28.56C285.216 28.0833 285.411 27.4983 285.411 26.805C285.411 25.505 284.913 24.4867 283.916 23.75C282.92 23.0133 281.815 22.645 280.601 22.645C279.171 22.645 277.98 23.1 277.026 24.01C276.073 24.8767 275.596 26.025 275.596 27.455C275.596 28.5383 276.03 29.47 276.896 30.25C277.806 31.03 278.911 31.7667 280.211 32.46C281.555 33.11 282.985 33.76 284.501 34.41C286.061 35.06 287.491 35.84 288.791 36.75C290.135 37.66 291.24 38.7433 292.106 40C293.016 41.2133 293.471 42.7083 293.471 44.485C293.471 46.2617 292.973 47.7567 291.976 48.97C291.023 50.14 289.831 51.0717 288.401 51.765C286.971 52.4583 285.411 52.935 283.721 53.195C282.075 53.4983 280.536 53.65 279.106 53.65Z" fill="url(#paint0_linear_4622_33173)"/>
<defs>
<linearGradient id="paint0_linear_4622_33173" x1="76.0175" y1="37.6639" x2="235.818" y2="-133.462" gradientUnits="userSpaceOnUse">
<stop stop-color="#FF6648"/>
<stop offset="1" stop-color="#FFF96A"/>
</linearGradient>
</defs>
</svg>
