<svg width="193" height="51" viewBox="0 0 193 51" fill="none" xmlns="http://www.w3.org/2000/svg">
<path d="M0.3 50H16.42C13.56 48.375 13.105 44.15 13.105 41.16V31.28H14.925L25.325 50H39.56C33.58 46.685 28.055 36.74 24.87 30.825C32.215 29.265 36.44 23.285 36.44 15.94C36.44 6.385 29.68 0.729999 20.32 0.729999H0.3C3.225 2.42 3.615 6.515 3.615 9.57V41.16C3.615 44.15 3.16 48.375 0.3 50ZM13.105 29.72V2.29H13.17C22.01 2.29 27.015 7.555 27.015 16.265C27.015 25.17 21.88 29.72 13.105 29.72ZM66.014 33.295V31.735C66.014 23.35 60.619 18.085 52.234 18.085C43.004 18.085 37.479 25.95 37.479 34.595C37.479 43.565 43.979 50.65 53.079 50.65C59.514 50.65 63.154 47.855 66.144 42.46L65.624 42.07C64.259 43.435 60.229 43.89 58.409 43.89C52.104 43.89 48.594 39.47 47.359 34.075L66.014 33.295ZM57.304 26.535C57.304 29.72 55.159 31.28 52.234 31.735C50.479 31.995 48.789 32.255 47.034 32.45C46.904 31.475 46.839 30.5 46.839 29.525C46.839 26.86 47.814 19.645 51.584 19.645C54.899 19.645 57.304 23.545 57.304 26.535ZM79.663 50.65C85.318 50.65 94.028 48.635 94.028 41.485C94.028 30.76 76.153 31.02 76.153 24.455C76.153 21.595 78.298 19.645 81.158 19.645C83.563 19.645 85.968 21.205 85.968 23.805C85.968 25.17 85.123 26.21 83.693 26.21C84.473 28.745 86.358 30.565 89.088 30.565C91.753 30.565 93.378 28.875 93.378 26.21C93.378 20.23 86.293 18.085 81.418 18.085C75.958 18.085 68.483 20.815 68.483 27.315C68.483 38.3 85.513 37.78 85.513 44.475C85.513 47.725 82.458 49.09 79.663 49.09C77.323 49.09 74.593 47.725 74.593 45.06C74.593 43.5 75.698 42.33 77.258 42.33C76.738 39.73 74.788 37.065 71.863 37.065C68.808 37.065 67.183 39.47 67.183 42.33C67.183 48.44 74.788 50.65 79.663 50.65ZM93.707 18.605C96.567 20.23 97.022 24.455 97.022 27.445V40.185C97.022 45.58 99.882 50.52 105.732 50.52C106.512 50.52 114.702 45.645 115.287 44.8C115.612 46.555 116.262 48.375 116.652 50H128.287C125.622 46.685 124.647 44.02 124.647 39.795V18.605H111.907C114.832 20.23 115.157 24.455 115.157 27.445V36.675C115.157 38.235 115.027 39.925 115.027 41.615C114.507 43.76 113.077 45.71 110.607 45.71C107.422 45.71 106.512 42.59 106.512 39.925V18.605H93.707ZM141.432 3.915C136.167 6.97 134.347 7.75 128.302 8.725C130.577 11.455 131.942 13.535 131.942 17.24V41.16C131.942 44.15 131.487 48.375 128.627 50H144.747C141.822 48.375 141.432 44.15 141.432 41.16V3.915ZM157.742 10.48H156.767C154.622 16.395 151.177 18.605 145.067 19.19V20.165H148.252V41.875C148.252 46.62 150.397 50.65 155.597 50.65C159.172 50.65 162.812 48.895 165.412 46.49V45.84C164.372 46.425 163.137 46.685 161.967 46.685C159.757 46.685 157.742 45.71 157.742 43.175V20.165H164.502V18.605H157.742V10.48ZM177.988 50.65C183.643 50.65 192.353 48.635 192.353 41.485C192.353 30.76 174.478 31.02 174.478 24.455C174.478 21.595 176.623 19.645 179.483 19.645C181.888 19.645 184.293 21.205 184.293 23.805C184.293 25.17 183.448 26.21 182.018 26.21C182.798 28.745 184.683 30.565 187.413 30.565C190.078 30.565 191.703 28.875 191.703 26.21C191.703 20.23 184.618 18.085 179.743 18.085C174.283 18.085 166.808 20.815 166.808 27.315C166.808 38.3 183.838 37.78 183.838 44.475C183.838 47.725 180.783 49.09 177.988 49.09C175.648 49.09 172.918 47.725 172.918 45.06C172.918 43.5 174.023 42.33 175.583 42.33C175.063 39.73 173.113 37.065 170.188 37.065C167.133 37.065 165.508 39.47 165.508 42.33C165.508 48.44 173.113 50.65 177.988 50.65Z" fill="url(#paint0_linear_4587_33365)"/>
<defs>
<linearGradient id="paint0_linear_4587_33365" x1="-32.2826" y1="18.4468" x2="-15.5454" y2="105.519" gradientUnits="userSpaceOnUse">
<stop stop-color="#2563EB"/>
<stop offset="1" stop-color="#35FF49"/>
</linearGradient>
</defs>
</svg>
