<svg width="56" height="54" viewBox="0 0 56 54" fill="none" xmlns="http://www.w3.org/2000/svg">
<g clip-path="url(#clip0_4941_33826)">
<g clip-path="url(#clip1_4941_33826)">
<mask id="mask0_4941_33826" style="mask-type:luminance" maskUnits="userSpaceOnUse" x="-7" y="-8" width="70" height="70">
<path d="M63 -8H-7V62H63V-8Z" fill="white"/>
</mask>
<g mask="url(#mask0_4941_33826)">
<path d="M27.9996 5.19922C39.8103 5.19922 49.3996 14.7886 49.3996 26.5992C49.3996 38.4099 39.8103 47.9992 27.9996 47.9992C16.1889 47.9992 6.59961 38.4099 6.59961 26.5992C6.59961 14.7886 16.1889 5.19922 27.9996 5.19922Z" fill="#FFD30A"/>
<path d="M22.5648 18.3867C24.2757 18.3867 25.6648 19.7758 25.6648 21.4867C25.6648 23.1976 24.2757 24.5867 22.5648 24.5867C20.854 24.5867 19.4648 23.1976 19.4648 21.4867C19.4648 19.7758 20.854 18.3867 22.5648 18.3867Z" fill="white"/>
<path d="M39.1645 18.3867C40.8753 18.3867 42.2645 19.7758 42.2645 21.4867C42.2645 23.1976 40.8753 24.5867 39.1645 24.5867C37.4536 24.5867 36.0645 23.1976 36.0645 21.4867C36.0645 19.7758 37.4536 18.3867 39.1645 18.3867Z" fill="white"/>
<path d="M23.9228 20.2969C24.6585 20.2969 25.2558 20.8942 25.2558 21.6299C25.2558 22.3656 24.6585 22.9629 23.9228 22.9629C23.1872 22.9629 22.5898 22.3656 22.5898 21.6299C22.5898 20.8942 23.1872 20.2969 23.9228 20.2969Z" fill="#4A4A4A"/>
<path d="M40.2217 20.2969C40.9574 20.2969 41.5547 20.8942 41.5547 21.6299C41.5547 22.3656 40.9574 22.9629 40.2217 22.9629C39.486 22.9629 38.8887 22.3656 38.8887 21.6299C38.8887 20.8942 39.486 20.2969 40.2217 20.2969Z" fill="#4A4A4A"/>
<path d="M21.4648 39.89C21.4648 39.89 24.3148 38.34 31.2648 38.29C37.2646 38.2468 40.3648 39.79 40.3648 39.79" fill="#FFD40B"/>
<path d="M21.4648 39.89C21.4648 39.89 24.3148 38.34 31.2648 38.29C37.2646 38.2468 40.3648 39.79 40.3648 39.79" stroke="#CDA800" stroke-width="0.5"/>
<path d="M18.6152 17.2398L23.7152 15.3398L18.6152 17.2398Z" fill="#E8C005"/>
<path d="M18.6152 17.2398L23.7152 15.3398" stroke="#CDA800" stroke-width="0.5"/>
<path d="M37.3672 15.0898L42.6172 17.4398L37.3672 15.0898Z" fill="#E8C005"/>
<path d="M37.3672 15.0898L42.6172 17.4398" stroke="#CDA800" stroke-width="0.5"/>
</g>
</g>
</g>
<defs>
<clipPath id="clip0_4941_33826">
<rect width="56" height="54" fill="white"/>
</clipPath>
<clipPath id="clip1_4941_33826">
<rect width="70" height="70" fill="white" transform="translate(-7 -8)"/>
</clipPath>
</defs>
</svg>
