<svg width="592" height="133" viewBox="0 0 592 133" fill="none" xmlns="http://www.w3.org/2000/svg">
<g clip-path="url(#clip0_4690_33352)">
<path d="M529.999 74.2972C528.24 76.8249 528.863 80.2997 531.391 82.0584C533.919 83.8171 537.394 83.1937 539.152 80.6659C540.911 78.1382 540.288 74.6633 537.76 72.9047C535.232 71.146 531.757 71.7694 529.999 74.2972ZM547.486 69.9078L548.52 69.7527L548.513 69.7034L548.501 69.6552L547.486 69.9078ZM551.994 77.8137C551.448 78.003 551.16 78.5987 551.349 79.1441C551.538 79.6896 552.134 79.9783 552.679 79.7889L551.994 77.8137ZM535.568 77.8093C536.26 75.7127 537.179 73.3182 538.219 71.1329C539.268 68.9289 540.404 67.0148 541.51 65.8193C542.064 65.2203 542.549 64.8691 542.947 64.7151C543.302 64.5775 543.577 64.5955 543.855 64.7466C544.181 64.9239 544.618 65.3458 545.095 66.2459C545.567 67.1356 546.036 68.4093 546.472 70.1605L548.501 69.6552C548.042 67.8118 547.523 66.3601 546.942 65.2658C546.367 64.1819 545.685 63.3611 544.853 62.9092C543.972 62.431 543.049 62.4332 542.191 62.7655C541.376 63.0813 540.635 63.6856 539.975 64.3997C538.652 65.8304 537.407 67.9735 536.331 70.2345C535.246 72.5143 534.296 74.9926 533.583 77.1538L535.568 77.8093ZM546.453 70.063C546.759 72.1021 546.775 74.424 546.728 76.7062C546.682 78.9443 546.572 81.1982 546.65 82.9417C546.69 83.8168 546.778 84.642 546.973 85.3217C547.159 85.9702 547.506 86.7138 548.237 87.0959C549.012 87.5012 549.851 87.3182 550.575 86.9576C551.305 86.5934 552.124 85.9535 553.048 85.065L551.599 83.5574C550.73 84.3926 550.092 84.8621 549.642 85.0862C549.185 85.3139 549.12 85.1981 549.205 85.2429C549.247 85.2645 549.119 85.2198 548.983 84.7457C548.856 84.3027 548.776 83.671 548.739 82.848C548.665 81.1953 548.771 79.0888 548.819 76.7491C548.866 74.4534 548.855 71.9798 548.52 69.7527L546.453 70.063ZM553.048 85.065C554.86 83.3235 556.02 81.9801 556.661 80.9465C556.98 80.4324 557.211 79.9303 557.297 79.448C557.387 78.9428 557.325 78.3858 556.954 77.9256C556.607 77.4955 556.122 77.3184 555.731 77.2441C555.331 77.1682 554.901 77.1745 554.498 77.2153C553.687 77.2973 552.781 77.5404 551.994 77.8137L552.679 79.7889C553.385 79.5441 554.12 79.355 554.708 79.2956C555.004 79.2656 555.213 79.274 555.341 79.2984C555.478 79.3244 555.413 79.3459 555.326 79.2384C555.215 79.1008 555.255 78.9903 555.239 79.0811C555.218 79.1948 555.136 79.4383 554.884 79.8449C554.383 80.6528 553.374 81.8515 551.599 83.5574L553.048 85.065Z" fill="url(#paint0_linear_4690_33352)"/>
<path d="M30.305 17.11C30.305 18.5033 29.8833 19.7133 29.04 20.74C28.1967 21.73 27.0417 22.225 25.575 22.225C23.9617 22.225 22.6783 21.675 21.725 20.575C20.8083 19.475 20.2583 18.1733 20.075 16.67C20.9183 16.67 21.5233 16.3583 21.89 15.735C22.2933 15.1117 22.495 14.4333 22.495 13.7C22.495 12.8567 22.275 12.1417 21.835 11.555C21.4317 10.9683 20.9 10.4917 20.24 10.125C19.6167 9.75833 18.92 9.50167 18.15 9.355C17.38 9.17167 16.6467 9.08 15.95 9.08C14.85 9.08 13.86 9.28167 12.98 9.685C12.1 10.0517 11.3483 10.5833 10.725 11.28C10.1017 11.94 9.625 12.7467 9.295 13.7C8.965 14.6167 8.8 15.6067 8.8 16.67C8.8 18.2467 9.35 19.585 10.45 20.685C11.5867 21.785 12.98 22.7933 14.63 23.71C16.3167 24.59 18.1317 25.47 20.075 26.35C22.0183 27.1933 23.815 28.165 25.465 29.265C27.1517 30.365 28.545 31.685 29.645 33.225C30.7817 34.765 31.35 36.6533 31.35 38.89C31.35 40.9067 30.8917 42.6667 29.975 44.17C29.0583 45.6367 27.8667 46.8467 26.4 47.8C24.9333 48.7167 23.3017 49.4133 21.505 49.89C19.7083 50.33 17.93 50.55 16.17 50.55C14.52 50.55 12.7967 50.3483 11 49.945C9.20333 49.5417 7.535 48.9 5.995 48.02C4.49167 47.14 3.245 46.0217 2.255 44.665C1.30167 43.2717 0.825 41.585 0.825 39.605C0.825 38.835 0.935 38.0833 1.155 37.35C1.375 36.6167 1.68667 35.975 2.09 35.425C2.53 34.8383 3.06167 34.38 3.685 34.05C4.30833 33.6833 5.04167 33.5 5.885 33.5C6.765 33.5 7.55333 33.6833 8.25 34.05C8.94667 34.4167 9.53333 34.8933 10.01 35.48C10.5233 36.0667 10.9267 36.745 11.22 37.515C11.5133 38.285 11.715 39.055 11.825 39.825C11.275 39.825 10.7983 39.9533 10.395 40.21C9.99167 40.4667 9.64333 40.7967 9.35 41.2C9.09333 41.5667 8.89167 41.9883 8.745 42.465C8.635 42.9417 8.58 43.4183 8.58 43.895C8.58 44.775 8.745 45.5633 9.075 46.26C9.44167 46.92 9.91833 47.47 10.505 47.91C11.0917 48.35 11.7517 48.68 12.485 48.9C13.255 49.12 14.0433 49.23 14.85 49.23C15.95 49.23 16.995 49.0833 17.985 48.79C18.975 48.46 19.8367 48.0017 20.57 47.415C21.34 46.7917 21.945 46.04 22.385 45.16C22.825 44.2433 23.045 43.1983 23.045 42.025C23.045 40.1917 22.5317 38.6883 21.505 37.515C20.4783 36.305 19.195 35.2233 17.655 34.27C16.115 33.3167 14.4283 32.4367 12.595 31.63C10.7983 30.7867 9.13 29.8333 7.59 28.77C6.05 27.67 4.76667 26.3867 3.74 24.92C2.71333 23.4533 2.2 21.62 2.2 19.42C2.2 17.4767 2.60333 15.79 3.41 14.36C4.21667 12.8933 5.28 11.6833 6.6 10.73C7.92 9.74 9.405 9.00666 11.055 8.53C12.7417 8.01667 14.465 7.76 16.225 7.76C17.545 7.76 19.0117 7.94333 20.625 8.31C22.275 8.67667 23.815 9.245 25.245 10.015C26.675 10.7483 27.8667 11.7017 28.82 12.875C29.81 14.0483 30.305 15.46 30.305 17.11ZM41.51 36.525C41.7666 37.6617 42.1516 38.7433 42.665 39.77C43.1783 40.76 43.82 41.64 44.59 42.41C45.36 43.1433 46.2583 43.73 47.285 44.17C48.3483 44.61 49.54 44.83 50.86 44.83C51.2633 44.83 51.74 44.8117 52.29 44.775C52.8766 44.7017 53.4633 44.61 54.05 44.5C54.6366 44.39 55.1866 44.2433 55.7 44.06C56.25 43.84 56.6716 43.5833 56.965 43.29L57.405 43.62C56.1583 45.8933 54.6733 47.6167 52.95 48.79C51.2633 49.9633 49.0633 50.55 46.35 50.55C44.4433 50.55 42.665 50.2017 41.015 49.505C39.4016 48.8083 38.0083 47.855 36.835 46.645C35.6983 45.3983 34.8 43.95 34.14 42.3C33.48 40.65 33.15 38.8717 33.15 36.965C33.15 35.1317 33.425 33.3717 33.975 31.685C34.5616 29.9983 35.3866 28.5133 36.45 27.23C37.55 25.9467 38.87 24.92 40.41 24.15C41.95 23.38 43.6916 22.995 45.635 22.995C47.395 22.995 48.99 23.27 50.42 23.82C51.8866 24.3333 53.115 25.1033 54.105 26.13C55.1316 27.12 55.92 28.33 56.47 29.76C57.02 31.19 57.295 32.785 57.295 34.545V35.865L41.51 36.525ZM49.925 30.145C49.925 29.5217 49.7966 28.8617 49.54 28.165C49.32 27.4683 48.99 26.845 48.55 26.295C48.11 25.7083 47.5966 25.2317 47.01 24.865C46.4233 24.4983 45.7816 24.315 45.085 24.315C44.2783 24.315 43.6183 24.645 43.105 25.305C42.5916 25.965 42.1883 26.7533 41.895 27.67C41.6016 28.55 41.3816 29.4667 41.235 30.42C41.125 31.3733 41.07 32.125 41.07 32.675C41.07 33.4817 41.125 34.3067 41.235 35.15C41.9683 35.0767 42.7016 34.985 43.435 34.875C44.1683 34.765 44.9016 34.655 45.635 34.545C46.8816 34.3617 47.9083 33.9217 48.715 33.225C49.5216 32.5283 49.925 31.5017 49.925 30.145ZM109.104 28.275C109.177 28.1283 109.416 27.9083 109.819 27.615C110.259 27.3217 110.772 26.9733 111.359 26.57C111.982 26.1667 112.624 25.7633 113.284 25.36C113.981 24.92 114.622 24.535 115.209 24.205C115.832 23.8383 116.364 23.545 116.804 23.325C117.244 23.105 117.519 22.995 117.629 22.995C118.876 22.995 119.957 23.2333 120.874 23.71C121.791 24.1867 122.542 24.8283 123.129 25.635C123.752 26.4417 124.211 27.3767 124.504 28.44C124.834 29.5033 124.999 30.6033 124.999 31.74V42.52C124.999 43.1433 125.036 43.8217 125.109 44.555C125.182 45.2883 125.311 46.0033 125.494 46.7C125.677 47.3967 125.952 48.0383 126.319 48.625C126.722 49.2117 127.217 49.67 127.804 50H114.219C114.806 49.67 115.282 49.2117 115.649 48.625C116.016 48.0017 116.291 47.36 116.474 46.7C116.657 46.0033 116.786 45.2883 116.859 44.555C116.932 43.8217 116.969 43.1433 116.969 42.52V31.96C116.969 31.41 116.914 30.8417 116.804 30.255C116.694 29.6683 116.511 29.1367 116.254 28.66C115.997 28.1833 115.631 27.7983 115.154 27.505C114.714 27.2117 114.164 27.065 113.504 27.065C112.844 27.065 112.276 27.2117 111.799 27.505C111.322 27.7983 110.919 28.1833 110.589 28.66C110.259 29.1 110.002 29.6133 109.819 30.2C109.672 30.7867 109.581 31.3733 109.544 31.96V42.52C109.544 43.1433 109.581 43.8217 109.654 44.555C109.727 45.2883 109.856 46.0033 110.039 46.7C110.222 47.3967 110.497 48.0383 110.864 48.625C111.267 49.2117 111.762 49.67 112.349 50H98.7641C99.3508 49.67 99.8274 49.2117 100.194 48.625C100.561 48.0017 100.836 47.36 101.019 46.7C101.202 46.0033 101.331 45.2883 101.404 44.555C101.477 43.8217 101.514 43.1433 101.514 42.52V31.96C101.514 31.41 101.459 30.8417 101.349 30.255C101.239 29.6683 101.056 29.1367 100.799 28.66C100.542 28.1833 100.176 27.7983 99.6991 27.505C99.2591 27.2117 98.7091 27.065 98.0491 27.065C96.9124 27.065 96.0324 27.4683 95.4091 28.275C94.7858 29.045 94.3824 29.9433 94.1991 30.97V43.455C94.1991 45.8383 93.5758 47.8183 92.3291 49.395C91.1191 50.935 89.5791 52.1633 87.7091 53.08C85.8391 53.9967 83.8041 54.62 81.6041 54.95C79.4408 55.3167 77.4058 55.5 75.4991 55.5C73.7024 55.5 71.7958 55.3533 69.7791 55.06C67.7991 54.7667 65.9658 54.2167 64.2791 53.41C62.5924 52.6033 61.1808 51.485 60.0441 50.055C58.9441 48.625 58.3941 46.7917 58.3941 44.555C58.3941 43.015 58.8708 41.6583 59.8241 40.485C60.8141 39.275 62.0058 38.23 63.3991 37.35C64.8291 36.4333 66.3141 35.645 67.8541 34.985C69.4308 34.325 70.8058 33.775 71.9791 33.335V31.025C71.9791 30.5483 71.9791 29.9433 71.9791 29.21C71.9791 28.44 71.9058 27.7067 71.7591 27.01C71.6124 26.2767 71.3558 25.6533 70.9891 25.14C70.6591 24.59 70.1274 24.315 69.3941 24.315C68.9908 24.315 68.6241 24.425 68.2941 24.645C67.9641 24.865 67.6708 25.14 67.4141 25.47C67.1941 25.8 67.0108 26.1667 66.8641 26.57C66.7541 26.9367 66.6991 27.3033 66.6991 27.67C66.6991 28.2933 66.9008 28.7883 67.3041 29.155C67.7074 29.5217 68.2208 29.6867 68.8441 29.65C68.4408 31.0067 67.7441 32.2167 66.7541 33.28C65.7641 34.3067 64.4991 34.82 62.9591 34.82C61.7858 34.82 60.8874 34.3983 60.2641 33.555C59.6774 32.675 59.3841 31.7033 59.3841 30.64C59.3841 29.2467 59.7141 28.0733 60.3741 27.12C61.0708 26.1667 61.9324 25.3783 62.9591 24.755C64.0224 24.1317 65.1774 23.6917 66.4241 23.435C67.7074 23.1417 68.9174 22.995 70.0541 22.995C71.4474 22.995 72.7491 23.1967 73.9591 23.6C75.1691 23.9667 76.2141 24.535 77.0941 25.305C78.0108 26.075 78.7258 27.0283 79.2391 28.165C79.7524 29.265 80.0091 30.5483 80.0091 32.015V44.665C80.0091 44.9217 80.0274 45.2517 80.0641 45.655C80.1008 46.0217 80.1741 46.3883 80.2841 46.755C80.3941 47.1217 80.5591 47.4333 80.7791 47.69C81.0358 47.9467 81.3474 48.075 81.7141 48.075C82.1174 48.075 82.4841 47.965 82.8141 47.745V48.295C81.8974 48.9917 81.0541 49.5417 80.2841 49.945C79.5141 50.3483 78.5241 50.55 77.3141 50.55C76.7274 50.55 76.1041 50.44 75.4441 50.22C74.8208 50.0367 74.2524 49.7617 73.7391 49.395C73.2258 49.0283 72.8041 48.57 72.4741 48.02C72.1441 47.47 71.9791 46.865 71.9791 46.205V34.71C68.3124 36.8 66.4791 40.0083 66.4791 44.335C66.4791 45.8017 66.7174 47.14 67.1941 48.35C67.7074 49.5233 68.4041 50.5317 69.2841 51.375C70.1641 52.2183 71.2091 52.86 72.4191 53.3C73.6291 53.7767 74.9491 54.015 76.3791 54.015C77.9924 54.015 79.4041 53.7217 80.6141 53.135C81.8241 52.585 82.8324 51.815 83.6391 50.825C84.4824 49.835 85.1058 48.68 85.5091 47.36C85.9491 46.04 86.1691 44.61 86.1691 43.07V34.71C86.1691 33.94 86.0958 33.2433 85.9491 32.62C85.8024 31.96 85.6008 31.355 85.3441 30.805C85.0874 30.255 84.7574 29.7233 84.3541 29.21C83.9874 28.66 83.5658 28.0917 83.0891 27.505C84.3724 27.285 85.4541 27.0833 86.3341 26.9C87.2508 26.68 88.0941 26.4233 88.8641 26.13C89.6708 25.8 90.4774 25.4333 91.2841 25.03C92.1274 24.59 93.0991 24.0583 94.1991 23.435V27.725C94.4558 27.4683 94.9874 27.0833 95.7941 26.57C96.6008 26.0567 97.4441 25.5433 98.3241 25.03C99.2408 24.48 100.066 24.0033 100.799 23.6C101.569 23.1967 102.027 22.995 102.174 22.995C104.081 22.995 105.602 23.545 106.739 24.645C107.912 25.7083 108.719 27.0467 109.159 28.66L109.104 28.275ZM138.888 42.52C138.888 43.1433 138.907 43.8217 138.943 44.555C139.017 45.2883 139.145 46.0033 139.328 46.7C139.548 47.3967 139.842 48.0383 140.208 48.625C140.575 49.2117 141.07 49.67 141.693 50H128.053C128.677 49.67 129.172 49.2117 129.538 48.625C129.905 48.0383 130.18 47.3967 130.363 46.7C130.547 46.0033 130.675 45.2883 130.748 44.555C130.822 43.8217 130.858 43.1433 130.858 42.52V22.28C130.858 21.51 130.785 20.8133 130.638 20.19C130.492 19.53 130.29 18.925 130.033 18.375C129.777 17.825 129.447 17.2933 129.043 16.78C128.677 16.23 128.255 15.6617 127.778 15.075C129.062 14.855 130.143 14.6533 131.023 14.47C131.94 14.25 132.783 13.9933 133.553 13.7C134.36 13.4067 135.167 13.0583 135.973 12.655C136.817 12.215 137.788 11.665 138.888 11.005V42.52ZM150.489 36.525C150.746 37.6617 151.131 38.7433 151.644 39.77C152.158 40.76 152.799 41.64 153.569 42.41C154.339 43.1433 155.238 43.73 156.264 44.17C157.328 44.61 158.519 44.83 159.839 44.83C160.243 44.83 160.719 44.8117 161.269 44.775C161.856 44.7017 162.443 44.61 163.029 44.5C163.616 44.39 164.166 44.2433 164.679 44.06C165.229 43.84 165.651 43.5833 165.944 43.29L166.384 43.62C165.138 45.8933 163.653 47.6167 161.929 48.79C160.243 49.9633 158.043 50.55 155.329 50.55C153.423 50.55 151.644 50.2017 149.994 49.505C148.381 48.8083 146.988 47.855 145.814 46.645C144.678 45.3983 143.779 43.95 143.119 42.3C142.459 40.65 142.129 38.8717 142.129 36.965C142.129 35.1317 142.404 33.3717 142.954 31.685C143.541 29.9983 144.366 28.5133 145.429 27.23C146.529 25.9467 147.849 24.92 149.389 24.15C150.929 23.38 152.671 22.995 154.614 22.995C156.374 22.995 157.969 23.27 159.399 23.82C160.866 24.3333 162.094 25.1033 163.084 26.13C164.111 27.12 164.899 28.33 165.449 29.76C165.999 31.19 166.274 32.785 166.274 34.545V35.865L150.489 36.525ZM158.904 30.145C158.904 29.5217 158.776 28.8617 158.519 28.165C158.299 27.4683 157.969 26.845 157.529 26.295C157.089 25.7083 156.576 25.2317 155.989 24.865C155.403 24.4983 154.761 24.315 154.064 24.315C153.258 24.315 152.598 24.645 152.084 25.305C151.571 25.965 151.168 26.7533 150.874 27.67C150.581 28.55 150.361 29.4667 150.214 30.42C150.104 31.3733 150.049 32.125 150.049 32.675C150.049 33.4817 150.104 34.3067 150.214 35.15C150.948 35.0767 151.681 34.985 152.414 34.875C153.148 34.765 153.881 34.655 154.614 34.545C155.861 34.3617 156.888 33.9217 157.694 33.225C158.501 32.5283 158.904 31.5017 158.904 30.145ZM177.824 50.55C176.797 50.55 175.66 50.4217 174.414 50.165C173.204 49.9083 172.067 49.505 171.004 48.955C169.94 48.405 169.042 47.69 168.309 46.81C167.612 45.8933 167.264 44.7933 167.264 43.51C167.264 42.3 167.594 41.255 168.254 40.375C168.95 39.495 169.94 39.055 171.224 39.055C172.47 39.055 173.479 39.5317 174.249 40.485C175.055 41.4017 175.569 42.41 175.789 43.51C175.129 43.51 174.579 43.73 174.139 44.17C173.735 44.61 173.534 45.16 173.534 45.82C173.534 46.37 173.662 46.865 173.919 47.305C174.175 47.745 174.505 48.1117 174.909 48.405C175.349 48.6617 175.825 48.8633 176.339 49.01C176.852 49.1567 177.347 49.23 177.824 49.23C178.41 49.23 178.997 49.1567 179.584 49.01C180.17 48.8633 180.702 48.6433 181.179 48.35C181.655 48.02 182.04 47.6167 182.334 47.14C182.627 46.6267 182.774 46.0217 182.774 45.325C182.774 44.3717 182.407 43.5833 181.674 42.96C180.977 42.3 180.097 41.695 179.034 41.145C177.97 40.5583 176.815 39.99 175.569 39.44C174.322 38.8533 173.167 38.1933 172.104 37.46C171.04 36.69 170.142 35.7733 169.409 34.71C168.712 33.6467 168.364 32.345 168.364 30.805C168.364 29.4117 168.712 28.2383 169.409 27.285C170.142 26.295 171.04 25.4883 172.104 24.865C173.167 24.205 174.34 23.7283 175.624 23.435C176.944 23.1417 178.172 22.995 179.309 22.995C180.335 22.995 181.435 23.1233 182.609 23.38C183.819 23.6 184.919 23.985 185.909 24.535C186.935 25.085 187.779 25.8 188.439 26.68C189.099 27.5233 189.429 28.5867 189.429 29.87C189.429 31.0067 189.099 31.905 188.439 32.565C187.815 33.225 186.935 33.555 185.799 33.555C184.625 33.555 183.654 33.2067 182.884 32.51C182.114 31.8133 181.564 30.9333 181.234 29.87C181.857 29.87 182.334 29.6867 182.664 29.32C182.994 28.9167 183.159 28.4217 183.159 27.835C183.159 26.735 182.737 25.8733 181.894 25.25C181.05 24.6267 180.115 24.315 179.089 24.315C177.879 24.315 176.87 24.7 176.064 25.47C175.257 26.2033 174.854 27.175 174.854 28.385C174.854 29.3017 175.22 30.09 175.954 30.75C176.724 31.41 177.659 32.0333 178.759 32.62C179.895 33.17 181.105 33.72 182.389 34.27C183.709 34.82 184.919 35.48 186.019 36.25C187.155 37.02 188.09 37.9367 188.824 39C189.594 40.0267 189.979 41.2917 189.979 42.795C189.979 44.2983 189.557 45.5633 188.714 46.59C187.907 47.58 186.899 48.3683 185.689 48.955C184.479 49.5417 183.159 49.945 181.729 50.165C180.335 50.4217 179.034 50.55 177.824 50.55ZM201.671 50.55C200.645 50.55 199.508 50.4217 198.261 50.165C197.051 49.9083 195.915 49.505 194.851 48.955C193.788 48.405 192.89 47.69 192.156 46.81C191.46 45.8933 191.111 44.7933 191.111 43.51C191.111 42.3 191.441 41.255 192.101 40.375C192.798 39.495 193.788 39.055 195.071 39.055C196.318 39.055 197.326 39.5317 198.096 40.485C198.903 41.4017 199.416 42.41 199.636 43.51C198.976 43.51 198.426 43.73 197.986 44.17C197.583 44.61 197.381 45.16 197.381 45.82C197.381 46.37 197.51 46.865 197.766 47.305C198.023 47.745 198.353 48.1117 198.756 48.405C199.196 48.6617 199.673 48.8633 200.186 49.01C200.7 49.1567 201.195 49.23 201.671 49.23C202.258 49.23 202.845 49.1567 203.431 49.01C204.018 48.8633 204.55 48.6433 205.026 48.35C205.503 48.02 205.888 47.6167 206.181 47.14C206.475 46.6267 206.621 46.0217 206.621 45.325C206.621 44.3717 206.255 43.5833 205.521 42.96C204.825 42.3 203.945 41.695 202.881 41.145C201.818 40.5583 200.663 39.99 199.416 39.44C198.17 38.8533 197.015 38.1933 195.951 37.46C194.888 36.69 193.99 35.7733 193.256 34.71C192.56 33.6467 192.211 32.345 192.211 30.805C192.211 29.4117 192.56 28.2383 193.256 27.285C193.99 26.295 194.888 25.4883 195.951 24.865C197.015 24.205 198.188 23.7283 199.471 23.435C200.791 23.1417 202.02 22.995 203.156 22.995C204.183 22.995 205.283 23.1233 206.456 23.38C207.666 23.6 208.766 23.985 209.756 24.535C210.783 25.085 211.626 25.8 212.286 26.68C212.946 27.5233 213.276 28.5867 213.276 29.87C213.276 31.0067 212.946 31.905 212.286 32.565C211.663 33.225 210.783 33.555 209.646 33.555C208.473 33.555 207.501 33.2067 206.731 32.51C205.961 31.8133 205.411 30.9333 205.081 29.87C205.705 29.87 206.181 29.6867 206.511 29.32C206.841 28.9167 207.006 28.4217 207.006 27.835C207.006 26.735 206.585 25.8733 205.741 25.25C204.898 24.6267 203.963 24.315 202.936 24.315C201.726 24.315 200.718 24.7 199.911 25.47C199.105 26.2033 198.701 27.175 198.701 28.385C198.701 29.3017 199.068 30.09 199.801 30.75C200.571 31.41 201.506 32.0333 202.606 32.62C203.743 33.17 204.953 33.72 206.236 34.27C207.556 34.82 208.766 35.48 209.866 36.25C211.003 37.02 211.938 37.9367 212.671 39C213.441 40.0267 213.826 41.2917 213.826 42.795C213.826 44.2983 213.405 45.5633 212.561 46.59C211.755 47.58 210.746 48.3683 209.536 48.955C208.326 49.5417 207.006 49.945 205.576 50.165C204.183 50.4217 202.881 50.55 201.671 50.55ZM227.968 54.73V34.655C227.968 33.885 227.894 33.1883 227.748 32.565C227.601 31.905 227.399 31.3 227.143 30.75C226.886 30.2 226.556 29.6683 226.153 29.155C225.786 28.605 225.364 28.0367 224.888 27.45C226.171 27.23 227.253 27.0283 228.133 26.845C229.049 26.625 229.893 26.3683 230.663 26.075C231.469 25.7817 232.276 25.4333 233.083 25.03C233.926 24.59 234.898 24.0583 235.998 23.435V27.395C236.474 26.845 236.969 26.3133 237.483 25.8C238.033 25.25 238.564 24.755 239.078 24.315C239.628 23.875 240.159 23.5267 240.673 23.27C241.223 22.9767 241.718 22.83 242.158 22.83C244.064 22.83 245.751 23.1967 247.218 23.93C248.684 24.6633 249.913 25.6533 250.903 26.9C251.929 28.11 252.699 29.5217 253.213 31.135C253.726 32.7483 253.983 34.435 253.983 36.195C253.983 38.065 253.708 39.8617 253.158 41.585C252.608 43.3083 251.783 44.83 250.683 46.15C249.619 47.47 248.299 48.5333 246.723 49.34C245.183 50.11 243.423 50.495 241.443 50.495C240.196 50.495 239.188 50.4033 238.418 50.22C237.648 50.0733 236.841 49.8533 235.998 49.56V54.73C235.998 55.3533 236.016 56.0317 236.053 56.765C236.126 57.4983 236.254 58.195 236.438 58.855C236.658 59.5517 236.951 60.1933 237.318 60.78C237.684 61.3667 238.161 61.8433 238.748 62.21H225.163C225.786 61.8433 226.281 61.3667 226.648 60.78C227.014 60.1933 227.289 59.5517 227.473 58.855C227.656 58.195 227.784 57.4983 227.858 56.765C227.931 56.0317 227.968 55.3533 227.968 54.73ZM235.998 28.055V41.97C235.998 42.6667 236.053 43.4367 236.163 44.28C236.273 45.1233 236.493 45.9117 236.823 46.645C237.153 47.3417 237.593 47.9283 238.143 48.405C238.729 48.8817 239.481 49.12 240.398 49.12C241.534 49.12 242.488 48.8083 243.258 48.185C244.028 47.525 244.633 46.7183 245.073 45.765C245.549 44.8117 245.879 43.8033 246.063 42.74C246.283 41.64 246.393 40.6317 246.393 39.715C246.393 38.285 246.209 36.855 245.843 35.425C245.476 33.995 244.908 32.7117 244.138 31.575C243.368 30.4017 242.378 29.4667 241.168 28.77C239.994 28.0367 238.601 27.67 236.988 27.67C236.731 27.67 236.401 27.7983 235.998 28.055ZM279.289 48.295C278.812 48.625 278.372 48.9367 277.969 49.23C277.565 49.5233 277.162 49.7617 276.759 49.945C276.355 50.1283 275.915 50.275 275.439 50.385C274.962 50.495 274.412 50.55 273.789 50.55C272.799 50.55 271.809 50.2933 270.819 49.78C269.829 49.23 269.132 48.4783 268.729 47.525C267.885 48.4783 266.859 49.23 265.649 49.78C264.439 50.2933 263.045 50.55 261.469 50.55C259.525 50.55 257.93 50.0917 256.684 49.175C255.474 48.2583 254.869 46.755 254.869 44.665C254.869 43.235 255.4 41.9883 256.464 40.925C257.564 39.8617 258.847 38.89 260.314 38.01C261.817 37.13 263.32 36.2867 264.824 35.48C266.364 34.6367 267.574 33.7383 268.454 32.785V31.025C268.454 30.5483 268.454 29.9433 268.454 29.21C268.454 28.44 268.38 27.7067 268.234 27.01C268.087 26.2767 267.83 25.6533 267.464 25.14C267.134 24.59 266.602 24.315 265.869 24.315C265.465 24.315 265.099 24.425 264.769 24.645C264.439 24.865 264.145 25.14 263.889 25.47C263.669 25.8 263.485 26.1667 263.339 26.57C263.229 26.9367 263.174 27.3033 263.174 27.67C263.174 28.33 263.375 28.825 263.779 29.155C264.182 29.485 264.695 29.65 265.319 29.65C264.915 31.0067 264.219 32.2167 263.229 33.28C262.239 34.3067 260.974 34.82 259.434 34.82C258.26 34.82 257.362 34.3983 256.739 33.555C256.152 32.675 255.859 31.7033 255.859 30.64C255.859 29.2467 256.189 28.0733 256.849 27.12C257.545 26.1667 258.407 25.3783 259.434 24.755C260.497 24.1317 261.652 23.6917 262.899 23.435C264.182 23.1417 265.392 22.995 266.529 22.995C267.922 22.995 269.224 23.1967 270.434 23.6C271.644 23.9667 272.689 24.535 273.569 25.305C274.485 26.075 275.2 27.0283 275.714 28.165C276.227 29.265 276.484 30.5483 276.484 32.015V44.665C276.484 44.9217 276.502 45.2517 276.539 45.655C276.575 46.0217 276.649 46.3883 276.759 46.755C276.869 47.1217 277.034 47.4333 277.254 47.69C277.51 47.9467 277.822 48.075 278.189 48.075C278.592 48.075 278.959 47.965 279.289 47.745V48.295ZM268.454 34.71C267.94 35.1867 267.354 35.7 266.694 36.25C266.07 36.8 265.484 37.3867 264.934 38.01C264.384 38.5967 263.907 39.2383 263.504 39.935C263.137 40.6317 262.954 41.3833 262.954 42.19C262.954 42.7767 262.99 43.3633 263.064 43.95C263.174 44.5 263.339 44.995 263.559 45.435C263.815 45.875 264.164 46.2417 264.604 46.535C265.044 46.7917 265.612 46.92 266.309 46.92C267.115 46.92 267.83 46.7367 268.454 46.37V34.71ZM288.458 50L283.453 37.515C283.123 36.6717 282.683 35.535 282.133 34.105C281.583 32.675 280.978 31.2267 280.318 29.76C279.658 28.2933 278.925 26.9733 278.118 25.8C277.348 24.59 276.542 23.8017 275.698 23.435H290.878C289.962 23.7283 289.283 24.2783 288.843 25.085C288.403 25.8917 288.183 26.7717 288.183 27.725C288.183 28.495 288.422 29.6317 288.898 31.135C289.375 32.6383 289.925 34.215 290.548 35.865C291.208 37.515 291.85 39.11 292.473 40.65C293.133 42.1533 293.647 43.3267 294.013 44.17C294.417 43.1433 294.838 42.08 295.278 40.98C295.755 39.8433 296.177 38.7067 296.543 37.57C296.947 36.3967 297.277 35.2233 297.533 34.05C297.79 32.8767 297.918 31.74 297.918 30.64C297.918 28.88 297.533 27.395 296.763 26.185C295.993 24.975 294.783 24.0583 293.133 23.435H305.893C305.05 23.8017 304.225 24.59 303.418 25.8C302.648 27.01 301.915 28.3483 301.218 29.815C300.558 31.245 299.953 32.6933 299.403 34.16C298.853 35.59 298.413 36.745 298.083 37.625L293.133 50C292.657 51.21 292.125 52.5117 291.538 53.905C290.988 55.2983 290.31 56.6 289.503 57.81C288.733 59.02 287.798 60.0283 286.698 60.835C285.598 61.6417 284.26 62.045 282.683 62.045C281.84 62.045 281.033 61.935 280.263 61.715C279.53 61.5317 278.87 61.22 278.283 60.78C277.733 60.3767 277.293 59.845 276.963 59.185C276.633 58.525 276.468 57.7367 276.468 56.82C276.468 56.3433 276.542 55.7933 276.688 55.17C276.835 54.5833 277.055 54.0333 277.348 53.52C277.678 53.0067 278.063 52.5667 278.503 52.2C278.943 51.87 279.457 51.705 280.043 51.705C280.043 53.025 280.465 53.9967 281.308 54.62C282.188 55.2433 283.233 55.555 284.443 55.555C284.957 55.555 285.58 55.4633 286.313 55.28C287.047 55.0967 287.743 54.8217 288.403 54.455C289.1 54.125 289.687 53.7033 290.163 53.19C290.64 52.6767 290.878 52.09 290.878 51.43C290.878 50.8433 290.585 50.4583 289.998 50.275C289.412 50.0917 288.898 50 288.458 50ZM330.825 28.275C330.898 28.1283 331.136 27.9083 331.54 27.615C331.98 27.3217 332.493 26.9733 333.08 26.57C333.703 26.1667 334.345 25.7633 335.005 25.36C335.701 24.92 336.343 24.535 336.93 24.205C337.553 23.8383 338.085 23.545 338.525 23.325C338.965 23.105 339.24 22.995 339.35 22.995C340.596 22.995 341.678 23.2333 342.595 23.71C343.511 24.1867 344.263 24.8283 344.85 25.635C345.473 26.4417 345.931 27.3767 346.225 28.44C346.555 29.5033 346.72 30.6033 346.72 31.74V42.52C346.72 43.1433 346.756 43.8217 346.83 44.555C346.903 45.2883 347.031 46.0033 347.215 46.7C347.398 47.3967 347.673 48.0383 348.04 48.625C348.443 49.2117 348.938 49.67 349.525 50H335.94C336.526 49.67 337.003 49.2117 337.37 48.625C337.736 48.0017 338.011 47.36 338.195 46.7C338.378 46.0033 338.506 45.2883 338.58 44.555C338.653 43.8217 338.69 43.1433 338.69 42.52V31.96C338.69 31.41 338.635 30.8417 338.525 30.255C338.415 29.6683 338.231 29.1367 337.975 28.66C337.718 28.1833 337.351 27.7983 336.875 27.505C336.435 27.2117 335.885 27.065 335.225 27.065C334.565 27.065 333.996 27.2117 333.52 27.505C333.043 27.7983 332.64 28.1833 332.31 28.66C331.98 29.1 331.723 29.6133 331.54 30.2C331.393 30.7867 331.301 31.3733 331.265 31.96V42.52C331.265 43.1433 331.301 43.8217 331.375 44.555C331.448 45.2883 331.576 46.0033 331.76 46.7C331.943 47.3967 332.218 48.0383 332.585 48.625C332.988 49.2117 333.483 49.67 334.07 50H320.485C321.071 49.67 321.548 49.2117 321.915 48.625C322.281 48.0017 322.556 47.36 322.74 46.7C322.923 46.0033 323.051 45.2883 323.125 44.555C323.198 43.8217 323.235 43.1433 323.235 42.52V31.96C323.235 31.41 323.18 30.8417 323.07 30.255C322.96 29.6683 322.776 29.1367 322.52 28.66C322.263 28.1833 321.896 27.7983 321.42 27.505C320.98 27.2117 320.43 27.065 319.77 27.065C318.633 27.065 317.753 27.4683 317.13 28.275C316.506 29.045 316.103 29.9433 315.92 30.97V42.52C315.92 43.1433 315.938 43.8217 315.975 44.555C316.048 45.2883 316.176 46.0033 316.36 46.7C316.543 47.3967 316.818 48.0383 317.185 48.625C317.551 49.2117 318.046 49.67 318.67 50H305.085C305.671 49.67 306.148 49.2117 306.515 48.625C306.881 48.0017 307.156 47.36 307.34 46.7C307.56 46.0033 307.706 45.2883 307.78 44.555C307.853 43.8217 307.89 43.1433 307.89 42.52V34.71C307.89 33.94 307.816 33.2433 307.67 32.62C307.523 31.96 307.321 31.355 307.065 30.805C306.808 30.255 306.478 29.7233 306.075 29.21C305.708 28.66 305.286 28.0917 304.81 27.505C306.093 27.285 307.175 27.0833 308.055 26.9C308.971 26.68 309.815 26.4233 310.585 26.13C311.391 25.8367 312.198 25.4883 313.005 25.085C313.848 24.645 314.82 24.095 315.92 23.435V27.725C316.176 27.4683 316.708 27.0833 317.515 26.57C318.321 26.0567 319.165 25.5433 320.045 25.03C320.961 24.48 321.786 24.0033 322.52 23.6C323.29 23.1967 323.748 22.995 323.895 22.995C325.801 22.995 327.323 23.545 328.46 24.645C329.633 25.7083 330.44 27.0467 330.88 28.66L330.825 28.275ZM358.351 36.525C358.607 37.6617 358.992 38.7433 359.506 39.77C360.019 40.76 360.661 41.64 361.431 42.41C362.201 43.1433 363.099 43.73 364.126 44.17C365.189 44.61 366.381 44.83 367.701 44.83C368.104 44.83 368.581 44.8117 369.131 44.775C369.717 44.7017 370.304 44.61 370.891 44.5C371.477 44.39 372.027 44.2433 372.541 44.06C373.091 43.84 373.512 43.5833 373.806 43.29L374.246 43.62C372.999 45.8933 371.514 47.6167 369.791 48.79C368.104 49.9633 365.904 50.55 363.191 50.55C361.284 50.55 359.506 50.2017 357.856 49.505C356.242 48.8083 354.849 47.855 353.676 46.645C352.539 45.3983 351.641 43.95 350.981 42.3C350.321 40.65 349.991 38.8717 349.991 36.965C349.991 35.1317 350.266 33.3717 350.816 31.685C351.402 29.9983 352.227 28.5133 353.291 27.23C354.391 25.9467 355.711 24.92 357.251 24.15C358.791 23.38 360.532 22.995 362.476 22.995C364.236 22.995 365.831 23.27 367.261 23.82C368.727 24.3333 369.956 25.1033 370.946 26.13C371.972 27.12 372.761 28.33 373.311 29.76C373.861 31.19 374.136 32.785 374.136 34.545V35.865L358.351 36.525ZM366.766 30.145C366.766 29.5217 366.637 28.8617 366.381 28.165C366.161 27.4683 365.831 26.845 365.391 26.295C364.951 25.7083 364.437 25.2317 363.851 24.865C363.264 24.4983 362.622 24.315 361.926 24.315C361.119 24.315 360.459 24.645 359.946 25.305C359.432 25.965 359.029 26.7533 358.736 27.67C358.442 28.55 358.222 29.4667 358.076 30.42C357.966 31.3733 357.911 32.125 357.911 32.675C357.911 33.4817 357.966 34.3067 358.076 35.15C358.809 35.0767 359.542 34.985 360.276 34.875C361.009 34.765 361.742 34.655 362.476 34.545C363.722 34.3617 364.749 33.9217 365.556 33.225C366.362 32.5283 366.766 31.5017 366.766 30.145ZM388.655 50H375.07C375.657 49.67 376.133 49.2117 376.5 48.625C376.867 48.0017 377.142 47.36 377.325 46.7C377.545 46.0033 377.692 45.2883 377.765 44.555C377.838 43.8217 377.875 43.1433 377.875 42.52V34.71C377.875 33.94 377.802 33.2433 377.655 32.62C377.508 31.96 377.307 31.355 377.05 30.805C376.793 30.255 376.463 29.7233 376.06 29.21C375.693 28.66 375.272 28.0917 374.795 27.505C376.078 27.285 377.16 27.0833 378.04 26.9C378.957 26.68 379.8 26.4233 380.57 26.13C381.377 25.8367 382.183 25.4883 382.99 25.085C383.833 24.645 384.805 24.095 385.905 23.435V27.725C386.162 27.4683 386.693 27.0833 387.5 26.57C388.307 26.0567 389.15 25.5433 390.03 25.03C390.947 24.48 391.772 24.0033 392.505 23.6C393.275 23.1967 393.733 22.995 393.88 22.995C395.127 22.995 396.208 23.2333 397.125 23.71C398.042 24.1867 398.793 24.8283 399.38 25.635C400.003 26.4417 400.462 27.3767 400.755 28.44C401.085 29.5033 401.25 30.6033 401.25 31.74V42.52C401.25 43.1433 401.287 43.8217 401.36 44.555C401.433 45.2883 401.562 46.0033 401.745 46.7C401.928 47.3967 402.203 48.0383 402.57 48.625C402.973 49.2117 403.468 49.67 404.055 50H390.47C391.057 49.67 391.533 49.2117 391.9 48.625C392.267 48.0017 392.542 47.36 392.725 46.7C392.908 46.0033 393.037 45.2883 393.11 44.555C393.183 43.8217 393.22 43.1433 393.22 42.52V31.96C393.22 31.41 393.165 30.8417 393.055 30.255C392.945 29.6683 392.762 29.1367 392.505 28.66C392.248 28.1833 391.882 27.7983 391.405 27.505C390.965 27.2117 390.415 27.065 389.755 27.065C388.618 27.065 387.738 27.4683 387.115 28.275C386.492 29.045 386.088 29.9433 385.905 30.97V42.52C385.905 43.1433 385.923 43.8217 385.96 44.555C386.033 45.2883 386.162 46.0033 386.345 46.7C386.528 47.3967 386.803 48.0383 387.17 48.625C387.537 49.2117 388.032 49.67 388.655 50ZM413.993 23.435H419.713V24.755H413.993V44.225C413.993 45.2883 414.341 46.0583 415.038 46.535C415.771 46.975 416.615 47.195 417.568 47.195C418.081 47.195 418.576 47.14 419.053 47.03C419.566 46.92 420.043 46.7367 420.483 46.48V47.03C419.383 48.0567 418.1 48.9 416.633 49.56C415.203 50.22 413.718 50.55 412.178 50.55C411.078 50.55 410.125 50.3483 409.318 49.945C408.548 49.5417 407.906 49.01 407.393 48.35C406.916 47.6533 406.55 46.865 406.293 45.985C406.073 45.0683 405.963 44.115 405.963 43.125V24.755H403.268V23.93C404.551 23.82 405.706 23.6 406.733 23.27C407.76 22.94 408.676 22.5 409.483 21.95C410.29 21.3633 410.986 20.63 411.573 19.75C412.196 18.87 412.728 17.8067 413.168 16.56H413.993V23.435ZM11 93.435H16.72V94.755H11V114.225C11 115.288 11.3483 116.058 12.045 116.535C12.7783 116.975 13.6217 117.195 14.575 117.195C15.0883 117.195 15.5833 117.14 16.06 117.03C16.5733 116.92 17.05 116.737 17.49 116.48V117.03C16.39 118.057 15.1067 118.9 13.64 119.56C12.21 120.22 10.725 120.55 9.185 120.55C8.085 120.55 7.13167 120.348 6.325 119.945C5.555 119.542 4.91333 119.01 4.4 118.35C3.92333 117.653 3.55667 116.865 3.3 115.985C3.08 115.068 2.97 114.115 2.97 113.125V94.755H0.275V93.93C1.55833 93.82 2.71333 93.6 3.74 93.27C4.76667 92.94 5.68333 92.5 6.49 91.95C7.29667 91.3633 7.99333 90.63 8.58 89.75C9.20333 88.87 9.735 87.8067 10.175 86.56H11V93.435ZM28.8883 99.485C29.255 98.715 29.695 97.945 30.2083 97.175C30.7583 96.3683 31.3633 95.6717 32.0233 95.085C32.72 94.4617 33.4717 93.9667 34.2783 93.6C35.1217 93.1967 36.0017 92.995 36.9183 92.995C38.4217 92.995 39.595 93.5083 40.4383 94.535C41.3183 95.525 41.7583 96.735 41.7583 98.165C41.7583 99.0817 41.575 99.925 41.2083 100.695C40.8783 101.465 40.4017 102.107 39.7783 102.62C39.1917 103.133 38.495 103.537 37.6883 103.83C36.9183 104.123 36.075 104.27 35.1583 104.27C35.2317 104.05 35.2867 103.83 35.3233 103.61C35.36 103.39 35.3783 103.152 35.3783 102.895C35.3783 101.942 35.0483 101.153 34.3883 100.53C33.765 99.87 32.9767 99.54 32.0233 99.54C31.6567 99.54 31.29 99.6317 30.9233 99.815C30.5567 99.9617 30.2083 100.182 29.8783 100.475C29.585 100.732 29.3467 101.043 29.1633 101.41C28.98 101.74 28.8883 102.107 28.8883 102.51V112.52C28.8883 113.143 28.9067 113.822 28.9433 114.555C29.0167 115.288 29.145 116.003 29.3283 116.7C29.5483 117.397 29.8417 118.038 30.2083 118.625C30.575 119.212 31.0517 119.67 31.6383 120H18.0533C18.64 119.67 19.1167 119.212 19.4833 118.625C19.85 118.002 20.125 117.36 20.3083 116.7C20.5283 116.003 20.675 115.288 20.7483 114.555C20.8217 113.822 20.8583 113.143 20.8583 112.52V104.71C20.8583 103.94 20.785 103.243 20.6383 102.62C20.4917 101.96 20.29 101.355 20.0333 100.805C19.7767 100.255 19.4467 99.7233 19.0433 99.21C18.6767 98.66 18.255 98.0917 17.7783 97.505C19.0617 97.285 20.1433 97.0833 21.0233 96.9C21.94 96.68 22.7833 96.4233 23.5533 96.13C24.36 95.8367 25.1667 95.4883 25.9733 95.085C26.8167 94.645 27.7883 94.095 28.8883 93.435V99.485ZM46.1033 92.995C47.4967 92.995 48.7983 93.1967 50.0083 93.6C51.2183 93.9667 52.2633 94.535 53.1433 95.305C54.06 96.075 54.775 97.0283 55.2883 98.165C55.8017 99.265 56.0583 100.548 56.0583 102.015V114.665C56.0583 114.922 56.0767 115.252 56.1133 115.655C56.15 116.022 56.2233 116.388 56.3333 116.755C56.4433 117.122 56.6083 117.433 56.8283 117.69C57.085 117.947 57.3967 118.075 57.7633 118.075C58.1667 118.075 58.5333 117.965 58.8633 117.745V118.295C58.3867 118.625 57.9467 118.937 57.5433 119.23C57.14 119.523 56.7367 119.762 56.3333 119.945C55.93 120.128 55.49 120.275 55.0133 120.385C54.5367 120.495 53.9867 120.55 53.3633 120.55C52.3733 120.55 51.3833 120.293 50.3933 119.78C49.4033 119.267 48.7067 118.533 48.3033 117.58C47.46 118.533 46.4333 119.267 45.2233 119.78C44.05 120.293 42.6567 120.55 41.0433 120.55C39.1 120.55 37.505 120.092 36.2583 119.175C35.0483 118.258 34.4433 116.755 34.4433 114.665C34.4433 113.235 34.975 111.988 36.0383 110.925C37.1383 109.862 38.4217 108.89 39.8883 108.01C41.3917 107.13 42.895 106.287 44.3983 105.48C45.9383 104.637 47.1483 103.738 48.0283 102.785C48.0283 102.345 48.0467 101.612 48.0833 100.585C48.12 99.5217 48.0833 98.4767 47.9733 97.45C47.9 96.3867 47.6983 95.47 47.3683 94.7C47.0383 93.8933 46.4883 93.49 45.7183 93.49L46.1033 92.995ZM48.0283 116.37V104.71C47.515 105.187 46.9283 105.7 46.2683 106.25C45.645 106.8 45.0583 107.387 44.5083 108.01C43.9583 108.597 43.4817 109.238 43.0783 109.935C42.7117 110.632 42.5283 111.383 42.5283 112.19C42.5283 112.777 42.565 113.363 42.6383 113.95C42.7483 114.5 42.9133 114.995 43.1333 115.435C43.39 115.875 43.7383 116.242 44.1783 116.535C44.6183 116.792 45.1867 116.92 45.8833 116.92C46.69 116.92 47.405 116.737 48.0283 116.37ZM72.9957 120H59.4107C59.9974 119.67 60.4741 119.212 60.8407 118.625C61.2074 118.002 61.4824 117.36 61.6657 116.7C61.8857 116.003 62.0324 115.288 62.1057 114.555C62.1791 113.822 62.2157 113.143 62.2157 112.52V104.71C62.2157 103.94 62.1424 103.243 61.9957 102.62C61.8491 101.96 61.6474 101.355 61.3907 100.805C61.1341 100.255 60.8041 99.7233 60.4007 99.21C60.0341 98.66 59.6124 98.0917 59.1357 97.505C60.4191 97.285 61.5007 97.0833 62.3807 96.9C63.2974 96.68 64.1407 96.4233 64.9107 96.13C65.7174 95.8367 66.5241 95.4883 67.3307 95.085C68.1741 94.645 69.1457 94.095 70.2457 93.435V97.725C70.5024 97.4683 71.0341 97.0833 71.8407 96.57C72.6474 96.0567 73.4907 95.5433 74.3707 95.03C75.2874 94.48 76.1124 94.0033 76.8457 93.6C77.6157 93.1967 78.0741 92.995 78.2207 92.995C79.4674 92.995 80.5491 93.2333 81.4657 93.71C82.3824 94.1867 83.1341 94.8283 83.7207 95.635C84.3441 96.4417 84.8024 97.3767 85.0957 98.44C85.4257 99.5033 85.5907 100.603 85.5907 101.74V112.52C85.5907 113.143 85.6274 113.822 85.7007 114.555C85.7741 115.288 85.9024 116.003 86.0857 116.7C86.2691 117.397 86.5441 118.038 86.9107 118.625C87.3141 119.212 87.8091 119.67 88.3957 120H74.8107C75.3974 119.67 75.8741 119.212 76.2407 118.625C76.6074 118.002 76.8824 117.36 77.0657 116.7C77.2491 116.003 77.3774 115.288 77.4507 114.555C77.5241 113.822 77.5607 113.143 77.5607 112.52V101.96C77.5607 101.41 77.5057 100.842 77.3957 100.255C77.2857 99.6683 77.1024 99.1367 76.8457 98.66C76.5891 98.1833 76.2224 97.7983 75.7457 97.505C75.3057 97.2117 74.7557 97.065 74.0957 97.065C72.9591 97.065 72.0791 97.4683 71.4557 98.275C70.8324 99.045 70.4291 99.9433 70.2457 100.97V112.52C70.2457 113.143 70.2641 113.822 70.3007 114.555C70.3741 115.288 70.5024 116.003 70.6857 116.7C70.8691 117.397 71.1441 118.038 71.5107 118.625C71.8774 119.212 72.3724 119.67 72.9957 120ZM98.7611 120.55C97.7344 120.55 96.5978 120.422 95.3511 120.165C94.1411 119.908 93.0044 119.505 91.9411 118.955C90.8778 118.405 89.9794 117.69 89.2461 116.81C88.5494 115.893 88.2011 114.793 88.2011 113.51C88.2011 112.3 88.5311 111.255 89.1911 110.375C89.8878 109.495 90.8778 109.055 92.1611 109.055C93.4078 109.055 94.4161 109.532 95.1861 110.485C95.9928 111.402 96.5061 112.41 96.7261 113.51C96.0661 113.51 95.5161 113.73 95.0761 114.17C94.6728 114.61 94.4711 115.16 94.4711 115.82C94.4711 116.37 94.5994 116.865 94.8561 117.305C95.1128 117.745 95.4428 118.112 95.8461 118.405C96.2861 118.662 96.7628 118.863 97.2761 119.01C97.7894 119.157 98.2844 119.23 98.7611 119.23C99.3478 119.23 99.9344 119.157 100.521 119.01C101.108 118.863 101.639 118.643 102.116 118.35C102.593 118.02 102.978 117.617 103.271 117.14C103.564 116.627 103.711 116.022 103.711 115.325C103.711 114.372 103.344 113.583 102.611 112.96C101.914 112.3 101.034 111.695 99.9711 111.145C98.9078 110.558 97.7528 109.99 96.5061 109.44C95.2594 108.853 94.1044 108.193 93.0411 107.46C91.9778 106.69 91.0794 105.773 90.3461 104.71C89.6494 103.647 89.3011 102.345 89.3011 100.805C89.3011 99.4117 89.6494 98.2383 90.3461 97.285C91.0794 96.295 91.9778 95.4883 93.0411 94.865C94.1044 94.205 95.2778 93.7283 96.5611 93.435C97.8811 93.1417 99.1094 92.995 100.246 92.995C101.273 92.995 102.373 93.1233 103.546 93.38C104.756 93.6 105.856 93.985 106.846 94.535C107.873 95.085 108.716 95.8 109.376 96.68C110.036 97.5233 110.366 98.5867 110.366 99.87C110.366 101.007 110.036 101.905 109.376 102.565C108.753 103.225 107.873 103.555 106.736 103.555C105.563 103.555 104.591 103.207 103.821 102.51C103.051 101.813 102.501 100.933 102.171 99.87C102.794 99.87 103.271 99.6867 103.601 99.32C103.931 98.9167 104.096 98.4217 104.096 97.835C104.096 96.735 103.674 95.8733 102.831 95.25C101.988 94.6267 101.053 94.315 100.026 94.315C98.8161 94.315 97.8078 94.7 97.0011 95.47C96.1944 96.2033 95.7911 97.175 95.7911 98.385C95.7911 99.3017 96.1578 100.09 96.8911 100.75C97.6611 101.41 98.5961 102.033 99.6961 102.62C100.833 103.17 102.043 103.72 103.326 104.27C104.646 104.82 105.856 105.48 106.956 106.25C108.093 107.02 109.028 107.937 109.761 109C110.531 110.027 110.916 111.292 110.916 112.795C110.916 114.298 110.494 115.563 109.651 116.59C108.844 117.58 107.836 118.368 106.626 118.955C105.416 119.542 104.096 119.945 102.666 120.165C101.273 120.422 99.9711 120.55 98.7611 120.55ZM136.579 118.295C136.102 118.625 135.662 118.937 135.259 119.23C134.855 119.523 134.452 119.762 134.049 119.945C133.645 120.128 133.205 120.275 132.729 120.385C132.252 120.495 131.702 120.55 131.079 120.55C130.089 120.55 129.099 120.293 128.109 119.78C127.119 119.23 126.422 118.478 126.019 117.525C125.175 118.478 124.149 119.23 122.939 119.78C121.729 120.293 120.335 120.55 118.759 120.55C116.815 120.55 115.22 120.092 113.974 119.175C112.764 118.258 112.159 116.755 112.159 114.665C112.159 113.235 112.69 111.988 113.754 110.925C114.854 109.862 116.137 108.89 117.604 108.01C119.107 107.13 120.61 106.287 122.114 105.48C123.654 104.637 124.864 103.738 125.744 102.785V101.025C125.744 100.548 125.744 99.9433 125.744 99.21C125.744 98.44 125.67 97.7067 125.524 97.01C125.377 96.2767 125.12 95.6533 124.754 95.14C124.424 94.59 123.892 94.315 123.159 94.315C122.755 94.315 122.389 94.425 122.059 94.645C121.729 94.865 121.435 95.14 121.179 95.47C120.959 95.8 120.775 96.1667 120.629 96.57C120.519 96.9367 120.464 97.3033 120.464 97.67C120.464 98.33 120.665 98.825 121.069 99.155C121.472 99.485 121.985 99.65 122.609 99.65C122.205 101.007 121.509 102.217 120.519 103.28C119.529 104.307 118.264 104.82 116.724 104.82C115.55 104.82 114.652 104.398 114.029 103.555C113.442 102.675 113.149 101.703 113.149 100.64C113.149 99.2467 113.479 98.0733 114.139 97.12C114.835 96.1667 115.697 95.3783 116.724 94.755C117.787 94.1317 118.942 93.6917 120.189 93.435C121.472 93.1417 122.682 92.995 123.819 92.995C125.212 92.995 126.514 93.1967 127.724 93.6C128.934 93.9667 129.979 94.535 130.859 95.305C131.775 96.075 132.49 97.0283 133.004 98.165C133.517 99.265 133.774 100.548 133.774 102.015V114.665C133.774 114.922 133.792 115.252 133.829 115.655C133.865 116.022 133.939 116.388 134.049 116.755C134.159 117.122 134.324 117.433 134.544 117.69C134.8 117.947 135.112 118.075 135.479 118.075C135.882 118.075 136.249 117.965 136.579 117.745V118.295ZM125.744 104.71C125.23 105.187 124.644 105.7 123.984 106.25C123.36 106.8 122.774 107.387 122.224 108.01C121.674 108.597 121.197 109.238 120.794 109.935C120.427 110.632 120.244 111.383 120.244 112.19C120.244 112.777 120.28 113.363 120.354 113.95C120.464 114.5 120.629 114.995 120.849 115.435C121.105 115.875 121.454 116.242 121.894 116.535C122.334 116.792 122.902 116.92 123.599 116.92C124.405 116.92 125.12 116.737 125.744 116.37V104.71ZM149.175 92.995C148.699 91.9683 148.46 90.96 148.46 89.97C148.46 88.21 148.845 86.7067 149.615 85.46C150.422 84.2133 151.449 83.205 152.695 82.435C153.979 81.6283 155.39 81.0417 156.93 80.675C158.507 80.3083 160.047 80.125 161.55 80.125C163.64 80.125 165.364 80.3267 166.72 80.73C168.114 81.0967 169.214 81.7017 170.02 82.545C170.864 83.3883 171.45 84.5067 171.78 85.9C172.11 87.2567 172.275 88.925 172.275 90.905V93.435H177.995V94.755H172.275V114.225C172.275 115.288 172.624 116.058 173.32 116.535C174.054 116.975 174.897 117.195 175.85 117.195C176.364 117.195 176.859 117.14 177.335 117.03C177.849 116.92 178.325 116.737 178.765 116.48V117.03C177.665 118.057 176.382 118.9 174.915 119.56C173.485 120.22 172 120.55 170.46 120.55C169.36 120.55 168.407 120.348 167.6 119.945C166.83 119.542 166.189 119.01 165.675 118.35C165.199 117.653 164.832 116.865 164.575 115.985C164.355 115.068 164.245 114.115 164.245 113.125V94.755H161.55V93.93C162.467 93.82 163.42 93.6 164.41 93.27C165.4 92.94 166.299 92.5 167.105 91.95C167.949 91.3633 168.627 90.6667 169.14 89.86C169.69 89.0167 169.965 88.0633 169.965 87C169.965 85.9 169.69 84.9833 169.14 84.25C168.59 83.5167 167.894 82.93 167.05 82.49C166.244 82.05 165.345 81.7383 164.355 81.555C163.365 81.3717 162.43 81.28 161.55 81.28C160.487 81.28 159.387 81.4817 158.25 81.885C157.114 82.2517 156.069 82.8017 155.115 83.535C154.199 84.2317 153.429 85.075 152.805 86.065C152.219 87.0183 151.925 88.1 151.925 89.31C151.925 90.1533 152.054 90.9417 152.31 91.675C152.604 92.3717 153.099 92.995 153.795 93.545C154.785 93.8017 155.72 94.205 156.6 94.755C157.48 95.305 158.269 95.965 158.965 96.735C159.662 97.505 160.212 98.3667 160.615 99.32C161.019 100.273 161.22 101.282 161.22 102.345C161.22 103.812 160.817 104.985 160.01 105.865C159.204 106.708 158.049 107.13 156.545 107.13C154.859 107.13 153.539 106.672 152.585 105.755C151.632 104.802 150.917 103.555 150.44 102.015C151.357 102.015 152.2 101.813 152.97 101.41C153.74 101.007 154.125 100.273 154.125 99.21C154.125 98.5867 153.979 97.9817 153.685 97.395C153.429 96.8083 153.062 96.295 152.585 95.855C152.145 95.3783 151.632 95.0117 151.045 94.755C150.459 94.4617 149.854 94.315 149.23 94.315C148.46 94.315 147.837 94.6267 147.36 95.25C146.884 95.8367 146.499 96.5517 146.205 97.395C145.949 98.2383 145.765 99.1 145.655 99.98C145.545 100.86 145.49 101.575 145.49 102.125C145.49 103.665 145.692 105.205 146.095 106.745C146.499 108.248 147.104 109.605 147.91 110.815C148.754 112.025 149.817 112.997 151.1 113.73C152.384 114.463 153.905 114.83 155.665 114.83C156.069 114.83 156.545 114.812 157.095 114.775C157.682 114.702 158.269 114.61 158.855 114.5C159.442 114.39 159.992 114.243 160.505 114.06C161.055 113.84 161.477 113.583 161.77 113.29L162.21 113.62C159.644 118.24 155.739 120.55 150.495 120.55C148.589 120.55 146.81 120.202 145.16 119.505C143.547 118.808 142.154 117.855 140.98 116.645C139.844 115.398 138.945 113.95 138.285 112.3C137.625 110.65 137.295 108.872 137.295 106.965C137.295 105.205 137.552 103.5 138.065 101.85C138.615 100.2 139.404 98.7333 140.43 97.45C141.457 96.1667 142.704 95.1217 144.17 94.315C145.637 93.5083 147.305 93.0683 149.175 92.995ZM185.619 92.17C184.519 92.17 183.565 91.785 182.759 91.015C181.989 90.2083 181.604 89.255 181.604 88.155C181.604 87.055 181.989 86.12 182.759 85.35C183.565 84.5433 184.519 84.14 185.619 84.14C186.719 84.14 187.654 84.5433 188.424 85.35C189.23 86.12 189.634 87.055 189.634 88.155C189.634 89.255 189.23 90.2083 188.424 91.015C187.654 91.785 186.719 92.17 185.619 92.17ZM192.879 120H179.294C179.88 119.67 180.357 119.212 180.724 118.625C181.09 118.002 181.365 117.36 181.549 116.7C181.769 116.003 181.915 115.288 181.989 114.555C182.062 113.822 182.099 113.143 182.099 112.52V104.71C182.099 103.94 182.025 103.243 181.879 102.62C181.732 101.96 181.53 101.355 181.274 100.805C181.017 100.255 180.687 99.7233 180.284 99.21C179.917 98.66 179.495 98.0917 179.019 97.505C180.302 97.285 181.384 97.0833 182.264 96.9C183.18 96.68 184.024 96.4233 184.794 96.13C185.6 95.8367 186.407 95.4883 187.214 95.085C188.057 94.645 189.029 94.095 190.129 93.435V112.52C190.129 113.143 190.147 113.822 190.184 114.555C190.257 115.288 190.385 116.003 190.569 116.7C190.752 117.397 191.027 118.038 191.394 118.625C191.76 119.212 192.255 119.67 192.879 120ZM206.626 92.995C208.533 92.995 210.293 93.3617 211.906 94.095C213.519 94.8283 214.913 95.8367 216.086 97.12C217.296 98.3667 218.231 99.8333 218.891 101.52C219.551 103.17 219.881 104.93 219.881 106.8C219.881 108.67 219.551 110.448 218.891 112.135C218.231 113.785 217.296 115.233 216.086 116.48C214.913 117.727 213.519 118.717 211.906 119.45C210.293 120.183 208.533 120.55 206.626 120.55C204.719 120.55 202.941 120.183 201.291 119.45C199.678 118.717 198.284 117.727 197.111 116.48C195.938 115.233 195.003 113.785 194.306 112.135C193.646 110.448 193.316 108.67 193.316 106.8C193.316 104.93 193.646 103.17 194.306 101.52C195.003 99.8333 195.938 98.3667 197.111 97.12C198.284 95.8367 199.678 94.8283 201.291 94.095C202.941 93.3617 204.719 92.995 206.626 92.995ZM208.386 119.065C209.229 119.065 209.889 118.753 210.366 118.13C210.843 117.507 211.209 116.773 211.466 115.93C211.723 115.05 211.888 114.152 211.961 113.235C212.034 112.318 212.071 111.585 212.071 111.035C212.071 110.338 212.016 109.44 211.906 108.34C211.796 107.24 211.613 106.085 211.356 104.875C211.099 103.665 210.769 102.455 210.366 101.245C209.999 99.9983 209.523 98.8983 208.936 97.945C208.349 96.955 207.671 96.1483 206.901 95.525C206.168 94.9017 205.306 94.59 204.316 94.59C203.546 94.59 202.941 94.8833 202.501 95.47C202.061 96.0567 201.731 96.7533 201.511 97.56C201.291 98.3667 201.144 99.1917 201.071 100.035C201.034 100.878 201.016 101.557 201.016 102.07C201.016 102.73 201.071 103.61 201.181 104.71C201.291 105.773 201.456 106.947 201.676 108.23C201.933 109.477 202.244 110.742 202.611 112.025C203.014 113.308 203.491 114.482 204.041 115.545C204.591 116.572 205.214 117.415 205.911 118.075C206.644 118.735 207.469 119.065 208.386 119.065ZM234.182 120H220.597C221.184 119.67 221.661 119.212 222.027 118.625C222.394 118.002 222.669 117.36 222.852 116.7C223.072 116.003 223.219 115.288 223.292 114.555C223.366 113.822 223.402 113.143 223.402 112.52V104.71C223.402 103.94 223.329 103.243 223.182 102.62C223.036 101.96 222.834 101.355 222.577 100.805C222.321 100.255 221.991 99.7233 221.587 99.21C221.221 98.66 220.799 98.0917 220.322 97.505C221.606 97.285 222.687 97.0833 223.567 96.9C224.484 96.68 225.327 96.4233 226.097 96.13C226.904 95.8367 227.711 95.4883 228.517 95.085C229.361 94.645 230.332 94.095 231.432 93.435V97.725C231.689 97.4683 232.221 97.0833 233.027 96.57C233.834 96.0567 234.677 95.5433 235.557 95.03C236.474 94.48 237.299 94.0033 238.032 93.6C238.802 93.1967 239.261 92.995 239.407 92.995C240.654 92.995 241.736 93.2333 242.652 93.71C243.569 94.1867 244.321 94.8283 244.907 95.635C245.531 96.4417 245.989 97.3767 246.282 98.44C246.612 99.5033 246.777 100.603 246.777 101.74V112.52C246.777 113.143 246.814 113.822 246.887 114.555C246.961 115.288 247.089 116.003 247.272 116.7C247.456 117.397 247.731 118.038 248.097 118.625C248.501 119.212 248.996 119.67 249.582 120H235.997C236.584 119.67 237.061 119.212 237.427 118.625C237.794 118.002 238.069 117.36 238.252 116.7C238.436 116.003 238.564 115.288 238.637 114.555C238.711 113.822 238.747 113.143 238.747 112.52V101.96C238.747 101.41 238.692 100.842 238.582 100.255C238.472 99.6683 238.289 99.1367 238.032 98.66C237.776 98.1833 237.409 97.7983 236.932 97.505C236.492 97.2117 235.942 97.065 235.282 97.065C234.146 97.065 233.266 97.4683 232.642 98.275C232.019 99.045 231.616 99.9433 231.432 100.97V112.52C231.432 113.143 231.451 113.822 231.487 114.555C231.561 115.288 231.689 116.003 231.872 116.7C232.056 117.397 232.331 118.038 232.697 118.625C233.064 119.212 233.559 119.67 234.182 120ZM268.146 107.515C267.816 106.672 267.376 105.535 266.826 104.105C266.276 102.675 265.671 101.227 265.011 99.76C264.351 98.2933 263.617 96.9733 262.811 95.8C262.041 94.59 261.234 93.8017 260.391 93.435H275.571C274.654 93.7283 273.976 94.2783 273.536 95.085C273.096 95.8917 272.876 96.7717 272.876 97.725C272.876 98.495 273.114 99.6317 273.591 101.135C274.067 102.638 274.617 104.215 275.241 105.865C275.901 107.515 276.542 109.11 277.166 110.65C277.826 112.153 278.339 113.327 278.706 114.17C279.109 113.143 279.531 112.08 279.971 110.98C280.447 109.843 280.869 108.707 281.236 107.57C281.639 106.397 281.969 105.223 282.226 104.05C282.482 102.877 282.611 101.74 282.611 100.64V100.2C282.391 99.6867 282.097 99.1 281.731 98.44C281.401 97.7433 281.034 97.065 280.631 96.405C280.227 95.745 279.769 95.14 279.256 94.59C278.779 94.04 278.284 93.655 277.771 93.435H292.951C292.034 93.7283 291.356 94.2783 290.916 95.085C290.476 95.8917 290.256 96.7717 290.256 97.725C290.256 98.495 290.494 99.6317 290.971 101.135C291.447 102.638 291.997 104.215 292.621 105.865C293.281 107.515 293.922 109.11 294.546 110.65C295.206 112.153 295.719 113.327 296.086 114.17C296.489 113.143 296.911 112.08 297.351 110.98C297.827 109.843 298.249 108.707 298.616 107.57C299.019 106.397 299.331 105.242 299.551 104.105C299.807 102.932 299.936 101.777 299.936 100.64C299.936 99.2833 299.752 98.2017 299.386 97.395C299.056 96.5517 298.616 95.8733 298.066 95.36C297.516 94.81 296.929 94.3517 296.306 93.985C295.719 93.5817 295.151 93.16 294.601 92.72C294.051 92.28 293.592 91.7483 293.226 91.125C292.896 90.465 292.731 89.6217 292.731 88.595C292.731 87.0917 293.134 85.8083 293.941 84.745C294.747 83.645 295.756 82.765 296.966 82.105C298.176 81.4083 299.477 80.9133 300.871 80.62C302.301 80.29 303.639 80.125 304.886 80.125C306.096 80.125 307.397 80.2717 308.791 80.565C310.221 80.8217 311.541 81.2617 312.751 81.885C313.961 82.5083 314.969 83.3333 315.776 84.36C316.582 85.3867 316.986 86.6517 316.986 88.155C316.986 89.255 316.582 90.2083 315.776 91.015C315.006 91.785 314.071 92.17 312.971 92.17C311.871 92.17 310.917 91.785 310.111 91.015C309.341 90.2083 308.956 89.255 308.956 88.155C308.956 87.055 309.341 86.12 310.111 85.35C310.917 84.5433 311.871 84.14 312.971 84.14C312.494 83.59 311.926 83.1317 311.266 82.765C310.642 82.3983 309.964 82.1233 309.231 81.94C308.534 81.7567 307.801 81.6283 307.031 81.555C306.297 81.4817 305.582 81.445 304.886 81.445C303.822 81.445 302.759 81.61 301.696 81.94C300.669 82.2333 299.752 82.6917 298.946 83.315C298.139 83.9383 297.479 84.7083 296.966 85.625C296.489 86.5417 296.251 87.5867 296.251 88.76C296.251 89.6767 296.434 90.5567 296.801 91.4C297.204 92.2067 297.772 92.885 298.506 93.435H307.966C307.122 93.8017 306.297 94.59 305.491 95.8C304.721 97.01 303.987 98.3483 303.291 99.815C302.631 101.282 302.026 102.748 301.476 104.215C300.926 105.645 300.486 106.782 300.156 107.625L295.206 120H290.531C289.467 117.323 288.404 114.665 287.341 112.025C286.277 109.348 285.214 106.672 284.151 103.995C283.124 106.672 282.079 109.348 281.016 112.025C279.952 114.665 278.889 117.323 277.826 120H273.151L268.146 107.515ZM306.371 97.505C307.654 97.285 308.736 97.0833 309.616 96.9C310.532 96.68 311.376 96.4233 312.146 96.13C312.952 95.8367 313.759 95.4883 314.566 95.085C315.409 94.645 316.381 94.095 317.481 93.435V112.52C317.481 113.143 317.499 113.822 317.536 114.555C317.609 115.288 317.737 116.003 317.921 116.7C318.104 117.397 318.379 118.038 318.746 118.625C319.112 119.212 319.607 119.67 320.231 120H306.646C307.232 119.67 307.709 119.212 308.076 118.625C308.442 118.002 308.717 117.36 308.901 116.7C309.121 116.003 309.267 115.288 309.341 114.555C309.414 113.822 309.451 113.143 309.451 112.52V104.71C309.451 103.94 309.377 103.243 309.231 102.62C309.084 101.96 308.882 101.355 308.626 100.805C308.369 100.255 308.039 99.7233 307.636 99.21C307.269 98.66 306.847 98.0917 306.371 97.505ZM331.225 93.435H336.945V94.755H331.225V114.225C331.225 115.288 331.573 116.058 332.27 116.535C333.003 116.975 333.846 117.195 334.8 117.195C335.313 117.195 335.808 117.14 336.285 117.03C336.798 116.92 337.275 116.737 337.715 116.48V117.03C336.615 118.057 335.331 118.9 333.865 119.56C332.435 120.22 330.95 120.55 329.41 120.55C328.31 120.55 327.356 120.348 326.55 119.945C325.78 119.542 325.138 119.01 324.625 118.35C324.148 117.653 323.781 116.865 323.525 115.985C323.305 115.068 323.195 114.115 323.195 113.125V94.755H320.5V93.93C321.783 93.82 322.938 93.6 323.965 93.27C324.991 92.94 325.908 92.5 326.715 91.95C327.521 91.3633 328.218 90.63 328.805 89.75C329.428 88.87 329.96 87.8067 330.4 86.56H331.225V93.435ZM340.009 92.28C340.009 91.51 339.935 90.8133 339.789 90.19C339.642 89.53 339.44 88.925 339.184 88.375C338.927 87.825 338.597 87.2933 338.194 86.78C337.827 86.23 337.405 85.6617 336.929 85.075C338.982 84.745 340.889 84.25 342.649 83.59C344.445 82.8933 346.242 82.0317 348.039 81.005V97.835C348.149 97.6517 348.607 97.3033 349.414 96.79C350.22 96.24 351.082 95.69 351.999 95.14C352.952 94.59 353.832 94.095 354.639 93.655C355.482 93.215 355.977 92.995 356.124 92.995C357.37 92.995 358.452 93.2333 359.369 93.71C360.285 94.1867 361.037 94.8283 361.624 95.635C362.247 96.4417 362.705 97.3767 362.999 98.44C363.329 99.5033 363.494 100.603 363.494 101.74V112.52C363.494 113.143 363.53 113.822 363.604 114.555C363.677 115.288 363.805 116.003 363.989 116.7C364.172 117.397 364.447 118.038 364.814 118.625C365.217 119.212 365.712 119.67 366.299 120H352.714C353.3 119.67 353.777 119.212 354.144 118.625C354.51 118.002 354.785 117.36 354.969 116.7C355.152 116.003 355.28 115.288 355.354 114.555C355.427 113.822 355.464 113.143 355.464 112.52V101.96C355.464 101.41 355.409 100.842 355.299 100.255C355.189 99.6683 355.005 99.1367 354.749 98.66C354.492 98.1833 354.125 97.7983 353.649 97.505C353.209 97.2117 352.659 97.065 351.999 97.065C351.375 97.065 350.807 97.2117 350.294 97.505C349.817 97.7983 349.414 98.1833 349.084 98.66C348.754 99.1367 348.497 99.6683 348.314 100.255C348.13 100.842 348.039 101.41 348.039 101.96V112.52C348.039 113.143 348.057 113.822 348.094 114.555C348.167 115.288 348.295 116.003 348.479 116.7C348.662 117.397 348.937 118.038 349.304 118.625C349.67 119.212 350.165 119.67 350.789 120H337.204C337.79 119.67 338.267 119.212 338.634 118.625C339 118.002 339.275 117.36 339.459 116.7C339.679 116.003 339.825 115.288 339.899 114.555C339.972 113.822 340.009 113.143 340.009 112.52V92.28Z" fill="white"/>
<path d="M410.599 91.73C410.599 90.19 410.434 88.7233 410.104 87.33C409.774 85.9 409.261 84.5983 408.564 83.425C407.868 82.2517 406.969 81.225 405.869 80.345C404.769 79.465 403.449 78.7867 401.909 78.31H416.099C415.183 78.5667 414.449 78.9333 413.899 79.41C413.386 79.85 412.983 80.3817 412.689 81.005C412.433 81.5917 412.268 82.27 412.194 83.04C412.121 83.81 412.066 84.635 412.029 85.515C411.956 86.5417 411.919 87.5683 411.919 88.595C411.919 89.6217 411.919 90.6667 411.919 91.73V120H407.959L383.429 84.8V106.58C383.429 108.12 383.594 109.605 383.924 111.035C384.254 112.428 384.768 113.712 385.464 114.885C386.161 116.058 387.059 117.085 388.159 117.965C389.259 118.845 390.579 119.523 392.119 120H377.929C378.883 119.743 379.616 119.395 380.129 118.955C380.643 118.478 381.028 117.947 381.284 117.36C381.578 116.737 381.761 116.04 381.834 115.27C381.908 114.5 381.963 113.675 381.999 112.795C382.073 111.768 382.109 110.742 382.109 109.715C382.109 108.688 382.109 107.643 382.109 106.58V85.79C382.109 85.13 382.073 84.4517 381.999 83.755C381.963 83.0217 381.853 82.325 381.669 81.665C381.486 80.9683 381.211 80.3267 380.844 79.74C380.478 79.1533 379.983 78.6767 379.359 78.31H388.489L410.599 109.825V91.73ZM424.63 106.525C424.887 107.662 425.272 108.743 425.785 109.77C426.298 110.76 426.94 111.64 427.71 112.41C428.48 113.143 429.378 113.73 430.405 114.17C431.468 114.61 432.66 114.83 433.98 114.83C434.383 114.83 434.86 114.812 435.41 114.775C435.997 114.702 436.583 114.61 437.17 114.5C437.757 114.39 438.307 114.243 438.82 114.06C439.37 113.84 439.792 113.583 440.085 113.29L440.525 113.62C439.278 115.893 437.793 117.617 436.07 118.79C434.383 119.963 432.183 120.55 429.47 120.55C427.563 120.55 425.785 120.202 424.135 119.505C422.522 118.808 421.128 117.855 419.955 116.645C418.818 115.398 417.92 113.95 417.26 112.3C416.6 110.65 416.27 108.872 416.27 106.965C416.27 105.132 416.545 103.372 417.095 101.685C417.682 99.9983 418.507 98.5133 419.57 97.23C420.67 95.9467 421.99 94.92 423.53 94.15C425.07 93.38 426.812 92.995 428.755 92.995C430.515 92.995 432.11 93.27 433.54 93.82C435.007 94.3333 436.235 95.1033 437.225 96.13C438.252 97.12 439.04 98.33 439.59 99.76C440.14 101.19 440.415 102.785 440.415 104.545V105.865L424.63 106.525ZM433.045 100.145C433.045 99.5217 432.917 98.8617 432.66 98.165C432.44 97.4683 432.11 96.845 431.67 96.295C431.23 95.7083 430.717 95.2317 430.13 94.865C429.543 94.4983 428.902 94.315 428.205 94.315C427.398 94.315 426.738 94.645 426.225 95.305C425.712 95.965 425.308 96.7533 425.015 97.67C424.722 98.55 424.502 99.4667 424.355 100.42C424.245 101.373 424.19 102.125 424.19 102.675C424.19 103.482 424.245 104.307 424.355 105.15C425.088 105.077 425.822 104.985 426.555 104.875C427.288 104.765 428.022 104.655 428.755 104.545C430.002 104.362 431.028 103.922 431.835 103.225C432.642 102.528 433.045 101.502 433.045 100.145ZM458.619 125.5C456.823 125.5 454.916 125.353 452.899 125.06C450.919 124.767 449.086 124.217 447.399 123.41C445.713 122.603 444.301 121.485 443.164 120.055C442.064 118.625 441.514 116.792 441.514 114.555C441.514 113.015 441.991 111.658 442.944 110.485C443.934 109.275 445.126 108.23 446.519 107.35C447.949 106.433 449.434 105.645 450.974 104.985C452.551 104.325 453.926 103.775 455.099 103.335V101.025C455.099 100.548 455.099 99.9433 455.099 99.21C455.099 98.44 455.026 97.7067 454.879 97.01C454.733 96.2767 454.476 95.6533 454.109 95.14C453.779 94.59 453.248 94.315 452.514 94.315C452.111 94.315 451.744 94.425 451.414 94.645C451.084 94.865 450.791 95.14 450.534 95.47C450.314 95.8 450.131 96.1667 449.984 96.57C449.874 96.9367 449.819 97.3033 449.819 97.67C449.819 98.33 450.021 98.825 450.424 99.155C450.828 99.485 451.341 99.65 451.964 99.65C451.561 101.007 450.864 102.217 449.874 103.28C448.884 104.307 447.619 104.82 446.079 104.82C444.906 104.82 444.008 104.398 443.384 103.555C442.798 102.675 442.504 101.703 442.504 100.64C442.504 99.2467 442.834 98.0733 443.494 97.12C444.191 96.1667 445.053 95.3783 446.079 94.755C447.143 94.1317 448.298 93.6917 449.544 93.435C450.828 93.1417 452.038 92.995 453.174 92.995C454.568 92.995 455.869 93.1967 457.079 93.6C458.289 93.9667 459.334 94.535 460.214 95.305C461.131 96.075 461.846 97.0283 462.359 98.165C462.873 99.265 463.129 100.548 463.129 102.015V114.665C463.129 114.922 463.148 115.252 463.184 115.655C463.221 116.022 463.294 116.388 463.404 116.755C463.514 117.122 463.679 117.433 463.899 117.69C464.156 117.947 464.468 118.075 464.834 118.075C465.238 118.075 465.604 117.965 465.934 117.745V118.295C465.018 118.992 464.174 119.542 463.404 119.945C462.634 120.348 461.644 120.55 460.434 120.55C459.848 120.55 459.224 120.44 458.564 120.22C457.941 120.037 457.373 119.762 456.859 119.395C456.346 119.028 455.924 118.57 455.594 118.02C455.264 117.47 455.099 116.865 455.099 116.205V104.71C451.433 106.8 449.599 110.008 449.599 114.335C449.599 115.802 449.838 117.14 450.314 118.35C450.828 119.523 451.524 120.532 452.404 121.375C453.284 122.218 454.329 122.86 455.539 123.3C456.749 123.777 458.069 124.015 459.499 124.015C461.113 124.015 462.524 123.722 463.734 123.135C464.944 122.585 465.953 121.815 466.759 120.825C467.603 119.835 468.226 118.68 468.629 117.36C469.069 116.04 469.289 114.61 469.289 113.07V104.71C469.289 103.94 469.216 103.243 469.069 102.62C468.923 101.96 468.721 101.355 468.464 100.805C468.208 100.255 467.878 99.7233 467.474 99.21C467.108 98.66 466.686 98.0917 466.209 97.505C467.493 97.285 468.574 97.0833 469.454 96.9C470.371 96.68 471.214 96.4233 471.984 96.13C472.791 95.8367 473.598 95.4883 474.404 95.085C475.248 94.645 476.219 94.095 477.319 93.435V99.485C477.686 98.715 478.126 97.945 478.639 97.175C479.189 96.3683 479.794 95.6717 480.454 95.085C481.151 94.4617 481.903 93.9667 482.709 93.6C483.553 93.1967 484.433 92.995 485.349 92.995C486.853 92.995 488.026 93.5083 488.869 94.535C489.749 95.525 490.189 96.735 490.189 98.165C490.189 99.0817 490.006 99.925 489.639 100.695C489.309 101.465 488.833 102.107 488.209 102.62C487.623 103.133 486.926 103.537 486.119 103.83C485.349 104.123 484.506 104.27 483.589 104.27C483.663 104.05 483.718 103.83 483.754 103.61C483.791 103.39 483.809 103.152 483.809 102.895C483.809 101.942 483.479 101.153 482.819 100.53C482.196 99.87 481.408 99.54 480.454 99.54C480.088 99.54 479.721 99.6317 479.354 99.815C478.988 99.9617 478.639 100.182 478.309 100.475C478.016 100.732 477.778 101.043 477.594 101.41C477.411 101.74 477.319 102.107 477.319 102.51V113.455C477.319 115.838 476.696 117.818 475.449 119.395C474.239 120.935 472.699 122.163 470.829 123.08C468.959 123.997 466.924 124.62 464.724 124.95C462.561 125.317 460.526 125.5 458.619 125.5ZM501.598 112.52C501.598 113.143 501.617 113.822 501.653 114.555C501.727 115.288 501.855 116.003 502.038 116.7C502.258 117.397 502.552 118.038 502.918 118.625C503.285 119.212 503.78 119.67 504.403 120H490.763C491.387 119.67 491.882 119.212 492.248 118.625C492.615 118.038 492.89 117.397 493.073 116.7C493.257 116.003 493.385 115.288 493.458 114.555C493.532 113.822 493.568 113.143 493.568 112.52V92.28C493.568 91.51 493.495 90.8133 493.348 90.19C493.202 89.53 493 88.925 492.743 88.375C492.487 87.825 492.157 87.2933 491.753 86.78C491.387 86.23 490.965 85.6617 490.488 85.075C491.772 84.855 492.853 84.6533 493.733 84.47C494.65 84.25 495.493 83.9933 496.263 83.7C497.07 83.4067 497.877 83.0583 498.683 82.655C499.527 82.215 500.498 81.665 501.598 81.005V112.52ZM516.085 120L511.08 107.515C510.75 106.672 510.31 105.535 509.76 104.105C509.21 102.675 508.605 101.227 507.945 99.76C507.285 98.2933 506.552 96.9733 505.745 95.8C504.975 94.59 504.169 93.8017 503.325 93.435H518.505C517.589 93.7283 516.91 94.2783 516.47 95.085C516.03 95.8917 515.81 96.7717 515.81 97.725C515.81 98.495 516.049 99.6317 516.525 101.135C517.002 102.638 517.552 104.215 518.175 105.865C518.835 107.515 519.477 109.11 520.1 110.65C520.76 112.153 521.274 113.327 521.64 114.17C522.044 113.143 522.465 112.08 522.905 110.98C523.382 109.843 523.804 108.707 524.17 107.57C524.574 106.397 524.904 105.223 525.16 104.05C525.417 102.877 525.545 101.74 525.545 100.64C525.545 98.88 525.16 97.395 524.39 96.185C523.62 94.975 522.41 94.0583 520.76 93.435H533.52C532.677 93.8017 531.852 94.59 531.045 95.8C530.275 97.01 529.542 98.3483 528.845 99.815C528.185 101.245 527.58 102.693 527.03 104.16C526.48 105.59 526.04 106.745 525.71 107.625L520.76 120C520.284 121.21 519.752 122.512 519.165 123.905C518.615 125.298 517.937 126.6 517.13 127.81C516.36 129.02 515.425 130.028 514.325 130.835C513.225 131.642 511.887 132.045 510.31 132.045C509.467 132.045 508.66 131.935 507.89 131.715C507.157 131.532 506.497 131.22 505.91 130.78C505.36 130.377 504.92 129.845 504.59 129.185C504.26 128.525 504.095 127.737 504.095 126.82C504.095 126.343 504.169 125.793 504.315 125.17C504.462 124.583 504.682 124.033 504.975 123.52C505.305 123.007 505.69 122.567 506.13 122.2C506.57 121.87 507.084 121.705 507.67 121.705C507.67 123.025 508.092 123.997 508.935 124.62C509.815 125.243 510.86 125.555 512.07 125.555C512.584 125.555 513.207 125.463 513.94 125.28C514.674 125.097 515.37 124.822 516.03 124.455C516.727 124.125 517.314 123.703 517.79 123.19C518.267 122.677 518.505 122.09 518.505 121.43C518.505 120.843 518.212 120.458 517.625 120.275C517.039 120.092 516.525 120 516.085 120Z" fill="#6AF938"/>
</g>
<defs>
<linearGradient id="paint0_linear_4690_33352" x1="543.837" y1="62.358" x2="560.061" y2="74.6287" gradientUnits="userSpaceOnUse">
<stop stop-color="#0C6B8A"/>
<stop offset="1" stop-color="#6AF938"/>
</linearGradient>
<clipPath id="clip0_4690_33352">
<rect width="592" height="133" fill="white"/>
</clipPath>
</defs>
</svg>
