<svg width="55" height="60" viewBox="0 0 55 60" fill="none" xmlns="http://www.w3.org/2000/svg">
<g clip-path="url(#clip0_4764_33655)">
<path d="M23.7959 60.0013C27.1619 60.0013 29.8907 58.4261 29.8907 56.4831C29.8907 54.54 27.1619 52.9648 23.7959 52.9648C20.4299 52.9648 17.7012 54.54 17.7012 56.4831C17.7012 58.4261 20.4299 60.0013 23.7959 60.0013Z" fill="#E0E0E0"/>
<path d="M34.0052 57.4696C37.6152 57.4696 40.5417 55.78 40.5417 53.6958C40.5417 51.6115 37.6152 49.9219 34.0052 49.9219C30.3952 49.9219 27.4688 51.6115 27.4688 53.6958C27.4688 55.78 30.3952 57.4696 34.0052 57.4696Z" fill="#E0E0E0"/>
<path d="M39.9902 4.28125L40.7473 7.67022L43.8607 9.49253L43.0866 6.06806L39.9902 4.28125Z" fill="white"/>
<path opacity="0.2" d="M39.9902 4.28125L40.7473 7.67022L43.8607 9.49253L43.0866 6.06806L39.9902 4.28125Z" fill="black"/>
<path d="M33.2793 21.0007L43.0868 6.06995L39.9905 4.28315L51.7624 0.960938L53.9057 12.3167L50.8178 10.5341L41.0103 25.4635L33.2793 21.0007Z" fill="white"/>
<path opacity="0.2" d="M33.2793 21.0007L43.0868 6.06995L39.9905 4.28315L51.7624 0.960938L53.9057 12.3167L50.8178 10.5341L41.0103 25.4635L33.2793 21.0007Z" fill="white"/>
<path d="M50.8189 10.5312L41.0156 25.4606L42.7513 27.4349L51.6044 13.96L54.6851 15.7397L53.9068 12.3138L50.8189 10.5312Z" fill="white"/>
<path opacity="0.2" d="M50.8189 10.5312L41.0156 25.4606L42.7513 27.4349L51.6044 13.96L54.6851 15.7397L53.9068 12.3138L50.8189 10.5312Z" fill="black"/>
<path d="M35.015 22.9885L33.2793 21.0156L41.0145 25.4642L42.7502 27.4385L35.015 22.9885Z" fill="white"/>
<path opacity="0.4" d="M35.015 22.9885L33.2793 21.0156L41.0145 25.4642L42.7502 27.4385L35.015 22.9885Z" fill="black"/>
<path opacity="0.2" d="M51.6038 13.96L50.8184 10.5312L53.9062 12.3138L54.6846 15.7397L51.6038 13.96Z" fill="black"/>
<path d="M7.73099 59.421L19.1918 42.0174L11.4608 37.5547L0 54.9583L7.73099 59.421Z" fill="white"/>
<path opacity="0.2" d="M7.73099 59.421L19.1918 42.0174L11.4608 37.5547L0 54.9583L7.73099 59.421Z" fill="white"/>
<path d="M19.1913 42.0156L7.73047 59.4192L12.3679 56.7419L20.7267 44.0993L19.1913 42.0156Z" fill="white"/>
<path opacity="0.2" d="M19.1913 42.0156L7.73047 59.4192L12.3679 56.7419L20.7267 44.0993L19.1913 42.0156Z" fill="black"/>
<path d="M39.6412 50.2558C39.6412 51.0767 39.6412 52.1875 39.6412 52.8934C39.6412 53.0468 39.6412 53.2371 39.6412 53.4885C39.529 54.2271 38.9821 54.9501 38.0021 55.5154C35.7863 56.7937 32.1943 56.7937 29.9785 55.5154C28.8422 54.8563 28.2826 53.9842 28.3195 53.1206C28.3195 53.0468 28.3337 52.9701 28.3423 52.8905C28.3423 52.8905 28.3423 52.8905 28.3423 52.882C28.4388 52.0426 28.507 51.2017 28.5539 50.4134C28.6292 49.1621 28.6192 48.611 28.6093 47.9378C28.5965 47.1069 28.2514 46.4549 27.375 45.7177C26.4986 44.9806 24.7559 42.4609 24.7559 42.4609L36.3133 36.5195L39.5986 46.9279C39.5986 46.9279 39.6412 49.4348 39.6412 50.2558Z" fill="#FFA8A7"/>
<path d="M36.4028 34.3636C36.4028 34.3636 36.1854 35.2385 35.1528 34.0795C34.1202 32.9205 32.43 31.1507 30.6489 29.4477C29.7967 28.631 26.3765 25.8812 24.0826 23.8018C23.3511 23.0476 22.3128 22.5235 21.5984 23.0689C20.884 23.6143 20.8882 24.9651 21.3328 25.6326C21.7305 26.2249 22.5827 27.0459 23.2332 27.6353C23.2332 27.6709 23.2261 27.7064 23.2219 27.7419C23.0983 28.8171 22.8781 30.0258 22.7745 31.3283C22.712 32.1052 21.7802 33.0824 21.7887 33.8849C22.0643 35.0212 23.5684 36.2384 24.6294 37.0878C25.6904 37.9372 26.1563 38.2823 26.145 38.5508C26.1265 38.9613 24.4036 37.467 23.638 36.9415C23.6806 39.3803 22.1211 39.6743 22.1211 39.6743C22.3554 40.143 23.6835 41.177 25.574 43.5959C26.3197 44.5518 33.91 38.2681 33.91 38.2681L35.7125 37.1105L36.9808 35.0127L36.4028 34.3636Z" fill="#FFA8A7"/>
<path d="M35.7731 36.5166C35.0629 37.4114 32.2634 40.2663 34.4649 44.0516C34.313 43.9104 34.1751 43.7548 34.053 43.5871C33.7378 43.1676 33.4883 42.7025 33.313 42.2079C33.3059 42.1895 33.3002 42.1724 33.2946 42.154C32.7946 40.7137 32.965 39.2465 33.8982 38.008C34.6325 37.035 35.9691 36.0891 36.1481 35.0394C36.1481 35.0011 36.158 34.9627 36.1608 34.9258C36.1921 35.2553 36.229 35.9456 35.7731 36.5166Z" fill="#F28F8F"/>
<path opacity="0.5" d="M21.1882 23.6094C20.9041 24.2514 20.9907 25.1348 21.3302 25.6348C21.7279 26.2271 22.5801 27.0481 23.2306 27.6375L23.2221 27.7227C23.5062 27.9684 23.8172 28.2298 24.1553 28.5281C24.9706 29.2453 26.0486 30.1714 26.8625 30.8901C27.2701 31.2495 29.2061 32.8076 29.9091 33.434C28.8282 32.248 26.3994 30.0961 25.1779 28.8888C24.2561 27.9812 22.8954 26.7143 22.4537 26.2086C22.012 25.703 21.752 25.3564 21.6015 25.1689C21.4296 24.951 21.3043 24.7002 21.2332 24.432C21.1621 24.1637 21.1468 23.8838 21.1882 23.6094Z" fill="#F28F8F"/>
<path d="M23.2631 40.7252C23.4766 40.6964 23.6819 40.624 23.8664 40.5126C24.0509 40.4012 24.2105 40.2531 24.3354 40.0776C24.6195 39.6046 24.6749 39.2367 24.5982 38.4981C24.5595 38.153 24.4896 37.8122 24.3894 37.4797C24.1366 37.2979 23.8724 37.1019 23.638 36.9414C23.6806 39.3802 22.1211 39.6742 22.1211 39.6742C22.2276 39.8858 22.5586 40.2153 23.0642 40.7366C23.131 40.7352 23.1963 40.7309 23.2631 40.7252Z" fill="#F28F8F"/>
<path d="M22.0148 30.8681C21.9537 30.9235 22.8173 31.7558 22.9082 31.8055C23.2278 31.9845 23.8385 31.7629 24.1027 31.5413C24.2677 31.3976 24.3958 31.2164 24.4763 31.013C24.7604 30.3312 24.6183 29.5514 24.4763 28.8256C24.4727 28.7675 24.4568 28.7109 24.4296 28.6595C24.4024 28.608 24.3646 28.563 24.3186 28.5273C24.3016 28.908 23.9664 29.0728 23.7192 29.3014L23.0091 29.9534L22.0148 30.8681Z" fill="#F28F8F"/>
<path d="M23.9778 31.3164L28.4973 35.8786L23.2207 31.4556L23.9778 31.3164Z" fill="#F28F8F"/>
<path d="M23.3616 35.2157C23.5804 35.1433 23.7801 35.0223 23.9454 34.8616C24.1107 34.701 24.2374 34.5049 24.316 34.2882C24.4453 33.9175 24.424 33.5141 24.3984 33.1221C24.3944 32.7882 24.3378 32.457 24.2308 32.1406L22.1173 32.8593C21.9327 33.213 21.7835 33.5695 21.7892 33.8848C21.9014 34.3464 22.1954 34.8137 22.6088 35.2626C22.8599 35.3054 23.1176 35.2894 23.3616 35.2157Z" fill="#F28F8F"/>
<path d="M22.7979 27.6048C23.7268 27.5196 24.2182 27.9273 24.4227 28.761C24.5073 29.235 24.5073 29.7202 24.4227 30.1942C24.3347 30.8134 23.7495 31.5563 22.9939 31.4455H22.9569C21.7354 31.2466 21.5977 30.5933 21.5977 29.5323C21.5977 28.4713 21.9712 27.6801 22.7979 27.6048Z" fill="#FFA8A7"/>
<path opacity="0.5" d="M23.8944 27.8516C23.9625 27.9098 24.356 28.2961 24.3602 29.3642C24.3602 30.5318 23.7779 30.7732 23.1302 30.8783C22.4825 30.9834 21.6133 30.5786 21.6133 30.002C21.6687 30.7874 21.9286 31.2803 22.9584 31.4479H22.9953C23.7509 31.5587 24.3361 30.8158 24.4242 30.1966C24.5087 29.7226 24.5087 29.2374 24.4242 28.7634C24.3574 28.4077 24.1703 28.0858 23.8944 27.8516Z" fill="#F28F8F"/>
<path d="M22.8192 31.3266C23.6714 31.2485 24.1131 31.6206 24.3034 32.3819C24.3799 32.8151 24.3799 33.2583 24.3034 33.6915C24.2239 34.2596 23.687 34.9357 22.9981 34.8278H22.964C21.8491 34.646 21.7227 34.0466 21.7227 33.0808C21.7227 32.1149 22.0635 31.3948 22.8192 31.3266Z" fill="#FFA8A7"/>
<path opacity="0.5" d="M24.0034 31.7305C24.1227 31.908 24.2093 32.3455 24.1454 33.0088C24.0531 33.8766 23.8614 34.297 23.11 34.3524C22.3245 34.4078 21.8416 34.0442 21.7578 33.6621C21.8331 34.2928 22.0987 34.6919 22.9722 34.8339H23.0063C23.6952 34.9362 24.2321 34.2658 24.3116 33.6977C24.3881 33.2645 24.3881 32.8213 24.3116 32.3881C24.2578 32.1491 24.1526 31.9247 24.0034 31.7305Z" fill="#F28F8F"/>
<path d="M22.865 36.5799C23.7457 36.5004 24.4047 36.918 24.4047 37.6765V39.0357C24.4055 39.2065 24.3696 39.3754 24.2994 39.5311C24.2292 39.6868 24.1264 39.8255 23.9979 39.938C23.8694 40.0505 23.7182 40.134 23.5546 40.183C23.3911 40.2319 23.2188 40.2451 23.0497 40.2217H23.0156C21.858 40.0328 21.8722 38.9761 21.858 38.4207C21.8438 37.8654 22.081 36.6524 22.865 36.5799Z" fill="#FFA8A7"/>
<path opacity="0.5" d="M23.9766 36.8203C24.3615 37.2223 24.211 38.0418 24.1825 38.85C24.1612 39.411 23.8701 39.8755 23.1031 39.8755C22.3361 39.8755 21.9924 39.4082 21.8887 38.9494C21.9526 39.4792 22.1727 40.0772 23.0164 40.215H23.0505C23.2197 40.2384 23.3919 40.2251 23.5555 40.1762C23.7191 40.1272 23.8702 40.0437 23.9987 39.9312C24.1272 39.8188 24.2301 39.68 24.3002 39.5243C24.3704 39.3687 24.4063 39.1997 24.4055 39.029V37.6725C24.4106 37.506 24.374 37.3409 24.2991 37.1921C24.2242 37.0432 24.1133 36.9155 23.9766 36.8203Z" fill="#F28F8F"/>
<path d="M13.1016 36.3108L32.0477 21.9453L39.7843 26.4095L20.8326 40.775L13.1016 36.3108Z" fill="white"/>
<path d="M39.7838 26.4102L41.5195 28.383L22.3674 42.8579L20.832 40.7756L39.7838 26.4102Z" fill="white"/>
<path opacity="0.2" d="M39.7838 26.4102L41.5195 28.383L22.3674 42.8579L20.832 40.7756L39.7838 26.4102Z" fill="black"/>
<path d="M13.1016 36.3125L14.637 38.3962L22.368 42.8589L20.8326 40.7767L13.1016 36.3125Z" fill="white"/>
<path opacity="0.4" d="M13.1016 36.3125L14.637 38.3962L22.368 42.8589L20.8326 40.7767L13.1016 36.3125Z" fill="black"/>
<path d="M39.6002 46.9262C39.6047 44.5689 39.7646 42.2146 40.0788 39.8784C40.4126 37.5476 40.3473 35.5534 40.2464 34.9895C40.1456 34.4256 40.1144 33.6075 39.2451 32.5678C38.836 32.0778 37.937 31.3648 37.187 30.4841C36.4371 29.6035 35.7255 28.6093 35.3249 28.0695C34.9244 27.5298 33.9316 28.3976 33.9798 30.1177C34.0196 31.5224 34.9741 32.751 35.3505 33.2766C35.8036 33.9171 36.1246 34.5364 36.1601 34.9227C36.1913 35.2494 36.2283 35.9426 35.7709 36.5164C35.0607 37.4098 32.2626 40.2647 34.4642 44.0443V47.517L39.6002 46.9262Z" fill="#FFA8A7"/>
<path d="M35.5051 29.1239C35.5051 29.1239 36.3573 30.2814 36.6315 30.4306C36.9056 30.5797 36.9823 30.2403 36.9823 30.2403C36.5903 29.6892 35.8588 28.6864 35.3262 28.0742C35.4785 28.4018 35.5403 28.7643 35.5051 29.1239Z" fill="#FFA8A7"/>
<path opacity="0.6" d="M35.5051 29.1239C35.5051 29.1239 36.3573 30.2814 36.6315 30.4306C36.9056 30.5797 36.9823 30.2403 36.9823 30.2403C36.5903 29.6892 35.8588 28.6864 35.3262 28.0742C35.4785 28.4018 35.5403 28.7643 35.5051 29.1239Z" fill="white"/>
<path d="M36.9828 30.24C36.9445 30.1782 36.9023 30.1189 36.8563 30.0625C36.8696 30.1368 36.8617 30.2134 36.8335 30.2834C36.8054 30.3535 36.7582 30.4142 36.6973 30.4588C36.9203 30.5241 36.9828 30.24 36.9828 30.24Z" fill="#F28F8F"/>
</g>
<defs>
<clipPath id="clip0_4764_33655">
<rect width="54.6851" height="59.0402" fill="white" transform="translate(0 0.960938)"/>
</clipPath>
</defs>
</svg>
