<svg width="708" height="212" viewBox="0 0 708 212" fill="none" xmlns="http://www.w3.org/2000/svg">
<path d="M33.06 13.12C33.06 14.64 32.6 15.96 31.68 17.08C30.76 18.16 29.5 18.7 27.9 18.7C26.14 18.7 24.74 18.1 23.7 16.9C22.7 15.7 22.1 14.28 21.9 12.64C22.82 12.64 23.48 12.3 23.88 11.62C24.32 10.94 24.54 10.2 24.54 9.4C24.54 8.48 24.3 7.7 23.82 7.06C23.38 6.42 22.8 5.9 22.08 5.5C21.4 5.1 20.64 4.82 19.8 4.66C18.96 4.46 18.16 4.36 17.4 4.36C16.2 4.36 15.12 4.58 14.16 5.02C13.2 5.42 12.38 6 11.7 6.76C11.02 7.48 10.5 8.36 10.14 9.4C9.78 10.4 9.6 11.48 9.6 12.64C9.6 14.36 10.2 15.82 11.4 17.02C12.64 18.22 14.16 19.32 15.96 20.32C17.8 21.28 19.78 22.24 21.9 23.2C24.02 24.12 25.98 25.18 27.78 26.38C29.62 27.58 31.14 29.02 32.34 30.7C33.58 32.38 34.2 34.44 34.2 36.88C34.2 39.08 33.7 41 32.7 42.64C31.7 44.24 30.4 45.56 28.8 46.6C27.2 47.6 25.42 48.36 23.46 48.88C21.5 49.36 19.56 49.6 17.64 49.6C15.84 49.6 13.96 49.38 12 48.94C10.04 48.5 8.22 47.8 6.54 46.84C4.9 45.88 3.54 44.66 2.46 43.18C1.42 41.66 0.9 39.82 0.9 37.66C0.9 36.82 1.02 36 1.26 35.2C1.5 34.4 1.84 33.7 2.28 33.1C2.76 32.46 3.34 31.96 4.02 31.6C4.7 31.2 5.5 31 6.42 31C7.38 31 8.24 31.2 9 31.6C9.76 32 10.4 32.52 10.92 33.16C11.48 33.8 11.92 34.54 12.24 35.38C12.56 36.22 12.78 37.06 12.9 37.9C12.3 37.9 11.78 38.04 11.34 38.32C10.9 38.6 10.52 38.96 10.2 39.4C9.92 39.8 9.7 40.26 9.54 40.78C9.42 41.3 9.36 41.82 9.36 42.34C9.36 43.3 9.54 44.16 9.9 44.92C10.3 45.64 10.82 46.24 11.46 46.72C12.1 47.2 12.82 47.56 13.62 47.8C14.46 48.04 15.32 48.16 16.2 48.16C17.4 48.16 18.54 48 19.62 47.68C20.7 47.32 21.64 46.82 22.44 46.18C23.28 45.5 23.94 44.68 24.42 43.72C24.9 42.72 25.14 41.58 25.14 40.3C25.14 38.3 24.58 36.66 23.46 35.38C22.34 34.06 20.94 32.88 19.26 31.84C17.58 30.8 15.74 29.84 13.74 28.96C11.78 28.04 9.96 27 8.28 25.84C6.6 24.64 5.2 23.24 4.08 21.64C2.96 20.04 2.4 18.04 2.4 15.64C2.4 13.52 2.84 11.68 3.72 10.12C4.6 8.52 5.76 7.2 7.2 6.16C8.64 5.08 10.26 4.28 12.06 3.76C13.9 3.2 15.78 2.92 17.7 2.92C19.14 2.92 20.74 3.12 22.5 3.52C24.3 3.92 25.98 4.54 27.54 5.38C29.1 6.18 30.4 7.22 31.44 8.5C32.52 9.78 33.06 11.32 33.06 13.12ZM42.2977 18.64C41.0977 18.64 40.0577 18.22 39.1777 17.38C38.3377 16.5 37.9177 15.46 37.9177 14.26C37.9177 12.66 38.3377 11.32 39.1777 10.24C40.0577 9.12 41.1377 8.22 42.4177 7.54C43.6977 6.82 45.0777 6.3 46.5577 5.98C48.0777 5.66 49.4977 5.5 50.8177 5.5C52.3777 5.5 53.9177 5.72 55.4377 6.16C56.9577 6.56 58.2977 7.18 59.4577 8.02C60.6577 8.86 61.6177 9.92 62.3377 11.2C63.0977 12.48 63.4777 14 63.4777 15.76C63.4777 17.36 63.0977 18.78 62.3377 20.02V24.64C62.4577 24.52 62.7377 24.32 63.1777 24.04C63.6177 23.72 64.1377 23.38 64.7377 23.02C65.3377 22.62 65.9777 22.22 66.6577 21.82C67.3777 21.42 68.0377 21.06 68.6377 20.74C69.2377 20.38 69.7577 20.1 70.1977 19.9C70.6377 19.66 70.9177 19.54 71.0377 19.54C72.9577 19.54 74.5777 20.1 75.8977 21.22C77.2177 22.34 78.1377 23.8 78.6577 25.6L78.5977 25.3C78.6777 25.14 78.9377 24.9 79.3777 24.58C79.8577 24.26 80.4177 23.88 81.0577 23.44C81.7377 23 82.4377 22.56 83.1577 22.12C83.9177 21.64 84.6177 21.22 85.2577 20.86C85.9377 20.46 86.5177 20.14 86.9977 19.9C87.4777 19.66 87.7777 19.54 87.8977 19.54C89.2577 19.54 90.4377 19.8 91.4377 20.32C92.4377 20.84 93.2577 21.54 93.8977 22.42C94.5777 23.3 95.0777 24.32 95.3977 25.48C95.7577 26.64 95.9377 27.84 95.9377 29.08V40.84C95.9377 41.52 95.9777 42.26 96.0577 43.06C96.1377 43.86 96.2777 44.64 96.4777 45.4C96.6777 46.16 96.9777 46.86 97.3777 47.5C97.8177 48.14 98.3577 48.64 98.9977 49H84.1777C84.8177 48.64 85.3377 48.14 85.7377 47.5C86.1377 46.82 86.4377 46.12 86.6377 45.4C86.8377 44.64 86.9777 43.86 87.0577 43.06C87.1377 42.26 87.1777 41.52 87.1777 40.84V29.32C87.1777 28.72 87.1177 28.1 86.9977 27.46C86.8777 26.82 86.6777 26.24 86.3977 25.72C86.1177 25.2 85.7177 24.78 85.1977 24.46C84.7177 24.14 84.1177 23.98 83.3977 23.98C82.7177 23.98 82.0977 24.14 81.5377 24.46C81.0177 24.78 80.5777 25.2 80.2177 25.72C79.8577 26.24 79.5777 26.82 79.3777 27.46C79.1777 28.1 79.0777 28.72 79.0777 29.32V40.84C79.0777 41.52 79.1177 42.26 79.1977 43.06C79.2777 43.86 79.4177 44.64 79.6177 45.4C79.8177 46.16 80.1177 46.86 80.5177 47.5C80.9577 48.14 81.4977 48.64 82.1377 49H67.3177C67.9577 48.64 68.4777 48.14 68.8777 47.5C69.2777 46.82 69.5777 46.12 69.7777 45.4C69.9777 44.64 70.1177 43.86 70.1977 43.06C70.2777 42.26 70.3177 41.52 70.3177 40.84V29.32C70.3177 28.72 70.2577 28.1 70.1377 27.46C70.0177 26.82 69.8177 26.24 69.5377 25.72C69.2577 25.2 68.8577 24.78 68.3377 24.46C67.8577 24.14 67.2577 23.98 66.5377 23.98C66.0177 23.98 65.4977 24.12 64.9777 24.4C64.4977 24.64 64.0577 24.96 63.6577 25.36C63.2577 25.76 62.9377 26.22 62.6977 26.74C62.4577 27.22 62.3377 27.72 62.3377 28.24V40.84C62.3377 41.52 62.3577 42.26 62.3977 43.06C62.4777 43.86 62.6177 44.64 62.8177 45.4C63.0177 46.16 63.3177 46.86 63.7177 47.5C64.1177 48.14 64.6577 48.64 65.3377 49H50.5177C51.1577 48.64 51.6777 48.14 52.0777 47.5C52.4777 46.82 52.7777 46.12 52.9777 45.4C53.2177 44.64 53.3777 43.86 53.4577 43.06C53.5377 42.26 53.5777 41.52 53.5777 40.84V32.32C53.5777 31.48 53.4977 30.72 53.3377 30.04C53.1777 29.32 52.9577 28.66 52.6777 28.06C52.3977 27.46 52.0377 26.88 51.5977 26.32C51.1977 25.72 50.7377 25.1 50.2177 24.46C51.3777 24.26 52.5377 23.94 53.6977 23.5C54.8977 23.02 55.9577 22.42 56.8777 21.7C57.7977 20.94 58.5377 20.04 59.0977 19C59.6977 17.96 59.9977 16.76 59.9977 15.4C59.9977 14.04 59.6977 12.84 59.0977 11.8C58.5377 10.72 57.7777 9.82 56.8177 9.1C55.8977 8.38 54.8377 7.84 53.6377 7.48C52.4377 7.08 51.2177 6.88 49.9777 6.88C48.5777 6.88 47.1777 7.12 45.7777 7.6C44.3777 8.04 43.2177 8.8 42.2977 9.88C43.4977 9.88 44.5177 10.32 45.3577 11.2C46.2377 12.04 46.6777 13.06 46.6777 14.26C46.6777 15.46 46.2377 16.5 45.3577 17.38C44.5177 18.22 43.4977 18.64 42.2977 18.64ZM35.0977 24.46C36.4977 24.22 37.6777 24 38.6377 23.8C39.6377 23.56 40.5577 23.28 41.3977 22.96C42.2777 22.64 43.1577 22.26 44.0377 21.82C44.9577 21.34 46.0177 20.74 47.2177 20.02V40.84C47.2177 41.52 47.2377 42.26 47.2777 43.06C47.3577 43.86 47.4977 44.64 47.6977 45.4C47.8977 46.16 48.1977 46.86 48.5977 47.5C48.9977 48.14 49.5377 48.64 50.2177 49H35.3977C36.0377 48.64 36.5577 48.14 36.9577 47.5C37.3577 46.82 37.6577 46.12 37.8577 45.4C38.0977 44.64 38.2577 43.86 38.3377 43.06C38.4177 42.26 38.4577 41.52 38.4577 40.84V32.32C38.4577 31.48 38.3777 30.72 38.2177 30.04C38.0577 29.32 37.8377 28.66 37.5577 28.06C37.2777 27.46 36.9177 26.88 36.4777 26.32C36.0777 25.72 35.6177 25.1 35.0977 24.46ZM102.383 54.16V32.26C102.383 31.42 102.303 30.66 102.143 29.98C101.983 29.26 101.763 28.6 101.483 28C101.203 27.4 100.843 26.82 100.403 26.26C100.003 25.66 99.5434 25.04 99.0234 24.4C100.423 24.16 101.603 23.94 102.563 23.74C103.563 23.5 104.483 23.22 105.323 22.9C106.203 22.58 107.083 22.2 107.963 21.76C108.883 21.28 109.943 20.7 111.143 20.02V24.34C111.663 23.74 112.203 23.16 112.763 22.6C113.363 22 113.943 21.46 114.503 20.98C115.103 20.5 115.683 20.12 116.243 19.84C116.843 19.52 117.383 19.36 117.863 19.36C119.943 19.36 121.783 19.76 123.383 20.56C124.983 21.36 126.323 22.44 127.403 23.8C128.523 25.12 129.363 26.66 129.923 28.42C130.483 30.18 130.763 32.02 130.763 33.94C130.763 35.98 130.463 37.94 129.863 39.82C129.263 41.7 128.363 43.36 127.163 44.8C126.003 46.24 124.563 47.4 122.843 48.28C121.163 49.12 119.243 49.54 117.083 49.54C115.723 49.54 114.623 49.44 113.783 49.24C112.943 49.08 112.063 48.84 111.143 48.52V54.16C111.143 54.84 111.163 55.58 111.203 56.38C111.283 57.18 111.423 57.94 111.623 58.66C111.863 59.42 112.183 60.12 112.583 60.76C112.983 61.4 113.503 61.92 114.143 62.32H99.3234C100.003 61.92 100.543 61.4 100.943 60.76C101.343 60.12 101.643 59.42 101.843 58.66C102.043 57.94 102.183 57.18 102.263 56.38C102.343 55.58 102.383 54.84 102.383 54.16ZM111.143 25.06V40.24C111.143 41 111.203 41.84 111.323 42.76C111.443 43.68 111.683 44.54 112.043 45.34C112.403 46.1 112.883 46.74 113.483 47.26C114.123 47.78 114.943 48.04 115.943 48.04C117.183 48.04 118.223 47.7 119.063 47.02C119.903 46.3 120.563 45.42 121.043 44.38C121.563 43.34 121.923 42.24 122.123 41.08C122.363 39.88 122.483 38.78 122.483 37.78C122.483 36.22 122.283 34.66 121.883 33.1C121.483 31.54 120.863 30.14 120.023 28.9C119.183 27.62 118.103 26.6 116.783 25.84C115.503 25.04 113.983 24.64 112.223 24.64C111.943 24.64 111.583 24.78 111.143 25.06ZM131.25 10.9C133.41 10.54 135.45 10.04 137.37 9.4C139.33 8.76 141.23 7.84 143.07 6.64C143.43 6.4 143.79 6.14 144.15 5.86C144.51 5.58 144.89 5.32 145.29 5.08C146.85 4.12 148.59 3.34 150.51 2.74C152.43 2.1 154.33 1.78 156.21 1.78C157.21 1.78 158.17 1.9 159.09 2.14C160.01 2.34 160.81 2.7 161.49 3.22C162.21 3.7 162.77 4.34 163.17 5.14C163.61 5.9 163.83 6.84 163.83 7.96C163.83 8.96 163.65 9.92 163.29 10.84C162.97 11.76 162.51 12.62 161.91 13.42C161.35 14.18 160.69 14.88 159.93 15.52C159.17 16.16 158.37 16.7 157.53 17.14C156.97 17.46 156.35 17.8 155.67 18.16C154.99 18.48 154.31 18.64 153.63 18.64C152.43 18.64 151.39 18.22 150.51 17.38C149.67 16.5 149.25 15.46 149.25 14.26C149.25 13.06 149.67 12.04 150.51 11.2C151.39 10.32 152.43 9.88 153.63 9.88C154.83 9.88 155.85 10.32 156.69 11.2C157.57 12.04 158.01 13.06 158.01 14.26C158.01 15.02 157.81 15.72 157.41 16.36C157.05 16.96 156.57 17.48 155.97 17.92C157.33 17.12 158.43 16.04 159.27 14.68C160.15 13.28 160.59 11.78 160.59 10.18C160.59 8.1 159.93 6.54 158.61 5.5C157.33 4.46 155.71 3.94 153.75 3.94C152.83 3.94 151.87 4.06 150.87 4.3C149.87 4.54 148.91 4.9 147.99 5.38C147.07 5.82 146.21 6.36 145.41 7C144.61 7.6 143.93 8.28 143.37 9.04V40.84C143.37 41.52 143.39 42.26 143.43 43.06C143.51 43.86 143.65 44.64 143.85 45.4C144.09 46.16 144.41 46.86 144.81 47.5C145.21 48.14 145.75 48.64 146.43 49H131.55C132.23 48.64 132.77 48.14 133.17 47.5C133.57 46.86 133.87 46.16 134.07 45.4C134.27 44.64 134.41 43.86 134.49 43.06C134.57 42.26 134.61 41.52 134.61 40.84V18.76C134.61 17.92 134.53 17.16 134.37 16.48C134.21 15.76 133.99 15.1 133.71 14.5C133.43 13.9 133.07 13.32 132.63 12.76C132.23 12.16 131.77 11.54 131.25 10.9ZM146.43 24.46C147.83 24.22 149.01 24 149.97 23.8C150.97 23.56 151.89 23.28 152.73 22.96C153.61 22.64 154.49 22.26 155.37 21.82C156.29 21.34 157.35 20.74 158.55 20.02V40.84C158.55 41.52 158.57 42.26 158.61 43.06C158.69 43.86 158.83 44.64 159.03 45.4C159.23 46.16 159.53 46.86 159.93 47.5C160.33 48.14 160.87 48.64 161.55 49H146.73C147.37 48.64 147.89 48.14 148.29 47.5C148.69 46.82 148.99 46.12 149.19 45.4C149.43 44.64 149.59 43.86 149.67 43.06C149.75 42.26 149.79 41.52 149.79 40.84V32.32C149.79 31.48 149.71 30.72 149.55 30.04C149.39 29.32 149.17 28.66 148.89 28.06C148.61 27.46 148.25 26.88 147.81 26.32C147.41 25.72 146.95 25.1 146.43 24.46ZM177.563 7.12C178.483 7.12 179.423 7.24 180.383 7.48C181.343 7.72 182.203 8.08 182.963 8.56C183.763 9.04 184.403 9.68 184.883 10.48C185.363 11.24 185.603 12.16 185.603 13.24C185.603 14.64 185.143 15.8 184.223 16.72C183.303 17.6 182.143 18.04 180.743 18.04C179.463 18.04 178.403 17.62 177.563 16.78C176.723 15.94 176.123 14.94 175.763 13.78C176.523 13.78 177.143 13.56 177.623 13.12C178.103 12.64 178.343 12.02 178.343 11.26C178.343 10.46 178.083 9.84 177.563 9.4C177.043 8.92 176.383 8.68 175.583 8.68C174.943 8.68 174.343 8.82 173.783 9.1C173.223 9.38 172.743 9.76 172.343 10.24C171.983 10.72 171.683 11.26 171.443 11.86C171.243 12.46 171.143 13.06 171.143 13.66C171.143 14.9 171.443 15.94 172.043 16.78C172.683 17.58 173.483 18.22 174.443 18.7C175.403 19.18 176.443 19.52 177.563 19.72C178.683 19.92 179.743 20.02 180.743 20.02V21.46H173.903V40.84C173.903 41.52 173.923 42.26 173.963 43.06C174.043 43.86 174.183 44.64 174.383 45.4C174.583 46.16 174.883 46.86 175.283 47.5C175.683 48.14 176.223 48.64 176.903 49H162.083C162.723 48.64 163.243 48.14 163.643 47.5C164.043 46.82 164.343 46.12 164.543 45.4C164.783 44.64 164.943 43.86 165.023 43.06C165.103 42.26 165.143 41.52 165.143 40.84V21.46H161.843V20.02H165.263C165.263 18.1 165.523 16.36 166.043 14.8C166.603 13.2 167.403 11.84 168.443 10.72C169.483 9.56 170.763 8.68 172.283 8.08C173.843 7.44 175.603 7.12 177.563 7.12ZM193.627 49L188.167 35.38C187.807 34.46 187.327 33.22 186.727 31.66C186.127 30.1 185.467 28.52 184.747 26.92C184.027 25.32 183.227 23.88 182.347 22.6C181.507 21.28 180.627 20.42 179.707 20.02H196.267C195.267 20.34 194.527 20.94 194.047 21.82C193.567 22.7 193.327 23.66 193.327 24.7C193.327 25.54 193.587 26.78 194.107 28.42C194.627 30.06 195.227 31.78 195.907 33.58C196.627 35.38 197.327 37.12 198.007 38.8C198.727 40.44 199.287 41.72 199.687 42.64C200.127 41.52 200.587 40.36 201.067 39.16C201.587 37.92 202.047 36.68 202.447 35.44C202.887 34.16 203.247 32.88 203.527 31.6C203.807 30.32 203.947 29.08 203.947 27.88C203.947 25.96 203.527 24.34 202.687 23.02C201.847 21.7 200.527 20.7 198.727 20.02H212.647C211.727 20.42 210.827 21.28 209.947 22.6C209.107 23.92 208.307 25.38 207.547 26.98C206.827 28.54 206.167 30.12 205.567 31.72C204.967 33.28 204.487 34.54 204.127 35.5L198.727 49C198.207 50.32 197.627 51.74 196.987 53.26C196.387 54.78 195.647 56.2 194.767 57.52C193.927 58.84 192.907 59.94 191.707 60.82C190.507 61.7 189.047 62.14 187.327 62.14C186.407 62.14 185.527 62.02 184.687 61.78C183.887 61.58 183.167 61.24 182.527 60.76C181.927 60.32 181.447 59.74 181.087 59.02C180.727 58.3 180.547 57.44 180.547 56.44C180.547 55.92 180.627 55.32 180.787 54.64C180.947 54 181.187 53.4 181.507 52.84C181.867 52.28 182.287 51.8 182.767 51.4C183.247 51.04 183.807 50.86 184.447 50.86C184.447 52.3 184.907 53.36 185.827 54.04C186.787 54.72 187.927 55.06 189.247 55.06C189.807 55.06 190.487 54.96 191.287 54.76C192.087 54.56 192.847 54.26 193.567 53.86C194.327 53.5 194.967 53.04 195.487 52.48C196.007 51.92 196.267 51.28 196.267 50.56C196.267 49.92 195.947 49.5 195.307 49.3C194.667 49.1 194.107 49 193.627 49ZM232.034 62.14C231.114 62.14 230.234 62.02 229.394 61.78C228.594 61.58 227.874 61.24 227.234 60.76C226.634 60.32 226.154 59.74 225.794 59.02C225.434 58.3 225.254 57.44 225.254 56.44C225.254 55.92 225.334 55.32 225.494 54.64C225.654 54 225.894 53.4 226.214 52.84C226.574 52.28 226.994 51.8 227.474 51.4C227.954 51.04 228.514 50.86 229.154 50.86C229.154 52.3 229.614 53.36 230.534 54.04C231.494 54.72 232.634 55.06 233.954 55.06C234.514 55.06 235.194 54.96 235.994 54.76C236.794 54.56 237.554 54.26 238.274 53.86C239.034 53.5 239.674 53.04 240.194 52.48C240.714 51.92 240.974 51.28 240.974 50.56C240.974 50.24 240.874 49.98 240.674 49.78C240.474 49.58 240.234 49.42 239.954 49.3C239.714 49.18 239.434 49.1 239.114 49.06C238.834 49.02 238.574 49 238.334 49L232.874 35.38C232.514 34.46 232.034 33.22 231.434 31.66C230.834 30.1 230.174 28.52 229.454 26.92C228.734 25.32 227.934 23.88 227.054 22.6C226.214 21.28 225.334 20.42 224.414 20.02H240.974C239.974 20.34 239.234 20.94 238.754 21.82C238.274 22.7 238.034 23.66 238.034 24.7C238.034 25.54 238.294 26.78 238.814 28.42C239.334 30.06 239.934 31.78 240.614 33.58C241.334 35.38 242.034 37.12 242.714 38.8C243.434 40.44 243.994 41.72 244.394 42.64C245.354 40.16 246.394 37.54 247.514 34.78C248.634 31.98 249.994 29.42 251.594 27.1C253.194 24.78 255.114 22.86 257.354 21.34C259.634 19.82 262.394 19.06 265.634 19.06C267.994 19.06 270.154 19.38 272.114 20.02C274.114 20.62 275.834 21.54 277.274 22.78C278.714 24.02 279.834 25.56 280.634 27.4C281.474 29.24 281.894 31.4 281.894 33.88C281.894 36.04 281.514 38.08 280.754 40C279.994 41.92 278.934 43.6 277.574 45.04C276.214 46.44 274.594 47.56 272.714 48.4C270.874 49.2 268.834 49.6 266.594 49.6C264.674 49.6 262.834 49.3 261.074 48.7C259.314 48.06 257.774 47.16 256.454 46C255.134 44.84 254.074 43.44 253.274 41.8C252.474 40.16 252.074 38.32 252.074 36.28C252.074 34.28 252.454 32.56 253.214 31.12C254.014 29.64 255.054 28.4 256.334 27.4C257.614 26.4 259.094 25.66 260.774 25.18C262.494 24.7 264.254 24.46 266.054 24.46C265.054 24.46 264.234 24.96 263.594 25.96C262.954 26.96 262.454 28.14 262.094 29.5C261.734 30.82 261.494 32.16 261.374 33.52C261.254 34.84 261.194 35.84 261.194 36.52C261.194 37.36 261.254 38.44 261.374 39.76C261.534 41.08 261.814 42.36 262.214 43.6C262.614 44.84 263.174 45.92 263.894 46.84C264.654 47.72 265.634 48.16 266.834 48.16C267.994 48.16 268.954 47.6 269.714 46.48C270.474 45.36 271.074 44.06 271.514 42.58C271.994 41.06 272.334 39.54 272.534 38.02C272.734 36.5 272.834 35.34 272.834 34.54C272.834 33.22 272.694 31.84 272.414 30.4C272.134 28.96 271.674 27.64 271.034 26.44C270.394 25.2 269.534 24.2 268.454 23.44C267.374 22.64 266.034 22.24 264.434 22.24C262.274 22.24 260.374 22.6 258.734 23.32C257.134 24 255.714 24.94 254.474 26.14C253.274 27.34 252.214 28.76 251.294 30.4C250.374 32 249.554 33.7 248.834 35.5L243.434 49C242.914 50.32 242.334 51.74 241.694 53.26C241.094 54.78 240.354 56.2 239.474 57.52C238.634 58.84 237.614 59.94 236.414 60.82C235.214 61.7 233.754 62.14 232.034 62.14ZM294.242 20.02V39.7C294.242 40.3 294.302 40.92 294.422 41.56C294.542 42.2 294.742 42.78 295.022 43.3C295.302 43.82 295.682 44.24 296.162 44.56C296.682 44.88 297.302 45.04 298.022 45.04C299.182 45.04 300.082 44.66 300.722 43.9C301.402 43.14 301.862 42.26 302.102 41.26C302.102 40.46 302.122 39.68 302.162 38.92C302.202 38.16 302.222 37.42 302.222 36.7V28.18C302.222 27.5 302.182 26.76 302.102 25.96C302.062 25.16 301.942 24.38 301.742 23.62C301.542 22.86 301.242 22.16 300.842 21.52C300.442 20.88 299.902 20.38 299.222 20.02H310.982V39.58C310.982 41.54 311.222 43.22 311.702 44.62C312.222 46.02 313.102 47.48 314.342 49H303.602C303.402 48.24 303.182 47.46 302.942 46.66C302.702 45.82 302.502 45 302.342 44.2C302.222 44.4 301.722 44.8 300.842 45.4C299.962 45.96 299.002 46.54 297.962 47.14C296.962 47.74 296.022 48.28 295.142 48.76C294.262 49.24 293.722 49.48 293.522 49.48C292.162 49.48 290.982 49.22 289.982 48.7C288.982 48.18 288.142 47.48 287.462 46.6C286.822 45.72 286.322 44.7 285.962 43.54C285.642 42.38 285.482 41.18 285.482 39.94V28.18C285.482 27.5 285.442 26.76 285.362 25.96C285.282 25.16 285.142 24.38 284.942 23.62C284.742 22.86 284.442 22.16 284.042 21.52C283.642 20.88 283.102 20.38 282.422 20.02H294.242ZM326.475 26.62C326.875 25.78 327.355 24.94 327.915 24.1C328.515 23.22 329.175 22.46 329.895 21.82C330.655 21.14 331.475 20.6 332.355 20.2C333.275 19.76 334.235 19.54 335.235 19.54C336.875 19.54 338.155 20.1 339.075 21.22C340.035 22.3 340.515 23.62 340.515 25.18C340.515 26.18 340.315 27.1 339.915 27.94C339.555 28.78 339.035 29.48 338.355 30.04C337.715 30.6 336.955 31.04 336.075 31.36C335.235 31.68 334.315 31.84 333.315 31.84C333.395 31.6 333.455 31.36 333.495 31.12C333.535 30.88 333.555 30.62 333.555 30.34C333.555 29.3 333.195 28.44 332.475 27.76C331.795 27.04 330.935 26.68 329.895 26.68C329.495 26.68 329.095 26.78 328.695 26.98C328.295 27.14 327.915 27.38 327.555 27.7C327.235 27.98 326.975 28.32 326.775 28.72C326.575 29.08 326.475 29.48 326.475 29.92V40.84C326.475 41.52 326.495 42.26 326.535 43.06C326.615 43.86 326.755 44.64 326.955 45.4C327.195 46.16 327.515 46.86 327.915 47.5C328.315 48.14 328.835 48.64 329.475 49H314.655C315.295 48.64 315.815 48.14 316.215 47.5C316.615 46.82 316.915 46.12 317.115 45.4C317.355 44.64 317.515 43.86 317.595 43.06C317.675 42.26 317.715 41.52 317.715 40.84V32.32C317.715 31.48 317.635 30.72 317.475 30.04C317.315 29.32 317.095 28.66 316.815 28.06C316.535 27.46 316.175 26.88 315.735 26.32C315.335 25.72 314.875 25.1 314.355 24.46C315.755 24.22 316.935 24 317.895 23.8C318.895 23.56 319.815 23.28 320.655 22.96C321.535 22.64 322.415 22.26 323.295 21.82C324.215 21.34 325.275 20.74 326.475 20.02V26.62ZM235.862 100.38C235.502 99.46 235.022 98.22 234.422 96.66C233.822 95.1 233.162 93.52 232.442 91.92C231.722 90.32 230.922 88.88 230.042 87.6C229.202 86.28 228.322 85.42 227.402 85.02H243.962C242.962 85.34 242.222 85.94 241.742 86.82C241.262 87.7 241.022 88.66 241.022 89.7C241.022 90.54 241.282 91.78 241.802 93.42C242.322 95.06 242.922 96.78 243.602 98.58C244.322 100.38 245.022 102.12 245.702 103.8C246.422 105.44 246.982 106.72 247.382 107.64C247.822 106.52 248.282 105.36 248.762 104.16C249.282 102.92 249.742 101.68 250.142 100.44C250.582 99.16 250.942 97.88 251.222 96.6C251.502 95.32 251.642 94.08 251.642 92.88V92.4C251.402 91.84 251.082 91.2 250.682 90.48C250.322 89.72 249.922 88.98 249.482 88.26C249.042 87.54 248.542 86.88 247.982 86.28C247.462 85.68 246.922 85.26 246.362 85.02H262.922C261.922 85.34 261.182 85.94 260.702 86.82C260.222 87.7 259.982 88.66 259.982 89.7C259.982 90.54 260.242 91.78 260.762 93.42C261.282 95.06 261.882 96.78 262.562 98.58C263.282 100.38 263.982 102.12 264.662 103.8C265.382 105.44 265.942 106.72 266.342 107.64C266.782 106.52 267.242 105.36 267.722 104.16C268.242 102.92 268.702 101.68 269.102 100.44C269.542 99.16 269.882 97.9 270.122 96.66C270.402 95.38 270.542 94.12 270.542 92.88C270.542 91.4 270.342 90.22 269.942 89.34C269.582 88.42 269.102 87.68 268.502 87.12C267.902 86.52 267.262 86.02 266.582 85.62C265.942 85.18 265.322 84.72 264.722 84.24C264.122 83.76 263.622 83.18 263.222 82.5C262.862 81.78 262.682 80.86 262.682 79.74C262.682 78.1 263.122 76.7 264.002 75.54C264.882 74.34 265.982 73.38 267.302 72.66C268.622 71.9 270.042 71.36 271.562 71.04C273.122 70.68 274.582 70.5 275.942 70.5C277.262 70.5 278.682 70.66 280.202 70.98C281.762 71.26 283.202 71.74 284.522 72.42C285.842 73.1 286.942 74 287.822 75.12C288.702 76.24 289.142 77.62 289.142 79.26C289.142 80.46 288.702 81.5 287.822 82.38C286.982 83.22 285.962 83.64 284.762 83.64C283.562 83.64 282.522 83.22 281.642 82.38C280.802 81.5 280.382 80.46 280.382 79.26C280.382 78.06 280.802 77.04 281.642 76.2C282.522 75.32 283.562 74.88 284.762 74.88C284.242 74.28 283.622 73.78 282.902 73.38C282.222 72.98 281.482 72.68 280.682 72.48C279.922 72.28 279.122 72.14 278.282 72.06C277.482 71.98 276.702 71.94 275.942 71.94C274.782 71.94 273.622 72.12 272.462 72.48C271.342 72.8 270.342 73.3 269.462 73.98C268.582 74.66 267.862 75.5 267.302 76.5C266.782 77.5 266.522 78.64 266.522 79.92C266.522 80.92 266.722 81.88 267.122 82.8C267.562 83.68 268.182 84.42 268.982 85.02H279.302C278.382 85.42 277.482 86.28 276.602 87.6C275.762 88.92 274.962 90.38 274.202 91.98C273.482 93.58 272.822 95.18 272.222 96.78C271.622 98.34 271.142 99.58 270.782 100.5L265.382 114H260.282C259.122 111.08 257.962 108.18 256.802 105.3C255.642 102.38 254.482 99.46 253.322 96.54C252.202 99.46 251.062 102.38 249.902 105.3C248.742 108.18 247.582 111.08 246.422 114H241.322L235.862 100.38ZM277.562 89.46C278.962 89.22 280.142 89 281.102 88.8C282.102 88.56 283.022 88.28 283.862 87.96C284.742 87.64 285.622 87.26 286.502 86.82C287.422 86.34 288.482 85.74 289.682 85.02V105.84C289.682 106.52 289.702 107.26 289.742 108.06C289.822 108.86 289.962 109.64 290.162 110.4C290.362 111.16 290.662 111.86 291.062 112.5C291.462 113.14 292.002 113.64 292.682 114H277.862C278.502 113.64 279.022 113.14 279.422 112.5C279.822 111.82 280.122 111.12 280.322 110.4C280.562 109.64 280.722 108.86 280.802 108.06C280.882 107.26 280.922 106.52 280.922 105.84V97.32C280.922 96.48 280.842 95.72 280.682 95.04C280.522 94.32 280.302 93.66 280.022 93.06C279.742 92.46 279.382 91.88 278.942 91.32C278.542 90.72 278.082 90.1 277.562 89.46ZM304.676 85.02H310.916V86.46H304.676V107.7C304.676 108.86 305.056 109.7 305.816 110.22C306.616 110.7 307.536 110.94 308.576 110.94C309.136 110.94 309.676 110.88 310.196 110.76C310.756 110.64 311.276 110.44 311.756 110.16V110.76C310.556 111.88 309.156 112.8 307.556 113.52C305.996 114.24 304.376 114.6 302.696 114.6C301.496 114.6 300.456 114.38 299.576 113.94C298.736 113.5 298.036 112.92 297.476 112.2C296.956 111.44 296.556 110.58 296.276 109.62C296.036 108.62 295.916 107.58 295.916 106.5V86.46H292.976V85.56C294.376 85.44 295.636 85.2 296.756 84.84C297.876 84.48 298.876 84 299.756 83.4C300.636 82.76 301.396 81.96 302.036 81C302.716 80.04 303.296 78.88 303.776 77.52H304.676V85.02ZM314.258 83.76C314.258 82.92 314.178 82.16 314.018 81.48C313.858 80.76 313.638 80.1 313.358 79.5C313.078 78.9 312.718 78.32 312.278 77.76C311.878 77.16 311.418 76.54 310.898 75.9C313.138 75.54 315.218 75 317.138 74.28C319.098 73.52 321.058 72.58 323.018 71.46V89.82C323.138 89.62 323.638 89.24 324.518 88.68C325.398 88.08 326.338 87.48 327.338 86.88C328.378 86.28 329.338 85.74 330.218 85.26C331.138 84.78 331.678 84.54 331.838 84.54C333.198 84.54 334.378 84.8 335.378 85.32C336.378 85.84 337.198 86.54 337.838 87.42C338.518 88.3 339.018 89.32 339.338 90.48C339.698 91.64 339.878 92.84 339.878 94.08V105.84C339.878 106.52 339.918 107.26 339.998 108.06C340.078 108.86 340.218 109.64 340.418 110.4C340.618 111.16 340.918 111.86 341.318 112.5C341.758 113.14 342.298 113.64 342.938 114H328.118C328.758 113.64 329.278 113.14 329.678 112.5C330.078 111.82 330.378 111.12 330.578 110.4C330.778 109.64 330.918 108.86 330.998 108.06C331.078 107.26 331.118 106.52 331.118 105.84V94.32C331.118 93.72 331.058 93.1 330.938 92.46C330.818 91.82 330.618 91.24 330.338 90.72C330.058 90.2 329.658 89.78 329.138 89.46C328.658 89.14 328.058 88.98 327.338 88.98C326.658 88.98 326.038 89.14 325.478 89.46C324.958 89.78 324.518 90.2 324.158 90.72C323.798 91.24 323.518 91.82 323.318 92.46C323.118 93.1 323.018 93.72 323.018 94.32V105.84C323.018 106.52 323.038 107.26 323.078 108.06C323.158 108.86 323.298 109.64 323.498 110.4C323.698 111.16 323.998 111.86 324.398 112.5C324.798 113.14 325.338 113.64 326.018 114H311.198C311.838 113.64 312.358 113.14 312.758 112.5C313.158 111.82 313.458 111.12 313.658 110.4C313.898 109.64 314.058 108.86 314.138 108.06C314.218 107.26 314.258 106.52 314.258 105.84V83.76ZM366.727 85.02H372.967V86.46H366.727V107.7C366.727 108.86 367.107 109.7 367.867 110.22C368.667 110.7 369.587 110.94 370.627 110.94C371.187 110.94 371.727 110.88 372.247 110.76C372.807 110.64 373.327 110.44 373.807 110.16V110.76C372.607 111.88 371.207 112.8 369.607 113.52C368.047 114.24 366.427 114.6 364.747 114.6C363.547 114.6 362.507 114.38 361.627 113.94C360.787 113.5 360.087 112.92 359.527 112.2C359.007 111.44 358.607 110.58 358.327 109.62C358.087 108.62 357.967 107.58 357.967 106.5V86.46H355.027V85.56C356.427 85.44 357.687 85.2 358.807 84.84C359.927 84.48 360.927 84 361.807 83.4C362.687 82.76 363.447 81.96 364.087 81C364.767 80.04 365.347 78.88 365.827 77.52H366.727V85.02ZM376.309 83.76C376.309 82.92 376.229 82.16 376.069 81.48C375.909 80.76 375.689 80.1 375.409 79.5C375.129 78.9 374.769 78.32 374.329 77.76C373.929 77.16 373.469 76.54 372.949 75.9C375.189 75.54 377.269 75 379.189 74.28C381.149 73.52 383.109 72.58 385.069 71.46V89.82C385.189 89.62 385.689 89.24 386.569 88.68C387.449 88.08 388.389 87.48 389.389 86.88C390.429 86.28 391.389 85.74 392.269 85.26C393.189 84.78 393.729 84.54 393.889 84.54C395.249 84.54 396.429 84.8 397.429 85.32C398.429 85.84 399.249 86.54 399.889 87.42C400.569 88.3 401.069 89.32 401.389 90.48C401.749 91.64 401.929 92.84 401.929 94.08V105.84C401.929 106.52 401.969 107.26 402.049 108.06C402.129 108.86 402.269 109.64 402.469 110.4C402.669 111.16 402.969 111.86 403.369 112.5C403.809 113.14 404.349 113.64 404.989 114H390.169C390.809 113.64 391.329 113.14 391.729 112.5C392.129 111.82 392.429 111.12 392.629 110.4C392.829 109.64 392.969 108.86 393.049 108.06C393.129 107.26 393.169 106.52 393.169 105.84V94.32C393.169 93.72 393.109 93.1 392.989 92.46C392.869 91.82 392.669 91.24 392.389 90.72C392.109 90.2 391.709 89.78 391.189 89.46C390.709 89.14 390.109 88.98 389.389 88.98C388.709 88.98 388.089 89.14 387.529 89.46C387.009 89.78 386.569 90.2 386.209 90.72C385.849 91.24 385.569 91.82 385.369 92.46C385.169 93.1 385.069 93.72 385.069 94.32V105.84C385.069 106.52 385.089 107.26 385.129 108.06C385.209 108.86 385.349 109.64 385.549 110.4C385.749 111.16 386.049 111.86 386.449 112.5C386.849 113.14 387.389 113.64 388.069 114H373.249C373.889 113.64 374.409 113.14 374.809 112.5C375.209 111.82 375.509 111.12 375.709 110.4C375.949 109.64 376.109 108.86 376.189 108.06C376.269 107.26 376.309 106.52 376.309 105.84V83.76ZM414.014 99.3C414.294 100.54 414.714 101.72 415.274 102.84C415.834 103.92 416.534 104.88 417.374 105.72C418.214 106.52 419.194 107.16 420.314 107.64C421.474 108.12 422.774 108.36 424.214 108.36C424.654 108.36 425.174 108.34 425.774 108.3C426.414 108.22 427.054 108.12 427.694 108C428.334 107.88 428.934 107.72 429.494 107.52C430.094 107.28 430.554 107 430.874 106.68L431.354 107.04C429.994 109.52 428.374 111.4 426.494 112.68C424.654 113.96 422.254 114.6 419.294 114.6C417.214 114.6 415.274 114.22 413.474 113.46C411.714 112.7 410.194 111.66 408.914 110.34C407.674 108.98 406.694 107.4 405.974 105.6C405.254 103.8 404.894 101.86 404.894 99.78C404.894 97.78 405.194 95.86 405.794 94.02C406.434 92.18 407.334 90.56 408.494 89.16C409.694 87.76 411.134 86.64 412.814 85.8C414.494 84.96 416.394 84.54 418.514 84.54C420.434 84.54 422.174 84.84 423.734 85.44C425.334 86 426.674 86.84 427.754 87.96C428.874 89.04 429.734 90.36 430.334 91.92C430.934 93.48 431.234 95.22 431.234 97.14V98.58L414.014 99.3ZM423.194 92.34C423.194 91.66 423.054 90.94 422.774 90.18C422.534 89.42 422.174 88.74 421.694 88.14C421.214 87.5 420.654 86.98 420.014 86.58C419.374 86.18 418.674 85.98 417.914 85.98C417.034 85.98 416.314 86.34 415.754 87.06C415.194 87.78 414.754 88.64 414.434 89.64C414.114 90.6 413.874 91.6 413.714 92.64C413.594 93.68 413.534 94.5 413.534 95.1C413.534 95.98 413.594 96.88 413.714 97.8C414.514 97.72 415.314 97.62 416.114 97.5C416.914 97.38 417.714 97.26 418.514 97.14C419.874 96.94 420.994 96.46 421.874 95.7C422.754 94.94 423.194 93.82 423.194 92.34ZM447.09 97.32C447.09 96.48 447.01 95.72 446.85 95.04C446.69 94.32 446.47 93.66 446.19 93.06C445.91 92.46 445.55 91.88 445.11 91.32C444.71 90.72 444.25 90.1 443.73 89.46C445.13 89.22 446.31 89 447.27 88.8C448.27 88.56 449.19 88.28 450.03 87.96C450.91 87.6 451.79 87.2 452.67 86.76C453.59 86.28 454.65 85.7 455.85 85.02V89.88C456.45 88.36 457.19 86.64 458.07 84.72C458.95 82.76 460.01 80.92 461.25 79.2C462.49 77.48 463.89 76.04 465.45 74.88C467.01 73.68 468.77 73.08 470.73 73.08C472.37 73.08 473.75 73.56 474.87 74.52C476.03 75.44 476.61 76.74 476.61 78.42C476.61 80.1 476.05 81.54 474.93 82.74C473.81 83.9 472.41 84.48 470.73 84.48C470.09 83.12 469.05 82.44 467.61 82.44C466.53 82.44 465.37 82.78 464.13 83.46C462.93 84.14 461.79 84.98 460.71 85.98C459.63 86.94 458.65 88 457.77 89.16C456.93 90.28 456.29 91.32 455.85 92.28V105.84C455.85 106.52 455.89 107.26 455.97 108.06C456.05 108.86 456.19 109.64 456.39 110.4C456.59 111.16 456.89 111.86 457.29 112.5C457.73 113.14 458.27 113.64 458.91 114H444.09C444.73 113.64 445.25 113.14 445.65 112.5C446.05 111.82 446.35 111.12 446.55 110.4C446.75 109.64 446.89 108.86 446.97 108.06C447.05 107.26 447.09 106.52 447.09 105.84V97.32ZM461.73 114C462.37 113.64 462.89 113.14 463.29 112.5C463.69 111.82 463.99 111.12 464.19 110.4C464.43 109.64 464.59 108.86 464.67 108.06C464.75 107.26 464.79 106.52 464.79 105.84V97.32C464.79 96.48 464.71 95.72 464.55 95.04C464.39 94.32 464.17 93.66 463.89 93.06C463.61 92.46 463.25 91.88 462.81 91.32C462.41 90.72 461.95 90.1 461.43 89.46C462.83 89.22 464.01 89 464.97 88.8C465.97 88.56 466.89 88.28 467.73 87.96C468.61 87.64 469.49 87.26 470.37 86.82C471.29 86.34 472.35 85.74 473.55 85.02V105.84C473.55 106.52 473.57 107.26 473.61 108.06C473.69 108.86 473.83 109.64 474.03 110.4C474.23 111.16 474.53 111.86 474.93 112.5C475.33 113.14 475.87 113.64 476.55 114H461.73ZM492.252 84.54C492.612 84.54 492.972 84.56 493.332 84.6C493.732 84.6 494.112 84.62 494.472 84.66C494.992 83.74 495.572 82.82 496.212 81.9C496.892 80.94 497.632 80.08 498.432 79.32C499.272 78.56 500.152 77.94 501.072 77.46C502.032 76.94 503.052 76.68 504.132 76.68C505.292 76.68 506.292 77.04 507.132 77.76C507.972 78.44 508.392 79.38 508.392 80.58C508.392 81.98 507.892 83.06 506.892 83.82C505.892 84.54 504.752 84.9 503.472 84.9C503.192 84.9 502.852 84.86 502.452 84.78C502.252 84.18 501.892 83.74 501.372 83.46C500.852 83.14 500.292 82.98 499.692 82.98C498.892 82.98 498.152 83.16 497.472 83.52C496.832 83.84 496.232 84.28 495.672 84.84C497.072 85.08 498.412 85.48 499.692 86.04C501.012 86.56 502.172 87.26 503.172 88.14C504.172 88.98 504.972 90.02 505.572 91.26C506.212 92.46 506.532 93.84 506.532 95.4C506.532 97.32 506.092 98.98 505.212 100.38C504.372 101.74 503.252 102.86 501.852 103.74C500.492 104.62 498.972 105.28 497.292 105.72C495.612 106.12 493.932 106.32 492.252 106.32C490.972 106.32 489.652 106.2 488.292 105.96C486.932 105.72 485.652 105.32 484.452 104.76C484.052 105.16 483.852 105.68 483.852 106.32C483.852 106.96 484.192 107.46 484.872 107.82C485.592 108.14 486.512 108.4 487.632 108.6C488.752 108.8 490.032 108.96 491.472 109.08C492.952 109.16 494.432 109.3 495.912 109.5C497.432 109.7 498.912 110 500.352 110.4C501.832 110.76 503.132 111.28 504.252 111.96C505.372 112.64 506.272 113.52 506.952 114.6C507.672 115.72 508.032 117.12 508.032 118.8C508.032 120.76 507.432 122.32 506.232 123.48C505.072 124.68 503.632 125.6 501.912 126.24C500.232 126.88 498.432 127.3 496.512 127.5C494.632 127.7 492.972 127.8 491.532 127.8C490.452 127.8 489.112 127.7 487.512 127.5C485.912 127.34 484.352 126.98 482.832 126.42C481.352 125.9 480.072 125.16 478.992 124.2C477.912 123.28 477.372 122.06 477.372 120.54C477.372 119.38 477.732 118.46 478.452 117.78C479.212 117.14 480.152 116.82 481.272 116.82C482.432 116.82 483.392 117.22 484.152 118.02C484.952 118.82 485.512 119.74 485.832 120.78C485.352 121.26 485.112 121.78 485.112 122.34C485.112 123.06 485.372 123.68 485.892 124.2C486.412 124.72 487.052 125.14 487.812 125.46C488.572 125.78 489.352 126 490.152 126.12C490.952 126.28 491.632 126.36 492.192 126.36C492.872 126.36 493.612 126.28 494.412 126.12C495.252 126 496.012 125.76 496.692 125.4C497.412 125.04 497.992 124.56 498.432 123.96C498.912 123.4 499.152 122.7 499.152 121.86C499.152 120.62 498.652 119.68 497.652 119.04C496.692 118.44 495.472 117.96 493.992 117.6C492.552 117.28 490.972 117.02 489.252 116.82C487.532 116.62 485.932 116.34 484.452 115.98C483.012 115.62 481.792 115.1 480.792 114.42C479.832 113.78 479.352 112.82 479.352 111.54C479.352 111.34 479.512 110.94 479.832 110.34C480.192 109.7 480.592 109 481.032 108.24C481.472 107.44 481.912 106.68 482.352 105.96C482.832 105.2 483.192 104.62 483.432 104.22C481.792 103.34 480.452 102.18 479.412 100.74C478.372 99.3 477.852 97.52 477.852 95.4C477.852 93.48 478.292 91.84 479.172 90.48C480.052 89.12 481.192 88 482.592 87.12C483.992 86.24 485.532 85.6 487.212 85.2C488.932 84.76 490.612 84.54 492.252 84.54ZM494.172 104.7C494.972 104.7 495.632 104.52 496.152 104.16C496.672 103.76 497.072 103.26 497.352 102.66C497.672 102.06 497.892 101.4 498.012 100.68C498.132 99.96 498.192 99.28 498.192 98.64C498.192 97.48 498.012 96.18 497.652 94.74C497.292 93.3 496.752 91.96 496.032 90.72C495.352 89.44 494.472 88.38 493.392 87.54C492.352 86.7 491.132 86.28 489.732 86.28C489.012 86.28 488.412 86.46 487.932 86.82C487.452 87.18 487.072 87.64 486.792 88.2C486.552 88.76 486.372 89.38 486.252 90.06C486.172 90.7 486.132 91.32 486.132 91.92C486.132 93 486.292 94.28 486.612 95.76C486.972 97.2 487.472 98.6 488.112 99.96C488.792 101.28 489.632 102.4 490.632 103.32C491.632 104.24 492.812 104.7 494.172 104.7ZM512.071 83.76C512.071 82.92 511.991 82.16 511.831 81.48C511.671 80.76 511.451 80.1 511.171 79.5C510.891 78.9 510.531 78.32 510.091 77.76C509.691 77.16 509.231 76.54 508.711 75.9C510.951 75.54 513.031 75 514.951 74.28C516.911 73.52 518.871 72.58 520.831 71.46V89.82C520.951 89.62 521.451 89.24 522.331 88.68C523.211 88.08 524.151 87.48 525.151 86.88C526.191 86.28 527.151 85.74 528.031 85.26C528.951 84.78 529.491 84.54 529.651 84.54C531.011 84.54 532.191 84.8 533.191 85.32C534.191 85.84 535.011 86.54 535.651 87.42C536.331 88.3 536.831 89.32 537.151 90.48C537.511 91.64 537.691 92.84 537.691 94.08V105.84C537.691 106.52 537.731 107.26 537.811 108.06C537.891 108.86 538.031 109.64 538.231 110.4C538.431 111.16 538.731 111.86 539.131 112.5C539.571 113.14 540.111 113.64 540.751 114H525.931C526.571 113.64 527.091 113.14 527.491 112.5C527.891 111.82 528.191 111.12 528.391 110.4C528.591 109.64 528.731 108.86 528.811 108.06C528.891 107.26 528.931 106.52 528.931 105.84V94.32C528.931 93.72 528.871 93.1 528.751 92.46C528.631 91.82 528.431 91.24 528.151 90.72C527.871 90.2 527.471 89.78 526.951 89.46C526.471 89.14 525.871 88.98 525.151 88.98C524.471 88.98 523.851 89.14 523.291 89.46C522.771 89.78 522.331 90.2 521.971 90.72C521.611 91.24 521.331 91.82 521.131 92.46C520.931 93.1 520.831 93.72 520.831 94.32V105.84C520.831 106.52 520.851 107.26 520.891 108.06C520.971 108.86 521.111 109.64 521.311 110.4C521.511 111.16 521.811 111.86 522.211 112.5C522.611 113.14 523.151 113.64 523.831 114H509.011C509.651 113.64 510.171 113.14 510.571 112.5C510.971 111.82 511.271 111.12 511.471 110.4C511.711 109.64 511.871 108.86 511.951 108.06C512.031 107.26 512.071 106.52 512.071 105.84V83.76ZM551.59 85.02H557.83V86.46H551.59V107.7C551.59 108.86 551.97 109.7 552.73 110.22C553.53 110.7 554.45 110.94 555.49 110.94C556.05 110.94 556.59 110.88 557.11 110.76C557.67 110.64 558.19 110.44 558.67 110.16V110.76C557.47 111.88 556.07 112.8 554.47 113.52C552.91 114.24 551.29 114.6 549.61 114.6C548.41 114.6 547.37 114.38 546.49 113.94C545.65 113.5 544.95 112.92 544.39 112.2C543.87 111.44 543.47 110.58 543.19 109.62C542.95 108.62 542.83 107.58 542.83 106.5V86.46H539.89V85.56C541.29 85.44 542.55 85.2 543.67 84.84C544.79 84.48 545.79 84 546.67 83.4C547.55 82.76 548.31 81.96 548.95 81C549.63 80.04 550.21 78.88 550.69 77.52H551.59V85.02Z" fill="white"/>
<path d="M364.737 40.84C364.737 41.52 364.757 42.26 364.797 43.06C364.877 43.86 365.017 44.64 365.217 45.4C365.457 46.16 365.777 46.86 366.177 47.5C366.577 48.14 367.117 48.64 367.797 49H352.917C353.597 48.64 354.137 48.14 354.537 47.5C354.937 46.86 355.237 46.16 355.437 45.4C355.637 44.64 355.777 43.86 355.857 43.06C355.937 42.26 355.977 41.52 355.977 40.84V18.76C355.977 17.92 355.897 17.16 355.737 16.48C355.577 15.76 355.357 15.1 355.077 14.5C354.797 13.9 354.437 13.32 353.997 12.76C353.597 12.16 353.137 11.54 352.617 10.9C354.017 10.66 355.197 10.44 356.157 10.24C357.157 10 358.077 9.72 358.917 9.4C359.797 9.08 360.677 8.7 361.557 8.26C362.477 7.78 363.537 7.18 364.737 6.46V40.84ZM382.793 19.54C384.873 19.54 386.793 19.94 388.553 20.74C390.313 21.54 391.833 22.64 393.113 24.04C394.433 25.4 395.453 27 396.173 28.84C396.893 30.64 397.253 32.56 397.253 34.6C397.253 36.64 396.893 38.58 396.173 40.42C395.453 42.22 394.433 43.8 393.113 45.16C391.833 46.52 390.313 47.6 388.553 48.4C386.793 49.2 384.873 49.6 382.793 49.6C380.713 49.6 378.773 49.2 376.973 48.4C375.213 47.6 373.693 46.52 372.413 45.16C371.133 43.8 370.113 42.22 369.353 40.42C368.633 38.58 368.273 36.64 368.273 34.6C368.273 32.56 368.633 30.64 369.353 28.84C370.113 27 371.133 25.4 372.413 24.04C373.693 22.64 375.213 21.54 376.973 20.74C378.773 19.94 380.713 19.54 382.793 19.54ZM384.713 47.98C385.633 47.98 386.353 47.64 386.873 46.96C387.393 46.28 387.793 45.48 388.073 44.56C388.353 43.6 388.533 42.62 388.613 41.62C388.693 40.62 388.733 39.82 388.733 39.22C388.733 38.46 388.673 37.48 388.553 36.28C388.433 35.08 388.233 33.82 387.953 32.5C387.673 31.18 387.313 29.86 386.873 28.54C386.473 27.18 385.953 25.98 385.313 24.94C384.673 23.86 383.933 22.98 383.093 22.3C382.293 21.62 381.353 21.28 380.273 21.28C379.433 21.28 378.773 21.6 378.293 22.24C377.813 22.88 377.453 23.64 377.213 24.52C376.973 25.4 376.813 26.3 376.733 27.22C376.693 28.14 376.673 28.88 376.673 29.44C376.673 30.16 376.733 31.12 376.853 32.32C376.973 33.48 377.153 34.76 377.393 36.16C377.673 37.52 378.013 38.9 378.413 40.3C378.853 41.7 379.373 42.98 379.973 44.14C380.573 45.26 381.253 46.18 382.013 46.9C382.813 47.62 383.713 47.98 384.713 47.98ZM417.354 48.7C418.394 48.7 419.554 48.76 420.834 48.88C422.114 49 423.314 49.26 424.434 49.66C425.554 50.1 426.474 50.72 427.194 51.52C427.954 52.36 428.334 53.48 428.334 54.88C428.334 55.56 428.194 56.22 427.914 56.86C427.634 57.5 427.254 58.06 426.774 58.54C426.294 59.02 425.734 59.4 425.094 59.68C424.454 59.96 423.794 60.1 423.114 60.1C420.714 60.1 418.294 60.08 415.854 60.04C413.454 60 411.054 59.98 408.654 59.98C408.134 59.98 407.554 59.98 406.914 59.98C406.274 60.02 405.674 60.12 405.114 60.28C404.594 60.44 404.134 60.7 403.734 61.06C403.374 61.46 403.194 62.02 403.194 62.74C403.194 62.98 403.214 63.22 403.254 63.46C403.294 63.7 403.354 63.92 403.434 64.12C401.794 64.12 400.434 63.6 399.354 62.56C398.274 61.56 397.734 60.22 397.734 58.54C397.734 57.42 397.974 56.44 398.454 55.6C398.934 54.76 399.554 54.06 400.314 53.5C401.074 52.98 401.934 52.58 402.894 52.3C403.894 52.02 404.894 51.88 405.894 51.88C407.574 51.88 409.214 51.98 410.814 52.18C412.414 52.42 414.054 52.54 415.734 52.54C415.934 52.54 416.174 52.52 416.454 52.48C416.774 52.48 417.074 52.44 417.354 52.36C417.634 52.28 417.854 52.16 418.014 52C418.214 51.84 418.314 51.6 418.314 51.28C418.314 50.88 418.114 50.56 417.714 50.32C417.354 50.12 416.914 49.96 416.394 49.84C415.914 49.76 415.414 49.7 414.894 49.66C414.414 49.66 414.034 49.66 413.754 49.66C412.914 49.58 412.094 49.5 411.294 49.42C410.534 49.38 409.754 49.24 408.954 49C407.354 48.52 405.874 47.82 404.514 46.9C403.194 45.98 402.074 44.9 401.154 43.66C400.234 42.38 399.514 40.98 398.994 39.46C398.474 37.9 398.214 36.28 398.214 34.6C398.214 32.56 398.574 30.64 399.294 28.84C400.054 27 401.074 25.4 402.354 24.04C403.634 22.64 405.154 21.54 406.914 20.74C408.714 19.94 410.654 19.54 412.734 19.54C413.974 19.54 415.134 19.68 416.214 19.96C417.334 20.24 418.394 20.64 419.394 21.16C420.034 19.84 420.814 18.34 421.734 16.66C422.694 14.98 423.774 13.4 424.974 11.92C426.174 10.44 427.494 9.2 428.934 8.2C430.374 7.2 431.934 6.7 433.614 6.7C435.374 6.7 436.854 7.26 438.054 8.38C439.254 9.46 439.854 10.9 439.854 12.7C439.854 13.66 439.674 14.54 439.314 15.34C438.954 16.1 438.474 16.76 437.874 17.32C437.274 17.88 436.554 18.32 435.714 18.64C434.914 18.92 434.054 19.06 433.134 19.06C432.574 18.38 431.934 17.84 431.214 17.44C430.494 17.04 429.674 16.84 428.754 16.84C427.954 16.84 427.154 16.98 426.354 17.26C425.594 17.54 424.854 17.92 424.134 18.4C423.414 18.88 422.754 19.42 422.154 20.02C421.554 20.62 421.014 21.22 420.534 21.82C422.574 23.18 424.194 25 425.394 27.28C426.594 29.52 427.194 31.96 427.194 34.6C427.194 36.68 426.834 38.54 426.114 40.18C425.434 41.78 424.474 43.14 423.234 44.26C421.994 45.34 420.514 46.16 418.794 46.72C417.114 47.28 415.274 47.56 413.274 47.56C413.954 47.56 414.554 47.3 415.074 46.78C415.594 46.22 416.034 45.52 416.394 44.68C416.754 43.8 417.034 42.84 417.234 41.8C417.474 40.76 417.654 39.74 417.774 38.74C417.934 37.74 418.034 36.82 418.074 35.98C418.114 35.14 418.134 34.5 418.134 34.06C418.134 33.22 418.074 32.08 417.954 30.64C417.834 29.16 417.574 27.7 417.174 26.26C416.774 24.82 416.194 23.58 415.434 22.54C414.714 21.5 413.734 20.98 412.494 20.98C411.814 20.98 411.194 21.26 410.634 21.82C410.114 22.34 409.654 23.02 409.254 23.86C408.854 24.7 408.514 25.64 408.234 26.68C407.994 27.72 407.794 28.76 407.634 29.8C407.474 30.8 407.354 31.72 407.274 32.56C407.234 33.4 407.214 34.06 407.214 34.54C407.214 35.98 407.334 37.52 407.574 39.16C407.814 40.8 408.254 42.32 408.894 43.72C409.574 45.12 410.474 46.3 411.594 47.26C412.754 48.18 414.234 48.66 416.034 48.7H417.354ZM443.334 49H428.514C429.154 48.64 429.674 48.14 430.074 47.5C430.474 46.82 430.774 46.12 430.974 45.4C431.214 44.64 431.374 43.86 431.454 43.06C431.534 42.26 431.574 41.52 431.574 40.84V32.32C431.574 31.48 431.494 30.72 431.334 30.04C431.174 29.32 430.954 28.66 430.674 28.06C430.394 27.46 430.034 26.88 429.594 26.32C429.194 25.72 428.734 25.1 428.214 24.46C429.614 24.22 430.794 24 431.754 23.8C432.754 23.56 433.674 23.28 434.514 22.96C435.394 22.64 436.274 22.26 437.154 21.82C438.074 21.34 439.134 20.74 440.334 20.02V40.84C440.334 41.52 440.354 42.26 440.394 43.06C440.474 43.86 440.614 44.64 440.814 45.4C441.014 46.16 441.314 46.86 441.714 47.5C442.114 48.14 442.654 48.64 443.334 49ZM455.2 49.6C454.08 49.6 452.84 49.46 451.48 49.18C450.16 48.9 448.92 48.46 447.76 47.86C446.6 47.26 445.62 46.48 444.82 45.52C444.06 44.52 443.68 43.32 443.68 41.92C443.68 40.6 444.04 39.46 444.76 38.5C445.52 37.54 446.6 37.06 448 37.06C449.36 37.06 450.46 37.58 451.3 38.62C452.18 39.62 452.74 40.72 452.98 41.92C452.26 41.92 451.66 42.16 451.18 42.64C450.74 43.12 450.52 43.72 450.52 44.44C450.52 45.04 450.66 45.58 450.94 46.06C451.22 46.54 451.58 46.94 452.02 47.26C452.5 47.54 453.02 47.76 453.58 47.92C454.14 48.08 454.68 48.16 455.2 48.16C455.84 48.16 456.48 48.08 457.12 47.92C457.76 47.76 458.34 47.52 458.86 47.2C459.38 46.84 459.8 46.4 460.12 45.88C460.44 45.32 460.6 44.66 460.6 43.9C460.6 42.86 460.2 42 459.4 41.32C458.64 40.6 457.68 39.94 456.52 39.34C455.36 38.7 454.1 38.08 452.74 37.48C451.38 36.84 450.12 36.12 448.96 35.32C447.8 34.48 446.82 33.48 446.02 32.32C445.26 31.16 444.88 29.74 444.88 28.06C444.88 26.74 445.18 25.58 445.78 24.58C446.42 23.54 447.22 22.68 448.18 22C449.18 21.32 450.28 20.78 451.48 20.38C452.72 19.98 453.94 19.72 455.14 19.6C454.62 18.6 454.36 17.48 454.36 16.24C454.36 14.32 454.78 12.68 455.62 11.32C456.5 9.96 457.62 8.86 458.98 8.02C460.38 7.14 461.92 6.5 463.6 6.1C465.32 5.7 467 5.5 468.64 5.5C470.92 5.5 472.8 5.72 474.28 6.16C475.8 6.56 477 7.22 477.88 8.14C478.8 9.06 479.44 10.28 479.8 11.8C480.16 13.28 480.34 15.1 480.34 17.26V20.02H486.58V21.46H480.34V42.7C480.34 43.86 480.72 44.7 481.48 45.22C482.28 45.7 483.2 45.94 484.24 45.94C484.8 45.94 485.34 45.88 485.86 45.76C486.42 45.64 486.94 45.44 487.42 45.16V45.76C486.22 46.88 484.82 47.8 483.22 48.52C481.66 49.24 480.04 49.6 478.36 49.6C477.16 49.6 476.12 49.38 475.24 48.94C474.4 48.5 473.7 47.92 473.14 47.2C472.62 46.44 472.22 45.58 471.94 44.62C471.7 43.62 471.58 42.58 471.58 41.5V21.46H468.64V20.56C469.64 20.44 470.68 20.2 471.76 19.84C472.84 19.48 473.82 19 474.7 18.4C475.62 17.76 476.36 17 476.92 16.12C477.52 15.2 477.82 14.16 477.82 13C477.82 11.8 477.52 10.8 476.92 10C476.32 9.2 475.56 8.56 474.64 8.08C473.76 7.6 472.78 7.26 471.7 7.06C470.62 6.86 469.6 6.76 468.64 6.76C467.48 6.76 466.28 6.98 465.04 7.42C463.8 7.82 462.66 8.42 461.62 9.22C460.62 9.98 459.78 10.9 459.1 11.98C458.46 13.02 458.14 14.2 458.14 15.52C458.14 17.28 458.7 18.72 459.82 19.84C460.82 20 461.8 20.28 462.76 20.68C463.72 21.04 464.58 21.52 465.34 22.12C466.1 22.68 466.7 23.38 467.14 24.22C467.62 25.02 467.86 25.96 467.86 27.04C467.86 28.28 467.5 29.26 466.78 29.98C466.1 30.7 465.14 31.06 463.9 31.06C462.62 31.06 461.56 30.68 460.72 29.92C459.88 29.16 459.28 28.2 458.92 27.04C459.6 27.04 460.12 26.84 460.48 26.44C460.84 26 461.02 25.46 461.02 24.82C461.02 23.62 460.56 22.68 459.64 22C458.72 21.32 457.7 20.98 456.58 20.98C455.26 20.98 454.16 21.4 453.28 22.24C452.4 23.04 451.96 24.1 451.96 25.42C451.96 26.42 452.36 27.28 453.16 28C454 28.72 455.02 29.4 456.22 30.04C457.46 30.64 458.78 31.24 460.18 31.84C461.62 32.44 462.94 33.16 464.14 34C465.38 34.84 466.4 35.84 467.2 37C468.04 38.12 468.46 39.5 468.46 41.14C468.46 42.78 468 44.16 467.08 45.28C466.2 46.36 465.1 47.22 463.78 47.86C462.46 48.5 461.02 48.94 459.46 49.18C457.94 49.46 456.52 49.6 455.2 49.6ZM494.934 18.64C493.734 18.64 492.694 18.22 491.814 17.38C490.974 16.5 490.554 15.46 490.554 14.26C490.554 13.06 490.974 12.04 491.814 11.2C492.694 10.32 493.734 9.88 494.934 9.88C496.134 9.88 497.154 10.32 497.994 11.2C498.874 12.04 499.314 13.06 499.314 14.26C499.314 15.46 498.874 16.5 497.994 17.38C497.154 18.22 496.134 18.64 494.934 18.64ZM502.854 49H488.034C488.674 48.64 489.194 48.14 489.594 47.5C489.994 46.82 490.294 46.12 490.494 45.4C490.734 44.64 490.894 43.86 490.974 43.06C491.054 42.26 491.094 41.52 491.094 40.84V32.32C491.094 31.48 491.014 30.72 490.854 30.04C490.694 29.32 490.474 28.66 490.194 28.06C489.914 27.46 489.554 26.88 489.114 26.32C488.714 25.72 488.254 25.1 487.734 24.46C489.134 24.22 490.314 24 491.274 23.8C492.274 23.56 493.194 23.28 494.034 22.96C494.914 22.64 495.794 22.26 496.674 21.82C497.594 21.34 498.654 20.74 499.854 20.02V40.84C499.854 41.52 499.874 42.26 499.914 43.06C499.994 43.86 500.134 44.64 500.334 45.4C500.534 46.16 500.834 46.86 501.234 47.5C501.634 48.14 502.174 48.64 502.854 49ZM517.672 29.38C518.672 29.38 519.592 29.16 520.432 28.72C521.272 28.28 521.692 27.48 521.692 26.32C521.692 25.64 521.532 24.98 521.212 24.34C520.932 23.7 520.532 23.14 520.012 22.66C519.532 22.14 518.972 21.74 518.332 21.46C517.692 21.14 517.032 20.98 516.352 20.98C515.512 20.98 514.832 21.32 514.312 22C513.792 22.64 513.372 23.42 513.052 24.34C512.772 25.26 512.572 26.2 512.452 27.16C512.332 28.12 512.272 28.9 512.272 29.5C512.272 31.18 512.492 32.86 512.932 34.54C513.372 36.18 514.032 37.66 514.912 38.98C515.832 40.3 516.992 41.36 518.392 42.16C519.792 42.96 521.452 43.36 523.372 43.36C523.812 43.36 524.332 43.34 524.932 43.3C525.572 43.22 526.212 43.12 526.852 43C527.492 42.88 528.092 42.72 528.652 42.52C529.252 42.28 529.712 42 530.032 41.68L530.512 42.04C527.712 47.08 523.452 49.6 517.732 49.6C515.652 49.6 513.712 49.22 511.912 48.46C510.152 47.7 508.632 46.66 507.352 45.34C506.112 43.98 505.132 42.4 504.412 40.6C503.692 38.8 503.332 36.86 503.332 34.78C503.332 32.78 503.632 30.86 504.232 29.02C504.872 27.18 505.772 25.56 506.932 24.16C508.132 22.76 509.572 21.64 511.252 20.8C512.932 19.96 514.832 19.54 516.952 19.54C518.432 19.54 519.912 19.76 521.392 20.2C522.872 20.64 524.212 21.3 525.412 22.18C526.612 23.02 527.572 24.08 528.292 25.36C529.052 26.64 529.432 28.1 529.432 29.74C529.432 31.3 528.992 32.56 528.112 33.52C527.232 34.48 525.972 34.96 524.332 34.96C522.492 34.96 521.052 34.46 520.012 33.46C518.972 32.42 518.192 31.06 517.672 29.38ZM542.974 49.6C541.854 49.6 540.614 49.46 539.254 49.18C537.934 48.9 536.694 48.46 535.534 47.86C534.374 47.26 533.394 46.48 532.594 45.52C531.834 44.52 531.454 43.32 531.454 41.92C531.454 40.6 531.814 39.46 532.534 38.5C533.294 37.54 534.374 37.06 535.774 37.06C537.134 37.06 538.234 37.58 539.074 38.62C539.954 39.62 540.514 40.72 540.754 41.92C540.034 41.92 539.434 42.16 538.954 42.64C538.514 43.12 538.294 43.72 538.294 44.44C538.294 45.04 538.434 45.58 538.714 46.06C538.994 46.54 539.354 46.94 539.794 47.26C540.274 47.54 540.794 47.76 541.354 47.92C541.914 48.08 542.454 48.16 542.974 48.16C543.614 48.16 544.254 48.08 544.894 47.92C545.534 47.76 546.114 47.52 546.634 47.2C547.154 46.84 547.574 46.4 547.894 45.88C548.214 45.32 548.374 44.66 548.374 43.9C548.374 42.86 547.974 42 547.174 41.32C546.414 40.6 545.454 39.94 544.294 39.34C543.134 38.7 541.874 38.08 540.514 37.48C539.154 36.84 537.894 36.12 536.734 35.32C535.574 34.48 534.594 33.48 533.794 32.32C533.034 31.16 532.654 29.74 532.654 28.06C532.654 26.54 533.034 25.26 533.794 24.22C534.594 23.14 535.574 22.26 536.734 21.58C537.894 20.86 539.174 20.34 540.574 20.02C542.014 19.7 543.354 19.54 544.594 19.54C545.714 19.54 546.914 19.68 548.194 19.96C549.514 20.2 550.714 20.62 551.794 21.22C552.914 21.82 553.834 22.6 554.554 23.56C555.274 24.48 555.634 25.64 555.634 27.04C555.634 28.28 555.274 29.26 554.554 29.98C553.874 30.7 552.914 31.06 551.674 31.06C550.394 31.06 549.334 30.68 548.494 29.92C547.654 29.16 547.054 28.2 546.694 27.04C547.374 27.04 547.894 26.84 548.254 26.44C548.614 26 548.794 25.46 548.794 24.82C548.794 23.62 548.334 22.68 547.414 22C546.494 21.32 545.474 20.98 544.354 20.98C543.034 20.98 541.934 21.4 541.054 22.24C540.174 23.04 539.734 24.1 539.734 25.42C539.734 26.42 540.134 27.28 540.934 28C541.774 28.72 542.794 29.4 543.994 30.04C545.234 30.64 546.554 31.24 547.954 31.84C549.394 32.44 550.714 33.16 551.914 34C553.154 34.84 554.174 35.84 554.974 37C555.814 38.12 556.234 39.5 556.234 41.14C556.234 42.78 555.774 44.16 554.854 45.28C553.974 46.36 552.874 47.22 551.554 47.86C550.234 48.5 548.794 48.94 547.234 49.18C545.714 49.46 544.294 49.6 542.974 49.6ZM9.42 112.5C8.9 112.54 8.32 112.62 7.68 112.74C7.08 112.86 6.5 112.98 5.94 113.1C5.38 113.22 4.86 113.36 4.38 113.52C3.9 113.64 3.52 113.78 3.24 113.94L3.36 83.7C3.36 82.02 3.06 80.62 2.46 79.5C1.86 78.34 1.04 77.12 0 75.84C1.4 75.6 2.58 75.38 3.54 75.18C4.54 74.94 5.46 74.66 6.3 74.34C7.18 74.02 8.06 73.64 8.94 73.2C9.86 72.72 10.92 72.14 12.12 71.46V89.34C12.64 88.74 13.18 88.16 13.74 87.6C14.34 87 14.92 86.46 15.48 85.98C16.08 85.5 16.66 85.12 17.22 84.84C17.82 84.52 18.36 84.36 18.84 84.36C20.92 84.36 22.76 84.76 24.36 85.56C25.96 86.36 27.3 87.44 28.38 88.8C29.5 90.12 30.34 91.66 30.9 93.42C31.46 95.18 31.74 97.02 31.74 98.94C31.74 100.98 31.44 102.94 30.84 104.82C30.24 106.7 29.34 108.36 28.14 109.8C26.98 111.24 25.54 112.4 23.82 113.28C22.14 114.12 20.22 114.54 18.06 114.54C17.18 114.54 16.38 114.48 15.66 114.36C14.94 114.24 14.24 114.1 13.56 113.94C12.92 113.74 12.26 113.52 11.58 113.28C10.94 113.04 10.22 112.78 9.42 112.5ZM12.12 89.88V105.24C12.12 106 12.18 106.84 12.3 107.76C12.42 108.68 12.66 109.54 13.02 110.34C13.38 111.1 13.86 111.74 14.46 112.26C15.1 112.78 15.92 113.04 16.92 113.04C18.16 113.04 19.2 112.7 20.04 112.02C20.88 111.3 21.54 110.42 22.02 109.38C22.54 108.34 22.9 107.24 23.1 106.08C23.34 104.88 23.46 103.78 23.46 102.78C23.46 101.22 23.26 99.66 22.86 98.1C22.46 96.54 21.84 95.14 21 93.9C20.16 92.62 19.08 91.6 17.76 90.84C16.48 90.04 14.96 89.64 13.2 89.64C12.76 89.64 12.4 89.72 12.12 89.88ZM44.0466 85.02V104.7C44.0466 105.3 44.1066 105.92 44.2266 106.56C44.3466 107.2 44.5466 107.78 44.8266 108.3C45.1066 108.82 45.4866 109.24 45.9666 109.56C46.4866 109.88 47.1066 110.04 47.8266 110.04C48.9866 110.04 49.8866 109.66 50.5266 108.9C51.2066 108.14 51.6666 107.26 51.9066 106.26C51.9066 105.46 51.9266 104.68 51.9666 103.92C52.0066 103.16 52.0266 102.42 52.0266 101.7V93.18C52.0266 92.5 51.9866 91.76 51.9066 90.96C51.8666 90.16 51.7466 89.38 51.5466 88.62C51.3466 87.86 51.0466 87.16 50.6466 86.52C50.2466 85.88 49.7066 85.38 49.0266 85.02H60.7866V104.58C60.7866 106.54 61.0266 108.22 61.5066 109.62C62.0266 111.02 62.9066 112.48 64.1466 114H53.4066C53.2066 113.24 52.9866 112.46 52.7466 111.66C52.5066 110.82 52.3066 110 52.1466 109.2C52.0266 109.4 51.5266 109.8 50.6466 110.4C49.7666 110.96 48.8066 111.54 47.7666 112.14C46.7666 112.74 45.8266 113.28 44.9466 113.76C44.0666 114.24 43.5266 114.48 43.3266 114.48C41.9666 114.48 40.7866 114.22 39.7866 113.7C38.7866 113.18 37.9466 112.48 37.2666 111.6C36.6266 110.72 36.1266 109.7 35.7666 108.54C35.4466 107.38 35.2866 106.18 35.2866 104.94V93.18C35.2866 92.5 35.2466 91.76 35.1666 90.96C35.0866 90.16 34.9466 89.38 34.7466 88.62C34.5466 87.86 34.2466 87.16 33.8466 86.52C33.4466 85.88 32.9066 85.38 32.2266 85.02H44.0466ZM76.0402 114.6C74.9202 114.6 73.6802 114.46 72.3202 114.18C71.0002 113.9 69.7602 113.46 68.6002 112.86C67.4402 112.26 66.4602 111.48 65.6602 110.52C64.9002 109.52 64.5202 108.32 64.5202 106.92C64.5202 105.6 64.8802 104.46 65.6002 103.5C66.3602 102.54 67.4402 102.06 68.8402 102.06C70.2002 102.06 71.3002 102.58 72.1402 103.62C73.0202 104.62 73.5802 105.72 73.8202 106.92C73.1002 106.92 72.5002 107.16 72.0202 107.64C71.5802 108.12 71.3602 108.72 71.3602 109.44C71.3602 110.04 71.5002 110.58 71.7802 111.06C72.0602 111.54 72.4202 111.94 72.8602 112.26C73.3402 112.54 73.8602 112.76 74.4202 112.92C74.9802 113.08 75.5202 113.16 76.0402 113.16C76.6802 113.16 77.3202 113.08 77.9602 112.92C78.6002 112.76 79.1802 112.52 79.7002 112.2C80.2202 111.84 80.6402 111.4 80.9602 110.88C81.2802 110.32 81.4402 109.66 81.4402 108.9C81.4402 107.86 81.0402 107 80.2402 106.32C79.4802 105.6 78.5202 104.94 77.3602 104.34C76.2002 103.7 74.9402 103.08 73.5802 102.48C72.2202 101.84 70.9602 101.12 69.8002 100.32C68.6402 99.48 67.6602 98.48 66.8602 97.32C66.1002 96.16 65.7202 94.74 65.7202 93.06C65.7202 91.54 66.1002 90.26 66.8602 89.22C67.6202 88.14 68.5802 87.26 69.7402 86.58C70.9402 85.86 72.2402 85.34 73.6402 85.02C75.0402 84.7 76.3602 84.54 77.6002 84.54C76.8402 83.9 76.2402 83.16 75.8002 82.32C75.4002 81.48 75.2002 80.54 75.2002 79.5C75.2002 77.86 75.6202 76.48 76.4602 75.36C77.3002 74.2 78.3402 73.26 79.5802 72.54C80.8602 71.82 82.2402 71.3 83.7202 70.98C85.2402 70.66 86.6602 70.5 87.9802 70.5C89.3002 70.5 90.7202 70.66 92.2402 70.98C93.8002 71.26 95.2402 71.74 96.5602 72.42C97.8802 73.1 98.9802 74 99.8602 75.12C100.74 76.24 101.18 77.62 101.18 79.26C101.18 80.46 100.74 81.5 99.8602 82.38C99.0202 83.22 98.0002 83.64 96.8002 83.64C95.6002 83.64 94.5602 83.22 93.6802 82.38C92.8402 81.5 92.4202 80.46 92.4202 79.26C92.4202 78.06 92.8402 77.04 93.6802 76.2C94.5602 75.32 95.6002 74.88 96.8002 74.88C96.2802 74.28 95.6602 73.78 94.9402 73.38C94.2602 72.98 93.5202 72.68 92.7202 72.48C91.9602 72.28 91.1602 72.14 90.3202 72.06C89.5202 71.98 88.7402 71.94 87.9802 71.94C86.8202 71.94 85.7002 72.1 84.6202 72.42C83.5402 72.74 82.5802 73.22 81.7402 73.86C80.9402 74.5 80.2802 75.3 79.7602 76.26C79.2802 77.18 79.0402 78.28 79.0402 79.56C79.0402 80.6 79.2602 81.6 79.7002 82.56C80.1802 83.52 80.8202 84.34 81.6202 85.02C82.5402 85.22 83.4202 85.52 84.2602 85.92C85.1002 86.28 85.8402 86.76 86.4802 87.36C87.1602 87.92 87.7002 88.6 88.1002 89.4C88.5002 90.16 88.7002 91.04 88.7002 92.04C88.7002 93.28 88.3402 94.26 87.6202 94.98C86.9402 95.7 85.9802 96.06 84.7402 96.06C83.4602 96.06 82.4002 95.68 81.5602 94.92C80.7202 94.16 80.1202 93.2 79.7602 92.04C80.4402 92.04 80.9602 91.84 81.3202 91.44C81.6802 91 81.8602 90.46 81.8602 89.82C81.8602 88.62 81.4002 87.68 80.4802 87C79.5602 86.32 78.5402 85.98 77.4202 85.98C76.1002 85.98 75.0002 86.4 74.1202 87.24C73.2402 88.04 72.8002 89.1 72.8002 90.42C72.8002 91.42 73.2002 92.28 74.0002 93C74.8402 93.72 75.8602 94.4 77.0602 95.04C78.3002 95.64 79.6202 96.24 81.0202 96.84C82.4602 97.44 83.7802 98.16 84.9802 99C86.2202 99.84 87.2402 100.84 88.0402 102C88.8802 103.12 89.3002 104.5 89.3002 106.14C89.3002 107.78 88.8402 109.16 87.9202 110.28C87.0402 111.36 85.9402 112.22 84.6202 112.86C83.3002 113.5 81.8602 113.94 80.3002 114.18C78.7802 114.46 77.3602 114.6 76.0402 114.6ZM101.72 105.84C101.72 106.52 101.74 107.26 101.78 108.06C101.86 108.86 102 109.64 102.2 110.4C102.4 111.16 102.7 111.86 103.1 112.5C103.5 113.14 104.04 113.64 104.72 114H89.9002C90.5402 113.64 91.0602 113.14 91.4602 112.5C91.8602 111.82 92.1602 111.12 92.3602 110.4C92.6002 109.64 92.7602 108.86 92.8402 108.06C92.9202 107.26 92.9602 106.52 92.9602 105.84V97.32C92.9602 96.48 92.8802 95.72 92.7202 95.04C92.5602 94.32 92.3402 93.66 92.0602 93.06C91.7802 92.46 91.4202 91.88 90.9802 91.32C90.5802 90.72 90.1202 90.1 89.6002 89.46C91.0002 89.22 92.1802 89 93.1402 88.8C94.1402 88.56 95.0602 88.28 95.9002 87.96C96.7802 87.64 97.6602 87.26 98.5402 86.82C99.4602 86.34 100.52 85.74 101.72 85.02V105.84ZM119.827 114H105.007C105.647 113.64 106.167 113.14 106.567 112.5C106.967 111.82 107.267 111.12 107.467 110.4C107.707 109.64 107.867 108.86 107.947 108.06C108.027 107.26 108.067 106.52 108.067 105.84V97.32C108.067 96.48 107.987 95.72 107.827 95.04C107.667 94.32 107.447 93.66 107.167 93.06C106.887 92.46 106.527 91.88 106.087 91.32C105.687 90.72 105.227 90.1 104.707 89.46C106.107 89.22 107.287 89 108.247 88.8C109.247 88.56 110.167 88.28 111.007 87.96C111.887 87.64 112.767 87.26 113.647 86.82C114.567 86.34 115.627 85.74 116.827 85.02V89.7C117.107 89.42 117.687 89 118.567 88.44C119.447 87.88 120.367 87.32 121.327 86.76C122.327 86.16 123.227 85.64 124.027 85.2C124.867 84.76 125.367 84.54 125.527 84.54C126.887 84.54 128.067 84.8 129.067 85.32C130.067 85.84 130.887 86.54 131.527 87.42C132.207 88.3 132.707 89.32 133.027 90.48C133.387 91.64 133.567 92.84 133.567 94.08V105.84C133.567 106.52 133.607 107.26 133.687 108.06C133.767 108.86 133.907 109.64 134.107 110.4C134.307 111.16 134.607 111.86 135.007 112.5C135.447 113.14 135.987 113.64 136.627 114H121.807C122.447 113.64 122.967 113.14 123.367 112.5C123.767 111.82 124.067 111.12 124.267 110.4C124.467 109.64 124.607 108.86 124.687 108.06C124.767 107.26 124.807 106.52 124.807 105.84V94.32C124.807 93.72 124.747 93.1 124.627 92.46C124.507 91.82 124.307 91.24 124.027 90.72C123.747 90.2 123.347 89.78 122.827 89.46C122.347 89.14 121.747 88.98 121.027 88.98C119.787 88.98 118.827 89.42 118.147 90.3C117.467 91.14 117.027 92.12 116.827 93.24V105.84C116.827 106.52 116.847 107.26 116.887 108.06C116.967 108.86 117.107 109.64 117.307 110.4C117.507 111.16 117.807 111.86 118.207 112.5C118.607 113.14 119.147 113.64 119.827 114ZM146.241 99.3C146.521 100.54 146.941 101.72 147.501 102.84C148.061 103.92 148.761 104.88 149.601 105.72C150.441 106.52 151.421 107.16 152.541 107.64C153.701 108.12 155.001 108.36 156.441 108.36C156.881 108.36 157.401 108.34 158.001 108.3C158.641 108.22 159.281 108.12 159.921 108C160.561 107.88 161.161 107.72 161.721 107.52C162.321 107.28 162.781 107 163.101 106.68L163.581 107.04C162.221 109.52 160.601 111.4 158.721 112.68C156.881 113.96 154.481 114.6 151.521 114.6C149.441 114.6 147.501 114.22 145.701 113.46C143.941 112.7 142.421 111.66 141.141 110.34C139.901 108.98 138.921 107.4 138.201 105.6C137.481 103.8 137.121 101.86 137.121 99.78C137.121 97.78 137.421 95.86 138.021 94.02C138.661 92.18 139.561 90.56 140.721 89.16C141.921 87.76 143.361 86.64 145.041 85.8C146.721 84.96 148.621 84.54 150.741 84.54C152.661 84.54 154.401 84.84 155.961 85.44C157.561 86 158.901 86.84 159.981 87.96C161.101 89.04 161.961 90.36 162.561 91.92C163.161 93.48 163.461 95.22 163.461 97.14V98.58L146.241 99.3ZM155.421 92.34C155.421 91.66 155.281 90.94 155.001 90.18C154.761 89.42 154.401 88.74 153.921 88.14C153.441 87.5 152.881 86.98 152.241 86.58C151.601 86.18 150.901 85.98 150.141 85.98C149.261 85.98 148.541 86.34 147.981 87.06C147.421 87.78 146.981 88.64 146.661 89.64C146.341 90.6 146.101 91.6 145.941 92.64C145.821 93.68 145.761 94.5 145.761 95.1C145.761 95.98 145.821 96.88 145.941 97.8C146.741 97.72 147.541 97.62 148.341 97.5C149.141 97.38 149.941 97.26 150.741 97.14C152.101 96.94 153.221 96.46 154.101 95.7C154.981 94.94 155.421 93.82 155.421 92.34ZM176.06 114.6C174.94 114.6 173.7 114.46 172.34 114.18C171.02 113.9 169.78 113.46 168.62 112.86C167.46 112.26 166.48 111.48 165.68 110.52C164.92 109.52 164.54 108.32 164.54 106.92C164.54 105.6 164.9 104.46 165.62 103.5C166.38 102.54 167.46 102.06 168.86 102.06C170.22 102.06 171.32 102.58 172.16 103.62C173.04 104.62 173.6 105.72 173.84 106.92C173.12 106.92 172.52 107.16 172.04 107.64C171.6 108.12 171.38 108.72 171.38 109.44C171.38 110.04 171.52 110.58 171.8 111.06C172.08 111.54 172.44 111.94 172.88 112.26C173.36 112.54 173.88 112.76 174.44 112.92C175 113.08 175.54 113.16 176.06 113.16C176.7 113.16 177.34 113.08 177.98 112.92C178.62 112.76 179.2 112.52 179.72 112.2C180.24 111.84 180.66 111.4 180.98 110.88C181.3 110.32 181.46 109.66 181.46 108.9C181.46 107.86 181.06 107 180.26 106.32C179.5 105.6 178.54 104.94 177.38 104.34C176.22 103.7 174.96 103.08 173.6 102.48C172.24 101.84 170.98 101.12 169.82 100.32C168.66 99.48 167.68 98.48 166.88 97.32C166.12 96.16 165.74 94.74 165.74 93.06C165.74 91.54 166.12 90.26 166.88 89.22C167.68 88.14 168.66 87.26 169.82 86.58C170.98 85.86 172.26 85.34 173.66 85.02C175.1 84.7 176.44 84.54 177.68 84.54C178.8 84.54 180 84.68 181.28 84.96C182.6 85.2 183.8 85.62 184.88 86.22C186 86.82 186.92 87.6 187.64 88.56C188.36 89.48 188.72 90.64 188.72 92.04C188.72 93.28 188.36 94.26 187.64 94.98C186.96 95.7 186 96.06 184.76 96.06C183.48 96.06 182.42 95.68 181.58 94.92C180.74 94.16 180.14 93.2 179.78 92.04C180.46 92.04 180.98 91.84 181.34 91.44C181.7 91 181.88 90.46 181.88 89.82C181.88 88.62 181.42 87.68 180.5 87C179.58 86.32 178.56 85.98 177.44 85.98C176.12 85.98 175.02 86.4 174.14 87.24C173.26 88.04 172.82 89.1 172.82 90.42C172.82 91.42 173.22 92.28 174.02 93C174.86 93.72 175.88 94.4 177.08 95.04C178.32 95.64 179.64 96.24 181.04 96.84C182.48 97.44 183.8 98.16 185 99C186.24 99.84 187.26 100.84 188.06 102C188.9 103.12 189.32 104.5 189.32 106.14C189.32 107.78 188.86 109.16 187.94 110.28C187.06 111.36 185.96 112.22 184.64 112.86C183.32 113.5 181.88 113.94 180.32 114.18C178.8 114.46 177.38 114.6 176.06 114.6ZM202.075 114.6C200.955 114.6 199.715 114.46 198.355 114.18C197.035 113.9 195.795 113.46 194.635 112.86C193.475 112.26 192.495 111.48 191.695 110.52C190.935 109.52 190.555 108.32 190.555 106.92C190.555 105.6 190.915 104.46 191.635 103.5C192.395 102.54 193.475 102.06 194.875 102.06C196.235 102.06 197.335 102.58 198.175 103.62C199.055 104.62 199.615 105.72 199.855 106.92C199.135 106.92 198.535 107.16 198.055 107.64C197.615 108.12 197.395 108.72 197.395 109.44C197.395 110.04 197.535 110.58 197.815 111.06C198.095 111.54 198.455 111.94 198.895 112.26C199.375 112.54 199.895 112.76 200.455 112.92C201.015 113.08 201.555 113.16 202.075 113.16C202.715 113.16 203.355 113.08 203.995 112.92C204.635 112.76 205.215 112.52 205.735 112.2C206.255 111.84 206.675 111.4 206.995 110.88C207.315 110.32 207.475 109.66 207.475 108.9C207.475 107.86 207.075 107 206.275 106.32C205.515 105.6 204.555 104.94 203.395 104.34C202.235 103.7 200.975 103.08 199.615 102.48C198.255 101.84 196.995 101.12 195.835 100.32C194.675 99.48 193.695 98.48 192.895 97.32C192.135 96.16 191.755 94.74 191.755 93.06C191.755 91.54 192.135 90.26 192.895 89.22C193.695 88.14 194.675 87.26 195.835 86.58C196.995 85.86 198.275 85.34 199.675 85.02C201.115 84.7 202.455 84.54 203.695 84.54C204.815 84.54 206.015 84.68 207.295 84.96C208.615 85.2 209.815 85.62 210.895 86.22C212.015 86.82 212.935 87.6 213.655 88.56C214.375 89.48 214.735 90.64 214.735 92.04C214.735 93.28 214.375 94.26 213.655 94.98C212.975 95.7 212.015 96.06 210.775 96.06C209.495 96.06 208.435 95.68 207.595 94.92C206.755 94.16 206.155 93.2 205.795 92.04C206.475 92.04 206.995 91.84 207.355 91.44C207.715 91 207.895 90.46 207.895 89.82C207.895 88.62 207.435 87.68 206.515 87C205.595 86.32 204.575 85.98 203.455 85.98C202.135 85.98 201.035 86.4 200.155 87.24C199.275 88.04 198.835 89.1 198.835 90.42C198.835 91.42 199.235 92.28 200.035 93C200.875 93.72 201.895 94.4 203.095 95.04C204.335 95.64 205.655 96.24 207.055 96.84C208.495 97.44 209.815 98.16 211.015 99C212.255 99.84 213.275 100.84 214.075 102C214.915 103.12 215.335 104.5 215.335 106.14C215.335 107.78 214.875 109.16 213.955 110.28C213.075 111.36 211.975 112.22 210.655 112.86C209.335 113.5 207.895 113.94 206.335 114.18C204.815 114.46 203.395 114.6 202.075 114.6ZM16.02 137.12C16.94 137.12 17.88 137.24 18.84 137.48C19.8 137.72 20.66 138.08 21.42 138.56C22.22 139.04 22.86 139.68 23.34 140.48C23.82 141.24 24.06 142.16 24.06 143.24C24.06 144.64 23.6 145.8 22.68 146.72C21.76 147.6 20.6 148.04 19.2 148.04C17.92 148.04 16.86 147.62 16.02 146.78C15.18 145.94 14.58 144.94 14.22 143.78C14.98 143.78 15.6 143.56 16.08 143.12C16.56 142.64 16.8 142.02 16.8 141.26C16.8 140.46 16.54 139.84 16.02 139.4C15.5 138.92 14.84 138.68 14.04 138.68C13.4 138.68 12.8 138.82 12.24 139.1C11.68 139.38 11.2 139.76 10.8 140.24C10.44 140.72 10.14 141.26 9.9 141.86C9.7 142.46 9.6 143.06 9.6 143.66C9.6 144.9 9.9 145.94 10.5 146.78C11.14 147.58 11.94 148.22 12.9 148.7C13.86 149.18 14.9 149.52 16.02 149.72C17.14 149.92 18.2 150.02 19.2 150.02V151.46H12.36V170.84C12.36 171.52 12.38 172.26 12.42 173.06C12.5 173.86 12.64 174.64 12.84 175.4C13.04 176.16 13.34 176.86 13.74 177.5C14.14 178.14 14.68 178.64 15.36 179H0.54C1.18 178.64 1.7 178.14 2.1 177.5C2.5 176.82 2.8 176.12 3 175.4C3.24 174.64 3.4 173.86 3.48 173.06C3.56 172.26 3.6 171.52 3.6 170.84V151.46H0.3V150.02H3.72C3.72 148.1 3.98 146.36 4.5 144.8C5.06 143.2 5.86 141.84 6.9 140.72C7.94 139.56 9.22 138.68 10.74 138.08C12.3 137.44 14.06 137.12 16.02 137.12ZM42.6206 162.32C42.6206 161.48 42.5406 160.72 42.3806 160.04C42.2206 159.32 42.0006 158.66 41.7206 158.06C41.4406 157.46 41.0806 156.88 40.6406 156.32C40.2406 155.72 39.7806 155.1 39.2606 154.46C40.4206 154.26 41.5806 153.94 42.7406 153.5C43.9406 153.02 45.0006 152.42 45.9206 151.7C46.8406 150.94 47.5806 150.04 48.1406 149C48.7406 147.96 49.0406 146.76 49.0406 145.4C49.0406 144.04 48.7406 142.84 48.1406 141.8C47.5806 140.72 46.8206 139.82 45.8606 139.1C44.9406 138.38 43.8806 137.84 42.6806 137.48C41.4806 137.08 40.2606 136.88 39.0206 136.88C37.6206 136.88 36.2206 137.12 34.8206 137.6C33.4206 138.04 32.2606 138.8 31.3406 139.88C32.5406 139.88 33.5606 140.32 34.4006 141.2C35.2806 142.04 35.7206 143.06 35.7206 144.26C35.7206 145.46 35.2806 146.5 34.4006 147.38C33.5606 148.22 32.5406 148.64 31.3406 148.64C30.1406 148.64 29.1006 148.22 28.2206 147.38C27.3806 146.5 26.9606 145.46 26.9606 144.26C26.9606 142.66 27.3806 141.32 28.2206 140.24C29.1006 139.12 30.1806 138.22 31.4606 137.54C32.7406 136.82 34.1206 136.3 35.6006 135.98C37.1206 135.66 38.5406 135.5 39.8606 135.5C41.4206 135.5 42.9606 135.72 44.4806 136.16C46.0006 136.56 47.3406 137.18 48.5006 138.02C49.7006 138.86 50.6606 139.92 51.3806 141.2C52.1406 142.48 52.5206 144 52.5206 145.76C52.5206 147.36 52.1406 148.78 51.3806 150.02V154.64C51.5006 154.52 51.7806 154.32 52.2206 154.04C52.6606 153.72 53.1806 153.38 53.7806 153.02C54.3806 152.62 55.0206 152.22 55.7006 151.82C56.4206 151.42 57.0806 151.06 57.6806 150.74C58.2806 150.38 58.8006 150.1 59.2406 149.9C59.6806 149.66 59.9606 149.54 60.0806 149.54C61.4406 149.54 62.6206 149.8 63.6206 150.32C64.6206 150.84 65.4406 151.54 66.0806 152.42C66.7606 153.3 67.2606 154.32 67.5806 155.48C67.9406 156.64 68.1206 157.84 68.1206 159.08V170.84C68.1206 171.52 68.1606 172.26 68.2406 173.06C68.3206 173.86 68.4606 174.64 68.6606 175.4C68.8606 176.16 69.1606 176.86 69.5606 177.5C70.0006 178.14 70.5406 178.64 71.1806 179H56.3606C57.0006 178.64 57.5206 178.14 57.9206 177.5C58.3206 176.82 58.6206 176.12 58.8206 175.4C59.0206 174.64 59.1606 173.86 59.2406 173.06C59.3206 172.26 59.3606 171.52 59.3606 170.84V159.32C59.3606 158.72 59.3006 158.1 59.1806 157.46C59.0606 156.82 58.8606 156.24 58.5806 155.72C58.3006 155.2 57.9006 154.78 57.3806 154.46C56.9006 154.14 56.3006 153.98 55.5806 153.98C55.0606 153.98 54.5406 154.12 54.0206 154.4C53.5406 154.64 53.1006 154.96 52.7006 155.36C52.3006 155.76 51.9806 156.22 51.7406 156.74C51.5006 157.22 51.3806 157.72 51.3806 158.24V170.84C51.3806 171.52 51.4006 172.26 51.4406 173.06C51.5206 173.86 51.6606 174.64 51.8606 175.4C52.0606 176.16 52.3606 176.86 52.7606 177.5C53.1606 178.14 53.7006 178.64 54.3806 179H39.5606C40.2006 178.64 40.7206 178.14 41.1206 177.5C41.5206 176.82 41.8206 176.12 42.0206 175.4C42.2606 174.64 42.4206 173.86 42.5006 173.06C42.5806 172.26 42.6206 171.52 42.6206 170.84V162.32ZM24.1406 154.46C25.5406 154.22 26.7206 154 27.6806 153.8C28.6806 153.56 29.6006 153.28 30.4406 152.96C31.3206 152.64 32.2006 152.26 33.0806 151.82C34.0006 151.34 35.0606 150.74 36.2606 150.02V170.84C36.2606 171.52 36.2806 172.26 36.3206 173.06C36.4006 173.86 36.5406 174.64 36.7406 175.4C36.9406 176.16 37.2406 176.86 37.6406 177.5C38.0406 178.14 38.5806 178.64 39.2606 179H24.4406C25.0806 178.64 25.6006 178.14 26.0006 177.5C26.4006 176.82 26.7006 176.12 26.9006 175.4C27.1406 174.64 27.3006 173.86 27.3806 173.06C27.4606 172.26 27.5006 171.52 27.5006 170.84V162.32C27.5006 161.48 27.4206 160.72 27.2606 160.04C27.1006 159.32 26.8806 158.66 26.6006 158.06C26.3206 157.46 25.9606 156.88 25.5206 156.32C25.1206 155.72 24.6606 155.1 24.1406 154.46ZM76.6514 162.44C75.3714 162.44 74.3914 161.98 73.7114 161.06C73.0714 160.1 72.7514 159.04 72.7514 157.88C72.7514 156.36 73.1114 155.08 73.8314 154.04C74.5914 153 75.5314 152.14 76.6514 151.46C77.8114 150.78 79.0714 150.3 80.4314 150.02C81.8314 149.7 83.1514 149.54 84.3914 149.54C85.9114 149.54 87.3314 149.76 88.6514 150.2C89.9714 150.6 91.1114 151.22 92.0714 152.06C93.0714 152.9 93.8514 153.94 94.4114 155.18C94.9714 156.38 95.2514 157.78 95.2514 159.38V173.18C95.2514 173.46 95.2714 173.82 95.3114 174.26C95.3514 174.66 95.4314 175.06 95.5514 175.46C95.6714 175.86 95.8514 176.2 96.0914 176.48C96.3714 176.76 96.7114 176.9 97.1114 176.9C97.5514 176.9 97.9514 176.78 98.3114 176.54V177.14C97.3114 177.9 96.3914 178.5 95.5514 178.94C94.7114 179.38 93.6314 179.6 92.3114 179.6C91.6714 179.6 90.9914 179.48 90.2714 179.24C89.5914 179.04 88.9714 178.74 88.4114 178.34C87.8514 177.94 87.3914 177.44 87.0314 176.84C86.6714 176.24 86.4914 175.58 86.4914 174.86V162.32C82.4914 164.6 80.4914 168.1 80.4914 172.82C80.4914 174.42 80.7514 175.88 81.2714 177.2C81.8314 178.48 82.5914 179.58 83.5514 180.5C84.5114 181.42 85.6514 182.12 86.9714 182.6C88.2914 183.12 89.7314 183.38 91.2914 183.38C93.0514 183.38 94.5914 183.06 95.9114 182.42C97.2314 181.82 98.3314 180.98 99.2114 179.9C100.131 178.82 100.811 177.56 101.251 176.12C101.731 174.68 101.971 173.12 101.971 171.44V162.32C101.971 161.48 101.891 160.72 101.731 160.04C101.571 159.32 101.351 158.66 101.071 158.06C100.791 157.46 100.431 156.88 99.9914 156.32C99.5914 155.72 99.1314 155.1 98.6114 154.46C100.011 154.22 101.191 154 102.151 153.8C103.151 153.56 104.071 153.28 104.911 152.96C105.791 152.6 106.671 152.2 107.551 151.76C108.471 151.28 109.531 150.7 110.731 150.02V154.64C110.851 154.52 111.131 154.32 111.571 154.04C112.011 153.72 112.531 153.38 113.131 153.02C113.731 152.62 114.371 152.22 115.051 151.82C115.771 151.42 116.431 151.06 117.031 150.74C117.631 150.38 118.151 150.1 118.591 149.9C119.031 149.66 119.311 149.54 119.431 149.54C120.791 149.54 121.971 149.8 122.971 150.32C123.971 150.84 124.791 151.54 125.431 152.42C126.111 153.3 126.611 154.32 126.931 155.48C127.291 156.64 127.471 157.84 127.471 159.08V170.84C127.471 171.52 127.511 172.26 127.591 173.06C127.671 173.86 127.811 174.64 128.011 175.4C128.211 176.16 128.511 176.86 128.911 177.5C129.351 178.14 129.891 178.64 130.531 179H115.711C116.351 178.64 116.871 178.14 117.271 177.5C117.671 176.82 117.971 176.12 118.171 175.4C118.371 174.64 118.511 173.86 118.591 173.06C118.671 172.26 118.711 171.52 118.711 170.84V159.32C118.711 158.72 118.651 158.1 118.531 157.46C118.411 156.82 118.211 156.24 117.931 155.72C117.651 155.2 117.251 154.78 116.731 154.46C116.251 154.14 115.651 153.98 114.931 153.98C114.411 153.98 113.891 154.1 113.371 154.34C112.891 154.58 112.451 154.9 112.051 155.3C111.651 155.7 111.331 156.16 111.091 156.68C110.851 157.2 110.731 157.72 110.731 158.24C110.691 158.92 110.671 159.6 110.671 160.28C110.711 160.96 110.731 161.64 110.731 162.32V171.86C110.731 174.46 110.051 176.62 108.691 178.34C107.371 180.02 105.691 181.36 103.651 182.36C101.611 183.36 99.3914 184.04 96.9914 184.4C94.6314 184.8 92.4114 185 90.3314 185C88.3714 185 86.2914 184.84 84.0914 184.52C81.9314 184.2 79.9314 183.6 78.0914 182.72C76.2514 181.84 74.7114 180.62 73.4714 179.06C72.2714 177.5 71.6714 175.5 71.6714 173.06C71.6714 171.38 72.1914 169.9 73.2314 168.62C74.3114 167.3 75.6114 166.16 77.1314 165.2C78.6914 164.2 80.3114 163.34 81.9914 162.62C83.7114 161.9 85.2114 161.3 86.4914 160.82C86.4914 160.22 86.5114 159.38 86.5514 158.3C86.5914 157.18 86.5514 156.08 86.4314 155C86.3114 153.92 86.0514 152.98 85.6514 152.18C85.2514 151.38 84.5914 150.98 83.6714 150.98C83.2314 150.98 82.8314 151.1 82.4714 151.34C82.1114 151.58 81.7914 151.88 81.5114 152.24C81.2714 152.6 81.0714 153 80.9114 153.44C80.7914 153.84 80.7314 154.24 80.7314 154.64C80.7314 155.36 80.9514 155.9 81.3914 156.26C81.8314 156.62 82.3914 156.8 83.0714 156.8C82.6314 158.28 81.8714 159.6 80.7914 160.76C79.7114 161.88 78.3314 162.44 76.6514 162.44ZM145.367 159.38C146.367 159.38 147.287 159.16 148.127 158.72C148.967 158.28 149.387 157.48 149.387 156.32C149.387 155.64 149.227 154.98 148.907 154.34C148.627 153.7 148.227 153.14 147.707 152.66C147.227 152.14 146.667 151.74 146.027 151.46C145.387 151.14 144.727 150.98 144.047 150.98C143.207 150.98 142.527 151.32 142.007 152C141.487 152.64 141.067 153.42 140.747 154.34C140.467 155.26 140.267 156.2 140.147 157.16C140.027 158.12 139.967 158.9 139.967 159.5C139.967 161.18 140.187 162.86 140.627 164.54C141.067 166.18 141.727 167.66 142.607 168.98C143.527 170.3 144.687 171.36 146.087 172.16C147.487 172.96 149.147 173.36 151.067 173.36C151.507 173.36 152.027 173.34 152.627 173.3C153.267 173.22 153.907 173.12 154.547 173C155.187 172.88 155.787 172.72 156.347 172.52C156.947 172.28 157.407 172 157.727 171.68L158.207 172.04C155.407 177.08 151.147 179.6 145.427 179.6C143.347 179.6 141.407 179.22 139.607 178.46C137.847 177.7 136.327 176.66 135.047 175.34C133.807 173.98 132.827 172.4 132.107 170.6C131.387 168.8 131.027 166.86 131.027 164.78C131.027 162.78 131.327 160.86 131.927 159.02C132.567 157.18 133.467 155.56 134.627 154.16C135.827 152.76 137.267 151.64 138.947 150.8C140.627 149.96 142.527 149.54 144.647 149.54C146.127 149.54 147.607 149.76 149.087 150.2C150.567 150.64 151.907 151.3 153.107 152.18C154.307 153.02 155.267 154.08 155.987 155.36C156.747 156.64 157.127 158.1 157.127 159.74C157.127 161.3 156.687 162.56 155.807 163.52C154.927 164.48 153.667 164.96 152.027 164.96C150.187 164.96 148.747 164.46 147.707 163.46C146.667 162.42 145.887 161.06 145.367 159.38ZM165.989 148.64C164.789 148.64 163.749 148.22 162.869 147.38C162.029 146.5 161.609 145.46 161.609 144.26C161.609 143.06 162.029 142.04 162.869 141.2C163.749 140.32 164.789 139.88 165.989 139.88C167.189 139.88 168.209 140.32 169.049 141.2C169.929 142.04 170.369 143.06 170.369 144.26C170.369 145.46 169.929 146.5 169.049 147.38C168.209 148.22 167.189 148.64 165.989 148.64ZM173.909 179H159.089C159.729 178.64 160.249 178.14 160.649 177.5C161.049 176.82 161.349 176.12 161.549 175.4C161.789 174.64 161.949 173.86 162.029 173.06C162.109 172.26 162.149 171.52 162.149 170.84V162.32C162.149 161.48 162.069 160.72 161.909 160.04C161.749 159.32 161.529 158.66 161.249 158.06C160.969 157.46 160.609 156.88 160.169 156.32C159.769 155.72 159.309 155.1 158.789 154.46C160.189 154.22 161.369 154 162.329 153.8C163.329 153.56 164.249 153.28 165.089 152.96C165.969 152.64 166.849 152.26 167.729 151.82C168.649 151.34 169.709 150.74 170.909 150.02V170.84C170.909 171.52 170.929 172.26 170.969 173.06C171.049 173.86 171.189 174.64 171.389 175.4C171.589 176.16 171.889 176.86 172.289 177.5C172.689 178.14 173.229 178.64 173.909 179ZM201.026 177.14C200.506 177.5 200.026 177.84 199.586 178.16C199.146 178.48 198.706 178.74 198.266 178.94C197.826 179.14 197.346 179.3 196.826 179.42C196.306 179.54 195.706 179.6 195.026 179.6C193.946 179.6 192.866 179.32 191.786 178.76C190.706 178.16 189.946 177.34 189.506 176.3C188.586 177.34 187.466 178.16 186.146 178.76C184.826 179.32 183.306 179.6 181.586 179.6C179.466 179.6 177.726 179.1 176.366 178.1C175.046 177.1 174.386 175.46 174.386 173.18C174.386 171.62 174.966 170.26 176.126 169.1C177.326 167.94 178.726 166.88 180.326 165.92C181.966 164.96 183.606 164.04 185.246 163.16C186.926 162.24 188.246 161.26 189.206 160.22V158.3C189.206 157.78 189.206 157.12 189.206 156.32C189.206 155.48 189.126 154.68 188.966 153.92C188.806 153.12 188.526 152.44 188.126 151.88C187.766 151.28 187.186 150.98 186.386 150.98C185.946 150.98 185.546 151.1 185.186 151.34C184.826 151.58 184.506 151.88 184.226 152.24C183.986 152.6 183.786 153 183.626 153.44C183.506 153.84 183.446 154.24 183.446 154.64C183.446 155.36 183.666 155.9 184.106 156.26C184.546 156.62 185.106 156.8 185.786 156.8C185.346 158.28 184.586 159.6 183.506 160.76C182.426 161.88 181.046 162.44 179.366 162.44C178.086 162.44 177.106 161.98 176.426 161.06C175.786 160.1 175.466 159.04 175.466 157.88C175.466 156.36 175.826 155.08 176.546 154.04C177.306 153 178.246 152.14 179.366 151.46C180.526 150.78 181.786 150.3 183.146 150.02C184.546 149.7 185.866 149.54 187.106 149.54C188.626 149.54 190.046 149.76 191.366 150.2C192.686 150.6 193.826 151.22 194.786 152.06C195.786 152.9 196.566 153.94 197.126 155.18C197.686 156.38 197.966 157.78 197.966 159.38V173.18C197.966 173.46 197.986 173.82 198.026 174.26C198.066 174.66 198.146 175.06 198.266 175.46C198.386 175.86 198.566 176.2 198.806 176.48C199.086 176.76 199.426 176.9 199.826 176.9C200.266 176.9 200.666 176.78 201.026 176.54V177.14ZM189.206 162.32C188.646 162.84 188.006 163.4 187.286 164C186.606 164.6 185.966 165.24 185.366 165.92C184.766 166.56 184.246 167.26 183.806 168.02C183.406 168.78 183.206 169.6 183.206 170.48C183.206 171.12 183.246 171.76 183.326 172.4C183.446 173 183.626 173.54 183.866 174.02C184.146 174.5 184.526 174.9 185.006 175.22C185.486 175.5 186.106 175.64 186.866 175.64C187.746 175.64 188.526 175.44 189.206 175.04V162.32ZM213.448 170.84C213.448 171.52 213.468 172.26 213.508 173.06C213.588 173.86 213.728 174.64 213.928 175.4C214.168 176.16 214.488 176.86 214.888 177.5C215.288 178.14 215.828 178.64 216.508 179H201.628C202.308 178.64 202.848 178.14 203.248 177.5C203.648 176.86 203.948 176.16 204.148 175.4C204.348 174.64 204.488 173.86 204.568 173.06C204.648 172.26 204.688 171.52 204.688 170.84V148.76C204.688 147.92 204.608 147.16 204.448 146.48C204.288 145.76 204.068 145.1 203.788 144.5C203.508 143.9 203.148 143.32 202.708 142.76C202.308 142.16 201.848 141.54 201.328 140.9C202.728 140.66 203.908 140.44 204.868 140.24C205.868 140 206.788 139.72 207.628 139.4C208.508 139.08 209.388 138.7 210.268 138.26C211.188 137.78 212.248 137.18 213.448 136.46V170.84ZM240.161 179.6C239.041 179.6 237.801 179.46 236.441 179.18C235.121 178.9 233.881 178.46 232.721 177.86C231.561 177.26 230.581 176.48 229.781 175.52C229.021 174.52 228.641 173.32 228.641 171.92C228.641 170.6 229.001 169.46 229.721 168.5C230.481 167.54 231.561 167.06 232.961 167.06C234.321 167.06 235.421 167.58 236.261 168.62C237.141 169.62 237.701 170.72 237.941 171.92C237.221 171.92 236.621 172.16 236.141 172.64C235.701 173.12 235.481 173.72 235.481 174.44C235.481 175.04 235.621 175.58 235.901 176.06C236.181 176.54 236.541 176.94 236.981 177.26C237.461 177.54 237.981 177.76 238.541 177.92C239.101 178.08 239.641 178.16 240.161 178.16C240.801 178.16 241.441 178.08 242.081 177.92C242.721 177.76 243.301 177.52 243.821 177.2C244.341 176.84 244.761 176.4 245.081 175.88C245.401 175.32 245.561 174.66 245.561 173.9C245.561 172.86 245.161 172 244.361 171.32C243.601 170.6 242.641 169.94 241.481 169.34C240.321 168.7 239.061 168.08 237.701 167.48C236.341 166.84 235.081 166.12 233.921 165.32C232.761 164.48 231.781 163.48 230.981 162.32C230.221 161.16 229.841 159.74 229.841 158.06C229.841 156.54 230.221 155.26 230.981 154.22C231.781 153.14 232.761 152.26 233.921 151.58C235.081 150.86 236.361 150.34 237.761 150.02C239.201 149.7 240.541 149.54 241.781 149.54C242.901 149.54 244.101 149.68 245.381 149.96C246.701 150.2 247.901 150.62 248.981 151.22C250.101 151.82 251.021 152.6 251.741 153.56C252.461 154.48 252.821 155.64 252.821 157.04C252.821 158.28 252.461 159.26 251.741 159.98C251.061 160.7 250.101 161.06 248.861 161.06C247.581 161.06 246.521 160.68 245.681 159.92C244.841 159.16 244.241 158.2 243.881 157.04C244.561 157.04 245.081 156.84 245.441 156.44C245.801 156 245.981 155.46 245.981 154.82C245.981 153.62 245.521 152.68 244.601 152C243.681 151.32 242.661 150.98 241.541 150.98C240.221 150.98 239.121 151.4 238.241 152.24C237.361 153.04 236.921 154.1 236.921 155.42C236.921 156.42 237.321 157.28 238.121 158C238.961 158.72 239.981 159.4 241.181 160.04C242.421 160.64 243.741 161.24 245.141 161.84C246.581 162.44 247.901 163.16 249.101 164C250.341 164.84 251.361 165.84 252.161 167C253.001 168.12 253.421 169.5 253.421 171.14C253.421 172.78 252.961 174.16 252.041 175.28C251.161 176.36 250.061 177.22 248.741 177.86C247.421 178.5 245.981 178.94 244.421 179.18C242.901 179.46 241.481 179.6 240.161 179.6ZM268.711 149.54C270.791 149.54 272.711 149.94 274.471 150.74C276.231 151.54 277.751 152.64 279.031 154.04C280.351 155.4 281.371 157 282.091 158.84C282.811 160.64 283.171 162.56 283.171 164.6C283.171 166.64 282.811 168.58 282.091 170.42C281.371 172.22 280.351 173.8 279.031 175.16C277.751 176.52 276.231 177.6 274.471 178.4C272.711 179.2 270.791 179.6 268.711 179.6C266.631 179.6 264.691 179.2 262.891 178.4C261.131 177.6 259.611 176.52 258.331 175.16C257.051 173.8 256.031 172.22 255.271 170.42C254.551 168.58 254.191 166.64 254.191 164.6C254.191 162.56 254.551 160.64 255.271 158.84C256.031 157 257.051 155.4 258.331 154.04C259.611 152.64 261.131 151.54 262.891 150.74C264.691 149.94 266.631 149.54 268.711 149.54ZM270.631 177.98C271.551 177.98 272.271 177.64 272.791 176.96C273.311 176.28 273.711 175.48 273.991 174.56C274.271 173.6 274.451 172.62 274.531 171.62C274.611 170.62 274.651 169.82 274.651 169.22C274.651 168.46 274.591 167.48 274.471 166.28C274.351 165.08 274.151 163.82 273.871 162.5C273.591 161.18 273.231 159.86 272.791 158.54C272.391 157.18 271.871 155.98 271.231 154.94C270.591 153.86 269.851 152.98 269.011 152.3C268.211 151.62 267.271 151.28 266.191 151.28C265.351 151.28 264.691 151.6 264.211 152.24C263.731 152.88 263.371 153.64 263.131 154.52C262.891 155.4 262.731 156.3 262.651 157.22C262.611 158.14 262.591 158.88 262.591 159.44C262.591 160.16 262.651 161.12 262.771 162.32C262.891 163.48 263.071 164.76 263.311 166.16C263.591 167.52 263.931 168.9 264.331 170.3C264.771 171.7 265.291 172.98 265.891 174.14C266.491 175.26 267.171 176.18 267.931 176.9C268.731 177.62 269.631 177.98 270.631 177.98ZM295.186 170.84C295.186 171.52 295.206 172.26 295.246 173.06C295.326 173.86 295.466 174.64 295.666 175.4C295.906 176.16 296.226 176.86 296.626 177.5C297.026 178.14 297.566 178.64 298.246 179H283.366C284.046 178.64 284.586 178.14 284.986 177.5C285.386 176.86 285.686 176.16 285.886 175.4C286.086 174.64 286.226 173.86 286.306 173.06C286.386 172.26 286.426 171.52 286.426 170.84V148.76C286.426 147.92 286.346 147.16 286.186 146.48C286.026 145.76 285.806 145.1 285.526 144.5C285.246 143.9 284.886 143.32 284.446 142.76C284.046 142.16 283.586 141.54 283.066 140.9C284.466 140.66 285.646 140.44 286.606 140.24C287.606 140 288.526 139.72 289.366 139.4C290.246 139.08 291.126 138.7 292.006 138.26C292.926 137.78 293.986 137.18 295.186 136.46V170.84ZM309.476 150.02V169.7C309.476 170.3 309.536 170.92 309.656 171.56C309.776 172.2 309.976 172.78 310.256 173.3C310.536 173.82 310.916 174.24 311.396 174.56C311.916 174.88 312.536 175.04 313.256 175.04C314.416 175.04 315.316 174.66 315.956 173.9C316.636 173.14 317.096 172.26 317.336 171.26C317.336 170.46 317.356 169.68 317.396 168.92C317.436 168.16 317.456 167.42 317.456 166.7V158.18C317.456 157.5 317.416 156.76 317.336 155.96C317.296 155.16 317.176 154.38 316.976 153.62C316.776 152.86 316.476 152.16 316.076 151.52C315.676 150.88 315.136 150.38 314.456 150.02H326.216V169.58C326.216 171.54 326.456 173.22 326.936 174.62C327.456 176.02 328.336 177.48 329.576 179H318.836C318.636 178.24 318.416 177.46 318.176 176.66C317.936 175.82 317.736 175 317.576 174.2C317.456 174.4 316.956 174.8 316.076 175.4C315.196 175.96 314.236 176.54 313.196 177.14C312.196 177.74 311.256 178.28 310.376 178.76C309.496 179.24 308.956 179.48 308.756 179.48C307.396 179.48 306.216 179.22 305.216 178.7C304.216 178.18 303.376 177.48 302.696 176.6C302.056 175.72 301.556 174.7 301.196 173.54C300.876 172.38 300.716 171.18 300.716 169.94V158.18C300.716 157.5 300.676 156.76 300.596 155.96C300.516 155.16 300.376 154.38 300.176 153.62C299.976 152.86 299.676 152.16 299.276 151.52C298.876 150.88 298.336 150.38 297.656 150.02H309.476ZM341.59 150.02H347.83V151.46H341.59V172.7C341.59 173.86 341.97 174.7 342.73 175.22C343.53 175.7 344.45 175.94 345.49 175.94C346.05 175.94 346.59 175.88 347.11 175.76C347.67 175.64 348.19 175.44 348.67 175.16V175.76C347.47 176.88 346.07 177.8 344.47 178.52C342.91 179.24 341.29 179.6 339.61 179.6C338.41 179.6 337.37 179.38 336.49 178.94C335.65 178.5 334.95 177.92 334.39 177.2C333.87 176.44 333.47 175.58 333.19 174.62C332.95 173.62 332.83 172.58 332.83 171.5V151.46H329.89V150.56C331.29 150.44 332.55 150.2 333.67 149.84C334.79 149.48 335.79 149 336.67 148.4C337.55 147.76 338.31 146.96 338.95 146C339.63 145.04 340.21 143.88 340.69 142.52H341.59V150.02ZM356.184 148.64C354.984 148.64 353.944 148.22 353.064 147.38C352.224 146.5 351.804 145.46 351.804 144.26C351.804 143.06 352.224 142.04 353.064 141.2C353.944 140.32 354.984 139.88 356.184 139.88C357.384 139.88 358.404 140.32 359.244 141.2C360.124 142.04 360.564 143.06 360.564 144.26C360.564 145.46 360.124 146.5 359.244 147.38C358.404 148.22 357.384 148.64 356.184 148.64ZM364.104 179H349.284C349.924 178.64 350.444 178.14 350.844 177.5C351.244 176.82 351.544 176.12 351.744 175.4C351.984 174.64 352.144 173.86 352.224 173.06C352.304 172.26 352.344 171.52 352.344 170.84V162.32C352.344 161.48 352.264 160.72 352.104 160.04C351.944 159.32 351.724 158.66 351.444 158.06C351.164 157.46 350.804 156.88 350.364 156.32C349.964 155.72 349.504 155.1 348.984 154.46C350.384 154.22 351.564 154 352.524 153.8C353.524 153.56 354.444 153.28 355.284 152.96C356.164 152.64 357.044 152.26 357.924 151.82C358.844 151.34 359.904 150.74 361.104 150.02V170.84C361.104 171.52 361.124 172.26 361.164 173.06C361.244 173.86 361.384 174.64 361.584 175.4C361.784 176.16 362.084 176.86 362.484 177.5C362.884 178.14 363.424 178.64 364.104 179ZM379.102 149.54C381.182 149.54 383.102 149.94 384.862 150.74C386.622 151.54 388.142 152.64 389.422 154.04C390.742 155.4 391.762 157 392.482 158.84C393.202 160.64 393.562 162.56 393.562 164.6C393.562 166.64 393.202 168.58 392.482 170.42C391.762 172.22 390.742 173.8 389.422 175.16C388.142 176.52 386.622 177.6 384.862 178.4C383.102 179.2 381.182 179.6 379.102 179.6C377.022 179.6 375.082 179.2 373.282 178.4C371.522 177.6 370.002 176.52 368.722 175.16C367.442 173.8 366.422 172.22 365.662 170.42C364.942 168.58 364.582 166.64 364.582 164.6C364.582 162.56 364.942 160.64 365.662 158.84C366.422 157 367.442 155.4 368.722 154.04C370.002 152.64 371.522 151.54 373.282 150.74C375.082 149.94 377.022 149.54 379.102 149.54ZM381.022 177.98C381.942 177.98 382.662 177.64 383.182 176.96C383.702 176.28 384.102 175.48 384.382 174.56C384.662 173.6 384.842 172.62 384.922 171.62C385.002 170.62 385.042 169.82 385.042 169.22C385.042 168.46 384.982 167.48 384.862 166.28C384.742 165.08 384.542 163.82 384.262 162.5C383.982 161.18 383.622 159.86 383.182 158.54C382.782 157.18 382.262 155.98 381.622 154.94C380.982 153.86 380.242 152.98 379.402 152.3C378.602 151.62 377.662 151.28 376.582 151.28C375.742 151.28 375.082 151.6 374.602 152.24C374.122 152.88 373.762 153.64 373.522 154.52C373.282 155.4 373.122 156.3 373.042 157.22C373.002 158.14 372.982 158.88 372.982 159.44C372.982 160.16 373.042 161.12 373.162 162.32C373.282 163.48 373.462 164.76 373.702 166.16C373.982 167.52 374.322 168.9 374.722 170.3C375.162 171.7 375.682 172.98 376.282 174.14C376.882 175.26 377.562 176.18 378.322 176.9C379.122 177.62 380.022 177.98 381.022 177.98ZM409.163 179H394.343C394.983 178.64 395.503 178.14 395.903 177.5C396.303 176.82 396.603 176.12 396.803 175.4C397.043 174.64 397.203 173.86 397.283 173.06C397.363 172.26 397.403 171.52 397.403 170.84V162.32C397.403 161.48 397.323 160.72 397.163 160.04C397.003 159.32 396.783 158.66 396.503 158.06C396.223 157.46 395.863 156.88 395.423 156.32C395.023 155.72 394.563 155.1 394.043 154.46C395.443 154.22 396.623 154 397.583 153.8C398.583 153.56 399.503 153.28 400.343 152.96C401.223 152.64 402.103 152.26 402.983 151.82C403.903 151.34 404.963 150.74 406.163 150.02V154.7C406.443 154.42 407.023 154 407.903 153.44C408.783 152.88 409.703 152.32 410.663 151.76C411.663 151.16 412.563 150.64 413.363 150.2C414.203 149.76 414.703 149.54 414.863 149.54C416.223 149.54 417.403 149.8 418.403 150.32C419.403 150.84 420.223 151.54 420.863 152.42C421.543 153.3 422.043 154.32 422.363 155.48C422.723 156.64 422.903 157.84 422.903 159.08V170.84C422.903 171.52 422.943 172.26 423.023 173.06C423.103 173.86 423.243 174.64 423.443 175.4C423.643 176.16 423.943 176.86 424.343 177.5C424.783 178.14 425.323 178.64 425.963 179H411.143C411.783 178.64 412.303 178.14 412.703 177.5C413.103 176.82 413.403 176.12 413.603 175.4C413.803 174.64 413.943 173.86 414.023 173.06C414.103 172.26 414.143 171.52 414.143 170.84V159.32C414.143 158.72 414.083 158.1 413.963 157.46C413.843 156.82 413.643 156.24 413.363 155.72C413.083 155.2 412.683 154.78 412.163 154.46C411.683 154.14 411.083 153.98 410.363 153.98C409.123 153.98 408.163 154.42 407.483 155.3C406.803 156.14 406.363 157.12 406.163 158.24V170.84C406.163 171.52 406.183 172.26 406.223 173.06C406.303 173.86 406.443 174.64 406.643 175.4C406.843 176.16 407.143 176.86 407.543 177.5C407.943 178.14 408.483 178.64 409.163 179ZM437.271 179.6C436.151 179.6 434.911 179.46 433.551 179.18C432.231 178.9 430.991 178.46 429.831 177.86C428.671 177.26 427.691 176.48 426.891 175.52C426.131 174.52 425.751 173.32 425.751 171.92C425.751 170.6 426.111 169.46 426.831 168.5C427.591 167.54 428.671 167.06 430.071 167.06C431.431 167.06 432.531 167.58 433.371 168.62C434.251 169.62 434.811 170.72 435.051 171.92C434.331 171.92 433.731 172.16 433.251 172.64C432.811 173.12 432.591 173.72 432.591 174.44C432.591 175.04 432.731 175.58 433.011 176.06C433.291 176.54 433.651 176.94 434.091 177.26C434.571 177.54 435.091 177.76 435.651 177.92C436.211 178.08 436.751 178.16 437.271 178.16C437.911 178.16 438.551 178.08 439.191 177.92C439.831 177.76 440.411 177.52 440.931 177.2C441.451 176.84 441.871 176.4 442.191 175.88C442.511 175.32 442.671 174.66 442.671 173.9C442.671 172.86 442.271 172 441.471 171.32C440.711 170.6 439.751 169.94 438.591 169.34C437.431 168.7 436.171 168.08 434.811 167.48C433.451 166.84 432.191 166.12 431.031 165.32C429.871 164.48 428.891 163.48 428.091 162.32C427.331 161.16 426.951 159.74 426.951 158.06C426.951 156.54 427.331 155.26 428.091 154.22C428.891 153.14 429.871 152.26 431.031 151.58C432.191 150.86 433.471 150.34 434.871 150.02C436.311 149.7 437.651 149.54 438.891 149.54C440.011 149.54 441.211 149.68 442.491 149.96C443.811 150.2 445.011 150.62 446.091 151.22C447.211 151.82 448.131 152.6 448.851 153.56C449.571 154.48 449.931 155.64 449.931 157.04C449.931 158.28 449.571 159.26 448.851 159.98C448.171 160.7 447.211 161.06 445.971 161.06C444.691 161.06 443.631 160.68 442.791 159.92C441.951 159.16 441.351 158.2 440.991 157.04C441.671 157.04 442.191 156.84 442.551 156.44C442.911 156 443.091 155.46 443.091 154.82C443.091 153.62 442.631 152.68 441.711 152C440.791 151.32 439.771 150.98 438.651 150.98C437.331 150.98 436.231 151.4 435.351 152.24C434.471 153.04 434.031 154.1 434.031 155.42C434.031 156.42 434.431 157.28 435.231 158C436.071 158.72 437.091 159.4 438.291 160.04C439.531 160.64 440.851 161.24 442.251 161.84C443.691 162.44 445.011 163.16 446.211 164C447.451 164.84 448.471 165.84 449.271 167C450.111 168.12 450.531 169.5 450.531 171.14C450.531 172.78 450.071 174.16 449.151 175.28C448.271 176.36 447.171 177.22 445.851 177.86C444.531 178.5 443.091 178.94 441.531 179.18C440.011 179.46 438.591 179.6 437.271 179.6ZM456.16 179.6C454.96 179.6 453.92 179.18 453.04 178.34C452.16 177.46 451.72 176.42 451.72 175.22C451.72 174.02 452.16 173 453.04 172.16C453.92 171.28 454.96 170.84 456.16 170.84C457.36 170.84 458.38 171.28 459.22 172.16C460.1 173 460.54 174.02 460.54 175.22C460.54 176.42 460.1 177.46 459.22 178.34C458.38 179.18 457.36 179.6 456.16 179.6Z" fill="#FACC15"/>
<path d="M592.867 95.3733C595.493 94.576 596.976 91.8008 596.178 89.1746C595.381 86.5485 592.606 85.066 589.98 85.8633C587.354 86.6607 585.871 89.4359 586.668 92.0621C587.466 94.6882 590.241 96.1707 592.867 95.3733ZM626.391 74.8866L626.258 73.9645L626.128 73.9832L626.009 74.0369L626.391 74.8866ZM617.539 102.504L618.345 102.972L617.539 102.504ZM691.195 125.139C691.705 125.211 692.176 124.856 692.248 124.347L693.422 116.043C693.494 115.534 693.139 115.062 692.63 114.99C692.12 114.918 691.649 115.273 691.577 115.783L690.533 123.163L683.153 122.12C682.643 122.048 682.172 122.402 682.1 122.912C682.028 123.421 682.382 123.893 682.892 123.965L691.195 125.139ZM591.806 91.4681L626.774 75.7363L626.009 74.0369L591.041 89.7686L591.806 91.4681ZM626.525 75.8087C632.606 74.9281 636.291 75.5622 638.327 76.9657C640.263 78.2996 640.93 80.5022 640.496 83.4994C640.06 86.5174 638.519 90.1489 636.287 93.9632C634.064 97.7622 631.195 101.676 628.175 105.244C625.155 108.814 621.999 112.019 619.21 114.407C617.816 115.602 616.525 116.582 615.398 117.298C614.255 118.026 613.346 118.44 612.705 118.572C612.389 118.637 612.204 118.62 612.11 118.593C612.043 118.574 612.013 118.55 611.979 118.494C611.863 118.299 611.742 117.714 612.039 116.405C612.612 113.879 614.515 109.573 618.345 102.972L616.733 102.037C612.898 108.648 610.863 113.166 610.222 115.993C609.912 117.361 609.865 118.586 610.378 119.448C610.66 119.92 611.083 120.237 611.593 120.384C612.076 120.523 612.59 120.499 613.082 120.397C614.056 120.196 615.193 119.638 616.399 118.871C617.621 118.093 618.984 117.054 620.422 115.823C623.3 113.359 626.525 110.079 629.598 106.448C632.67 102.817 635.606 98.8162 637.895 94.9044C640.175 91.008 641.854 87.1327 642.341 83.7661C642.83 80.3787 642.124 77.319 639.385 75.4314C636.747 73.6134 632.457 73.0667 626.258 73.9645L626.525 75.8087ZM618.345 102.972C623.099 94.7788 628.09 89.6369 633.299 87.0679C638.472 84.5167 643.968 84.4496 649.885 86.6271C655.834 88.8161 662.196 93.2723 668.998 99.7515C675.792 106.224 682.978 114.67 690.581 124.776L692.07 123.656C684.434 113.506 677.179 104.972 670.283 98.4022C663.394 91.8393 656.816 87.1918 650.529 84.8783C644.211 82.5533 638.175 82.585 632.474 85.3966C626.809 88.1906 621.584 93.6757 616.733 102.037L618.345 102.972Z" fill="#FACC15"/>
</svg>
