<svg width="73" height="73" viewBox="0 0 73 73" fill="none" xmlns="http://www.w3.org/2000/svg">
<path fill-rule="evenodd" clip-rule="evenodd" d="M9.125 9.125H56.2708V16.7292H53.2292V12.1667H12.1667V47.1458H44.6927V50.1875H9.125V9.125ZM54.75 28.8958C55.96 28.8958 57.1205 28.4151 57.9762 27.5595C58.8318 26.7039 59.3125 25.5434 59.3125 24.3333C59.3125 23.1233 58.8318 21.9628 57.9762 21.1072C57.1205 20.2515 55.96 19.7708 54.75 19.7708C53.5399 19.7708 52.3795 20.2515 51.5238 21.1072C50.6682 21.9628 50.1875 23.1233 50.1875 24.3333C50.1875 25.5434 50.6682 26.7039 51.5238 27.5595C52.3795 28.4151 53.5399 28.8958 54.75 28.8958ZM57.8388 31.9527C59.8144 31.9527 61.3778 32.8409 62.4013 34.2127C63.3579 35.4978 63.7625 37.087 63.8537 38.5546C63.9431 40.0601 63.738 41.5685 63.2499 42.9955C62.7937 44.3186 62.0226 45.6874 60.8333 46.6257V61.5937C60.8344 62.1669 60.6197 62.7195 60.232 63.1416C59.8442 63.5636 59.3117 63.8242 58.7405 63.8716C58.1693 63.9189 57.6012 63.7495 57.1492 63.3971C56.6973 63.0446 56.3945 62.5349 56.3012 61.9694L54.3394 50.1875H53.8862L51.6688 62.0135C51.5635 62.5716 51.2538 63.0704 50.8002 63.4123C50.3466 63.7542 49.7818 63.9146 49.2163 63.8621C48.6507 63.8096 48.1251 63.548 47.7422 63.1285C47.3593 62.709 47.1466 62.1617 47.1458 61.5937V39.896C46.8417 40.3593 46.5416 40.8252 46.2455 41.2937L46.1269 41.4807L46.0965 41.5294L46.0889 41.5431C45.8839 41.8722 45.5984 42.1436 45.2594 42.3317C44.9204 42.5199 44.539 42.6185 44.1513 42.6183H36.5471C35.9421 42.6183 35.3619 42.378 34.9341 41.9501C34.5062 41.5223 34.2659 40.9421 34.2659 40.3371C34.2659 39.732 34.5062 39.1518 34.9341 38.724C35.3619 38.2962 35.9421 38.0558 36.5471 38.0558H42.8997C43.2692 37.484 43.7559 36.7418 44.2669 35.9966C44.7992 35.2195 45.3862 34.3967 45.9094 33.7519C46.1634 33.437 46.4478 33.1085 46.7337 32.8394C46.8736 32.707 47.0683 32.5352 47.3055 32.3831C47.7242 32.1083 48.213 31.9594 48.7138 31.9542L57.8388 31.9527Z" fill="white"/>
</svg>
