<svg width="187" height="43" viewBox="0 0 187 43" fill="none" xmlns="http://www.w3.org/2000/svg">
<path d="M60.97 36.2072C62.77 36.2072 64.09 35.1972 64.28 33.6572L63.18 33.6472C63 34.6272 62.15 35.2672 60.97 35.2672C59.46 35.2672 58.52 34.2472 58.52 32.4772C58.52 30.6972 59.46 29.6872 60.97 29.6872C62.16 29.6872 62.98 30.3372 63.18 31.2672H64.28C64.06 29.7372 62.77 28.7472 60.97 28.7472C58.83 28.7472 57.4 30.1672 57.4 32.4772C57.4 34.7772 58.82 36.2072 60.97 36.2072ZM65.3958 36.1172H66.4158V33.0972C66.4658 32.2272 66.9958 31.7372 67.9358 31.7372C68.0558 31.7372 68.1758 31.7372 68.2558 31.7472V30.7772C68.1658 30.7672 68.0658 30.7572 67.9458 30.7572C67.2458 30.7572 66.6458 31.0872 66.4158 31.7672H66.3658L66.3158 30.8272H65.3958V36.1172ZM71.2293 36.2072C72.8193 36.2072 73.8093 35.0972 73.8093 33.4772C73.8093 31.7972 72.7693 30.7472 71.2293 30.7472C69.6293 30.7472 68.6393 31.8572 68.6393 33.4872C68.6393 35.1472 69.6793 36.2072 71.2293 36.2072ZM71.2293 35.3472C70.2893 35.3472 69.6893 34.6672 69.6893 33.4872C69.6893 32.2672 70.3093 31.5972 71.2293 31.5972C72.1793 31.5972 72.7593 32.2872 72.7593 33.4772C72.7593 34.6772 72.1493 35.3472 71.2293 35.3472ZM76.858 36.2172C78.238 36.2172 79.098 35.6972 79.098 34.6172C79.098 33.4072 78.178 33.1672 77.078 33.0172C76.178 32.8972 75.778 32.7372 75.778 32.2172C75.778 31.7672 76.158 31.4572 76.858 31.4572C77.538 31.4572 77.968 31.7472 77.978 32.3872H78.988C78.968 31.3572 78.178 30.7272 76.878 30.7272C75.598 30.7272 74.748 31.3072 74.748 32.3172C74.748 33.3972 75.578 33.6772 76.778 33.8472C77.668 33.9772 78.048 34.1172 78.048 34.7072C78.048 35.1972 77.648 35.4872 76.888 35.4872C76.148 35.4872 75.618 35.1772 75.618 34.4572H74.598C74.598 35.5072 75.408 36.2172 76.858 36.2172ZM82.2388 36.2172C83.6188 36.2172 84.4788 35.6972 84.4788 34.6172C84.4788 33.4072 83.5588 33.1672 82.4588 33.0172C81.5588 32.8972 81.1588 32.7372 81.1588 32.2172C81.1588 31.7672 81.5388 31.4572 82.2388 31.4572C82.9188 31.4572 83.3488 31.7472 83.3588 32.3872H84.3688C84.3488 31.3572 83.5588 30.7272 82.2588 30.7272C80.9788 30.7272 80.1288 31.3072 80.1288 32.3172C80.1288 33.3972 80.9588 33.6772 82.1588 33.8472C83.0488 33.9772 83.4288 34.1172 83.4288 34.7072C83.4288 35.1972 83.0288 35.4872 82.2688 35.4872C81.5288 35.4872 80.9988 35.1772 80.9988 34.4572H79.9788C79.9788 35.5072 80.7888 36.2172 82.2388 36.2172ZM85.2297 33.9072H88.2297V33.0372H85.2297V33.9072ZM91.6495 36.1172H94.8995C96.4695 36.1172 97.4095 35.3772 97.4095 34.0672C97.4095 33.2372 96.9395 32.5472 96.0495 32.3672V32.3172C96.8295 32.1172 97.2195 31.4572 97.2195 30.6972C97.2195 29.5772 96.4495 28.8272 95.0295 28.8272H91.6495V36.1172ZM92.7195 31.9672V29.6872H94.7695C95.5895 29.6872 96.1295 30.0972 96.1295 30.8472C96.1295 31.5172 95.7095 31.9672 94.8595 31.9672H92.7195ZM92.7195 35.2572V32.7972H94.9095C95.7795 32.7972 96.2995 33.2272 96.2995 34.0072C96.2995 34.7472 95.8195 35.2572 94.7995 35.2572H92.7195ZM100.77 36.2072C102.36 36.2072 103.35 35.0972 103.35 33.4772C103.35 31.7972 102.31 30.7472 100.77 30.7472C99.1703 30.7472 98.1803 31.8572 98.1803 33.4872C98.1803 35.1472 99.2203 36.2072 100.77 36.2072ZM100.77 35.3472C99.8303 35.3472 99.2303 34.6672 99.2303 33.4872C99.2303 32.2672 99.8503 31.5972 100.77 31.5972C101.72 31.5972 102.3 32.2872 102.3 33.4772C102.3 34.6772 101.69 35.3472 100.77 35.3472ZM104.429 36.1172H105.449V33.0972C105.499 32.2272 106.029 31.7372 106.969 31.7372C107.089 31.7372 107.209 31.7372 107.289 31.7472V30.7772C107.199 30.7672 107.099 30.7572 106.979 30.7572C106.279 30.7572 105.679 31.0872 105.449 31.7672H105.399L105.349 30.8272H104.429V36.1172ZM109.833 36.2072C110.723 36.2072 111.383 35.7472 111.633 35.0672H111.693L111.733 36.1172H112.723V28.8272H111.693V31.8672H111.633C111.383 31.1872 110.723 30.7372 109.833 30.7372C108.543 30.7372 107.673 31.6972 107.673 33.4672C107.673 35.2372 108.543 36.2072 109.833 36.2072ZM110.193 35.3572C109.313 35.3572 108.733 34.7072 108.733 33.4672C108.733 32.2172 109.313 31.5772 110.193 31.5772C111.173 31.5772 111.683 32.3572 111.683 33.1672V33.7672C111.683 34.5872 111.173 35.3572 110.193 35.3572ZM116.365 36.2072C117.615 36.2072 118.575 35.5272 118.715 34.4872H117.735C117.605 35.0372 117.075 35.3872 116.365 35.3872C115.445 35.3872 114.845 34.7672 114.825 33.6772H118.745C118.905 32.0172 118.065 30.7472 116.325 30.7472C114.775 30.7472 113.805 31.8272 113.805 33.4972C113.805 35.1272 114.775 36.2072 116.365 36.2072ZM116.315 31.5572C117.095 31.5572 117.705 31.9672 117.735 32.9472H114.845C114.925 32.0872 115.485 31.5572 116.315 31.5572ZM119.859 36.1172H120.879V33.0972C120.929 32.2272 121.459 31.7372 122.399 31.7372C122.519 31.7372 122.639 31.7372 122.719 31.7472V30.7772C122.629 30.7672 122.529 30.7572 122.409 30.7572C121.709 30.7572 121.109 31.0872 120.879 31.7672H120.829L120.779 30.8272H119.859V36.1172ZM123.618 36.1172H124.648V28.8272H123.618V36.1172ZM128.279 36.2072C129.529 36.2072 130.489 35.5272 130.629 34.4872H129.649C129.519 35.0372 128.989 35.3872 128.279 35.3872C127.359 35.3872 126.759 34.7672 126.739 33.6772H130.659C130.819 32.0172 129.979 30.7472 128.239 30.7472C126.689 30.7472 125.719 31.8272 125.719 33.4972C125.719 35.1272 126.689 36.2072 128.279 36.2072ZM128.229 31.5572C129.009 31.5572 129.619 31.9672 129.649 32.9472H126.759C126.839 32.0872 127.399 31.5572 128.229 31.5572ZM133.743 36.2172C135.123 36.2172 135.983 35.6972 135.983 34.6172C135.983 33.4072 135.063 33.1672 133.963 33.0172C133.063 32.8972 132.663 32.7372 132.663 32.2172C132.663 31.7672 133.043 31.4572 133.743 31.4572C134.423 31.4572 134.853 31.7472 134.863 32.3872H135.873C135.853 31.3572 135.063 30.7272 133.763 30.7272C132.483 30.7272 131.633 31.3072 131.633 32.3172C131.633 33.3972 132.463 33.6772 133.663 33.8472C134.553 33.9772 134.933 34.1172 134.933 34.7072C134.933 35.1972 134.533 35.4872 133.773 35.4872C133.033 35.4872 132.503 35.1772 132.503 34.4572H131.483C131.483 35.5072 132.293 36.2172 133.743 36.2172ZM139.124 36.2172C140.504 36.2172 141.364 35.6972 141.364 34.6172C141.364 33.4072 140.444 33.1672 139.344 33.0172C138.444 32.8972 138.044 32.7372 138.044 32.2172C138.044 31.7672 138.424 31.4572 139.124 31.4572C139.804 31.4572 140.234 31.7472 140.244 32.3872H141.254C141.234 31.3572 140.444 30.7272 139.144 30.7272C137.864 30.7272 137.014 31.3072 137.014 32.3172C137.014 33.3972 137.844 33.6772 139.044 33.8472C139.934 33.9772 140.314 34.1172 140.314 34.7072C140.314 35.1972 139.914 35.4872 139.154 35.4872C138.414 35.4872 137.884 35.1772 137.884 34.4572H136.864C136.864 35.5072 137.674 36.2172 139.124 36.2172ZM144.771 37.7872H145.801V35.0772H145.861C146.121 35.7572 146.781 36.2072 147.661 36.2072C148.951 36.2072 149.821 35.2472 149.821 33.4772C149.821 31.7072 148.951 30.7372 147.661 30.7372C146.781 30.7372 146.121 31.1972 145.861 31.8672H145.801L145.761 30.8272H144.771V37.7872ZM147.301 35.3572C146.321 35.3572 145.811 34.5872 145.811 33.7672V33.1772C145.811 32.3572 146.321 31.5872 147.301 31.5872C148.181 31.5872 148.771 32.2272 148.771 33.4772C148.771 34.7172 148.181 35.3572 147.301 35.3572ZM152.811 36.2072C153.701 36.2072 154.361 35.7472 154.611 35.0672H154.671V36.1172H155.701V30.8272H154.711L154.671 31.8672H154.611C154.361 31.1872 153.701 30.7372 152.811 30.7372C151.521 30.7372 150.651 31.6972 150.651 33.4672C150.651 35.2372 151.521 36.2072 152.811 36.2072ZM153.171 35.3572C152.291 35.3572 151.711 34.7072 151.711 33.4672C151.711 32.2172 152.291 31.5772 153.171 31.5772C154.151 31.5772 154.661 32.3572 154.661 33.1672V33.7672C154.661 34.5872 154.151 35.3572 153.171 35.3572ZM156.794 37.7872H157.534C158.364 37.7872 158.894 37.4972 159.234 36.5772L161.434 30.8272H160.344L159.204 34.0472L158.994 34.6772H158.954L158.734 34.0472L157.524 30.8272H156.394L158.474 35.7372L158.244 36.3272C158.074 36.7472 157.834 36.9372 157.364 36.9372H156.794V37.7872ZM162.124 36.1172H163.144V33.2272C163.144 32.3172 163.694 31.5972 164.574 31.5972C165.394 31.5972 165.764 32.1072 165.764 33.1872V36.1172H166.794V33.2272C166.794 32.3172 167.344 31.5972 168.214 31.5972C169.044 31.5972 169.414 32.1072 169.414 33.1872V36.1172H170.434V32.9772C170.434 31.3572 169.654 30.7472 168.604 30.7472C167.754 30.7472 167.034 31.1672 166.744 31.9872H166.664C166.394 31.0872 165.734 30.7472 164.954 30.7472C164.184 30.7472 163.504 31.1272 163.204 31.8772H163.144L163.104 30.8272H162.124V36.1172ZM174.022 36.2072C175.272 36.2072 176.232 35.5272 176.372 34.4872H175.392C175.262 35.0372 174.732 35.3872 174.022 35.3872C173.102 35.3872 172.502 34.7672 172.482 33.6772H176.402C176.562 32.0172 175.722 30.7472 173.982 30.7472C172.432 30.7472 171.462 31.8272 171.462 33.4972C171.462 35.1272 172.432 36.2072 174.022 36.2072ZM173.972 31.5572C174.752 31.5572 175.362 31.9672 175.392 32.9472H172.502C172.582 32.0872 173.142 31.5572 173.972 31.5572ZM177.515 36.1172H178.535V33.2272C178.535 32.3172 179.105 31.5972 180.015 31.5972C180.855 31.5972 181.245 32.1072 181.245 33.1872V36.1172H182.275V32.9772C182.275 31.3572 181.465 30.7472 180.385 30.7472C179.605 30.7472 178.905 31.1272 178.595 31.8772H178.535L178.495 30.8272H177.515V36.1172ZM185.05 36.1172H186.11V35.2672H185.39C185.06 35.2672 184.94 35.1772 184.94 34.8272V31.6672H186.11V30.8272H184.94V29.1772L183.91 29.2972V30.8272H182.91V31.6672H183.91V35.0172C183.91 35.7272 184.18 36.1172 185.05 36.1172Z" fill="#9CA3AF"/>
<path d="M60.794 15.1172H62.866L66.576 4.91119H64.896L62.418 12.0232L61.872 13.6752H61.774L61.242 12.0092L58.778 4.91119H57.07L60.794 15.1172ZM69.92 15.2432C71.67 15.2432 73.014 14.2912 73.21 12.8352H71.838C71.656 13.6052 70.914 14.0952 69.92 14.0952C68.632 14.0952 67.792 13.2272 67.764 11.7012H73.252C73.476 9.37719 72.3 7.59919 69.864 7.59919C67.694 7.59919 66.336 9.11119 66.336 11.4492C66.336 13.7312 67.694 15.2432 69.92 15.2432ZM69.85 8.73319C70.942 8.73319 71.796 9.30719 71.838 10.6792H67.792C67.904 9.47519 68.688 8.73319 69.85 8.73319ZM74.8107 15.1172H76.2387V10.8892C76.3087 9.67119 77.0507 8.98519 78.3667 8.98519C78.5347 8.98519 78.7027 8.98519 78.8147 8.99919V7.64119C78.6887 7.62719 78.5487 7.61319 78.3807 7.61319C77.4007 7.61319 76.5607 8.07519 76.2387 9.02719H76.1687L76.0987 7.71119H74.8107V15.1172ZM80.0744 15.1172H81.5024V11.0712C81.5024 9.79719 82.3004 8.78919 83.5744 8.78919C84.7504 8.78919 85.2964 9.50319 85.2964 11.0152V15.1172H86.7384V10.7212C86.7384 8.45319 85.6044 7.59919 84.0924 7.59919C83.0004 7.59919 82.0204 8.13119 81.5864 9.18119H81.5024L81.4464 7.71119H80.0744V15.1172ZM91.2077 15.2432C92.4537 15.2432 93.3777 14.5992 93.7277 13.6472H93.8117L93.8677 15.1172H95.2537V4.91119H93.8117V9.16719H93.7277C93.3777 8.21519 92.4537 7.58519 91.2077 7.58519C89.4017 7.58519 88.1837 8.92919 88.1837 11.4072C88.1837 13.8852 89.4017 15.2432 91.2077 15.2432ZM91.7117 14.0532C90.4797 14.0532 89.6677 13.1432 89.6677 11.4072C89.6677 9.65719 90.4797 8.76119 91.7117 8.76119C93.0837 8.76119 93.7977 9.85319 93.7977 10.9872V11.8272C93.7977 12.9752 93.0837 14.0532 91.7117 14.0532ZM100.354 15.2432C102.104 15.2432 103.448 14.2912 103.644 12.8352H102.272C102.09 13.6052 101.348 14.0952 100.354 14.0952C99.0656 14.0952 98.2256 13.2272 98.1976 11.7012H103.686C103.91 9.37719 102.734 7.59919 100.298 7.59919C98.1276 7.59919 96.7696 9.11119 96.7696 11.4492C96.7696 13.7312 98.1276 15.2432 100.354 15.2432ZM100.284 8.73319C101.376 8.73319 102.23 9.30719 102.272 10.6792H98.2256C98.3376 9.47519 99.1216 8.73319 100.284 8.73319Z" fill="#1E2C31"/>
<path d="M8.67857 6.40535L1.10029 15.1328C0.469714 15.859 0.471729 16.9391 1.10501 17.6629L19.222 38.3705C19.9928 39.2515 21.3647 39.2466 22.1291 38.3602L29.7119 29.5679C30.3392 28.8405 30.3344 27.762 29.7007 27.0402L11.5793 6.3975C10.8097 5.52081 9.44343 5.52451 8.67857 6.40535Z" fill="url(#paint0_linear_2091_37348)"/>
<path d="M31.2153 5.05578L25.1119 12.9348C24.1318 14.2 25.0336 16.0392 26.634 16.0392H39.0073C40.6194 16.0392 41.5177 14.1764 40.5139 12.915L34.244 5.03599C33.4667 4.05924 31.9798 4.06896 31.2153 5.05578Z" fill="url(#paint1_linear_2091_37348)"/>
<defs>
<linearGradient id="paint0_linear_2091_37348" x1="-8.70886" y1="22.3894" x2="33.8055" y2="22.4421" gradientUnits="userSpaceOnUse">
<stop stop-color="#0856FF"/>
<stop offset="1" stop-color="#EB25D7"/>
</linearGradient>
<linearGradient id="paint1_linear_2091_37348" x1="16.9702" y1="9.57819" x2="44.9759" y2="9.64061" gradientUnits="userSpaceOnUse">
<stop stop-color="#0856FF"/>
<stop offset="1" stop-color="#EB25D7"/>
</linearGradient>
</defs>
</svg>
