<svg width="1440" height="653" viewBox="0 0 1440 653" fill="none" xmlns="http://www.w3.org/2000/svg">
<g clip-path="url(#clip0_4935_33795)">
<rect width="1440" height="653" fill="#0B2246"/>
<g opacity="0.6">
<g opacity="0.4">
<circle cx="521.333" cy="311.333" r="1.33333" fill="#5680C2"/>
<circle cx="529.999" cy="311.333" r="1.33333" fill="#5680C2"/>
<circle cx="538.667" cy="311.333" r="1.33333" fill="#5680C2"/>
<circle cx="547.333" cy="311.333" r="1.33333" fill="#5680C2"/>
</g>
<g opacity="0.4">
<circle cx="521.333" cy="319.333" r="1.33333" fill="#5680C2"/>
<circle cx="529.999" cy="319.333" r="1.33333" fill="#5680C2"/>
<circle cx="538.667" cy="319.333" r="1.33333" fill="#5680C2"/>
<circle cx="547.333" cy="319.333" r="1.33333" fill="#5680C2"/>
</g>
<g opacity="0.4">
<circle cx="521.333" cy="327.333" r="1.33333" fill="#5680C2"/>
<circle cx="529.999" cy="327.333" r="1.33333" fill="#5680C2"/>
<circle cx="538.667" cy="327.333" r="1.33333" fill="#5680C2"/>
<circle cx="547.333" cy="327.333" r="1.33333" fill="#5680C2"/>
</g>
<g opacity="0.4">
<circle cx="521.333" cy="335.333" r="1.33333" fill="#5680C2"/>
<circle cx="529.999" cy="335.333" r="1.33333" fill="#5680C2"/>
<circle cx="538.667" cy="335.333" r="1.33333" fill="#5680C2"/>
<circle cx="547.333" cy="335.333" r="1.33333" fill="#5680C2"/>
</g>
</g>
<g opacity="0.6">
<g opacity="0.4">
<circle cx="676.571" cy="18.5714" r="1.57143" fill="#5680C2"/>
<circle cx="686.786" cy="18.5714" r="1.57143" fill="#5680C2"/>
<circle cx="696.999" cy="18.5714" r="1.57143" fill="#5680C2"/>
<circle cx="707.214" cy="18.5714" r="1.57143" fill="#5680C2"/>
</g>
<g opacity="0.4">
<circle cx="676.571" cy="27.9972" r="1.57143" fill="#5680C2"/>
<circle cx="686.786" cy="27.9972" r="1.57143" fill="#5680C2"/>
<circle cx="696.999" cy="27.9972" r="1.57143" fill="#5680C2"/>
<circle cx="707.214" cy="27.9972" r="1.57143" fill="#5680C2"/>
</g>
<g opacity="0.4">
<circle cx="676.571" cy="37.4308" r="1.57143" fill="#5680C2"/>
<circle cx="686.786" cy="37.4308" r="1.57143" fill="#5680C2"/>
<circle cx="696.999" cy="37.4308" r="1.57143" fill="#5680C2"/>
<circle cx="707.214" cy="37.4308" r="1.57143" fill="#5680C2"/>
</g>
<g opacity="0.4">
<circle cx="676.571" cy="46.8566" r="1.57143" fill="#5680C2"/>
<circle cx="686.786" cy="46.8566" r="1.57143" fill="#5680C2"/>
<circle cx="696.999" cy="46.8566" r="1.57143" fill="#5680C2"/>
<circle cx="707.214" cy="46.8566" r="1.57143" fill="#5680C2"/>
</g>
</g>
<g opacity="0.6">
<g opacity="0.4">
<circle cx="821.644" cy="346.644" r="1.64444" fill="#5680C2"/>
<circle cx="832.334" cy="346.644" r="1.64444" fill="#5680C2"/>
<circle cx="843.021" cy="346.644" r="1.64444" fill="#5680C2"/>
<circle cx="853.711" cy="346.644" r="1.64444" fill="#5680C2"/>
</g>
<g opacity="0.4">
<circle cx="821.644" cy="356.512" r="1.64444" fill="#5680C2"/>
<circle cx="832.334" cy="356.512" r="1.64444" fill="#5680C2"/>
<circle cx="843.021" cy="356.512" r="1.64444" fill="#5680C2"/>
<circle cx="853.711" cy="356.512" r="1.64444" fill="#5680C2"/>
</g>
<g opacity="0.4">
<circle cx="821.644" cy="366.375" r="1.64444" fill="#5680C2"/>
<circle cx="832.334" cy="366.375" r="1.64444" fill="#5680C2"/>
<circle cx="843.021" cy="366.375" r="1.64444" fill="#5680C2"/>
<circle cx="853.711" cy="366.375" r="1.64444" fill="#5680C2"/>
</g>
<g opacity="0.4">
<circle cx="821.644" cy="376.242" r="1.64444" fill="#5680C2"/>
<circle cx="832.334" cy="376.242" r="1.64444" fill="#5680C2"/>
<circle cx="843.021" cy="376.242" r="1.64444" fill="#5680C2"/>
<circle cx="853.711" cy="376.242" r="1.64444" fill="#5680C2"/>
</g>
</g>
<circle cx="162.797" cy="501.797" r="8.7973" fill="#28446F"/>
<circle cx="168.757" cy="509.458" r="4.54054" fill="#0D2751"/>
<circle cx="1271.8" cy="502.797" r="8.7973" fill="#28446F"/>
<circle cx="1277.76" cy="510.458" r="4.54054" fill="#0D2751"/>
<circle cx="690.797" cy="253.797" r="8.7973" fill="#28446F"/>
<circle cx="696.757" cy="261.458" r="4.54054" fill="#0D2751"/>
<circle cx="1286.8" cy="87.7973" r="8.7973" fill="#28446F"/>
<circle cx="1292.76" cy="95.4585" r="4.54054" fill="#0D2751"/>
<circle cx="201" cy="56" r="12" fill="#0D2751"/>
<g opacity="0.4">
<path opacity="0.6" d="M422.516 422.164C422.495 421.94 422.298 421.775 422.074 421.795C421.85 421.815 421.685 422.013 421.705 422.237L422.516 422.164ZM584.109 431.678L583.924 431.316L584.109 431.678ZM525.609 427.178L525.845 427.509L525.609 427.178ZM587.609 455.678L587.423 455.316L587.609 455.678ZM421.705 422.237C421.731 422.516 421.763 422.794 421.803 423.069L422.608 422.953C422.571 422.692 422.54 422.429 422.516 422.164L421.705 422.237ZM422.129 424.696C422.266 425.229 422.432 425.755 422.625 426.271L423.387 425.986C423.204 425.496 423.047 424.999 422.917 424.493L422.129 424.696ZM423.285 427.794C423.526 428.281 423.793 428.76 424.084 429.23L424.776 428.801C424.498 428.353 424.243 427.896 424.014 427.433L423.285 427.794ZM425.02 430.601C425.343 431.031 425.686 431.454 426.05 431.869L426.662 431.332C426.311 430.932 425.981 430.526 425.672 430.113L425.02 430.601ZM427.186 433.072C427.567 433.448 427.966 433.818 428.382 434.18L428.916 433.567C428.513 433.215 428.126 432.857 427.758 432.493L427.186 433.072ZM429.649 435.223C430.074 435.554 430.514 435.879 430.968 436.198L431.435 435.532C430.991 435.22 430.562 434.904 430.148 434.581L429.649 435.223ZM432.316 437.099C432.777 437.393 433.251 437.681 433.738 437.964L434.147 437.261C433.669 436.983 433.205 436.701 432.753 436.413L432.316 437.099ZM435.132 438.743C435.608 438.998 436.094 439.248 436.591 439.494L436.952 438.765C436.463 438.523 435.984 438.277 435.517 438.026L435.132 438.743ZM438.064 440.195C438.546 440.416 439.038 440.633 439.538 440.846L439.857 440.098C439.363 439.887 438.879 439.673 438.403 439.455L438.064 440.195ZM441.063 441.473C441.557 441.669 442.059 441.862 442.568 442.051L442.851 441.288C442.347 441.101 441.851 440.911 441.363 440.717L441.063 441.473ZM444.089 442.596C444.603 442.775 445.125 442.95 445.652 443.121L445.904 442.348C445.381 442.178 444.865 442.004 444.356 441.828L444.089 442.596ZM447.185 443.604C447.696 443.759 448.212 443.912 448.734 444.061L448.958 443.279C448.441 443.131 447.929 442.98 447.422 442.826L447.185 443.604ZM450.318 444.501C450.833 444.639 451.353 444.775 451.879 444.907L452.078 444.119C451.556 443.987 451.04 443.853 450.529 443.715L450.318 444.501ZM453.443 445.291C453.97 445.416 454.501 445.538 455.036 445.657L455.213 444.863C454.681 444.745 454.154 444.623 453.631 444.499L453.443 445.291ZM456.626 446.001C457.147 446.11 457.671 446.217 458.199 446.321L458.356 445.522C457.831 445.419 457.31 445.313 456.793 445.205L456.626 446.001ZM459.795 446.625C460.331 446.724 460.871 446.82 461.414 446.914L461.553 446.112C461.012 446.019 460.476 445.923 459.943 445.825L459.795 446.625ZM462.991 447.178C463.519 447.263 464.051 447.347 464.586 447.428L464.708 446.623C464.176 446.543 463.646 446.46 463.121 446.375L462.991 447.178ZM466.201 447.664C466.735 447.739 467.271 447.812 467.81 447.883L467.916 447.076C467.379 447.006 466.846 446.933 466.315 446.858L466.201 447.664ZM469.404 448.084C469.938 448.15 470.475 448.212 471.014 448.273L471.105 447.465C470.568 447.404 470.034 447.342 469.502 447.277L469.404 448.084ZM472.639 448.449C473.171 448.505 473.706 448.558 474.243 448.609L474.32 447.799C473.785 447.748 473.253 447.695 472.723 447.64L472.639 448.449ZM475.848 448.755C476.385 448.802 476.924 448.847 477.465 448.89L477.529 448.079C476.99 448.036 476.453 447.992 475.918 447.945L475.848 448.755ZM479.095 449.012C479.628 449.05 480.162 449.086 480.698 449.12L480.749 448.308C480.215 448.274 479.683 448.238 479.153 448.201L479.095 449.012ZM482.309 449.216C482.848 449.246 483.389 449.275 483.931 449.301L483.97 448.489C483.43 448.462 482.892 448.434 482.355 448.404L482.309 449.216ZM485.559 449.374C486.093 449.397 486.629 449.417 487.166 449.435L487.194 448.622C486.659 448.604 486.125 448.584 485.593 448.562L485.559 449.374ZM488.781 449.485C489.32 449.5 489.861 449.513 490.403 449.524L490.42 448.711C489.88 448.7 489.341 448.687 488.803 448.672L488.781 449.485ZM492.03 449.553C492.566 449.56 493.103 449.566 493.641 449.57L493.647 448.756C493.111 448.752 492.576 448.747 492.042 448.739L492.03 449.553ZM495.257 449.576C495.796 449.577 496.337 449.576 496.878 449.573L496.874 448.759C496.334 448.762 495.795 448.763 495.257 448.763L495.257 449.576ZM498.504 449.558C499.041 449.552 499.578 449.544 500.116 449.534L500.101 448.72C499.565 448.73 499.029 448.738 498.494 448.745L498.504 449.558ZM501.732 449.499C502.272 449.486 502.812 449.471 503.352 449.454L503.327 448.641C502.788 448.658 502.25 448.673 501.712 448.686L501.732 449.499ZM504.975 449.399C505.512 449.379 506.05 449.357 506.588 449.334L506.553 448.521C506.017 448.545 505.481 448.566 504.945 448.586L504.975 449.399ZM508.204 449.259C508.742 449.233 509.281 449.204 509.821 449.174L509.776 448.362C509.238 448.392 508.7 448.42 508.163 448.447L508.204 449.259ZM511.439 449.08C511.977 449.046 512.515 449.012 513.053 448.975L512.998 448.164C512.462 448.2 511.925 448.235 511.389 448.268L511.439 449.08ZM514.667 448.861C515.205 448.821 515.743 448.78 516.281 448.737L516.216 447.926C515.68 447.969 515.143 448.01 514.607 448.05L514.667 448.861ZM517.894 448.603C518.432 448.556 518.97 448.508 519.507 448.459L519.432 447.649C518.897 447.698 518.361 447.746 517.825 447.792L517.894 448.603ZM521.119 448.305C521.655 448.252 522.192 448.198 522.729 448.141L522.644 447.332C522.109 447.388 521.574 447.443 521.039 447.495L521.119 448.305ZM524.337 447.968C524.873 447.908 525.41 447.847 525.946 447.784L525.851 446.976C525.317 447.039 524.782 447.1 524.247 447.16L524.337 447.968ZM527.555 447.591C528.09 447.524 528.625 447.456 529.16 447.387L529.055 446.58C528.522 446.65 527.989 446.717 527.455 446.783L527.555 447.591ZM530.762 447.173C531.297 447.1 531.832 447.026 532.365 446.949L532.25 446.144C531.718 446.22 531.185 446.295 530.652 446.367L530.762 447.173ZM533.971 446.714C534.505 446.634 535.038 446.552 535.571 446.469L535.445 445.665C534.914 445.748 534.383 445.83 533.85 445.91L533.971 446.714ZM537.166 446.214C537.699 446.127 538.23 446.038 538.761 445.948L538.625 445.146C538.096 445.236 537.566 445.324 537.034 445.411L537.166 446.214ZM540.362 445.67C540.894 445.575 541.425 445.479 541.955 445.381L541.808 444.581C541.28 444.679 540.75 444.774 540.22 444.869L540.362 445.67ZM543.542 445.083C544.072 444.981 544.601 444.877 545.128 444.772L544.969 443.974C544.444 444.079 543.917 444.182 543.388 444.284L543.542 445.083ZM546.722 444.448C547.252 444.339 547.781 444.227 548.308 444.114L548.137 443.319C547.612 443.431 547.085 443.542 546.557 443.652L546.722 444.448ZM549.883 443.769C550.41 443.652 550.936 443.532 551.459 443.411L551.276 442.619C550.755 442.739 550.231 442.858 549.706 442.975L549.883 443.769ZM553.045 443.038C553.572 442.912 554.096 442.784 554.619 442.655L554.423 441.865C553.903 441.994 553.38 442.122 552.855 442.247L553.045 443.038ZM556.181 442.26C556.705 442.125 557.227 441.989 557.747 441.85L557.538 441.064C557.02 441.202 556.501 441.338 555.979 441.472L556.181 442.26ZM559.32 441.424C559.842 441.28 560.362 441.134 560.879 440.986L560.656 440.204C560.141 440.351 559.624 440.496 559.104 440.64L559.32 441.424ZM562.424 440.537C562.945 440.383 563.463 440.227 563.979 440.069L563.741 439.291C563.228 439.448 562.712 439.604 562.193 439.757L562.424 440.537ZM565.535 439.584C566.051 439.42 566.563 439.254 567.073 439.087L566.819 438.314C566.312 438.481 565.802 438.646 565.289 438.808L565.535 439.584ZM568.594 438.578C569.113 438.401 569.628 438.223 570.14 438.042L569.869 437.275C569.36 437.454 568.848 437.632 568.332 437.808L568.594 438.578ZM571.671 437.491C572.178 437.306 572.681 437.118 573.181 436.928L572.892 436.168C572.395 436.356 571.895 436.543 571.391 436.727L571.671 437.491ZM574.686 436.346C575.196 436.145 575.703 435.941 576.205 435.735L575.897 434.982C575.398 435.187 574.895 435.389 574.387 435.589L574.686 436.346ZM577.701 435.111C578.195 434.901 578.685 434.688 579.171 434.474L578.842 433.73C578.36 433.943 577.873 434.154 577.382 434.363L577.701 435.111ZM580.664 433.8C581.16 433.571 581.652 433.34 582.139 433.107L581.787 432.373C581.304 432.605 580.816 432.834 580.324 433.061L580.664 433.8ZM583.583 432.399C583.822 432.28 584.059 432.16 584.294 432.04L583.924 431.316C583.691 431.435 583.456 431.554 583.22 431.672L583.583 432.399ZM584.294 432.04C584.557 431.906 584.816 431.772 585.071 431.64L584.696 430.918C584.443 431.05 584.185 431.182 583.924 431.316L584.294 432.04ZM586.557 430.853C587.037 430.594 587.503 430.338 587.954 430.086L587.556 429.376C587.109 429.627 586.648 429.88 586.171 430.137L586.557 430.853ZM589.4 429.256C589.893 428.966 590.367 428.681 590.821 428.399L590.392 427.708C589.944 427.986 589.476 428.268 588.988 428.554L589.4 429.256ZM592.164 427.541C592.661 427.214 593.13 426.893 593.573 426.578L593.101 425.915C592.667 426.225 592.206 426.54 591.717 426.862L592.164 427.541ZM594.852 425.625C595.328 425.253 595.766 424.889 596.166 424.534L595.626 423.926C595.24 424.269 594.816 424.621 594.351 424.984L594.852 425.625ZM597.364 423.375C597.776 422.938 598.127 422.512 598.42 422.098L597.756 421.628C597.488 422.007 597.162 422.403 596.772 422.818L597.364 423.375ZM599.253 420.584C599.49 419.961 599.581 419.361 599.521 418.788L598.712 418.872C598.756 419.299 598.692 419.77 598.493 420.294L599.253 420.584ZM598.837 417.101C598.503 416.659 598.062 416.263 597.533 415.909L597.08 416.585C597.552 416.901 597.921 417.237 598.187 417.591L598.837 417.101ZM596.031 415.104C595.551 414.895 595.027 414.704 594.463 414.528L594.221 415.305C594.761 415.473 595.257 415.655 595.707 415.85L596.031 415.104ZM592.849 414.095C592.323 413.973 591.77 413.862 591.193 413.761L591.053 414.563C591.617 414.661 592.155 414.769 592.666 414.887L592.849 414.095ZM589.588 413.517C589.055 413.447 588.504 413.384 587.938 413.329L587.859 414.139C588.417 414.193 588.958 414.254 589.481 414.324L589.588 413.517ZM586.295 413.193C585.76 413.156 585.213 413.126 584.654 413.101L584.618 413.914C585.17 413.938 585.711 413.968 586.239 414.005L586.295 413.193ZM583.001 413.046C582.464 413.034 581.918 413.027 581.363 413.025L581.36 413.838C581.91 413.84 582.451 413.847 582.983 413.859L583.001 413.046ZM579.713 413.034C579.173 413.041 578.626 413.053 578.072 413.07L578.097 413.883C578.646 413.866 579.188 413.855 579.724 413.847L579.713 413.034ZM576.43 413.131C575.887 413.155 575.338 413.184 574.785 413.216L574.832 414.028C575.382 413.996 575.927 413.968 576.467 413.944L576.43 413.131ZM573.152 413.323C572.606 413.362 572.056 413.405 571.503 413.452L571.571 414.262C572.121 414.216 572.668 414.173 573.21 414.134L573.152 413.323ZM569.878 413.599C569.334 413.652 568.786 413.708 568.236 413.768L568.324 414.577C568.871 414.517 569.415 414.461 569.957 414.409L569.878 413.599ZM566.61 413.954C566.069 414.019 565.526 414.088 564.981 414.159L565.087 414.966C565.629 414.895 566.169 414.826 566.708 414.762L566.61 413.954ZM563.351 414.383C562.812 414.461 562.272 414.541 561.731 414.625L561.855 415.428C562.393 415.345 562.93 415.265 563.467 415.189L563.351 414.383ZM560.105 414.885C559.567 414.974 559.028 415.066 558.489 415.162L558.631 415.963C559.167 415.868 559.703 415.776 560.239 415.687L560.105 414.885ZM556.874 415.457C556.336 415.559 555.799 415.664 555.262 415.771L555.422 416.569C555.956 416.462 556.49 416.358 557.025 416.257L556.874 415.457ZM553.654 416.104C553.118 416.218 552.585 416.334 552.052 416.454L552.231 417.248C552.76 417.129 553.291 417.013 553.823 416.899L553.654 416.104ZM550.448 416.826C549.915 416.953 549.384 417.082 548.855 417.215L549.054 418.004C549.579 417.872 550.107 417.743 550.636 417.617L550.448 416.826ZM547.263 417.627C546.731 417.768 546.202 417.912 545.677 418.06L545.896 418.843C546.418 418.697 546.943 418.553 547.471 418.413L547.263 417.627ZM544.104 418.512C543.573 418.67 543.046 418.83 542.523 418.993L542.765 419.77C543.284 419.607 543.807 419.448 544.334 419.293L544.104 418.512ZM540.968 419.493C540.44 419.667 539.918 419.844 539.4 420.025L539.669 420.793C540.182 420.614 540.7 420.438 541.223 420.265L540.968 419.493ZM537.858 420.58C537.338 420.773 536.825 420.969 536.318 421.169L536.616 421.926C537.117 421.728 537.626 421.534 538.141 421.343L537.858 420.58ZM534.792 421.788C534.281 422.003 533.779 422.22 533.284 422.442L533.617 423.184C534.105 422.965 534.602 422.75 535.106 422.539L534.792 421.788ZM531.783 423.138C531.283 423.378 530.794 423.622 530.314 423.87L530.688 424.592C531.16 424.348 531.643 424.107 532.135 423.871L531.783 423.138ZM528.853 424.657C528.367 424.929 527.893 425.207 527.433 425.489L527.858 426.182C528.309 425.906 528.773 425.634 529.251 425.366L528.853 424.657ZM526.037 426.386C525.812 426.539 525.591 426.692 525.374 426.846L525.845 427.509C526.057 427.358 526.272 427.209 526.492 427.06L526.037 426.386ZM525.374 426.846C525.136 427.015 524.904 427.184 524.677 427.354L525.164 428.006C525.386 427.84 525.613 427.674 525.845 427.509L525.374 426.846ZM523.374 428.376C522.936 428.737 522.52 429.101 522.125 429.465L522.676 430.063C523.06 429.709 523.465 429.356 523.892 429.003L523.374 428.376ZM520.946 430.624C520.548 431.041 520.177 431.46 519.833 431.881L520.462 432.396C520.793 431.992 521.15 431.588 521.535 431.185L520.946 430.624ZM518.845 433.195C518.516 433.675 518.221 434.156 517.959 434.638L518.673 435.027C518.922 434.571 519.202 434.113 519.516 433.655L518.845 433.195ZM517.24 436.161C517.026 436.693 516.852 437.224 516.716 437.755L517.504 437.958C517.631 437.462 517.794 436.964 517.995 436.464L517.24 436.161ZM516.412 439.415C516.35 439.984 516.331 440.55 516.353 441.113L517.166 441.081C517.145 440.558 517.163 440.032 517.221 439.504L516.412 439.415ZM516.543 442.793C516.645 443.343 516.787 443.888 516.965 444.427L517.737 444.17C517.57 443.666 517.438 443.157 517.342 442.644L516.543 442.793ZM517.596 445.991C517.834 446.492 518.104 446.986 518.404 447.472L519.096 447.045C518.811 446.582 518.555 446.115 518.331 445.642L517.596 445.991ZM519.345 448.845C519.674 449.281 520.027 449.71 520.405 450.132L521.011 449.59C520.648 449.184 520.309 448.772 519.994 448.355L519.345 448.845ZM521.568 451.34C521.957 451.717 522.366 452.087 522.793 452.451L523.32 451.832C522.906 451.478 522.51 451.12 522.133 450.755L521.568 451.34ZM524.085 453.488C524.522 453.82 524.975 454.145 525.443 454.464L525.901 453.791C525.444 453.48 525.002 453.163 524.576 452.84L524.085 453.488ZM526.819 455.355C527.285 455.642 527.763 455.922 528.253 456.196L528.65 455.486C528.169 455.217 527.701 454.943 527.246 454.662L526.819 455.355ZM529.706 456.971C530.191 457.218 530.687 457.459 531.193 457.694L531.535 456.956C531.038 456.725 530.551 456.489 530.075 456.246L529.706 456.971ZM532.702 458.363C533.203 458.575 533.712 458.781 534.229 458.981L534.523 458.222C534.013 458.026 533.512 457.823 533.02 457.614L532.702 458.363ZM535.78 459.553C536.293 459.734 536.813 459.908 537.34 460.076L537.587 459.301C537.068 459.135 536.555 458.963 536.05 458.786L535.78 459.553ZM538.92 460.556C539.443 460.707 539.972 460.852 540.506 460.991L540.711 460.204C540.183 460.067 539.662 459.924 539.146 459.775L538.92 460.556ZM542.108 461.385C542.639 461.508 543.175 461.626 543.716 461.737L543.88 460.94C543.346 460.83 542.816 460.714 542.292 460.593L542.108 461.385ZM545.333 462.048C545.871 462.144 546.413 462.235 546.959 462.319L547.083 461.515C546.544 461.432 546.008 461.342 545.477 461.247L545.333 462.048ZM548.587 462.55C549.13 462.62 549.677 462.685 550.227 462.743L550.312 461.934C549.768 461.876 549.228 461.813 548.691 461.743L548.587 462.55ZM551.86 462.896C552.408 462.94 552.958 462.979 553.511 463.011L553.558 462.199C553.011 462.167 552.468 462.129 551.927 462.085L551.86 462.896ZM555.147 463.087C555.695 463.106 556.245 463.119 556.798 463.125L556.807 462.312C556.261 462.305 555.717 462.293 555.176 462.274L555.147 463.087ZM558.44 463.125C558.987 463.118 559.536 463.105 560.087 463.086L560.058 462.273C559.514 462.292 558.971 462.305 558.431 462.311L558.44 463.125ZM561.732 463.009C562.277 462.977 562.824 462.939 563.372 462.893L563.305 462.083C562.764 462.127 562.224 462.165 561.684 462.197L561.732 463.009ZM565.016 462.739C565.558 462.681 566.102 462.617 566.646 462.546L566.541 461.739C566.003 461.809 565.466 461.873 564.93 461.93L565.016 462.739ZM568.279 462.313C568.819 462.23 569.36 462.139 569.9 462.042L569.756 461.242C569.222 461.338 568.688 461.427 568.154 461.509L568.279 462.313ZM571.517 461.731C572.054 461.621 572.591 461.504 573.128 461.38L572.945 460.588C572.415 460.71 571.884 460.826 571.354 460.934L571.517 461.731ZM574.725 460.99C575.257 460.853 575.788 460.71 576.318 460.559L576.096 459.776C575.572 459.925 575.047 460.067 574.522 460.203L574.725 460.99ZM577.892 460.089C578.416 459.926 578.938 459.755 579.459 459.577L579.197 458.807C578.682 458.983 578.167 459.151 577.65 459.312L577.892 460.089ZM581.011 459.026C581.524 458.835 582.036 458.638 582.546 458.434L582.244 457.679C581.74 457.881 581.235 458.075 580.729 458.263L581.011 459.026ZM584.072 457.799C584.573 457.582 585.073 457.359 585.57 457.128L585.228 456.39C584.737 456.618 584.244 456.839 583.75 457.052L584.072 457.799ZM587.057 456.413C587.304 456.29 587.55 456.166 587.796 456.039L587.423 455.316C587.181 455.441 586.938 455.564 586.694 455.685L587.057 456.413ZM587.796 456.039C588.045 455.911 588.294 455.783 588.541 455.655L588.168 454.932C587.921 455.06 587.672 455.188 587.423 455.316L587.796 456.039ZM590.015 454.891C590.502 454.638 590.986 454.386 591.465 454.136L591.088 453.415C590.609 453.665 590.127 453.917 589.64 454.17L590.015 454.891ZM592.892 453.387C593.387 453.127 593.878 452.868 594.365 452.611L593.984 451.892C593.498 452.149 593.008 452.408 592.514 452.667L592.892 453.387ZM595.82 451.838C596.301 451.582 596.778 451.327 597.252 451.073L596.868 450.356C596.395 450.61 595.918 450.864 595.438 451.12L595.82 451.838ZM598.695 450.297C599.185 450.033 599.671 449.77 600.152 449.509L599.764 448.794C599.283 449.055 598.798 449.317 598.309 449.581L598.695 450.297ZM601.585 448.729C602.064 448.467 602.539 448.207 603.01 447.948L602.618 447.235C602.148 447.494 601.673 447.754 601.195 448.015L601.585 448.729ZM604.465 447.146C604.945 446.88 605.422 446.615 605.895 446.352L605.499 445.641C605.027 445.904 604.551 446.168 604.071 446.434L604.465 447.146ZM607.31 445.561C607.797 445.288 608.28 445.017 608.759 444.747L608.359 444.038C607.881 444.308 607.399 444.579 606.913 444.852L607.31 445.561ZM610.182 443.941C610.657 443.672 611.128 443.404 611.595 443.137L611.191 442.431C610.725 442.697 610.255 442.965 609.781 443.234L610.182 443.941ZM613.034 442.313C613.509 442.04 613.981 441.768 614.449 441.498L614.042 440.794C613.574 441.064 613.103 441.335 612.628 441.608L613.034 442.313ZM615.862 440.679C616.342 440.4 616.817 440.123 617.289 439.847L616.879 439.145C616.408 439.42 615.933 439.697 615.454 439.975L615.862 440.679ZM618.694 439.024C619.17 438.744 619.643 438.466 620.112 438.189L619.698 437.489C619.23 437.765 618.758 438.043 618.282 438.323L618.694 439.024ZM621.526 437.352C621.994 437.074 622.46 436.798 622.922 436.522L622.505 435.824C622.044 436.099 621.579 436.375 621.111 436.653L621.526 437.352ZM624.342 435.675C624.813 435.393 625.28 435.113 625.744 434.835L625.326 434.137C624.862 434.416 624.395 434.695 623.925 434.976L624.342 435.675ZM627.149 433.99C627.621 433.706 628.09 433.424 628.557 433.142L628.136 432.446C627.67 432.727 627.201 433.01 626.73 433.293L627.149 433.99ZM629.95 432.301C630.423 432.015 630.893 431.731 631.361 431.447L630.94 430.752C630.472 431.035 630.002 431.319 629.53 431.604L629.95 432.301ZM632.759 430.601C633.229 430.317 633.697 430.034 634.163 429.752L633.742 429.056C633.275 429.338 632.808 429.621 632.338 429.905L632.759 430.601ZM635.565 428.903C636.033 428.62 636.5 428.339 636.965 428.058L636.544 427.361C636.079 427.642 635.612 427.924 635.144 428.207L635.565 428.903ZM638.37 427.21C638.838 426.929 639.305 426.648 639.771 426.368L639.353 425.671C638.886 425.951 638.419 426.232 637.951 426.513L638.37 427.21ZM641.178 425.525C641.647 425.245 642.116 424.965 642.585 424.687L642.169 423.987C641.699 424.267 641.23 424.546 640.761 424.827L641.178 425.525ZM643.992 423.851C644.462 423.574 644.932 423.296 645.403 423.019L644.991 422.318C644.519 422.595 644.049 422.873 643.578 423.151L643.992 423.851ZM646.816 422.192C647.286 421.918 647.758 421.644 648.23 421.37L647.823 420.666C647.349 420.94 646.877 421.215 646.406 421.489L646.816 422.192ZM649.653 420.55C650.123 420.28 650.595 420.01 651.069 419.741L650.667 419.034C650.192 419.304 649.719 419.574 649.248 419.845L649.653 420.55ZM652.497 418.932C652.97 418.666 653.445 418.4 653.922 418.134L653.526 417.423C653.047 417.69 652.571 417.957 652.098 418.224L652.497 418.932ZM655.353 417.34C655.83 417.077 656.309 416.814 656.792 416.551L656.402 415.837C655.919 416.101 655.438 416.364 654.961 416.628L655.353 417.34ZM658.225 415.774C658.705 415.515 659.189 415.255 659.676 414.996L659.294 414.278C658.805 414.538 658.32 414.798 657.838 415.058L658.225 415.774ZM661.113 414.234C661.594 413.981 662.078 413.728 662.565 413.474L662.19 412.753C661.701 413.007 661.216 413.261 660.734 413.515L661.113 414.234ZM664.024 412.721C664.503 412.474 664.986 412.228 665.473 411.981L665.104 411.255C664.616 411.503 664.132 411.75 663.652 411.997L664.024 412.721ZM666.945 411.238C667.427 410.997 667.912 410.755 668.402 410.513L668.041 409.784C667.55 410.027 667.063 410.269 666.581 410.511L666.945 411.238ZM669.868 409.791C670.36 409.551 670.857 409.31 671.357 409.068L671.004 408.335C670.502 408.578 670.004 408.819 669.511 409.06L669.868 409.791ZM672.815 408.369C673.304 408.135 673.799 407.901 674.297 407.666L673.95 406.93C673.451 407.165 672.955 407.4 672.464 407.634L672.815 408.369ZM675.79 406.966C676.276 406.74 676.765 406.514 677.259 406.286L676.919 405.547C676.424 405.775 675.934 406.002 675.447 406.229L675.79 406.966ZM678.755 405.602C679.251 405.377 679.751 405.151 680.255 404.924L679.922 404.182C679.416 404.409 678.915 404.636 678.418 404.862L678.755 405.602ZM681.733 404.263C682.23 404.042 682.731 403.82 683.237 403.598L682.91 402.853C682.403 403.076 681.901 403.298 681.403 403.52L681.733 404.263ZM684.751 402.936C685.24 402.723 685.735 402.509 686.233 402.295L685.911 401.548C685.412 401.762 684.917 401.977 684.426 402.19L684.751 402.936ZM687.741 401.649C688.248 401.433 688.76 401.216 689.276 400.999L688.96 400.249C688.443 400.467 687.93 400.684 687.422 400.901L687.741 401.649ZM690.758 400.377C691.257 400.169 691.759 399.96 692.266 399.75L691.955 398.999C691.447 399.208 690.944 399.418 690.445 399.626L690.758 400.377ZM693.799 399.119C694.299 398.915 694.802 398.709 695.31 398.503L695.004 397.75C694.496 397.956 693.991 398.162 693.491 398.366L693.799 399.119ZM696.813 397.896C697.318 397.693 697.827 397.489 698.341 397.284L698.039 396.529C697.525 396.734 697.015 396.938 696.51 397.141L696.813 397.896ZM699.892 396.668C700.386 396.473 700.884 396.277 701.386 396.08L701.089 395.323C700.587 395.52 700.088 395.716 699.593 395.912L699.892 396.668ZM702.904 395.488C703.413 395.29 703.927 395.091 704.445 394.891L704.152 394.132C703.634 394.332 703.119 394.531 702.609 394.73L702.904 395.488ZM705.992 394.297C706.489 394.107 706.99 393.915 707.495 393.724L707.206 392.963C706.701 393.155 706.199 393.347 705.701 393.537L705.992 394.297ZM709.021 393.146C709.534 392.953 710.05 392.759 710.57 392.564L710.285 391.802C709.764 391.997 709.247 392.191 708.734 392.385L709.021 393.146ZM712.124 391.984C712.623 391.799 713.125 391.613 713.632 391.426L713.35 390.663C712.843 390.85 712.34 391.036 711.84 391.222L712.124 391.984ZM715.161 390.863C715.674 390.675 716.191 390.485 716.712 390.296L716.433 389.531C715.912 389.721 715.395 389.911 714.881 390.099L715.161 390.863ZM718.285 389.724C718.784 389.543 719.287 389.362 719.794 389.18L719.518 388.414C719.011 388.597 718.508 388.778 718.008 388.96L718.285 389.724ZM721.321 388.631C721.833 388.448 722.349 388.264 722.869 388.079L722.596 387.313C722.076 387.498 721.56 387.682 721.047 387.866L721.321 388.631ZM724.437 387.523C724.7 387.43 724.964 387.337 725.229 387.243L724.959 386.476C724.694 386.57 724.429 386.663 724.166 386.756L724.437 387.523Z" fill="#9CA3AF"/>
<g opacity="0.1" filter="url(#filter0_d_4935_33795)">
<path d="M773.182 361.388C780.743 362.831 783.907 371.919 778.877 377.746L754.481 406.004C748.716 412.683 737.756 409.166 736.953 400.38L735.825 388.036C735.683 386.483 735.18 384.984 734.356 383.66L725.457 369.367C720.849 361.966 727.257 352.625 735.82 354.259L773.182 361.388Z" fill="url(#paint0_linear_4935_33795)"/>
</g>
</g>
</g>
<defs>
<filter id="filter0_d_4935_33795" x="719.918" y="354.07" width="65.3984" height="63.4141" filterUnits="userSpaceOnUse" color-interpolation-filters="sRGB">
<feFlood flood-opacity="0" result="BackgroundImageFix"/>
<feColorMatrix in="SourceAlpha" type="matrix" values="0 0 0 0 0 0 0 0 0 0 0 0 0 0 0 0 0 0 127 0" result="hardAlpha"/>
<feOffset dy="4"/>
<feGaussianBlur stdDeviation="2"/>
<feComposite in2="hardAlpha" operator="out"/>
<feColorMatrix type="matrix" values="0 0 0 0 0 0 0 0 0 0 0 0 0 0 0 0 0 0 0.25 0"/>
<feBlend mode="normal" in2="BackgroundImageFix" result="effect1_dropShadow_4935_33795"/>
<feBlend mode="normal" in="SourceGraphic" in2="effect1_dropShadow_4935_33795" result="shape"/>
</filter>
<linearGradient id="paint0_linear_4935_33795" x1="781.357" y1="314.209" x2="752.328" y2="459.189" gradientUnits="userSpaceOnUse">
<stop stop-color="#2563EB"/>
<stop offset="1" stop-color="#35FF49"/>
</linearGradient>
<clipPath id="clip0_4935_33795">
<rect width="1440" height="653" fill="white"/>
</clipPath>
</defs>
</svg>
