<svg width="115" height="43" viewBox="0 0 115 43" fill="none" xmlns="http://www.w3.org/2000/svg">
<path d="M8.13512 24.3464L9.47735 22.1295L1.59619 16.195L4.04039 15.8816L2.9123 10.2411L8.29347 11.9421L8.96459 9.82315L11.3399 13.2843L10.7743 6.15086L12.6264 7.2895L15.6531 2.42578L18.6317 7.2895L20.645 5.89448L20.147 13.2843L22.5912 9.73977L23.2622 12.0541L28.608 10.2831L27.5221 15.7652L29.9502 16.1271L22.304 22.0239L23.6613 24.3464H8.13512Z" fill="#0D6F8E"/>
<path d="M9.27823 22.0352L15.6737 24.3544H8.0835L9.27823 22.0352Z" fill="#0C6B8A"/>
<path d="M22.3056 21.957L23.6714 24.3528H15.041L22.3056 21.957Z" fill="#0C6B8A"/>
<path d="M16.6038 23.8352L28.6085 10.2168L27.5226 15.6988L29.9507 16.0608L22.3045 21.9576L16.6038 23.8352Z" fill="url(#paint0_linear_2322_29970)"/>
<path d="M15.3853 24.2769L2.91358 10.1758L4.02556 15.7832L1.59747 16.1451L9.24368 22.0419L15.3853 24.2769Z" fill="url(#paint1_linear_2322_29970)"/>
<path d="M16.6383 23.8374L28.5605 10.2522C26.4934 10.9526 25.3345 11.3453 23.2675 12.0457L22.5921 9.6736L20.1708 13.179L15.3849 24.2761L16.6383 23.8374Z" fill="url(#paint2_linear_2322_29970)"/>
<path d="M15.6359 2.3418L15.3853 24.2769L20.1483 13.2467L20.6497 5.78874L18.6442 7.23019L15.6359 2.3418Z" fill="url(#paint3_linear_2322_29970)"/>
<path d="M15.6343 2.3418L15.3836 24.2769L11.3099 13.184L10.6205 5.78874L12.626 7.23019L15.6343 2.3418Z" fill="url(#paint4_linear_2322_29970)"/>
<path d="M2.91211 10.1739L15.3838 24.275L11.3395 13.217L8.9642 9.75586L8.29308 11.8748L2.91211 10.1739Z" fill="url(#paint5_linear_2322_29970)"/>
<rect x="7.14307" y="24.627" width="16.5173" height="4.16652" rx="2.08326" fill="#116B89"/>
<rect x="7.14282" y="29.0898" width="16.5173" height="4.16652" rx="2.08326" fill="#116B89"/>
<path d="M62.5481 24.4929C62.5481 26.1619 61.2895 27.5149 59.7369 27.5149C58.1844 27.5149 56.9258 26.1619 56.9258 24.4929C56.9258 22.8238 58.1844 21.4708 59.7369 21.4708C61.2895 21.4708 62.5481 22.8238 62.5481 24.4929Z" fill="#F5CF6C"/>
<path d="M42.7889 25.7432C42.7889 26.1442 42.5989 26.482 42.219 26.7353C41.839 26.9886 41.248 27.1152 40.4881 27.1152C39.5804 27.1152 38.7572 26.9041 37.9973 26.4398C37.2374 25.9965 36.6041 25.3843 36.1186 24.5822L33.7334 26.5664C34.2822 27.6218 35.1266 28.4873 36.3086 29.1627C37.4696 29.8382 38.8838 30.1759 40.5725 30.1759C42.1556 30.1759 43.4855 29.7327 44.562 28.8461C45.6174 27.9596 46.1662 26.8408 46.1662 25.4899C46.1662 24.6667 45.9552 23.949 45.5541 23.3368C45.1319 22.7458 44.6253 22.2814 44.0343 21.9859C43.4221 21.6904 42.7678 21.4371 42.0501 21.1838C41.3324 20.9516 40.6569 20.7616 40.0659 20.635C39.4538 20.5083 38.9472 20.3183 38.5461 20.065C38.1239 19.8328 37.934 19.5373 37.934 19.1785C37.934 18.2497 38.6728 17.7853 40.1503 17.7853C41.5435 17.7853 42.7889 18.3764 43.8654 19.5584L46.0607 17.4476C44.6886 15.6323 42.7678 14.7246 40.277 14.7246C38.5883 14.7246 37.1952 15.1679 36.1398 16.0544C35.0843 16.941 34.5566 17.9964 34.5566 19.2207C34.5566 20.065 34.7466 20.8038 35.1688 21.3949C35.5698 21.9859 36.0764 22.4292 36.6886 22.7247C37.2796 23.0202 37.9551 23.2946 38.6728 23.5268C39.3904 23.7801 40.0448 23.9701 40.6569 24.1178C41.248 24.2656 41.7546 24.4767 42.1768 24.7511C42.5778 25.0255 42.7889 25.3632 42.7889 25.7432Z" fill="white"/>
<path d="M53.2454 27.1941V29.8382H51.6589C50.5283 29.8382 49.6469 29.5647 49.0148 29.0176C48.3826 28.4584 48.0666 27.5527 48.0666 26.3006V22.2523H46.8266V19.6629H48.0666V17.1829H51.1848V19.6629H53.2271V22.2523H51.1848V26.337C51.1848 26.641 51.2577 26.8598 51.4036 26.9935C51.5495 27.1272 51.7926 27.1941 52.133 27.1941H53.2454Z" fill="white"/>
<path d="M54.0523 24.7323C54.0523 23.6868 54.2468 22.769 54.6358 21.9788C55.037 21.1886 55.578 20.5808 56.2588 20.1553C56.9395 19.7298 57.6993 19.517 58.5382 19.517C59.2554 19.517 59.8815 19.6629 60.4164 19.9547C60.9635 20.2464 61.3829 20.6294 61.6746 21.1035V19.6629H64.7929V29.8382H61.6746V28.3976C61.3707 28.8717 60.9452 29.2547 60.3982 29.5464C59.8633 29.8382 59.2372 29.9841 58.5199 29.9841C57.6933 29.9841 56.9395 29.7713 56.2588 29.3459C55.578 28.9082 55.037 28.2943 54.6358 27.5041C54.2468 26.7017 54.0523 25.7778 54.0523 24.7323ZM61.6746 24.7506C61.6746 23.9725 61.4558 23.3586 61.0182 22.9088C60.5927 22.459 60.0699 22.2341 59.4499 22.2341C58.8299 22.2341 58.3011 22.459 57.8635 22.9088C57.438 23.3464 57.2252 23.9543 57.2252 24.7323C57.2252 25.5104 57.438 26.1304 57.8635 26.5923C58.3011 27.0421 58.8299 27.267 59.4499 27.267C60.0699 27.267 60.5927 27.0421 61.0182 26.5923C61.4558 26.1425 61.6746 25.5286 61.6746 24.7506Z" fill="white"/>
<path d="M66.1188 24.7506C66.1188 23.6929 66.3315 22.769 66.757 21.9788C67.1947 21.1886 67.7964 20.5808 68.5623 20.1553C69.3404 19.7298 70.2278 19.517 71.2247 19.517C72.5011 19.517 73.5649 19.8513 74.4158 20.52C75.279 21.1886 75.8443 22.1308 76.1117 23.3464H72.7929C72.5133 22.5684 71.9723 22.1794 71.17 22.1794C70.5986 22.1794 70.1427 22.4043 69.8023 22.8541C69.4619 23.2917 69.2917 23.9239 69.2917 24.7506C69.2917 25.5772 69.4619 26.2155 69.8023 26.6653C70.1427 27.1029 70.5986 27.3217 71.17 27.3217C71.9723 27.3217 72.5133 26.9327 72.7929 26.1547H76.1117C75.8443 27.3461 75.279 28.2821 74.4158 28.9629C73.5527 29.6437 72.489 29.9841 71.2247 29.9841C70.2278 29.9841 69.3404 29.7713 68.5623 29.3459C67.7964 28.9204 67.1947 28.3125 66.757 27.5223C66.3315 26.7321 66.1188 25.8082 66.1188 24.7506Z" fill="white"/>
<path d="M83.6879 29.8382L80.5879 25.5711V29.8382H77.4697V16.3441H80.5879V23.8023L83.6697 19.6629H87.5173L83.2867 24.7688L87.5538 29.8382H83.6879Z" fill="white"/>
<path d="M90.0003 18.6053C89.4533 18.6053 89.0035 18.4472 88.6509 18.1311C88.3105 17.8029 88.1403 17.4017 88.1403 16.9276C88.1403 16.4413 88.3105 16.0402 88.6509 15.7241C89.0035 15.3959 89.4533 15.2317 90.0003 15.2317C90.5352 15.2317 90.9729 15.3959 91.3133 15.7241C91.6658 16.0402 91.8421 16.4413 91.8421 16.9276C91.8421 17.4017 91.6658 17.8029 91.3133 18.1311C90.9729 18.4472 90.5352 18.6053 90.0003 18.6053ZM91.5503 19.6629V29.8382H88.4321V19.6629H91.5503Z" fill="white"/>
<path d="M98.0771 26.9206L100.284 19.6629H103.602L99.9918 29.8382H96.1442L92.5336 19.6629H95.8707L98.0771 26.9206Z" fill="white"/>
<path d="M114.999 19.6629L108.617 34.6706H105.261L107.596 29.4917L103.456 19.6629H106.939L109.291 26.027L111.626 19.6629H114.999Z" fill="white"/>
<defs>
<linearGradient id="paint0_linear_2322_29970" x1="25.9761" y1="12.9324" x2="17.1393" y2="23.8373" gradientUnits="userSpaceOnUse">
<stop stop-color="#1281A8"/>
<stop offset="1" stop-color="#053E51"/>
</linearGradient>
<linearGradient id="paint1_linear_2322_29970" x1="2.03617" y1="10.8652" x2="16.5519" y2="22.7768" gradientUnits="userSpaceOnUse">
<stop stop-color="#F7D06D"/>
<stop offset="0.0001" stop-color="#DEC366"/>
<stop offset="0.634242" stop-color="#58936A"/>
<stop offset="1" stop-color="#2C7864"/>
</linearGradient>
<linearGradient id="paint2_linear_2322_29970" x1="28.6513" y1="10.6198" x2="16.5568" y2="23.404" gradientUnits="userSpaceOnUse">
<stop offset="0.160542" stop-color="#1588B0"/>
<stop offset="1" stop-color="#08495D"/>
</linearGradient>
<linearGradient id="paint3_linear_2322_29970" x1="15.3853" y1="2.27913" x2="15.3853" y2="24.2142" gradientUnits="userSpaceOnUse">
<stop offset="0.0885417" stop-color="#4ABB99"/>
<stop offset="0.53125" stop-color="#00ACA9"/>
<stop offset="1" stop-color="#166072"/>
</linearGradient>
<linearGradient id="paint4_linear_2322_29970" x1="13.1274" y1="5.78874" x2="14.8822" y2="23.1488" gradientUnits="userSpaceOnUse">
<stop stop-color="#47C0A1"/>
<stop offset="0.5" stop-color="#038D8A"/>
<stop offset="1" stop-color="#0A5F74"/>
</linearGradient>
<linearGradient id="paint5_linear_2322_29970" x1="7.17379" y1="10.2992" x2="14.7571" y2="24.2123" gradientUnits="userSpaceOnUse">
<stop stop-color="#F7D06D"/>
<stop offset="0.489583" stop-color="#96CC7D"/>
<stop offset="1" stop-color="#66BD87"/>
</linearGradient>
</defs>
</svg>
